<svg xmlns="http://www.w3.org/2000/svg" viewBox="0 0 1080 1080"><defs><style>.cls-1{fill:#2c2c2c;}.cls-2{fill:#a2a2a2;}.cls-3{fill:#e2e2e2;}.cls-4{fill:#f2f2f2;}</style></defs><g id="Capa_2" data-name="Capa 2"><g id="text_box" data-name="text box"><rect class="cls-1" x="1069.31" y="994.46" width="10.69" height="10.69"/><rect class="cls-1" x="1069.31" y="983.76" width="10.69" height="10.7"/><rect class="cls-1" x="1069.31" y="973.07" width="10.69" height="10.69"/><rect class="cls-1" x="1069.31" y="962.38" width="10.69" height="10.69"/><rect class="cls-1" x="1069.31" y="951.68" width="10.69" height="10.7"/><rect class="cls-1" x="1069.31" y="940.99" width="10.69" height="10.69"/><rect class="cls-1" x="1069.31" y="930.3" width="10.69" height="10.69"/><rect class="cls-1" x="1069.31" y="919.6" width="10.69" height="10.7"/><rect class="cls-1" x="1069.31" y="908.91" width="10.69" height="10.69"/><rect class="cls-1" x="1069.31" y="898.22" width="10.69" height="10.69"/><rect class="cls-1" x="1069.31" y="887.52" width="10.69" height="10.7"/><rect class="cls-1" x="1069.31" y="876.83" width="10.69" height="10.69"/><rect class="cls-1" x="1069.31" y="866.14" width="10.69" height="10.69"/><rect class="cls-1" x="1069.31" y="855.45" width="10.69" height="10.69"/><rect class="cls-1" x="1069.31" y="844.75" width="10.69" height="10.7"/><rect class="cls-1" x="1069.31" y="834.06" width="10.69" height="10.69"/><rect class="cls-1" x="1069.31" y="823.37" width="10.69" height="10.69"/><rect class="cls-1" x="1069.31" y="812.67" width="10.69" height="10.7"/><rect class="cls-1" x="1069.31" y="801.98" width="10.69" height="10.69"/><rect class="cls-1" x="1069.31" y="791.29" width="10.69" height="10.69"/><rect class="cls-1" x="1069.31" y="780.59" width="10.69" height="10.7"/><rect class="cls-1" x="1069.31" y="769.9" width="10.69" height="10.69"/><rect class="cls-1" x="1069.31" y="759.21" width="10.69" height="10.69"/><rect class="cls-1" x="1069.31" y="748.51" width="10.69" height="10.7"/><rect class="cls-1" x="1069.31" y="737.82" width="10.69" height="10.69"/><rect class="cls-1" x="1069.31" y="727.13" width="10.69" height="10.69"/><rect class="cls-1" x="1069.31" y="716.44" width="10.69" height="10.69"/><rect class="cls-1" x="1069.31" y="705.74" width="10.69" height="10.7"/><rect class="cls-1" x="1069.31" y="695.05" width="10.69" height="10.69"/><rect class="cls-1" x="1069.31" y="684.36" width="10.69" height="10.69"/><rect class="cls-1" x="1069.31" y="673.66" width="10.69" height="10.7"/><rect class="cls-1" x="1069.31" y="662.97" width="10.69" height="10.69"/><rect class="cls-1" x="1069.31" y="652.28" width="10.69" height="10.69"/><rect class="cls-1" x="1069.31" y="641.58" width="10.69" height="10.7"/><rect class="cls-1" x="1069.31" y="630.89" width="10.69" height="10.69"/><rect class="cls-1" x="1069.31" y="620.2" width="10.69" height="10.69"/><rect class="cls-1" x="1069.31" y="609.5" width="10.69" height="10.7"/><rect class="cls-1" x="1069.31" y="598.81" width="10.69" height="10.69"/><rect class="cls-1" x="1069.31" y="588.12" width="10.69" height="10.69"/><rect class="cls-1" x="1069.31" y="577.43" width="10.69" height="10.69"/><rect class="cls-1" x="1069.31" y="566.73" width="10.69" height="10.7"/><rect class="cls-1" x="1069.31" y="556.04" width="10.69" height="10.69"/><rect class="cls-1" x="1069.31" y="545.35" width="10.69" height="10.69"/><rect class="cls-1" x="1069.31" y="534.65" width="10.69" height="10.7"/><rect class="cls-1" x="1069.31" y="523.96" width="10.69" height="10.69"/><rect class="cls-1" x="1069.31" y="513.27" width="10.69" height="10.69"/><rect class="cls-1" x="1069.31" y="502.57" width="10.69" height="10.7"/><rect class="cls-1" x="1069.31" y="491.88" width="10.69" height="10.69"/><rect class="cls-1" x="1069.31" y="481.19" width="10.69" height="10.69"/><rect class="cls-1" x="1069.31" y="470.5" width="10.69" height="10.69"/><rect class="cls-1" x="1069.31" y="459.8" width="10.69" height="10.7"/><rect class="cls-1" x="1069.31" y="449.11" width="10.69" height="10.69"/><rect class="cls-1" x="1069.31" y="438.42" width="10.69" height="10.69"/><rect class="cls-1" x="1069.31" y="427.72" width="10.69" height="10.7"/><rect class="cls-1" x="1069.31" y="417.03" width="10.69" height="10.69"/><rect class="cls-1" x="1069.31" y="406.34" width="10.69" height="10.69"/><rect class="cls-1" x="1069.31" y="395.64" width="10.69" height="10.7"/><rect class="cls-1" x="1069.31" y="384.95" width="10.69" height="10.69"/><rect class="cls-1" x="1069.31" y="374.26" width="10.69" height="10.69"/><rect class="cls-1" x="1069.31" y="363.56" width="10.69" height="10.7"/><rect class="cls-1" x="1069.31" y="352.87" width="10.69" height="10.69"/><rect class="cls-1" x="1069.31" y="342.18" width="10.69" height="10.69"/><rect class="cls-1" x="1069.31" y="331.49" width="10.69" height="10.69"/><rect class="cls-1" x="1069.31" y="320.79" width="10.69" height="10.7"/><rect class="cls-1" x="1069.31" y="310.1" width="10.69" height="10.69"/><rect class="cls-1" x="1069.31" y="299.41" width="10.69" height="10.69"/><rect class="cls-1" x="1069.31" y="288.71" width="10.69" height="10.7"/><rect class="cls-1" x="1069.31" y="278.02" width="10.69" height="10.69"/><rect class="cls-1" x="1069.31" y="267.33" width="10.69" height="10.69"/><rect class="cls-1" x="1069.31" y="256.63" width="10.69" height="10.7"/><rect class="cls-1" x="1069.31" y="245.94" width="10.69" height="10.69"/><rect class="cls-1" x="1069.31" y="235.25" width="10.69" height="10.69"/><rect class="cls-1" x="1069.31" y="224.55" width="10.69" height="10.7"/><rect class="cls-1" x="1069.31" y="213.86" width="10.69" height="10.69"/><rect class="cls-1" x="1069.31" y="203.17" width="10.69" height="10.69"/><rect class="cls-1" x="1069.31" y="192.48" width="10.69" height="10.69"/><rect class="cls-1" x="1069.31" y="181.78" width="10.69" height="10.7"/><rect class="cls-1" x="1069.31" y="171.09" width="10.69" height="10.69"/><rect class="cls-1" x="1069.31" y="160.4" width="10.69" height="10.69"/><rect class="cls-1" x="1069.31" y="149.7" width="10.69" height="10.7"/><rect class="cls-1" x="1069.31" y="139.01" width="10.69" height="10.69"/><rect class="cls-1" x="1069.31" y="128.32" width="10.69" height="10.69"/><rect class="cls-1" x="1069.31" y="117.62" width="10.69" height="10.7"/><rect class="cls-1" x="1069.31" y="106.93" width="10.69" height="10.69"/><rect class="cls-1" x="1069.31" y="96.24" width="10.69" height="10.69"/><rect class="cls-1" x="1069.31" y="85.54" width="10.69" height="10.7"/><rect class="cls-1" x="1069.31" y="74.85" width="10.69" height="10.69"/><rect class="cls-1" x="1058.61" y="1026.53" width="10.7" height="10.7"/><rect class="cls-1" x="1058.61" y="1015.84" width="10.7" height="10.69"/><rect class="cls-1" x="1058.61" y="1005.15" width="10.7" height="10.69"/><rect class="cls-1" x="1058.61" y="64.16" width="10.7" height="10.69"/><rect class="cls-1" x="1058.61" y="53.47" width="10.7" height="10.69"/><rect class="cls-1" x="1047.92" y="1058.61" width="10.69" height="10.7"/><rect class="cls-1" x="1047.92" y="1047.92" width="10.69" height="10.69"/><rect class="cls-1" x="1047.92" y="1037.23" width="10.69" height="10.69"/><rect class="cls-2" x="1047.92" y="1026.53" width="10.69" height="10.7"/><rect class="cls-2" x="1047.92" y="1015.84" width="10.69" height="10.69"/><rect class="cls-3" x="1047.92" y="1005.15" width="10.69" height="10.69"/><rect class="cls-1" x="1047.92" y="42.77" width="10.69" height="10.7"/><rect class="cls-1" x="1047.92" y="32.08" width="10.69" height="10.69"/><rect class="cls-1" x="1037.23" y="1058.61" width="10.69" height="10.7"/><rect class="cls-2" x="1037.23" y="1047.92" width="10.69" height="10.69"/><rect class="cls-2" x="1037.23" y="1037.23" width="10.69" height="10.69"/><rect class="cls-2" x="1037.23" y="1026.53" width="10.69" height="10.7"/><rect class="cls-3" x="1037.23" y="1015.84" width="10.69" height="10.69"/><rect class="cls-3" x="1037.23" y="1005.15" width="10.69" height="10.69"/><rect class="cls-1" x="1037.23" y="21.39" width="10.69" height="10.69"/><rect class="cls-1" x="1037.23" y="10.69" width="10.69" height="10.7"/><rect class="cls-1" x="1026.53" y="1069.31" width="10.7" height="10.69"/><rect class="cls-1" x="1026.53" y="1058.61" width="10.7" height="10.7"/><rect class="cls-2" x="1026.53" y="1047.92" width="10.7" height="10.69"/><rect class="cls-3" x="1026.53" y="1037.23" width="10.7" height="10.69"/><rect class="cls-3" x="1026.53" y="1026.53" width="10.7" height="10.7"/><rect class="cls-3" x="1026.53" y="1015.84" width="10.7" height="10.69"/><rect class="cls-1" x="1026.53" width="10.7" height="10.69"/><rect class="cls-1" x="1015.84" y="1069.31" width="10.69" height="10.69"/><rect class="cls-1" x="1015.84" y="1058.61" width="10.69" height="10.7"/><rect class="cls-2" x="1015.84" y="1047.92" width="10.69" height="10.69"/><rect class="cls-3" x="1015.84" y="1037.23" width="10.69" height="10.69"/><rect class="cls-3" x="1015.84" y="1026.53" width="10.69" height="10.7"/><rect class="cls-1" x="1015.84" width="10.69" height="10.69"/><rect class="cls-1" x="1005.15" y="1069.31" width="10.69" height="10.69"/><rect class="cls-1" x="1005.15" y="1058.61" width="10.69" height="10.7"/><rect class="cls-2" x="1005.15" y="1047.92" width="10.69" height="10.69"/><rect class="cls-3" x="1005.15" y="1037.23" width="10.69" height="10.69"/><rect class="cls-3" x="1005.15" y="1026.53" width="10.69" height="10.7"/><rect class="cls-1" x="1005.15" width="10.69" height="10.69"/><rect class="cls-1" x="994.46" y="1069.31" width="10.69" height="10.69"/><rect class="cls-1" x="994.46" y="1058.61" width="10.69" height="10.7"/><rect class="cls-2" x="994.46" y="1047.92" width="10.69" height="10.69"/><rect class="cls-3" x="994.46" y="1037.23" width="10.69" height="10.69"/><rect class="cls-3" x="994.46" y="1026.53" width="10.69" height="10.7"/><rect class="cls-1" x="994.46" width="10.69" height="10.69"/><rect class="cls-1" x="983.76" y="1069.31" width="10.7" height="10.69"/><rect class="cls-1" x="983.76" y="1058.61" width="10.7" height="10.7"/><rect class="cls-2" x="983.76" y="1047.92" width="10.7" height="10.69"/><rect class="cls-3" x="983.76" y="1037.23" width="10.7" height="10.69"/><rect class="cls-3" x="983.76" y="1026.53" width="10.7" height="10.7"/><rect class="cls-1" x="983.76" width="10.7" height="10.69"/><rect class="cls-1" x="973.07" y="1069.31" width="10.69" height="10.69"/><rect class="cls-1" x="973.07" y="1058.61" width="10.69" height="10.7"/><rect class="cls-2" x="973.07" y="1047.92" width="10.69" height="10.69"/><rect class="cls-3" x="973.07" y="1037.23" width="10.69" height="10.69"/><rect class="cls-3" x="973.07" y="1026.53" width="10.69" height="10.7"/><rect class="cls-1" x="973.07" width="10.69" height="10.69"/><rect class="cls-1" x="962.38" y="1069.31" width="10.69" height="10.69"/><rect class="cls-1" x="962.38" y="1058.61" width="10.69" height="10.7"/><rect class="cls-2" x="962.38" y="1047.92" width="10.69" height="10.69"/><rect class="cls-3" x="962.38" y="1037.23" width="10.69" height="10.69"/><rect class="cls-3" x="962.38" y="1026.53" width="10.69" height="10.7"/><rect class="cls-1" x="962.38" width="10.69" height="10.69"/><rect class="cls-1" x="951.68" y="1069.31" width="10.7" height="10.69"/><rect class="cls-1" x="951.68" y="1058.61" width="10.7" height="10.7"/><rect class="cls-2" x="951.68" y="1047.92" width="10.7" height="10.69"/><rect class="cls-3" x="951.68" y="1037.23" width="10.7" height="10.69"/><rect class="cls-3" x="951.68" y="1026.53" width="10.7" height="10.7"/><rect class="cls-1" x="951.68" width="10.7" height="10.69"/><rect class="cls-1" x="940.99" y="1069.31" width="10.69" height="10.69"/><rect class="cls-1" x="940.99" y="1058.61" width="10.69" height="10.7"/><rect class="cls-2" x="940.99" y="1047.92" width="10.69" height="10.69"/><rect class="cls-3" x="940.99" y="1037.23" width="10.69" height="10.69"/><rect class="cls-3" x="940.99" y="1026.53" width="10.69" height="10.7"/><rect class="cls-1" x="940.99" width="10.69" height="10.69"/><rect class="cls-1" x="930.3" y="1069.31" width="10.69" height="10.69"/><rect class="cls-1" x="930.3" y="1058.61" width="10.69" height="10.7"/><rect class="cls-2" x="930.3" y="1047.92" width="10.69" height="10.69"/><rect class="cls-3" x="930.3" y="1037.23" width="10.69" height="10.69"/><rect class="cls-3" x="930.3" y="1026.53" width="10.69" height="10.7"/><rect class="cls-1" x="930.3" width="10.69" height="10.69"/><rect class="cls-1" x="919.6" y="1069.31" width="10.7" height="10.69"/><rect class="cls-1" x="919.6" y="1058.61" width="10.7" height="10.7"/><rect class="cls-2" x="919.6" y="1047.92" width="10.7" height="10.69"/><rect class="cls-3" x="919.6" y="1037.23" width="10.7" height="10.69"/><rect class="cls-3" x="919.6" y="1026.53" width="10.7" height="10.7"/><rect class="cls-1" x="919.6" width="10.7" height="10.69"/><rect class="cls-1" x="908.91" y="1069.31" width="10.69" height="10.69"/><rect class="cls-1" x="908.91" y="1058.61" width="10.69" height="10.7"/><rect class="cls-2" x="908.91" y="1047.92" width="10.69" height="10.69"/><rect class="cls-3" x="908.91" y="1037.23" width="10.69" height="10.69"/><rect class="cls-3" x="908.91" y="1026.53" width="10.69" height="10.7"/><rect class="cls-1" x="908.91" width="10.69" height="10.69"/><rect class="cls-1" x="898.22" y="1069.31" width="10.69" height="10.69"/><rect class="cls-1" x="898.22" y="1058.61" width="10.69" height="10.7"/><rect class="cls-2" x="898.22" y="1047.92" width="10.69" height="10.69"/><rect class="cls-3" x="898.22" y="1037.23" width="10.69" height="10.69"/><rect class="cls-3" x="898.22" y="1026.53" width="10.69" height="10.7"/><rect class="cls-1" x="898.22" width="10.69" height="10.69"/><rect class="cls-1" x="887.52" y="1069.31" width="10.7" height="10.69"/><rect class="cls-1" x="887.52" y="1058.61" width="10.7" height="10.7"/><rect class="cls-2" x="887.52" y="1047.92" width="10.7" height="10.69"/><rect class="cls-3" x="887.52" y="1037.23" width="10.7" height="10.69"/><rect class="cls-3" x="887.52" y="1026.53" width="10.7" height="10.7"/><rect class="cls-1" x="887.52" width="10.7" height="10.69"/><rect class="cls-1" x="876.83" y="1069.31" width="10.69" height="10.69"/><rect class="cls-1" x="876.83" y="1058.61" width="10.69" height="10.7"/><rect class="cls-2" x="876.83" y="1047.92" width="10.69" height="10.69"/><rect class="cls-3" x="876.83" y="1037.23" width="10.69" height="10.69"/><rect class="cls-3" x="876.83" y="1026.53" width="10.69" height="10.7"/><rect class="cls-1" x="876.83" width="10.69" height="10.69"/><rect class="cls-1" x="866.14" y="1069.31" width="10.69" height="10.69"/><rect class="cls-1" x="866.14" y="1058.61" width="10.69" height="10.7"/><rect class="cls-2" x="866.14" y="1047.92" width="10.69" height="10.69"/><rect class="cls-3" x="866.14" y="1037.23" width="10.69" height="10.69"/><rect class="cls-3" x="866.14" y="1026.53" width="10.69" height="10.7"/><rect class="cls-1" x="866.14" width="10.69" height="10.69"/><rect class="cls-1" x="855.45" y="1069.31" width="10.69" height="10.69"/><rect class="cls-1" x="855.45" y="1058.61" width="10.69" height="10.7"/><rect class="cls-2" x="855.45" y="1047.92" width="10.69" height="10.69"/><rect class="cls-3" x="855.45" y="1037.23" width="10.69" height="10.69"/><rect class="cls-3" x="855.45" y="1026.53" width="10.69" height="10.7"/><rect class="cls-1" x="855.45" width="10.69" height="10.69"/><rect class="cls-1" x="844.75" y="1069.31" width="10.7" height="10.69"/><rect class="cls-1" x="844.75" y="1058.61" width="10.7" height="10.7"/><rect class="cls-2" x="844.75" y="1047.92" width="10.7" height="10.69"/><rect class="cls-3" x="844.75" y="1037.23" width="10.7" height="10.69"/><rect class="cls-3" x="844.75" y="1026.53" width="10.7" height="10.7"/><rect class="cls-1" x="844.75" width="10.7" height="10.69"/><rect class="cls-1" x="834.06" y="1069.31" width="10.69" height="10.69"/><rect class="cls-1" x="834.06" y="1058.61" width="10.69" height="10.7"/><rect class="cls-2" x="834.06" y="1047.92" width="10.69" height="10.69"/><rect class="cls-3" x="834.06" y="1037.23" width="10.69" height="10.69"/><rect class="cls-3" x="834.06" y="1026.53" width="10.69" height="10.7"/><rect class="cls-1" x="834.06" width="10.69" height="10.69"/><rect class="cls-1" x="823.37" y="1069.31" width="10.69" height="10.69"/><rect class="cls-1" x="823.37" y="1058.61" width="10.69" height="10.7"/><rect class="cls-2" x="823.37" y="1047.92" width="10.69" height="10.69"/><rect class="cls-3" x="823.37" y="1037.23" width="10.69" height="10.69"/><rect class="cls-3" x="823.37" y="1026.53" width="10.69" height="10.7"/><rect class="cls-1" x="823.37" width="10.69" height="10.69"/><rect class="cls-1" x="812.67" y="1069.31" width="10.7" height="10.69"/><rect class="cls-1" x="812.67" y="1058.61" width="10.7" height="10.7"/><rect class="cls-2" x="812.67" y="1047.92" width="10.7" height="10.69"/><rect class="cls-3" x="812.67" y="1037.23" width="10.7" height="10.69"/><rect class="cls-3" x="812.67" y="1026.53" width="10.7" height="10.7"/><rect class="cls-1" x="812.67" width="10.7" height="10.69"/><rect class="cls-1" x="801.98" y="1069.31" width="10.69" height="10.69"/><rect class="cls-1" x="801.98" y="1058.61" width="10.69" height="10.7"/><rect class="cls-2" x="801.98" y="1047.92" width="10.69" height="10.69"/><rect class="cls-3" x="801.98" y="1037.23" width="10.69" height="10.69"/><rect class="cls-3" x="801.98" y="1026.53" width="10.69" height="10.7"/><rect class="cls-1" x="801.98" width="10.69" height="10.69"/><rect class="cls-1" x="791.29" y="1069.31" width="10.69" height="10.69"/><rect class="cls-1" x="791.29" y="1058.61" width="10.69" height="10.7"/><rect class="cls-2" x="791.29" y="1047.92" width="10.69" height="10.69"/><rect class="cls-3" x="791.29" y="1037.23" width="10.69" height="10.69"/><rect class="cls-3" x="791.29" y="1026.53" width="10.69" height="10.7"/><rect class="cls-1" x="791.29" width="10.69" height="10.69"/><rect class="cls-1" x="780.59" y="1069.31" width="10.7" height="10.69"/><rect class="cls-1" x="780.59" y="1058.61" width="10.7" height="10.7"/><rect class="cls-2" x="780.59" y="1047.92" width="10.7" height="10.69"/><rect class="cls-3" x="780.59" y="1037.23" width="10.7" height="10.69"/><rect class="cls-3" x="780.59" y="1026.53" width="10.7" height="10.7"/><rect class="cls-1" x="780.59" width="10.7" height="10.69"/><rect class="cls-1" x="769.9" y="1069.31" width="10.69" height="10.69"/><rect class="cls-1" x="769.9" y="1058.61" width="10.69" height="10.7"/><rect class="cls-2" x="769.9" y="1047.92" width="10.69" height="10.69"/><rect class="cls-3" x="769.9" y="1037.23" width="10.69" height="10.69"/><rect class="cls-3" x="769.9" y="1026.53" width="10.69" height="10.7"/><rect class="cls-1" x="769.9" width="10.69" height="10.69"/><rect class="cls-1" x="759.21" y="1069.31" width="10.69" height="10.69"/><rect class="cls-1" x="759.21" y="1058.61" width="10.69" height="10.7"/><rect class="cls-2" x="759.21" y="1047.92" width="10.69" height="10.69"/><rect class="cls-3" x="759.21" y="1037.23" width="10.69" height="10.69"/><rect class="cls-3" x="759.21" y="1026.53" width="10.69" height="10.7"/><rect class="cls-1" x="759.21" width="10.69" height="10.69"/><rect class="cls-1" x="748.51" y="1069.31" width="10.7" height="10.69"/><rect class="cls-1" x="748.51" y="1058.61" width="10.7" height="10.7"/><rect class="cls-2" x="748.51" y="1047.92" width="10.7" height="10.69"/><rect class="cls-3" x="748.51" y="1037.23" width="10.7" height="10.69"/><rect class="cls-3" x="748.51" y="1026.53" width="10.7" height="10.7"/><rect class="cls-1" x="748.51" width="10.7" height="10.69"/><rect class="cls-1" x="737.82" y="1069.31" width="10.69" height="10.69"/><rect class="cls-1" x="737.82" y="1058.61" width="10.69" height="10.7"/><rect class="cls-2" x="737.82" y="1047.92" width="10.69" height="10.69"/><rect class="cls-3" x="737.82" y="1037.23" width="10.69" height="10.69"/><rect class="cls-3" x="737.82" y="1026.53" width="10.69" height="10.7"/><rect class="cls-1" x="737.82" width="10.69" height="10.69"/><rect class="cls-1" x="727.13" y="1069.31" width="10.69" height="10.69"/><rect class="cls-1" x="727.13" y="1058.61" width="10.69" height="10.7"/><rect class="cls-2" x="727.13" y="1047.92" width="10.69" height="10.69"/><rect class="cls-3" x="727.13" y="1037.23" width="10.69" height="10.69"/><rect class="cls-3" x="727.13" y="1026.53" width="10.69" height="10.7"/><rect class="cls-1" x="727.13" width="10.69" height="10.69"/><rect class="cls-1" x="716.44" y="1069.31" width="10.69" height="10.69"/><rect class="cls-1" x="716.44" y="1058.61" width="10.69" height="10.7"/><rect class="cls-2" x="716.44" y="1047.92" width="10.69" height="10.69"/><rect class="cls-3" x="716.44" y="1037.23" width="10.69" height="10.69"/><rect class="cls-3" x="716.44" y="1026.53" width="10.69" height="10.7"/><rect class="cls-1" x="716.44" width="10.69" height="10.69"/><rect class="cls-1" x="705.74" y="1069.31" width="10.7" height="10.69"/><rect class="cls-1" x="705.74" y="1058.61" width="10.7" height="10.7"/><rect class="cls-2" x="705.74" y="1047.92" width="10.7" height="10.69"/><rect class="cls-3" x="705.74" y="1037.23" width="10.7" height="10.69"/><rect class="cls-3" x="705.74" y="1026.53" width="10.7" height="10.7"/><rect class="cls-1" x="705.74" width="10.7" height="10.69"/><rect class="cls-1" x="695.05" y="1069.31" width="10.69" height="10.69"/><rect class="cls-1" x="695.05" y="1058.61" width="10.69" height="10.7"/><rect class="cls-2" x="695.05" y="1047.92" width="10.69" height="10.69"/><rect class="cls-3" x="695.05" y="1037.23" width="10.69" height="10.69"/><rect class="cls-3" x="695.05" y="1026.53" width="10.69" height="10.7"/><rect class="cls-1" x="695.05" width="10.69" height="10.69"/><rect class="cls-1" x="684.36" y="1069.31" width="10.69" height="10.69"/><rect class="cls-1" x="684.36" y="1058.61" width="10.69" height="10.7"/><rect class="cls-2" x="684.36" y="1047.92" width="10.69" height="10.69"/><rect class="cls-3" x="684.36" y="1037.23" width="10.69" height="10.69"/><rect class="cls-3" x="684.36" y="1026.53" width="10.69" height="10.7"/><rect class="cls-1" x="684.36" width="10.69" height="10.69"/><rect class="cls-1" x="673.66" y="1069.31" width="10.7" height="10.69"/><rect class="cls-1" x="673.66" y="1058.61" width="10.7" height="10.7"/><rect class="cls-2" x="673.66" y="1047.92" width="10.7" height="10.69"/><rect class="cls-3" x="673.66" y="1037.23" width="10.7" height="10.69"/><rect class="cls-3" x="673.66" y="1026.53" width="10.7" height="10.7"/><rect class="cls-1" x="673.66" width="10.7" height="10.69"/><rect class="cls-1" x="662.97" y="1069.31" width="10.69" height="10.69"/><rect class="cls-1" x="662.97" y="1058.61" width="10.69" height="10.7"/><rect class="cls-2" x="662.97" y="1047.92" width="10.69" height="10.69"/><rect class="cls-3" x="662.97" y="1037.23" width="10.69" height="10.69"/><rect class="cls-3" x="662.97" y="1026.53" width="10.69" height="10.7"/><rect class="cls-1" x="662.97" width="10.69" height="10.69"/><rect class="cls-1" x="652.28" y="1069.31" width="10.69" height="10.69"/><rect class="cls-1" x="652.28" y="1058.61" width="10.69" height="10.7"/><rect class="cls-2" x="652.28" y="1047.92" width="10.69" height="10.69"/><rect class="cls-3" x="652.28" y="1037.23" width="10.69" height="10.69"/><rect class="cls-3" x="652.28" y="1026.53" width="10.69" height="10.7"/><rect class="cls-1" x="652.28" width="10.69" height="10.69"/><rect class="cls-1" x="641.58" y="1069.31" width="10.7" height="10.69"/><rect class="cls-1" x="641.58" y="1058.61" width="10.7" height="10.7"/><rect class="cls-2" x="641.58" y="1047.92" width="10.7" height="10.69"/><rect class="cls-3" x="641.58" y="1037.23" width="10.7" height="10.69"/><rect class="cls-3" x="641.58" y="1026.53" width="10.7" height="10.7"/><rect class="cls-1" x="641.58" width="10.7" height="10.69"/><rect class="cls-1" x="630.89" y="1069.31" width="10.69" height="10.69"/><rect class="cls-1" x="630.89" y="1058.61" width="10.69" height="10.7"/><rect class="cls-2" x="630.89" y="1047.92" width="10.69" height="10.69"/><rect class="cls-3" x="630.89" y="1037.23" width="10.69" height="10.69"/><rect class="cls-3" x="630.89" y="1026.53" width="10.69" height="10.7"/><rect class="cls-1" x="630.89" width="10.69" height="10.69"/><rect class="cls-1" x="620.2" y="1069.31" width="10.69" height="10.69"/><rect class="cls-1" x="620.2" y="1058.61" width="10.69" height="10.7"/><rect class="cls-2" x="620.2" y="1047.92" width="10.69" height="10.69"/><rect class="cls-3" x="620.2" y="1037.23" width="10.69" height="10.69"/><rect class="cls-3" x="620.2" y="1026.53" width="10.69" height="10.7"/><rect class="cls-1" x="620.2" width="10.69" height="10.69"/><rect class="cls-1" x="609.5" width="10.7" height="10.69"/><rect class="cls-3" x="609.5" y="1026.53" width="10.7" height="10.7"/><rect class="cls-3" x="609.5" y="1037.23" width="10.7" height="10.69"/><rect class="cls-2" x="609.5" y="1047.92" width="10.7" height="10.69"/><rect class="cls-1" x="609.5" y="1058.61" width="10.7" height="10.7"/><rect class="cls-1" x="609.5" y="1069.31" width="10.7" height="10.69"/><rect class="cls-1" x="598.81" width="10.69" height="10.69"/><rect class="cls-3" x="598.81" y="1026.53" width="10.69" height="10.7"/><rect class="cls-3" x="598.81" y="1037.23" width="10.69" height="10.69"/><rect class="cls-2" x="598.81" y="1047.92" width="10.69" height="10.69"/><rect class="cls-1" x="598.81" y="1058.61" width="10.69" height="10.7"/><rect class="cls-1" x="598.81" y="1069.31" width="10.69" height="10.69"/><rect class="cls-1" x="588.12" y="1069.31" width="10.69" height="10.69"/><rect class="cls-1" x="588.12" y="1058.61" width="10.69" height="10.7"/><rect class="cls-2" x="588.12" y="1047.92" width="10.69" height="10.69"/><rect class="cls-3" x="588.12" y="1037.23" width="10.69" height="10.69"/><rect class="cls-3" x="588.12" y="1026.53" width="10.69" height="10.7"/><rect class="cls-1" x="588.12" width="10.69" height="10.69"/><rect class="cls-1" x="577.43" y="1069.31" width="10.69" height="10.69"/><rect class="cls-1" x="577.43" y="1058.61" width="10.69" height="10.7"/><rect class="cls-2" x="577.43" y="1047.92" width="10.69" height="10.69"/><rect class="cls-3" x="577.43" y="1037.23" width="10.69" height="10.69"/><rect class="cls-3" x="577.43" y="1026.53" width="10.69" height="10.7"/><rect class="cls-1" x="577.43" width="10.69" height="10.69"/><rect class="cls-1" x="566.73" y="1069.31" width="10.7" height="10.69"/><rect class="cls-1" x="566.73" y="1058.61" width="10.7" height="10.7"/><rect class="cls-2" x="566.73" y="1047.92" width="10.7" height="10.69"/><rect class="cls-3" x="566.73" y="1037.23" width="10.7" height="10.69"/><rect class="cls-3" x="566.73" y="1026.53" width="10.7" height="10.7"/><rect class="cls-1" x="566.73" width="10.7" height="10.69"/><rect class="cls-1" x="556.04" y="1069.31" width="10.69" height="10.69"/><rect class="cls-1" x="556.04" y="1058.61" width="10.69" height="10.7"/><rect class="cls-2" x="556.04" y="1047.92" width="10.69" height="10.69"/><rect class="cls-3" x="556.04" y="1037.23" width="10.69" height="10.69"/><rect class="cls-3" x="556.04" y="1026.53" width="10.69" height="10.7"/><rect class="cls-1" x="556.04" width="10.69" height="10.69"/><rect class="cls-1" x="545.35" y="1069.31" width="10.69" height="10.69"/><rect class="cls-1" x="545.35" y="1058.61" width="10.69" height="10.7"/><rect class="cls-2" x="545.35" y="1047.92" width="10.69" height="10.69"/><rect class="cls-3" x="545.35" y="1037.23" width="10.69" height="10.69"/><rect class="cls-3" x="545.35" y="1026.53" width="10.69" height="10.7"/><rect class="cls-1" x="545.35" width="10.69" height="10.69"/><rect class="cls-1" x="534.65" y="1069.31" width="10.7" height="10.69"/><rect class="cls-1" x="534.65" y="1058.61" width="10.7" height="10.7"/><rect class="cls-2" x="534.65" y="1047.92" width="10.7" height="10.69"/><rect class="cls-3" x="534.65" y="1037.23" width="10.7" height="10.69"/><rect class="cls-3" x="534.65" y="1026.53" width="10.7" height="10.7"/><rect class="cls-1" x="534.65" width="10.7" height="10.69"/><rect class="cls-1" x="523.96" y="1069.31" width="10.69" height="10.69"/><rect class="cls-1" x="523.96" y="1058.61" width="10.69" height="10.7"/><rect class="cls-2" x="523.96" y="1047.92" width="10.69" height="10.69"/><rect class="cls-3" x="523.96" y="1037.23" width="10.69" height="10.69"/><rect class="cls-3" x="523.96" y="1026.53" width="10.69" height="10.7"/><rect class="cls-1" x="523.96" width="10.69" height="10.69"/><rect class="cls-1" x="513.27" y="1069.31" width="10.69" height="10.69"/><rect class="cls-1" x="513.27" y="1058.61" width="10.69" height="10.7"/><rect class="cls-2" x="513.27" y="1047.92" width="10.69" height="10.69"/><rect class="cls-3" x="513.27" y="1037.23" width="10.69" height="10.69"/><rect class="cls-3" x="513.27" y="1026.53" width="10.69" height="10.7"/><rect class="cls-1" x="513.27" width="10.69" height="10.69"/><rect class="cls-1" x="502.57" y="1069.31" width="10.7" height="10.69"/><rect class="cls-1" x="502.57" y="1058.61" width="10.7" height="10.7"/><rect class="cls-2" x="502.57" y="1047.92" width="10.7" height="10.69"/><rect class="cls-3" x="502.57" y="1037.23" width="10.7" height="10.69"/><rect class="cls-3" x="502.57" y="1026.53" width="10.7" height="10.7"/><rect class="cls-1" x="502.57" width="10.7" height="10.69"/><rect class="cls-1" x="491.88" y="1069.31" width="10.69" height="10.69"/><rect class="cls-1" x="491.88" y="1058.61" width="10.69" height="10.7"/><rect class="cls-2" x="491.88" y="1047.92" width="10.69" height="10.69"/><rect class="cls-3" x="491.88" y="1037.23" width="10.69" height="10.69"/><rect class="cls-3" x="491.88" y="1026.53" width="10.69" height="10.7"/><rect class="cls-1" x="491.88" width="10.69" height="10.69"/><rect class="cls-1" x="481.19" y="1069.31" width="10.69" height="10.69"/><rect class="cls-1" x="481.19" y="1058.61" width="10.69" height="10.7"/><rect class="cls-2" x="481.19" y="1047.92" width="10.69" height="10.69"/><rect class="cls-3" x="481.19" y="1037.23" width="10.69" height="10.69"/><rect class="cls-3" x="481.19" y="1026.53" width="10.69" height="10.7"/><rect class="cls-1" x="481.19" width="10.69" height="10.69"/><rect class="cls-1" x="470.5" y="1069.31" width="10.69" height="10.69"/><rect class="cls-1" x="470.5" y="1058.61" width="10.69" height="10.7"/><rect class="cls-2" x="470.5" y="1047.92" width="10.69" height="10.69"/><rect class="cls-3" x="470.5" y="1037.23" width="10.69" height="10.69"/><rect class="cls-3" x="470.5" y="1026.53" width="10.69" height="10.7"/><rect class="cls-1" x="470.5" width="10.69" height="10.69"/><rect class="cls-1" x="459.8" y="1069.31" width="10.7" height="10.69"/><rect class="cls-1" x="459.8" y="1058.61" width="10.7" height="10.7"/><rect class="cls-2" x="459.8" y="1047.92" width="10.7" height="10.69"/><rect class="cls-3" x="459.8" y="1037.23" width="10.7" height="10.69"/><rect class="cls-3" x="459.8" y="1026.53" width="10.7" height="10.7"/><rect class="cls-1" x="459.8" width="10.7" height="10.69"/><rect class="cls-1" x="449.11" y="1069.31" width="10.69" height="10.69"/><rect class="cls-1" x="449.11" y="1058.61" width="10.69" height="10.7"/><rect class="cls-2" x="449.11" y="1047.92" width="10.69" height="10.69"/><rect class="cls-3" x="449.11" y="1037.23" width="10.69" height="10.69"/><rect class="cls-3" x="449.11" y="1026.53" width="10.69" height="10.7"/><rect class="cls-1" x="449.11" width="10.69" height="10.69"/><rect class="cls-1" x="438.42" y="1069.31" width="10.69" height="10.69"/><rect class="cls-1" x="438.42" y="1058.61" width="10.69" height="10.7"/><rect class="cls-2" x="438.42" y="1047.92" width="10.69" height="10.69"/><rect class="cls-3" x="438.42" y="1037.23" width="10.69" height="10.69"/><rect class="cls-3" x="438.42" y="1026.53" width="10.69" height="10.7"/><rect class="cls-1" x="438.42" width="10.69" height="10.69"/><rect class="cls-1" x="427.72" y="1069.31" width="10.7" height="10.69"/><rect class="cls-1" x="427.72" y="1058.61" width="10.7" height="10.7"/><rect class="cls-2" x="427.72" y="1047.92" width="10.7" height="10.69"/><rect class="cls-3" x="427.72" y="1037.23" width="10.7" height="10.69"/><rect class="cls-3" x="427.72" y="1026.53" width="10.7" height="10.7"/><rect class="cls-1" x="427.72" width="10.7" height="10.69"/><rect class="cls-1" x="417.03" y="1069.31" width="10.69" height="10.69"/><rect class="cls-1" x="417.03" y="1058.61" width="10.69" height="10.7"/><rect class="cls-2" x="417.03" y="1047.92" width="10.69" height="10.69"/><rect class="cls-3" x="417.03" y="1037.23" width="10.69" height="10.69"/><rect class="cls-3" x="417.03" y="1026.53" width="10.69" height="10.7"/><rect class="cls-1" x="417.03" width="10.69" height="10.69"/><rect class="cls-1" x="406.34" y="1069.31" width="10.69" height="10.69"/><rect class="cls-1" x="406.34" y="1058.61" width="10.69" height="10.7"/><rect class="cls-2" x="406.34" y="1047.92" width="10.69" height="10.69"/><rect class="cls-3" x="406.34" y="1037.23" width="10.69" height="10.69"/><rect class="cls-3" x="406.34" y="1026.53" width="10.69" height="10.7"/><rect class="cls-1" x="406.34" width="10.69" height="10.69"/><rect class="cls-1" x="395.64" y="1069.31" width="10.7" height="10.69"/><rect class="cls-1" x="395.64" y="1058.61" width="10.7" height="10.7"/><rect class="cls-2" x="395.64" y="1047.92" width="10.7" height="10.69"/><rect class="cls-3" x="395.64" y="1037.23" width="10.7" height="10.69"/><rect class="cls-3" x="395.64" y="1026.53" width="10.7" height="10.7"/><rect class="cls-1" x="395.64" width="10.7" height="10.69"/><rect class="cls-1" x="384.95" y="1069.31" width="10.69" height="10.69"/><rect class="cls-1" x="384.95" y="1058.61" width="10.69" height="10.7"/><rect class="cls-2" x="384.95" y="1047.92" width="10.69" height="10.69"/><rect class="cls-3" x="384.95" y="1037.23" width="10.69" height="10.69"/><rect class="cls-3" x="384.95" y="1026.53" width="10.69" height="10.7"/><rect class="cls-1" x="384.95" width="10.69" height="10.69"/><rect class="cls-1" x="374.26" y="1069.31" width="10.69" height="10.69"/><rect class="cls-1" x="374.26" y="1058.61" width="10.69" height="10.7"/><rect class="cls-2" x="374.26" y="1047.92" width="10.69" height="10.69"/><rect class="cls-3" x="374.26" y="1037.23" width="10.69" height="10.69"/><rect class="cls-3" x="374.26" y="1026.53" width="10.69" height="10.7"/><rect class="cls-1" x="374.26" width="10.69" height="10.69"/><rect class="cls-1" x="363.56" y="1069.31" width="10.7" height="10.69"/><rect class="cls-1" x="363.56" y="1058.61" width="10.7" height="10.7"/><rect class="cls-2" x="363.56" y="1047.92" width="10.7" height="10.69"/><rect class="cls-3" x="363.56" y="1037.23" width="10.7" height="10.69"/><rect class="cls-3" x="363.56" y="1026.53" width="10.7" height="10.7"/><rect class="cls-1" x="363.56" width="10.7" height="10.69"/><rect class="cls-1" x="352.87" y="1069.31" width="10.69" height="10.69"/><rect class="cls-1" x="352.87" y="1058.61" width="10.69" height="10.7"/><rect class="cls-2" x="352.87" y="1047.92" width="10.69" height="10.69"/><rect class="cls-3" x="352.87" y="1037.23" width="10.69" height="10.69"/><rect class="cls-3" x="352.87" y="1026.53" width="10.69" height="10.7"/><rect class="cls-1" x="352.87" width="10.69" height="10.69"/><rect class="cls-1" x="342.18" y="1069.31" width="10.69" height="10.69"/><rect class="cls-1" x="342.18" y="1058.61" width="10.69" height="10.7"/><rect class="cls-2" x="342.18" y="1047.92" width="10.69" height="10.69"/><rect class="cls-3" x="342.18" y="1037.23" width="10.69" height="10.69"/><rect class="cls-3" x="342.18" y="1026.53" width="10.69" height="10.7"/><rect class="cls-1" x="342.18" width="10.69" height="10.69"/><rect class="cls-1" x="331.49" y="1069.31" width="10.69" height="10.69"/><rect class="cls-1" x="331.49" y="1058.61" width="10.69" height="10.7"/><rect class="cls-2" x="331.49" y="1047.92" width="10.69" height="10.69"/><rect class="cls-3" x="331.49" y="1037.23" width="10.69" height="10.69"/><rect class="cls-3" x="331.49" y="1026.53" width="10.69" height="10.7"/><rect class="cls-1" x="331.49" width="10.69" height="10.69"/><rect class="cls-1" x="320.79" y="1069.31" width="10.7" height="10.69"/><rect class="cls-1" x="320.79" y="1058.61" width="10.7" height="10.7"/><rect class="cls-2" x="320.79" y="1047.92" width="10.7" height="10.69"/><rect class="cls-3" x="320.79" y="1037.23" width="10.7" height="10.69"/><rect class="cls-3" x="320.79" y="1026.53" width="10.7" height="10.7"/><rect class="cls-1" x="320.79" width="10.7" height="10.69"/><rect class="cls-1" x="310.1" y="1069.31" width="10.69" height="10.69"/><rect class="cls-1" x="310.1" y="1058.61" width="10.69" height="10.7"/><rect class="cls-2" x="310.1" y="1047.92" width="10.69" height="10.69"/><rect class="cls-3" x="310.1" y="1037.23" width="10.69" height="10.69"/><rect class="cls-3" x="310.1" y="1026.53" width="10.69" height="10.7"/><rect class="cls-1" x="310.1" width="10.69" height="10.69"/><rect class="cls-1" x="299.41" y="1069.31" width="10.69" height="10.69"/><rect class="cls-1" x="299.41" y="1058.61" width="10.69" height="10.7"/><rect class="cls-2" x="299.41" y="1047.92" width="10.69" height="10.69"/><rect class="cls-3" x="299.41" y="1037.23" width="10.69" height="10.69"/><rect class="cls-3" x="299.41" y="1026.53" width="10.69" height="10.7"/><rect class="cls-1" x="299.41" width="10.69" height="10.69"/><rect class="cls-1" x="288.71" y="1069.31" width="10.7" height="10.69"/><rect class="cls-1" x="288.71" y="1058.61" width="10.7" height="10.7"/><rect class="cls-2" x="288.71" y="1047.92" width="10.7" height="10.69"/><rect class="cls-3" x="288.71" y="1037.23" width="10.7" height="10.69"/><rect class="cls-3" x="288.71" y="1026.53" width="10.7" height="10.7"/><rect class="cls-1" x="288.71" width="10.7" height="10.69"/><rect class="cls-1" x="278.02" y="1069.31" width="10.69" height="10.69"/><rect class="cls-1" x="278.02" y="1058.61" width="10.69" height="10.7"/><rect class="cls-2" x="278.02" y="1047.92" width="10.69" height="10.69"/><rect class="cls-3" x="278.02" y="1037.23" width="10.69" height="10.69"/><rect class="cls-3" x="278.02" y="1026.53" width="10.69" height="10.7"/><rect class="cls-1" x="278.02" width="10.69" height="10.69"/><rect class="cls-1" x="267.33" y="1069.31" width="10.69" height="10.69"/><rect class="cls-1" x="267.33" y="1058.61" width="10.69" height="10.7"/><rect class="cls-2" x="267.33" y="1047.92" width="10.69" height="10.69"/><rect class="cls-3" x="267.33" y="1037.23" width="10.69" height="10.69"/><rect class="cls-3" x="267.33" y="1026.53" width="10.69" height="10.7"/><rect class="cls-1" x="267.33" width="10.69" height="10.69"/><rect class="cls-1" x="256.63" y="1069.31" width="10.7" height="10.69"/><rect class="cls-1" x="256.63" y="1058.61" width="10.7" height="10.7"/><rect class="cls-2" x="256.63" y="1047.92" width="10.7" height="10.69"/><rect class="cls-3" x="256.63" y="1037.23" width="10.7" height="10.69"/><rect class="cls-3" x="256.63" y="1026.53" width="10.7" height="10.7"/><rect class="cls-1" x="256.63" width="10.7" height="10.69"/><rect class="cls-1" x="245.94" y="1069.31" width="10.69" height="10.69"/><rect class="cls-1" x="245.94" y="1058.61" width="10.69" height="10.7"/><rect class="cls-2" x="245.94" y="1047.92" width="10.69" height="10.69"/><rect class="cls-3" x="245.94" y="1037.23" width="10.69" height="10.69"/><rect class="cls-3" x="245.94" y="1026.53" width="10.69" height="10.7"/><rect class="cls-1" x="245.94" width="10.69" height="10.69"/><rect class="cls-1" x="235.25" y="1069.31" width="10.69" height="10.69"/><rect class="cls-1" x="235.25" y="1058.61" width="10.69" height="10.7"/><rect class="cls-2" x="235.25" y="1047.92" width="10.69" height="10.69"/><rect class="cls-3" x="235.25" y="1037.23" width="10.69" height="10.69"/><rect class="cls-3" x="235.25" y="1026.53" width="10.69" height="10.7"/><rect class="cls-1" x="235.25" width="10.69" height="10.69"/><rect class="cls-1" x="224.55" y="1069.31" width="10.7" height="10.69"/><rect class="cls-1" x="224.55" y="1058.61" width="10.7" height="10.7"/><rect class="cls-2" x="224.55" y="1047.92" width="10.7" height="10.69"/><rect class="cls-3" x="224.55" y="1037.23" width="10.7" height="10.69"/><rect class="cls-3" x="224.55" y="1026.53" width="10.7" height="10.7"/><rect class="cls-1" x="224.55" width="10.7" height="10.69"/><rect class="cls-1" x="213.86" y="1069.31" width="10.69" height="10.69"/><rect class="cls-1" x="213.86" y="1058.61" width="10.69" height="10.7"/><rect class="cls-2" x="213.86" y="1047.92" width="10.69" height="10.69"/><rect class="cls-3" x="213.86" y="1037.23" width="10.69" height="10.69"/><rect class="cls-3" x="213.86" y="1026.53" width="10.69" height="10.7"/><rect class="cls-1" x="213.86" width="10.69" height="10.69"/><rect class="cls-1" x="203.17" y="1069.31" width="10.69" height="10.69"/><rect class="cls-1" x="203.17" y="1058.61" width="10.69" height="10.7"/><rect class="cls-2" x="203.17" y="1047.92" width="10.69" height="10.69"/><rect class="cls-3" x="203.17" y="1037.23" width="10.69" height="10.69"/><rect class="cls-3" x="203.17" y="1026.53" width="10.69" height="10.7"/><rect class="cls-1" x="203.17" width="10.69" height="10.69"/><rect class="cls-1" x="192.48" y="1069.31" width="10.69" height="10.69"/><rect class="cls-1" x="192.48" y="1058.61" width="10.69" height="10.7"/><rect class="cls-2" x="192.48" y="1047.92" width="10.69" height="10.69"/><rect class="cls-3" x="192.48" y="1037.23" width="10.69" height="10.69"/><rect class="cls-3" x="192.48" y="1026.53" width="10.69" height="10.7"/><rect class="cls-1" x="192.48" width="10.69" height="10.69"/><rect class="cls-1" x="181.78" y="1069.31" width="10.7" height="10.69"/><rect class="cls-1" x="181.78" y="1058.61" width="10.7" height="10.7"/><rect class="cls-2" x="181.78" y="1047.92" width="10.7" height="10.69"/><rect class="cls-3" x="181.78" y="1037.23" width="10.7" height="10.69"/><rect class="cls-3" x="181.78" y="1026.53" width="10.7" height="10.7"/><rect class="cls-1" x="181.78" width="10.7" height="10.69"/><rect class="cls-1" x="171.09" y="1069.31" width="10.69" height="10.69"/><rect class="cls-1" x="171.09" y="1058.61" width="10.69" height="10.7"/><rect class="cls-2" x="171.09" y="1047.92" width="10.69" height="10.69"/><rect class="cls-3" x="171.09" y="1037.23" width="10.69" height="10.69"/><rect class="cls-3" x="171.09" y="1026.53" width="10.69" height="10.7"/><rect class="cls-1" x="171.09" width="10.69" height="10.69"/><rect class="cls-1" x="160.4" y="1069.31" width="10.69" height="10.69"/><rect class="cls-1" x="160.4" y="1058.61" width="10.69" height="10.7"/><rect class="cls-2" x="160.4" y="1047.92" width="10.69" height="10.69"/><rect class="cls-3" x="160.4" y="1037.23" width="10.69" height="10.69"/><rect class="cls-3" x="160.4" y="1026.53" width="10.69" height="10.7"/><rect class="cls-1" x="160.4" width="10.69" height="10.69"/><rect class="cls-1" x="149.7" y="1069.31" width="10.7" height="10.69"/><rect class="cls-1" x="149.7" y="1058.61" width="10.7" height="10.7"/><rect class="cls-2" x="149.7" y="1047.92" width="10.7" height="10.69"/><rect class="cls-3" x="149.7" y="1037.23" width="10.7" height="10.69"/><rect class="cls-3" x="149.7" y="1026.53" width="10.7" height="10.7"/><rect class="cls-1" x="149.7" width="10.7" height="10.69"/><rect class="cls-1" x="139.01" y="1069.31" width="10.69" height="10.69"/><rect class="cls-1" x="139.01" y="1058.61" width="10.69" height="10.7"/><rect class="cls-2" x="139.01" y="1047.92" width="10.69" height="10.69"/><rect class="cls-3" x="139.01" y="1037.23" width="10.69" height="10.69"/><rect class="cls-3" x="139.01" y="1026.53" width="10.69" height="10.7"/><rect class="cls-1" x="139.01" width="10.69" height="10.69"/><rect class="cls-1" x="128.32" y="1069.31" width="10.69" height="10.69"/><rect class="cls-1" x="128.32" y="1058.61" width="10.69" height="10.7"/><rect class="cls-2" x="128.32" y="1047.92" width="10.69" height="10.69"/><rect class="cls-3" x="128.32" y="1037.23" width="10.69" height="10.69"/><rect class="cls-3" x="128.32" y="1026.53" width="10.69" height="10.7"/><rect class="cls-1" x="128.32" width="10.69" height="10.69"/><rect class="cls-1" x="117.62" y="1069.31" width="10.7" height="10.69"/><rect class="cls-1" x="117.62" y="1058.61" width="10.7" height="10.7"/><rect class="cls-2" x="117.62" y="1047.92" width="10.7" height="10.69"/><rect class="cls-3" x="117.62" y="1037.23" width="10.7" height="10.69"/><rect class="cls-3" x="117.62" y="1026.53" width="10.7" height="10.7"/><rect class="cls-1" x="117.62" width="10.7" height="10.69"/><rect class="cls-1" x="106.93" y="1069.31" width="10.69" height="10.69"/><rect class="cls-1" x="106.93" y="1058.61" width="10.69" height="10.7"/><rect class="cls-2" x="106.93" y="1047.92" width="10.69" height="10.69"/><rect class="cls-3" x="106.93" y="1037.23" width="10.69" height="10.69"/><rect class="cls-3" x="106.93" y="1026.53" width="10.69" height="10.7"/><rect class="cls-1" x="106.93" width="10.69" height="10.69"/><rect class="cls-1" x="96.24" y="1069.31" width="10.69" height="10.69"/><rect class="cls-1" x="96.24" y="1058.61" width="10.69" height="10.7"/><rect class="cls-2" x="96.24" y="1047.92" width="10.69" height="10.69"/><rect class="cls-3" x="96.24" y="1037.23" width="10.69" height="10.69"/><rect class="cls-3" x="96.24" y="1026.53" width="10.69" height="10.7"/><rect class="cls-1" x="96.24" width="10.69" height="10.69"/><rect class="cls-1" x="85.54" y="1069.31" width="10.7" height="10.69"/><rect class="cls-1" x="85.54" y="1058.61" width="10.7" height="10.7"/><rect class="cls-2" x="85.54" y="1047.92" width="10.7" height="10.69"/><rect class="cls-3" x="85.54" y="1037.23" width="10.7" height="10.69"/><rect class="cls-3" x="85.54" y="1026.53" width="10.7" height="10.7"/><rect class="cls-1" x="85.54" width="10.7" height="10.69"/><rect class="cls-1" x="74.85" y="1069.31" width="10.69" height="10.69"/><rect class="cls-1" x="74.85" y="1058.61" width="10.69" height="10.7"/><rect class="cls-2" x="74.85" y="1047.92" width="10.69" height="10.69"/><rect class="cls-3" x="74.85" y="1037.23" width="10.69" height="10.69"/><rect class="cls-3" x="74.85" y="1026.53" width="10.69" height="10.7"/><rect class="cls-1" x="74.85" width="10.69" height="10.69"/><rect class="cls-1" x="64.16" y="1069.31" width="10.69" height="10.69"/><rect class="cls-1" x="64.16" y="1058.61" width="10.69" height="10.7"/><rect class="cls-2" x="64.16" y="1047.92" width="10.69" height="10.69"/><rect class="cls-3" x="64.16" y="1037.23" width="10.69" height="10.69"/><rect class="cls-3" x="64.16" y="1026.53" width="10.69" height="10.7"/><rect class="cls-1" x="64.16" width="10.69" height="10.69"/><rect class="cls-1" x="53.47" y="1069.31" width="10.69" height="10.69"/><rect class="cls-1" x="53.47" y="1058.61" width="10.69" height="10.7"/><rect class="cls-2" x="53.47" y="1047.92" width="10.69" height="10.69"/><rect class="cls-3" x="53.47" y="1037.23" width="10.69" height="10.69"/><rect class="cls-3" x="53.47" y="1026.53" width="10.69" height="10.7"/><rect class="cls-1" x="53.47" width="10.69" height="10.69"/><rect class="cls-1" x="42.77" y="1069.31" width="10.7" height="10.69"/><rect class="cls-1" x="42.77" y="1058.61" width="10.7" height="10.7"/><rect class="cls-2" x="42.77" y="1047.92" width="10.7" height="10.69"/><rect class="cls-3" x="42.77" y="1037.23" width="10.7" height="10.69"/><rect class="cls-3" x="42.77" y="1026.53" width="10.7" height="10.7"/><rect class="cls-3" x="42.77" y="1015.84" width="10.7" height="10.69"/><rect class="cls-1" x="42.77" width="10.7" height="10.69"/><rect class="cls-1" x="32.08" y="1058.61" width="10.69" height="10.7"/><rect class="cls-2" x="32.08" y="1047.92" width="10.69" height="10.69"/><rect class="cls-2" x="32.08" y="1037.23" width="10.69" height="10.69"/><rect class="cls-2" x="32.08" y="1026.53" width="10.69" height="10.7"/><rect class="cls-3" x="32.08" y="1015.84" width="10.69" height="10.69"/><rect class="cls-3" x="32.08" y="1005.15" width="10.69" height="10.69"/><rect class="cls-1" x="32.08" y="21.39" width="10.69" height="10.69"/><rect class="cls-1" x="32.08" y="10.69" width="10.69" height="10.7"/><rect class="cls-1" x="21.39" y="1058.61" width="10.69" height="10.7"/><rect class="cls-1" x="21.39" y="1047.92" width="10.69" height="10.69"/><rect class="cls-1" x="21.39" y="1037.23" width="10.69" height="10.69"/><rect class="cls-2" x="21.39" y="1026.53" width="10.69" height="10.7"/><rect class="cls-2" x="21.39" y="1015.84" width="10.69" height="10.69"/><rect class="cls-3" x="21.39" y="1005.15" width="10.69" height="10.69"/><rect class="cls-1" x="21.39" y="42.77" width="10.69" height="10.7"/><rect class="cls-1" x="21.39" y="32.08" width="10.69" height="10.69"/><rect class="cls-1" x="10.69" y="1026.53" width="10.7" height="10.7"/><rect class="cls-1" x="10.69" y="1015.84" width="10.7" height="10.69"/><rect class="cls-1" x="10.69" y="1005.15" width="10.7" height="10.69"/><rect class="cls-1" x="10.69" y="64.16" width="10.7" height="10.69"/><rect class="cls-1" x="10.69" y="53.47" width="10.7" height="10.69"/><polygon class="cls-4" points="10.69 128.32 10.69 117.62 10.69 106.93 10.69 96.24 10.69 85.54 10.69 74.85 21.39 74.85 21.39 64.16 21.39 53.47 32.08 53.47 32.08 42.77 32.08 32.08 42.77 32.08 42.77 21.39 42.77 10.69 53.47 10.69 64.16 10.69 74.85 10.69 85.54 10.69 96.24 10.69 106.93 10.69 117.62 10.69 128.32 10.69 139.01 10.69 149.7 10.69 160.4 10.69 171.09 10.69 181.78 10.69 192.48 10.69 203.17 10.69 213.86 10.69 224.55 10.69 235.25 10.69 245.94 10.69 256.63 10.69 267.33 10.69 278.02 10.69 288.71 10.69 299.41 10.69 310.1 10.69 320.79 10.69 331.49 10.69 342.18 10.69 352.87 10.69 363.56 10.69 374.26 10.69 384.95 10.69 395.64 10.69 406.34 10.69 417.03 10.69 427.72 10.69 438.42 10.69 449.11 10.69 459.8 10.69 470.5 10.69 481.19 10.69 491.88 10.69 502.57 10.69 513.27 10.69 523.96 10.69 534.65 10.69 545.35 10.69 556.04 10.69 566.73 10.69 577.43 10.69 588.12 10.69 598.81 10.69 609.5 10.69 620.2 10.69 630.89 10.69 641.58 10.69 652.28 10.69 662.97 10.69 673.66 10.69 684.36 10.69 695.05 10.69 705.74 10.69 716.44 10.69 727.13 10.69 737.82 10.69 748.51 10.69 759.21 10.69 769.9 10.69 780.59 10.69 791.29 10.69 801.98 10.69 812.67 10.69 823.37 10.69 834.06 10.69 844.75 10.69 855.45 10.69 866.14 10.69 876.83 10.69 887.52 10.69 898.22 10.69 908.91 10.69 919.6 10.69 930.3 10.69 940.99 10.69 951.68 10.69 962.38 10.69 973.07 10.69 983.76 10.69 994.46 10.69 1005.15 10.69 1015.84 10.69 1026.53 10.69 1037.23 10.69 1037.23 21.39 1037.23 32.08 1047.92 32.08 1047.92 42.77 1047.92 53.47 1058.61 53.47 1058.61 64.16 1058.61 74.85 1069.31 74.85 1069.31 85.54 1069.31 96.24 1069.31 106.93 1069.31 117.62 1069.31 128.32 1069.31 139.01 1069.31 149.7 1069.31 160.4 1069.31 171.09 1069.31 181.78 1069.31 192.48 1069.31 203.17 1069.31 213.86 1069.31 224.55 1069.31 235.25 1069.31 245.94 1069.31 256.63 1069.31 267.33 1069.31 278.02 1069.31 288.71 1069.31 299.41 1069.31 310.1 1069.31 320.79 1069.31 331.49 1069.31 342.18 1069.31 352.87 1069.31 363.56 1069.31 374.26 1069.31 384.95 1069.31 395.64 1069.31 406.34 1069.31 417.03 1069.31 427.72 1069.31 438.42 1069.31 449.11 1069.31 459.8 1069.31 470.5 1069.31 481.19 1069.31 491.88 1069.31 502.57 1069.31 513.27 1069.31 523.96 1069.31 534.65 1069.31 545.35 1069.31 556.04 1069.31 566.73 1069.31 577.43 1069.31 588.12 1069.31 598.81 1069.31 609.5 1069.31 620.2 1069.31 630.89 1069.31 641.58 1069.31 652.28 1069.31 662.97 1069.31 673.66 1069.31 684.36 1069.31 695.05 1069.31 705.74 1069.31 716.44 1069.31 727.13 1069.31 737.82 1069.31 748.51 1069.31 759.21 1069.31 769.9 1069.31 780.59 1069.31 791.29 1069.31 801.98 1069.31 812.67 1069.31 823.37 1069.31 834.06 1069.31 844.75 1069.31 855.45 1069.31 866.14 1069.31 876.83 1069.31 887.52 1069.31 898.22 1069.31 908.91 1069.31 919.6 1069.31 930.3 1069.31 940.99 1069.31 951.68 1069.31 962.38 1069.31 973.07 1069.31 983.76 1069.31 994.46 1069.31 1005.15 1058.61 1005.15 1047.92 1005.15 1037.23 1005.15 1037.23 1015.84 1026.53 1015.84 1026.53 1026.53 1015.84 1026.53 1005.15 1026.53 994.46 1026.53 983.76 1026.53 973.07 1026.53 962.38 1026.53 951.68 1026.53 940.99 1026.53 930.3 1026.53 919.6 1026.53 908.91 1026.53 898.22 1026.53 887.52 1026.53 876.83 1026.53 866.14 1026.53 855.45 1026.53 844.75 1026.53 834.06 1026.53 823.37 1026.53 812.67 1026.53 801.98 1026.53 791.29 1026.53 780.59 1026.53 769.9 1026.53 759.21 1026.53 748.51 1026.53 737.82 1026.53 727.13 1026.53 716.44 1026.53 705.74 1026.53 695.05 1026.53 684.36 1026.53 673.66 1026.53 662.97 1026.53 652.28 1026.53 641.58 1026.53 630.89 1026.53 620.2 1026.53 609.5 1026.53 598.81 1026.53 588.12 1026.53 577.43 1026.53 566.73 1026.53 556.04 1026.53 545.35 1026.53 534.65 1026.53 523.96 1026.53 513.27 1026.53 502.57 1026.53 491.88 1026.53 481.19 1026.53 470.5 1026.53 459.8 1026.53 449.11 1026.53 438.42 1026.53 427.72 1026.53 417.03 1026.53 406.34 1026.53 395.64 1026.53 384.95 1026.53 374.26 1026.53 363.56 1026.53 352.87 1026.53 342.18 1026.53 331.49 1026.53 320.79 1026.53 310.1 1026.53 299.41 1026.53 288.71 1026.53 278.02 1026.53 267.33 1026.53 256.63 1026.53 245.94 1026.53 235.25 1026.53 224.55 1026.53 213.86 1026.53 203.17 1026.53 192.48 1026.53 181.78 1026.53 171.09 1026.53 160.4 1026.53 149.7 1026.53 139.01 1026.53 128.32 1026.53 117.62 1026.53 106.93 1026.53 96.24 1026.53 85.54 1026.53 74.85 1026.53 64.16 1026.53 53.47 1026.53 53.47 1015.84 42.77 1015.84 42.77 1005.15 32.08 1005.15 21.39 1005.15 10.69 1005.15 10.69 994.46 10.69 983.76 10.69 973.07 10.69 962.38 10.69 951.68 10.69 940.99 10.69 930.3 10.69 919.6 10.69 908.91 10.69 898.22 10.69 887.52 10.69 876.83 10.69 866.14 10.69 855.45 10.69 844.75 10.69 834.06 10.69 823.37 10.69 812.67 10.69 801.98 10.69 791.29 10.69 780.59 10.69 769.9 10.69 759.21 10.69 748.51 10.69 737.82 10.69 727.13 10.69 716.44 10.69 705.74 10.69 695.05 10.69 684.36 10.69 673.66 10.69 662.97 10.69 652.28 10.69 641.58 10.69 630.89 10.69 620.2 10.69 609.5 10.69 598.81 10.69 588.12 10.69 577.43 10.69 566.73 10.69 556.04 10.69 545.35 10.69 534.65 10.69 523.96 10.69 513.27 10.69 502.57 10.69 491.88 10.69 481.19 10.69 470.5 10.69 459.8 10.69 449.11 10.69 438.42 10.69 427.72 10.69 417.03 10.69 406.34 10.69 395.64 10.69 384.95 10.69 374.26 10.69 363.56 10.69 352.87 10.69 342.18 10.69 331.49 10.69 320.79 10.69 310.1 10.69 299.41 10.69 288.71 10.69 278.02 10.69 267.33 10.69 256.63 10.69 245.94 10.69 235.25 10.69 224.55 10.69 213.86 10.69 203.17 10.69 192.48 10.69 181.78 10.69 171.09 10.69 160.4 10.69 149.7 10.69 139.01 10.69 128.32"/><rect class="cls-1" y="994.46" width="10.69" height="10.69"/><rect class="cls-1" y="983.76" width="10.69" height="10.7"/><rect class="cls-1" y="973.07" width="10.69" height="10.69"/><rect class="cls-1" y="962.38" width="10.69" height="10.69"/><rect class="cls-1" y="951.68" width="10.69" height="10.7"/><rect class="cls-1" y="940.99" width="10.69" height="10.69"/><rect class="cls-1" y="930.3" width="10.69" height="10.69"/><rect class="cls-1" y="919.6" width="10.69" height="10.7"/><rect class="cls-1" y="908.91" width="10.69" height="10.69"/><rect class="cls-1" y="898.22" width="10.69" height="10.69"/><rect class="cls-1" y="887.52" width="10.69" height="10.7"/><rect class="cls-1" y="876.83" width="10.69" height="10.69"/><rect class="cls-1" y="866.14" width="10.69" height="10.69"/><rect class="cls-1" y="855.45" width="10.69" height="10.69"/><rect class="cls-1" y="844.75" width="10.69" height="10.7"/><rect class="cls-1" y="834.06" width="10.69" height="10.69"/><rect class="cls-1" y="823.37" width="10.69" height="10.69"/><rect class="cls-1" y="812.67" width="10.69" height="10.7"/><rect class="cls-1" y="801.98" width="10.69" height="10.69"/><rect class="cls-1" y="791.29" width="10.69" height="10.69"/><rect class="cls-1" y="780.59" width="10.69" height="10.7"/><rect class="cls-1" y="769.9" width="10.69" height="10.69"/><rect class="cls-1" y="759.21" width="10.69" height="10.69"/><rect class="cls-1" y="748.51" width="10.69" height="10.7"/><rect class="cls-1" y="737.82" width="10.69" height="10.69"/><rect class="cls-1" y="727.13" width="10.69" height="10.69"/><rect class="cls-1" y="716.44" width="10.69" height="10.69"/><rect class="cls-1" y="705.74" width="10.69" height="10.7"/><rect class="cls-1" y="695.05" width="10.69" height="10.69"/><rect class="cls-1" y="684.36" width="10.69" height="10.69"/><rect class="cls-1" y="673.66" width="10.69" height="10.7"/><rect class="cls-1" y="662.97" width="10.69" height="10.69"/><rect class="cls-1" y="652.28" width="10.69" height="10.69"/><rect class="cls-1" y="641.58" width="10.69" height="10.7"/><rect class="cls-1" y="630.89" width="10.69" height="10.69"/><rect class="cls-1" y="620.2" width="10.69" height="10.69"/><rect class="cls-1" y="609.5" width="10.69" height="10.7"/><rect class="cls-1" y="598.81" width="10.69" height="10.69"/><rect class="cls-1" y="588.12" width="10.69" height="10.69"/><rect class="cls-1" y="577.43" width="10.69" height="10.69"/><rect class="cls-1" y="566.73" width="10.69" height="10.7"/><rect class="cls-1" y="556.04" width="10.69" height="10.69"/><rect class="cls-1" y="545.35" width="10.69" height="10.69"/><rect class="cls-1" y="534.65" width="10.69" height="10.7"/><rect class="cls-1" y="523.96" width="10.69" height="10.69"/><rect class="cls-1" y="513.27" width="10.69" height="10.69"/><rect class="cls-1" y="502.57" width="10.69" height="10.7"/><rect class="cls-1" y="491.88" width="10.69" height="10.69"/><rect class="cls-1" y="481.19" width="10.69" height="10.69"/><rect class="cls-1" y="470.5" width="10.69" height="10.69"/><rect class="cls-1" y="459.8" width="10.69" height="10.7"/><rect class="cls-1" y="449.11" width="10.69" height="10.69"/><rect class="cls-1" y="438.42" width="10.69" height="10.69"/><rect class="cls-1" y="427.72" width="10.69" height="10.7"/><rect class="cls-1" y="417.03" width="10.69" height="10.69"/><rect class="cls-1" y="406.34" width="10.69" height="10.69"/><rect class="cls-1" y="395.64" width="10.69" height="10.7"/><rect class="cls-1" y="384.95" width="10.69" height="10.69"/><rect class="cls-1" y="374.26" width="10.69" height="10.69"/><rect class="cls-1" y="363.56" width="10.69" height="10.7"/><rect class="cls-1" y="352.87" width="10.69" height="10.69"/><rect class="cls-1" y="342.18" width="10.69" height="10.69"/><rect class="cls-1" y="331.49" width="10.69" height="10.69"/><rect class="cls-1" y="320.79" width="10.69" height="10.7"/><rect class="cls-1" y="310.1" width="10.69" height="10.69"/><rect class="cls-1" y="299.41" width="10.69" height="10.69"/><rect class="cls-1" y="288.71" width="10.69" height="10.7"/><rect class="cls-1" y="278.02" width="10.69" height="10.69"/><rect class="cls-1" y="267.33" width="10.69" height="10.69"/><rect class="cls-1" y="256.63" width="10.69" height="10.7"/><rect class="cls-1" y="245.94" width="10.69" height="10.69"/><rect class="cls-1" y="235.25" width="10.69" height="10.69"/><rect class="cls-1" y="224.55" width="10.69" height="10.7"/><rect class="cls-1" y="213.86" width="10.69" height="10.69"/><rect class="cls-1" y="203.17" width="10.69" height="10.69"/><rect class="cls-1" y="192.48" width="10.69" height="10.69"/><rect class="cls-1" y="181.78" width="10.69" height="10.7"/><rect class="cls-1" y="171.09" width="10.69" height="10.69"/><rect class="cls-1" y="160.4" width="10.69" height="10.69"/><rect class="cls-1" y="149.7" width="10.69" height="10.7"/><rect class="cls-1" y="139.01" width="10.69" height="10.69"/><rect class="cls-1" y="128.32" width="10.69" height="10.69"/><rect class="cls-1" y="96.24" width="10.69" height="10.69"/><rect class="cls-1" y="85.54" width="10.69" height="10.7"/><rect class="cls-1" y="74.85" width="10.69" height="10.69"/><rect class="cls-1" y="117.62" width="10.69" height="10.7"/><rect class="cls-1" y="106.93" width="10.69" height="10.69"/></g></g></svg>