<svg xmlns="http://www.w3.org/2000/svg" viewBox="0 0 395.65 181.78"><defs><style>.cls-1{fill:#2c2c2c;}.cls-2{fill:#f2f2f2;}.cls-3{fill:#a2a2a2;}.cls-4{fill:#e2e2e2;}</style></defs><g id="Capa_2" data-name="Capa 2"><g id="text_box" data-name="text box"><rect class="cls-1" x="384.95" y="117.62" width="10.7" height="10.69"/><rect class="cls-1" x="384.95" y="106.93" width="10.7" height="10.69"/><rect class="cls-1" x="384.95" y="96.24" width="10.7" height="10.69"/><rect class="cls-1" x="384.95" y="85.54" width="10.7" height="10.7"/><rect class="cls-1" x="384.95" y="74.85" width="10.7" height="10.69"/><rect class="cls-1" x="384.95" y="64.16" width="10.7" height="10.69"/><rect class="cls-1" x="384.95" y="53.46" width="10.7" height="10.7"/><rect class="cls-1" x="374.26" y="149.7" width="10.69" height="10.69"/><rect class="cls-1" x="374.26" y="139.01" width="10.69" height="10.69"/><rect class="cls-1" x="374.26" y="128.31" width="10.69" height="10.7"/><polygon class="cls-2" points="384.95 117.62 384.95 128.31 374.26 128.31 363.57 128.31 352.88 128.31 342.18 128.31 342.18 139.01 331.49 139.01 331.49 149.7 320.8 149.7 310.1 149.7 299.41 149.7 288.72 149.7 278.02 149.7 267.33 149.7 256.64 149.7 245.94 149.7 235.25 149.7 224.56 149.7 213.87 149.7 203.17 149.7 192.48 149.7 181.79 149.7 171.09 149.7 160.4 149.7 149.71 149.7 139.01 149.7 128.32 149.7 117.63 149.7 106.94 149.7 96.24 149.7 85.55 149.7 74.86 149.7 64.16 149.7 64.16 139.01 53.47 139.01 53.47 128.31 42.78 128.31 32.08 128.31 21.39 128.31 10.7 128.31 10.7 117.62 10.7 106.93 10.7 96.24 10.7 85.54 10.7 74.85 10.7 64.16 10.7 53.46 21.39 53.46 21.39 42.77 21.39 32.08 32.08 32.08 32.08 21.38 32.08 10.69 42.78 10.69 53.47 10.69 64.16 10.69 74.86 10.69 85.55 10.69 96.24 10.69 106.94 10.69 117.63 10.69 128.32 10.69 139.01 10.69 149.71 10.69 160.4 10.69 171.09 10.69 181.79 10.69 192.48 10.69 203.17 10.69 213.87 10.69 224.56 10.69 235.25 10.69 245.94 10.69 256.64 10.69 267.33 10.69 278.02 10.69 288.72 10.69 299.41 10.69 310.1 10.69 320.8 10.69 331.49 10.69 342.18 10.69 352.88 10.69 363.57 10.69 363.57 21.38 363.57 32.08 374.26 32.08 374.26 42.77 374.26 53.46 384.95 53.46 384.95 64.16 384.95 74.85 384.95 85.54 384.95 96.24 384.95 106.93 384.95 117.62"/><rect class="cls-1" x="374.26" y="42.77" width="10.69" height="10.69"/><rect class="cls-1" x="374.26" y="32.08" width="10.69" height="10.69"/><rect class="cls-1" x="363.57" y="160.39" width="10.69" height="10.7"/><rect class="cls-1" x="363.57" y="149.7" width="10.69" height="10.69"/><rect class="cls-3" x="363.57" y="139.01" width="10.69" height="10.69"/><rect class="cls-4" x="363.57" y="128.31" width="10.69" height="10.7"/><rect class="cls-1" x="363.57" y="21.38" width="10.69" height="10.7"/><rect class="cls-1" x="363.57" y="10.69" width="10.69" height="10.69"/><rect class="cls-1" x="352.88" y="171.09" width="10.69" height="10.69"/><rect class="cls-1" x="352.88" y="160.39" width="10.69" height="10.7"/><rect class="cls-3" x="352.88" y="149.7" width="10.69" height="10.69"/><rect class="cls-3" x="352.88" y="139.01" width="10.69" height="10.69"/><rect class="cls-4" x="352.88" y="128.31" width="10.69" height="10.7"/><rect class="cls-1" x="352.88" width="10.69" height="10.69"/><rect class="cls-1" x="342.18" y="171.09" width="10.7" height="10.69"/><rect class="cls-1" x="342.18" y="160.39" width="10.7" height="10.7"/><rect class="cls-3" x="342.18" y="149.7" width="10.7" height="10.69"/><rect class="cls-4" x="342.18" y="139.01" width="10.7" height="10.69"/><rect class="cls-4" x="342.18" y="128.31" width="10.7" height="10.7"/><rect class="cls-1" x="342.18" width="10.7" height="10.69"/><rect class="cls-1" x="331.49" y="171.09" width="10.69" height="10.69"/><rect class="cls-1" x="331.49" y="160.39" width="10.69" height="10.7"/><rect class="cls-4" x="331.49" y="149.7" width="10.69" height="10.69"/><rect class="cls-4" x="331.49" y="139.01" width="10.69" height="10.69"/><rect class="cls-1" x="331.49" width="10.69" height="10.69"/><rect class="cls-1" x="320.8" y="171.09" width="10.69" height="10.69"/><rect class="cls-1" x="320.8" y="160.39" width="10.69" height="10.7"/><rect class="cls-4" x="320.8" y="149.7" width="10.69" height="10.69"/><rect class="cls-1" x="320.8" width="10.69" height="10.69"/><rect class="cls-1" x="310.1" y="171.09" width="10.7" height="10.69"/><rect class="cls-1" x="310.1" y="160.39" width="10.7" height="10.7"/><rect class="cls-4" x="310.1" y="149.7" width="10.7" height="10.69"/><rect class="cls-1" x="310.1" width="10.7" height="10.69"/><rect class="cls-1" x="299.41" y="171.09" width="10.69" height="10.69"/><rect class="cls-1" x="299.41" y="160.39" width="10.69" height="10.7"/><rect class="cls-4" x="299.41" y="149.7" width="10.69" height="10.69"/><rect class="cls-1" x="299.41" width="10.69" height="10.69"/><rect class="cls-1" x="288.72" y="171.09" width="10.69" height="10.69"/><rect class="cls-1" x="288.72" y="160.39" width="10.69" height="10.7"/><rect class="cls-4" x="288.72" y="149.7" width="10.69" height="10.69"/><rect class="cls-1" x="288.72" width="10.69" height="10.69"/><rect class="cls-1" x="278.02" y="171.09" width="10.7" height="10.69"/><rect class="cls-1" x="278.02" y="160.39" width="10.7" height="10.7"/><rect class="cls-4" x="278.02" y="149.7" width="10.7" height="10.69"/><rect class="cls-1" x="278.02" width="10.7" height="10.69"/><rect class="cls-1" x="267.33" y="171.09" width="10.69" height="10.69"/><rect class="cls-1" x="267.33" y="160.39" width="10.69" height="10.7"/><rect class="cls-4" x="267.33" y="149.7" width="10.69" height="10.69"/><rect class="cls-1" x="267.33" width="10.69" height="10.69"/><rect class="cls-1" x="256.64" y="171.09" width="10.69" height="10.69"/><rect class="cls-1" x="256.64" y="160.39" width="10.69" height="10.7"/><rect class="cls-4" x="256.64" y="149.7" width="10.69" height="10.69"/><rect class="cls-1" x="256.64" width="10.69" height="10.69"/><rect class="cls-1" x="245.94" y="171.09" width="10.7" height="10.69"/><rect class="cls-1" x="245.94" y="160.39" width="10.7" height="10.7"/><rect class="cls-4" x="245.94" y="149.7" width="10.7" height="10.69"/><rect class="cls-1" x="245.94" width="10.7" height="10.69"/><rect class="cls-1" x="235.25" y="171.09" width="10.69" height="10.69"/><rect class="cls-1" x="235.25" y="160.39" width="10.69" height="10.7"/><rect class="cls-4" x="235.25" y="149.7" width="10.69" height="10.69"/><rect class="cls-1" x="235.25" width="10.69" height="10.69"/><rect class="cls-1" x="224.56" y="171.09" width="10.69" height="10.69"/><rect class="cls-1" x="224.56" y="160.39" width="10.69" height="10.7"/><rect class="cls-4" x="224.56" y="149.7" width="10.69" height="10.69"/><rect class="cls-1" x="224.56" width="10.69" height="10.69"/><rect class="cls-1" x="213.87" y="171.09" width="10.69" height="10.69"/><rect class="cls-1" x="213.87" y="160.39" width="10.69" height="10.7"/><rect class="cls-4" x="213.87" y="149.7" width="10.69" height="10.69"/><rect class="cls-1" x="213.87" width="10.69" height="10.69"/><rect class="cls-1" x="203.17" y="171.09" width="10.7" height="10.69"/><rect class="cls-1" x="203.17" y="160.39" width="10.7" height="10.7"/><rect class="cls-4" x="203.17" y="149.7" width="10.7" height="10.69"/><rect class="cls-1" x="203.17" width="10.7" height="10.69"/><rect class="cls-1" x="192.48" y="171.09" width="10.69" height="10.69"/><rect class="cls-1" x="192.48" y="160.39" width="10.69" height="10.7"/><rect class="cls-4" x="192.48" y="149.7" width="10.69" height="10.69"/><rect class="cls-1" x="192.48" width="10.69" height="10.69"/><rect class="cls-1" x="181.79" y="171.09" width="10.69" height="10.69"/><rect class="cls-1" x="181.79" y="160.39" width="10.69" height="10.7"/><rect class="cls-4" x="181.79" y="149.7" width="10.69" height="10.69"/><rect class="cls-1" x="181.79" width="10.69" height="10.69"/><rect class="cls-1" x="171.09" y="171.09" width="10.7" height="10.69"/><rect class="cls-1" x="171.09" y="160.39" width="10.7" height="10.7"/><rect class="cls-4" x="171.09" y="149.7" width="10.7" height="10.69"/><rect class="cls-1" x="171.09" width="10.7" height="10.69"/><rect class="cls-1" x="160.4" y="171.09" width="10.69" height="10.69"/><rect class="cls-1" x="160.4" y="160.39" width="10.69" height="10.7"/><rect class="cls-4" x="160.4" y="149.7" width="10.69" height="10.69"/><rect class="cls-1" x="160.4" width="10.69" height="10.69"/><rect class="cls-1" x="149.71" y="171.09" width="10.69" height="10.69"/><rect class="cls-1" x="149.71" y="160.39" width="10.69" height="10.7"/><rect class="cls-4" x="149.71" y="149.7" width="10.69" height="10.69"/><rect class="cls-1" x="149.71" width="10.69" height="10.69"/><rect class="cls-1" x="139.01" y="171.09" width="10.7" height="10.69"/><rect class="cls-1" x="139.01" y="160.39" width="10.7" height="10.7"/><rect class="cls-4" x="139.01" y="149.7" width="10.7" height="10.69"/><rect class="cls-1" x="139.01" width="10.7" height="10.69"/><rect class="cls-1" x="128.32" y="171.09" width="10.69" height="10.69"/><rect class="cls-1" x="128.32" y="160.39" width="10.69" height="10.7"/><rect class="cls-4" x="128.32" y="149.7" width="10.69" height="10.69"/><rect class="cls-1" x="128.32" width="10.69" height="10.69"/><rect class="cls-1" x="117.63" y="171.09" width="10.69" height="10.69"/><rect class="cls-1" x="117.63" y="160.39" width="10.69" height="10.7"/><rect class="cls-4" x="117.63" y="149.7" width="10.69" height="10.69"/><rect class="cls-1" x="117.63" width="10.69" height="10.69"/><rect class="cls-1" x="106.94" y="171.09" width="10.69" height="10.69"/><rect class="cls-1" x="106.94" y="160.39" width="10.69" height="10.7"/><rect class="cls-4" x="106.94" y="149.7" width="10.69" height="10.69"/><rect class="cls-1" x="106.94" width="10.69" height="10.69"/><rect class="cls-1" x="96.24" y="171.09" width="10.7" height="10.69"/><rect class="cls-1" x="96.24" y="160.39" width="10.7" height="10.7"/><rect class="cls-4" x="96.24" y="149.7" width="10.7" height="10.69"/><rect class="cls-1" x="96.24" width="10.7" height="10.69"/><rect class="cls-1" x="85.55" y="171.09" width="10.69" height="10.69"/><rect class="cls-1" x="85.55" y="160.39" width="10.69" height="10.7"/><rect class="cls-4" x="85.55" y="149.7" width="10.69" height="10.69"/><rect class="cls-1" x="85.55" width="10.69" height="10.69"/><rect class="cls-1" x="74.86" y="171.09" width="10.69" height="10.69"/><rect class="cls-1" x="74.86" y="160.39" width="10.69" height="10.7"/><rect class="cls-4" x="74.86" y="149.7" width="10.69" height="10.69"/><rect class="cls-1" x="74.86" width="10.69" height="10.69"/><rect class="cls-1" x="64.16" y="171.09" width="10.7" height="10.69"/><rect class="cls-1" x="64.16" y="160.39" width="10.7" height="10.7"/><rect class="cls-4" x="64.16" y="149.7" width="10.7" height="10.69"/><rect class="cls-1" x="64.16" width="10.7" height="10.69"/><rect class="cls-1" x="53.47" y="171.09" width="10.69" height="10.69"/><rect class="cls-1" x="53.47" y="160.39" width="10.69" height="10.7"/><rect class="cls-4" x="53.47" y="149.7" width="10.69" height="10.69"/><rect class="cls-4" x="53.47" y="139.01" width="10.69" height="10.69"/><rect class="cls-1" x="53.47" width="10.69" height="10.69"/><rect class="cls-1" x="42.78" y="171.09" width="10.69" height="10.69"/><rect class="cls-1" x="42.78" y="160.39" width="10.69" height="10.7"/><rect class="cls-3" x="42.78" y="149.7" width="10.69" height="10.69"/><rect class="cls-4" x="42.78" y="139.01" width="10.69" height="10.69"/><rect class="cls-4" x="42.78" y="128.31" width="10.69" height="10.7"/><rect class="cls-1" x="42.78" width="10.69" height="10.69"/><rect class="cls-1" x="32.08" y="171.09" width="10.7" height="10.69"/><rect class="cls-1" x="32.08" y="160.39" width="10.7" height="10.7"/><rect class="cls-3" x="32.08" y="149.7" width="10.7" height="10.69"/><rect class="cls-3" x="32.08" y="139.01" width="10.7" height="10.69"/><rect class="cls-4" x="32.08" y="128.31" width="10.7" height="10.7"/><rect class="cls-1" x="32.08" width="10.7" height="10.69"/><rect class="cls-1" x="21.39" y="160.39" width="10.69" height="10.7"/><rect class="cls-1" x="21.39" y="149.7" width="10.69" height="10.69"/><rect class="cls-3" x="21.39" y="139.01" width="10.69" height="10.69"/><rect class="cls-4" x="21.39" y="128.31" width="10.69" height="10.7"/><rect class="cls-1" x="21.39" y="21.38" width="10.69" height="10.7"/><rect class="cls-1" x="21.39" y="10.69" width="10.69" height="10.69"/><rect class="cls-1" x="10.7" y="149.7" width="10.69" height="10.69"/><rect class="cls-1" x="10.7" y="139.01" width="10.69" height="10.69"/><rect class="cls-1" x="10.7" y="128.31" width="10.69" height="10.7"/><rect class="cls-1" x="10.7" y="42.77" width="10.69" height="10.69"/><rect class="cls-1" x="10.7" y="32.08" width="10.69" height="10.69"/><rect class="cls-1" y="117.62" width="10.7" height="10.69"/><rect class="cls-1" y="106.93" width="10.7" height="10.69"/><rect class="cls-1" y="96.24" width="10.7" height="10.69"/><rect class="cls-1" y="85.54" width="10.7" height="10.7"/><rect class="cls-1" y="74.85" width="10.7" height="10.69"/><rect class="cls-1" y="64.16" width="10.7" height="10.69"/><rect class="cls-1" y="53.46" width="10.7" height="10.7"/></g></g></svg>