<svg xmlns="http://www.w3.org/2000/svg" viewBox="0 0 759.21 652.28"><defs><style>.cls-1{fill:#2c2c2c;}.cls-2{fill:#a2a2a2;}.cls-3{fill:#e2e2e2;}.cls-4{fill:#f2f2f2;}</style></defs><g id="Capa_2" data-name="Capa 2"><g id="text_box" data-name="text box"><rect class="cls-1" x="748.51" y="588.12" width="10.7" height="10.69"/><rect class="cls-1" x="748.51" y="577.43" width="10.7" height="10.69"/><rect class="cls-1" x="748.51" y="566.73" width="10.7" height="10.7"/><rect class="cls-1" x="748.51" y="556.04" width="10.7" height="10.69"/><rect class="cls-1" x="748.51" y="545.35" width="10.7" height="10.69"/><rect class="cls-1" x="748.51" y="534.65" width="10.7" height="10.7"/><rect class="cls-1" x="748.51" y="523.96" width="10.7" height="10.69"/><rect class="cls-1" x="748.51" y="513.27" width="10.7" height="10.69"/><rect class="cls-1" x="748.51" y="502.58" width="10.7" height="10.69"/><rect class="cls-1" x="748.51" y="491.88" width="10.7" height="10.7"/><rect class="cls-1" x="748.51" y="481.19" width="10.7" height="10.69"/><rect class="cls-1" x="748.51" y="470.5" width="10.7" height="10.69"/><rect class="cls-1" x="748.51" y="459.8" width="10.7" height="10.7"/><rect class="cls-1" x="748.51" y="449.11" width="10.7" height="10.69"/><rect class="cls-1" x="748.51" y="438.42" width="10.7" height="10.69"/><rect class="cls-1" x="748.51" y="427.72" width="10.7" height="10.7"/><rect class="cls-1" x="748.51" y="417.03" width="10.7" height="10.69"/><rect class="cls-1" x="748.51" y="406.34" width="10.7" height="10.69"/><rect class="cls-1" x="748.51" y="395.64" width="10.7" height="10.7"/><rect class="cls-1" x="748.51" y="384.95" width="10.7" height="10.69"/><rect class="cls-1" x="748.51" y="374.26" width="10.7" height="10.69"/><rect class="cls-1" x="748.51" y="363.57" width="10.7" height="10.69"/><rect class="cls-1" x="748.51" y="352.87" width="10.7" height="10.7"/><rect class="cls-1" x="748.51" y="342.18" width="10.7" height="10.69"/><rect class="cls-1" x="748.51" y="331.49" width="10.7" height="10.69"/><rect class="cls-1" x="748.51" y="320.79" width="10.7" height="10.7"/><rect class="cls-1" x="748.51" y="310.1" width="10.7" height="10.69"/><rect class="cls-1" x="748.51" y="299.41" width="10.7" height="10.69"/><rect class="cls-1" x="748.51" y="288.71" width="10.7" height="10.7"/><rect class="cls-1" x="748.51" y="278.02" width="10.7" height="10.69"/><rect class="cls-1" x="748.51" y="267.33" width="10.7" height="10.69"/><rect class="cls-1" x="748.51" y="256.64" width="10.7" height="10.69"/><rect class="cls-1" x="748.51" y="245.94" width="10.7" height="10.7"/><rect class="cls-1" x="748.51" y="235.25" width="10.7" height="10.69"/><rect class="cls-1" x="748.51" y="224.56" width="10.7" height="10.69"/><rect class="cls-1" x="748.51" y="213.86" width="10.7" height="10.7"/><rect class="cls-1" x="748.51" y="203.17" width="10.7" height="10.69"/><rect class="cls-1" x="748.51" y="192.48" width="10.7" height="10.69"/><rect class="cls-1" x="748.51" y="181.78" width="10.7" height="10.7"/><rect class="cls-1" x="748.51" y="171.09" width="10.7" height="10.69"/><rect class="cls-1" x="748.51" y="160.4" width="10.7" height="10.69"/><rect class="cls-1" x="748.51" y="149.7" width="10.7" height="10.7"/><rect class="cls-1" x="748.51" y="139.01" width="10.7" height="10.69"/><rect class="cls-1" x="748.51" y="128.32" width="10.7" height="10.69"/><rect class="cls-1" x="748.51" y="117.63" width="10.7" height="10.69"/><rect class="cls-1" x="748.51" y="106.93" width="10.7" height="10.7"/><rect class="cls-1" x="748.51" y="96.24" width="10.7" height="10.69"/><rect class="cls-1" x="748.51" y="85.55" width="10.7" height="10.69"/><rect class="cls-1" x="748.51" y="74.85" width="10.7" height="10.7"/><rect class="cls-1" x="748.51" y="64.16" width="10.7" height="10.69"/><rect class="cls-1" x="748.51" y="53.47" width="10.7" height="10.69"/><rect class="cls-1" x="737.82" y="620.2" width="10.69" height="10.69"/><rect class="cls-1" x="737.82" y="609.51" width="10.69" height="10.69"/><rect class="cls-1" x="737.82" y="598.81" width="10.69" height="10.7"/><rect class="cls-2" x="737.82" y="588.12" width="10.69" height="10.69"/><rect class="cls-3" x="737.82" y="577.43" width="10.69" height="10.69"/><polygon class="cls-4" points="748.51 566.73 748.51 577.43 737.82 577.43 727.13 577.43 716.43 577.43 716.43 588.12 716.43 598.81 705.74 598.81 695.05 598.81 684.36 598.81 673.66 598.81 662.97 598.81 652.28 598.81 641.58 598.81 630.89 598.81 620.2 598.81 609.5 598.81 598.81 598.81 588.12 598.81 577.42 598.81 566.73 598.81 556.04 598.81 545.35 598.81 534.65 598.81 523.96 598.81 513.27 598.81 502.57 598.81 491.88 598.81 481.19 598.81 470.49 598.81 459.8 598.81 449.11 598.81 438.41 598.81 427.72 598.81 417.03 598.81 406.34 598.81 395.64 598.81 384.95 598.81 374.26 598.81 363.56 598.81 352.87 598.81 342.18 598.81 331.48 598.81 320.79 598.81 310.1 598.81 299.41 598.81 288.71 598.81 278.02 598.81 267.33 598.81 256.63 598.81 245.94 598.81 235.25 598.81 224.55 598.81 213.86 598.81 203.17 598.81 192.47 598.81 181.78 598.81 171.09 598.81 160.4 598.81 149.7 598.81 139.01 598.81 128.32 598.81 117.62 598.81 106.93 598.81 96.24 598.81 85.54 598.81 74.85 598.81 64.16 598.81 53.46 598.81 42.77 598.81 42.77 588.12 42.77 577.43 32.08 577.43 21.39 577.43 10.69 577.43 10.69 566.73 10.69 556.04 10.69 545.35 10.69 534.65 10.69 523.96 10.69 513.27 10.69 502.58 10.69 491.88 10.69 481.19 10.69 470.5 10.69 459.8 10.69 449.11 10.69 438.42 10.69 427.72 10.69 417.03 10.69 406.34 10.69 395.64 10.69 384.95 10.69 374.26 10.69 363.57 10.69 352.87 10.69 342.18 10.69 331.49 10.69 320.79 10.69 310.1 10.69 299.41 10.69 288.71 10.69 278.02 10.69 267.33 10.69 256.64 10.69 245.94 10.69 235.25 10.69 224.56 10.69 213.86 10.69 203.17 10.69 192.48 10.69 181.78 10.69 171.09 10.69 160.4 10.69 149.7 10.69 139.01 10.69 128.32 10.69 117.63 10.69 106.93 10.69 96.24 10.69 85.55 10.69 74.85 10.69 64.16 10.69 53.47 21.39 53.47 21.39 42.77 21.39 32.08 32.08 32.08 32.08 21.39 32.08 10.69 42.77 10.69 53.46 10.69 64.16 10.69 74.85 10.69 85.54 10.69 96.24 10.69 106.93 10.69 117.62 10.69 128.32 10.69 139.01 10.69 149.7 10.69 160.4 10.69 171.09 10.69 181.78 10.69 192.47 10.69 203.17 10.69 213.86 10.69 224.55 10.69 235.25 10.69 245.94 10.69 256.63 10.69 267.33 10.69 278.02 10.69 288.71 10.69 299.41 10.69 310.1 10.69 320.79 10.69 331.48 10.69 342.18 10.69 352.87 10.69 363.56 10.69 374.26 10.69 384.95 10.69 395.64 10.69 406.34 10.69 417.03 10.69 427.72 10.69 438.41 10.69 449.11 10.69 459.8 10.69 470.49 10.69 481.19 10.69 491.88 10.69 502.57 10.69 513.27 10.69 523.96 10.69 534.65 10.69 545.35 10.69 556.04 10.69 566.73 10.69 577.42 10.69 588.12 10.69 598.81 10.69 609.5 10.69 620.2 10.69 630.89 10.69 641.58 10.69 652.28 10.69 662.97 10.69 673.66 10.69 684.36 10.69 695.05 10.69 705.74 10.69 716.43 10.69 727.13 10.69 727.13 21.39 727.13 32.08 737.82 32.08 737.82 42.77 737.82 53.47 748.51 53.47 748.51 64.16 748.51 74.85 748.51 85.55 748.51 96.24 748.51 106.93 748.51 117.63 748.51 128.32 748.51 139.01 748.51 149.7 748.51 160.4 748.51 171.09 748.51 181.78 748.51 192.48 748.51 203.17 748.51 213.86 748.51 224.56 748.51 235.25 748.51 245.94 748.51 256.64 748.51 267.33 748.51 278.02 748.51 288.71 748.51 299.41 748.51 310.1 748.51 320.79 748.51 331.49 748.51 342.18 748.51 352.87 748.51 363.57 748.51 374.26 748.51 384.95 748.51 395.64 748.51 406.34 748.51 417.03 748.51 427.72 748.51 438.42 748.51 449.11 748.51 459.8 748.51 470.5 748.51 481.19 748.51 491.88 748.51 502.58 748.51 513.27 748.51 523.96 748.51 534.65 748.51 545.35 748.51 556.04 748.51 566.73"/><rect class="cls-1" x="737.82" y="42.77" width="10.69" height="10.7"/><rect class="cls-1" x="737.82" y="32.08" width="10.69" height="10.69"/><rect class="cls-1" x="727.13" y="630.89" width="10.69" height="10.7"/><rect class="cls-1" x="727.13" y="620.2" width="10.69" height="10.69"/><rect class="cls-2" x="727.13" y="609.51" width="10.69" height="10.69"/><rect class="cls-2" x="727.13" y="598.81" width="10.69" height="10.7"/><rect class="cls-2" x="727.13" y="588.12" width="10.69" height="10.69"/><rect class="cls-3" x="727.13" y="577.43" width="10.69" height="10.69"/><rect class="cls-1" x="727.13" y="21.39" width="10.69" height="10.69"/><rect class="cls-1" x="727.13" y="10.69" width="10.69" height="10.7"/><rect class="cls-1" x="716.43" y="641.59" width="10.7" height="10.69"/><rect class="cls-1" x="716.43" y="630.89" width="10.7" height="10.7"/><rect class="cls-2" x="716.43" y="620.2" width="10.7" height="10.69"/><rect class="cls-2" x="716.43" y="609.51" width="10.7" height="10.69"/><rect class="cls-3" x="716.43" y="598.81" width="10.7" height="10.7"/><rect class="cls-3" x="716.43" y="588.12" width="10.7" height="10.69"/><rect class="cls-3" x="716.43" y="577.43" width="10.7" height="10.69"/><rect class="cls-1" x="716.43" width="10.7" height="10.69"/><rect class="cls-1" x="705.74" y="641.59" width="10.69" height="10.69"/><rect class="cls-1" x="705.74" y="630.89" width="10.69" height="10.7"/><rect class="cls-2" x="705.74" y="620.2" width="10.69" height="10.69"/><rect class="cls-3" x="705.74" y="609.51" width="10.69" height="10.69"/><rect class="cls-3" x="705.74" y="598.81" width="10.69" height="10.7"/><rect class="cls-1" x="705.74" width="10.69" height="10.69"/><rect class="cls-1" x="695.05" y="641.59" width="10.69" height="10.69"/><rect class="cls-1" x="695.05" y="630.89" width="10.69" height="10.7"/><rect class="cls-2" x="695.05" y="620.2" width="10.69" height="10.69"/><rect class="cls-3" x="695.05" y="609.51" width="10.69" height="10.69"/><rect class="cls-3" x="695.05" y="598.81" width="10.69" height="10.7"/><rect class="cls-1" x="695.05" width="10.69" height="10.69"/><rect class="cls-1" x="684.36" y="641.59" width="10.69" height="10.69"/><rect class="cls-1" x="684.36" y="630.89" width="10.69" height="10.7"/><rect class="cls-2" x="684.36" y="620.2" width="10.69" height="10.69"/><rect class="cls-3" x="684.36" y="609.51" width="10.69" height="10.69"/><rect class="cls-3" x="684.36" y="598.81" width="10.69" height="10.7"/><rect class="cls-1" x="684.36" width="10.69" height="10.69"/><rect class="cls-1" x="673.66" y="641.59" width="10.7" height="10.69"/><rect class="cls-1" x="673.66" y="630.89" width="10.7" height="10.7"/><rect class="cls-2" x="673.66" y="620.2" width="10.7" height="10.69"/><rect class="cls-3" x="673.66" y="609.51" width="10.7" height="10.69"/><rect class="cls-3" x="673.66" y="598.81" width="10.7" height="10.7"/><rect class="cls-1" x="673.66" width="10.7" height="10.69"/><rect class="cls-1" x="662.97" y="641.59" width="10.69" height="10.69"/><rect class="cls-1" x="662.97" y="630.89" width="10.69" height="10.7"/><rect class="cls-2" x="662.97" y="620.2" width="10.69" height="10.69"/><rect class="cls-3" x="662.97" y="609.51" width="10.69" height="10.69"/><rect class="cls-3" x="662.97" y="598.81" width="10.69" height="10.7"/><rect class="cls-1" x="662.97" width="10.69" height="10.69"/><rect class="cls-1" x="652.28" y="641.59" width="10.69" height="10.69"/><rect class="cls-1" x="652.28" y="630.89" width="10.69" height="10.7"/><rect class="cls-2" x="652.28" y="620.2" width="10.69" height="10.69"/><rect class="cls-3" x="652.28" y="609.51" width="10.69" height="10.69"/><rect class="cls-3" x="652.28" y="598.81" width="10.69" height="10.7"/><rect class="cls-1" x="652.28" width="10.69" height="10.69"/><rect class="cls-1" x="641.58" y="641.59" width="10.7" height="10.69"/><rect class="cls-1" x="641.58" y="630.89" width="10.7" height="10.7"/><rect class="cls-2" x="641.58" y="620.2" width="10.7" height="10.69"/><rect class="cls-3" x="641.58" y="609.51" width="10.7" height="10.69"/><rect class="cls-3" x="641.58" y="598.81" width="10.7" height="10.7"/><rect class="cls-1" x="641.58" width="10.7" height="10.69"/><rect class="cls-1" x="630.89" y="641.59" width="10.69" height="10.69"/><rect class="cls-1" x="630.89" y="630.89" width="10.69" height="10.7"/><rect class="cls-2" x="630.89" y="620.2" width="10.69" height="10.69"/><rect class="cls-3" x="630.89" y="609.51" width="10.69" height="10.69"/><rect class="cls-3" x="630.89" y="598.81" width="10.69" height="10.7"/><rect class="cls-1" x="630.89" width="10.69" height="10.69"/><rect class="cls-1" x="620.2" y="641.59" width="10.69" height="10.69"/><rect class="cls-1" x="620.2" y="630.89" width="10.69" height="10.7"/><rect class="cls-2" x="620.2" y="620.2" width="10.69" height="10.69"/><rect class="cls-3" x="620.2" y="609.51" width="10.69" height="10.69"/><rect class="cls-3" x="620.2" y="598.81" width="10.69" height="10.7"/><rect class="cls-1" x="620.2" width="10.69" height="10.69"/><rect class="cls-1" x="609.5" y="641.59" width="10.7" height="10.69"/><rect class="cls-1" x="609.5" y="630.89" width="10.7" height="10.7"/><rect class="cls-2" x="609.5" y="620.2" width="10.7" height="10.69"/><rect class="cls-3" x="609.5" y="609.51" width="10.7" height="10.69"/><rect class="cls-3" x="609.5" y="598.81" width="10.7" height="10.7"/><rect class="cls-1" x="609.5" width="10.7" height="10.69"/><rect class="cls-1" x="598.81" y="641.59" width="10.69" height="10.69"/><rect class="cls-1" x="598.81" y="630.89" width="10.69" height="10.7"/><rect class="cls-2" x="598.81" y="620.2" width="10.69" height="10.69"/><rect class="cls-3" x="598.81" y="609.51" width="10.69" height="10.69"/><rect class="cls-3" x="598.81" y="598.81" width="10.69" height="10.7"/><rect class="cls-1" x="598.81" width="10.69" height="10.69"/><rect class="cls-1" x="588.12" y="641.59" width="10.69" height="10.69"/><rect class="cls-1" x="588.12" y="630.89" width="10.69" height="10.7"/><rect class="cls-2" x="588.12" y="620.2" width="10.69" height="10.69"/><rect class="cls-3" x="588.12" y="609.51" width="10.69" height="10.69"/><rect class="cls-3" x="588.12" y="598.81" width="10.69" height="10.7"/><rect class="cls-1" x="588.12" width="10.69" height="10.69"/><rect class="cls-1" x="577.42" y="641.59" width="10.7" height="10.69"/><rect class="cls-1" x="577.42" y="630.89" width="10.7" height="10.7"/><rect class="cls-2" x="577.42" y="620.2" width="10.7" height="10.69"/><rect class="cls-3" x="577.42" y="609.51" width="10.7" height="10.69"/><rect class="cls-3" x="577.42" y="598.81" width="10.7" height="10.7"/><rect class="cls-1" x="577.42" width="10.7" height="10.69"/><rect class="cls-1" x="566.73" y="641.59" width="10.69" height="10.69"/><rect class="cls-1" x="566.73" y="630.89" width="10.69" height="10.7"/><rect class="cls-2" x="566.73" y="620.2" width="10.69" height="10.69"/><rect class="cls-3" x="566.73" y="609.51" width="10.69" height="10.69"/><rect class="cls-3" x="566.73" y="598.81" width="10.69" height="10.7"/><rect class="cls-1" x="566.73" width="10.69" height="10.69"/><rect class="cls-1" x="556.04" y="641.59" width="10.69" height="10.69"/><rect class="cls-1" x="556.04" y="630.89" width="10.69" height="10.7"/><rect class="cls-2" x="556.04" y="620.2" width="10.69" height="10.69"/><rect class="cls-3" x="556.04" y="609.51" width="10.69" height="10.69"/><rect class="cls-3" x="556.04" y="598.81" width="10.69" height="10.7"/><rect class="cls-1" x="556.04" width="10.69" height="10.69"/><rect class="cls-1" x="545.35" y="641.59" width="10.69" height="10.69"/><rect class="cls-1" x="545.35" y="630.89" width="10.69" height="10.7"/><rect class="cls-2" x="545.35" y="620.2" width="10.69" height="10.69"/><rect class="cls-3" x="545.35" y="609.51" width="10.69" height="10.69"/><rect class="cls-3" x="545.35" y="598.81" width="10.69" height="10.7"/><rect class="cls-1" x="545.35" width="10.69" height="10.69"/><rect class="cls-1" x="534.65" y="641.59" width="10.7" height="10.69"/><rect class="cls-1" x="534.65" y="630.89" width="10.7" height="10.7"/><rect class="cls-2" x="534.65" y="620.2" width="10.7" height="10.69"/><rect class="cls-3" x="534.65" y="609.51" width="10.7" height="10.69"/><rect class="cls-3" x="534.65" y="598.81" width="10.7" height="10.7"/><rect class="cls-1" x="534.65" width="10.7" height="10.69"/><rect class="cls-1" x="523.96" y="641.59" width="10.69" height="10.69"/><rect class="cls-1" x="523.96" y="630.89" width="10.69" height="10.7"/><rect class="cls-2" x="523.96" y="620.2" width="10.69" height="10.69"/><rect class="cls-3" x="523.96" y="609.51" width="10.69" height="10.69"/><rect class="cls-3" x="523.96" y="598.81" width="10.69" height="10.7"/><rect class="cls-1" x="523.96" width="10.69" height="10.69"/><rect class="cls-1" x="513.27" y="641.59" width="10.69" height="10.69"/><rect class="cls-1" x="513.27" y="630.89" width="10.69" height="10.7"/><rect class="cls-2" x="513.27" y="620.2" width="10.69" height="10.69"/><rect class="cls-3" x="513.27" y="609.51" width="10.69" height="10.69"/><rect class="cls-3" x="513.27" y="598.81" width="10.69" height="10.7"/><rect class="cls-1" x="513.27" width="10.69" height="10.69"/><rect class="cls-1" x="502.57" y="641.59" width="10.7" height="10.69"/><rect class="cls-1" x="502.57" y="630.89" width="10.7" height="10.7"/><rect class="cls-2" x="502.57" y="620.2" width="10.7" height="10.69"/><rect class="cls-3" x="502.57" y="609.51" width="10.7" height="10.69"/><rect class="cls-3" x="502.57" y="598.81" width="10.7" height="10.7"/><rect class="cls-1" x="502.57" width="10.7" height="10.69"/><rect class="cls-1" x="491.88" y="641.59" width="10.69" height="10.69"/><rect class="cls-1" x="491.88" y="630.89" width="10.69" height="10.7"/><rect class="cls-2" x="491.88" y="620.2" width="10.69" height="10.69"/><rect class="cls-3" x="491.88" y="609.51" width="10.69" height="10.69"/><rect class="cls-3" x="491.88" y="598.81" width="10.69" height="10.7"/><rect class="cls-1" x="491.88" width="10.69" height="10.69"/><rect class="cls-1" x="481.19" y="641.59" width="10.69" height="10.69"/><rect class="cls-1" x="481.19" y="630.89" width="10.69" height="10.7"/><rect class="cls-2" x="481.19" y="620.2" width="10.69" height="10.69"/><rect class="cls-3" x="481.19" y="609.51" width="10.69" height="10.69"/><rect class="cls-3" x="481.19" y="598.81" width="10.69" height="10.7"/><rect class="cls-1" x="481.19" width="10.69" height="10.69"/><rect class="cls-1" x="470.49" y="641.59" width="10.7" height="10.69"/><rect class="cls-1" x="470.49" y="630.89" width="10.7" height="10.7"/><rect class="cls-2" x="470.49" y="620.2" width="10.7" height="10.69"/><rect class="cls-3" x="470.49" y="609.51" width="10.7" height="10.69"/><rect class="cls-3" x="470.49" y="598.81" width="10.7" height="10.7"/><rect class="cls-1" x="470.49" width="10.7" height="10.69"/><rect class="cls-1" x="459.8" y="641.59" width="10.69" height="10.69"/><rect class="cls-1" x="459.8" y="630.89" width="10.69" height="10.7"/><rect class="cls-2" x="459.8" y="620.2" width="10.69" height="10.69"/><rect class="cls-3" x="459.8" y="609.51" width="10.69" height="10.69"/><rect class="cls-3" x="459.8" y="598.81" width="10.69" height="10.7"/><rect class="cls-1" x="459.8" width="10.69" height="10.69"/><rect class="cls-1" x="449.11" y="641.59" width="10.69" height="10.69"/><rect class="cls-1" x="449.11" y="630.89" width="10.69" height="10.7"/><rect class="cls-2" x="449.11" y="620.2" width="10.69" height="10.69"/><rect class="cls-3" x="449.11" y="609.51" width="10.69" height="10.69"/><rect class="cls-3" x="449.11" y="598.81" width="10.69" height="10.7"/><rect class="cls-1" x="449.11" width="10.69" height="10.69"/><rect class="cls-1" x="438.41" y="641.59" width="10.7" height="10.69"/><rect class="cls-1" x="438.41" y="630.89" width="10.7" height="10.7"/><rect class="cls-2" x="438.41" y="620.2" width="10.7" height="10.69"/><rect class="cls-3" x="438.41" y="609.51" width="10.7" height="10.69"/><rect class="cls-3" x="438.41" y="598.81" width="10.7" height="10.7"/><rect class="cls-1" x="438.41" width="10.7" height="10.69"/><rect class="cls-1" x="427.72" y="641.59" width="10.69" height="10.69"/><rect class="cls-1" x="427.72" y="630.89" width="10.69" height="10.7"/><rect class="cls-2" x="427.72" y="620.2" width="10.69" height="10.69"/><rect class="cls-3" x="427.72" y="609.51" width="10.69" height="10.69"/><rect class="cls-3" x="427.72" y="598.81" width="10.69" height="10.7"/><rect class="cls-1" x="427.72" width="10.69" height="10.69"/><rect class="cls-1" x="417.03" y="641.59" width="10.69" height="10.69"/><rect class="cls-1" x="417.03" y="630.89" width="10.69" height="10.7"/><rect class="cls-2" x="417.03" y="620.2" width="10.69" height="10.69"/><rect class="cls-3" x="417.03" y="609.51" width="10.69" height="10.69"/><rect class="cls-3" x="417.03" y="598.81" width="10.69" height="10.7"/><rect class="cls-1" x="417.03" width="10.69" height="10.69"/><rect class="cls-1" x="406.34" y="641.59" width="10.69" height="10.69"/><rect class="cls-1" x="406.34" y="630.89" width="10.69" height="10.7"/><rect class="cls-2" x="406.34" y="620.2" width="10.69" height="10.69"/><rect class="cls-3" x="406.34" y="609.51" width="10.69" height="10.69"/><rect class="cls-3" x="406.34" y="598.81" width="10.69" height="10.7"/><rect class="cls-1" x="406.34" width="10.69" height="10.69"/><rect class="cls-1" x="395.64" y="641.59" width="10.7" height="10.69"/><rect class="cls-1" x="395.64" y="630.89" width="10.7" height="10.7"/><rect class="cls-2" x="395.64" y="620.2" width="10.7" height="10.69"/><rect class="cls-3" x="395.64" y="609.51" width="10.7" height="10.69"/><rect class="cls-3" x="395.64" y="598.81" width="10.7" height="10.7"/><rect class="cls-1" x="395.64" width="10.7" height="10.69"/><rect class="cls-1" x="384.95" y="641.59" width="10.69" height="10.69"/><rect class="cls-1" x="384.95" y="630.89" width="10.69" height="10.7"/><rect class="cls-2" x="384.95" y="620.2" width="10.69" height="10.69"/><rect class="cls-3" x="384.95" y="609.51" width="10.69" height="10.69"/><rect class="cls-3" x="384.95" y="598.81" width="10.69" height="10.7"/><rect class="cls-1" x="384.95" width="10.69" height="10.69"/><rect class="cls-1" x="374.26" y="641.59" width="10.69" height="10.69"/><rect class="cls-1" x="374.26" y="630.89" width="10.69" height="10.7"/><rect class="cls-2" x="374.26" y="620.2" width="10.69" height="10.69"/><rect class="cls-3" x="374.26" y="609.51" width="10.69" height="10.69"/><rect class="cls-3" x="374.26" y="598.81" width="10.69" height="10.7"/><rect class="cls-1" x="374.26" width="10.69" height="10.69"/><rect class="cls-1" x="363.56" y="641.59" width="10.7" height="10.69"/><rect class="cls-1" x="363.56" y="630.89" width="10.7" height="10.7"/><rect class="cls-2" x="363.56" y="620.2" width="10.7" height="10.69"/><rect class="cls-3" x="363.56" y="609.51" width="10.7" height="10.69"/><rect class="cls-3" x="363.56" y="598.81" width="10.7" height="10.7"/><rect class="cls-1" x="363.56" width="10.7" height="10.69"/><rect class="cls-1" x="352.87" y="641.59" width="10.69" height="10.69"/><rect class="cls-1" x="352.87" y="630.89" width="10.69" height="10.7"/><rect class="cls-2" x="352.87" y="620.2" width="10.69" height="10.69"/><rect class="cls-3" x="352.87" y="609.51" width="10.69" height="10.69"/><rect class="cls-3" x="352.87" y="598.81" width="10.69" height="10.7"/><rect class="cls-1" x="352.87" width="10.69" height="10.69"/><rect class="cls-1" x="342.18" y="641.59" width="10.69" height="10.69"/><rect class="cls-1" x="342.18" y="630.89" width="10.69" height="10.7"/><rect class="cls-2" x="342.18" y="620.2" width="10.69" height="10.69"/><rect class="cls-3" x="342.18" y="609.51" width="10.69" height="10.69"/><rect class="cls-3" x="342.18" y="598.81" width="10.69" height="10.7"/><rect class="cls-1" x="342.18" width="10.69" height="10.69"/><rect class="cls-1" x="331.48" y="641.59" width="10.7" height="10.69"/><rect class="cls-1" x="331.48" y="630.89" width="10.7" height="10.7"/><rect class="cls-2" x="331.48" y="620.2" width="10.7" height="10.69"/><rect class="cls-3" x="331.48" y="609.51" width="10.7" height="10.69"/><rect class="cls-3" x="331.48" y="598.81" width="10.7" height="10.7"/><rect class="cls-1" x="331.48" width="10.7" height="10.69"/><rect class="cls-1" x="320.79" y="641.59" width="10.69" height="10.69"/><rect class="cls-1" x="320.79" y="630.89" width="10.69" height="10.7"/><rect class="cls-2" x="320.79" y="620.2" width="10.69" height="10.69"/><rect class="cls-3" x="320.79" y="609.51" width="10.69" height="10.69"/><rect class="cls-3" x="320.79" y="598.81" width="10.69" height="10.7"/><rect class="cls-1" x="320.79" width="10.69" height="10.69"/><rect class="cls-1" x="310.1" y="641.59" width="10.69" height="10.69"/><rect class="cls-1" x="310.1" y="630.89" width="10.69" height="10.7"/><rect class="cls-2" x="310.1" y="620.2" width="10.69" height="10.69"/><rect class="cls-3" x="310.1" y="609.51" width="10.69" height="10.69"/><rect class="cls-3" x="310.1" y="598.81" width="10.69" height="10.7"/><rect class="cls-1" x="310.1" width="10.69" height="10.69"/><rect class="cls-1" x="299.41" y="641.59" width="10.69" height="10.69"/><rect class="cls-1" x="299.41" y="630.89" width="10.69" height="10.7"/><rect class="cls-2" x="299.41" y="620.2" width="10.69" height="10.69"/><rect class="cls-3" x="299.41" y="609.51" width="10.69" height="10.69"/><rect class="cls-3" x="299.41" y="598.81" width="10.69" height="10.7"/><rect class="cls-1" x="299.41" width="10.69" height="10.69"/><rect class="cls-1" x="288.71" y="641.59" width="10.7" height="10.69"/><rect class="cls-1" x="288.71" y="630.89" width="10.7" height="10.7"/><rect class="cls-2" x="288.71" y="620.2" width="10.7" height="10.69"/><rect class="cls-3" x="288.71" y="609.51" width="10.7" height="10.69"/><rect class="cls-3" x="288.71" y="598.81" width="10.7" height="10.7"/><rect class="cls-1" x="288.71" width="10.7" height="10.69"/><rect class="cls-1" x="278.02" y="641.59" width="10.69" height="10.69"/><rect class="cls-1" x="278.02" y="630.89" width="10.69" height="10.7"/><rect class="cls-2" x="278.02" y="620.2" width="10.69" height="10.69"/><rect class="cls-3" x="278.02" y="609.51" width="10.69" height="10.69"/><rect class="cls-3" x="278.02" y="598.81" width="10.69" height="10.7"/><rect class="cls-1" x="278.02" width="10.69" height="10.69"/><rect class="cls-1" x="267.33" y="641.59" width="10.69" height="10.69"/><rect class="cls-1" x="267.33" y="630.89" width="10.69" height="10.7"/><rect class="cls-2" x="267.33" y="620.2" width="10.69" height="10.69"/><rect class="cls-3" x="267.33" y="609.51" width="10.69" height="10.69"/><rect class="cls-3" x="267.33" y="598.81" width="10.69" height="10.7"/><rect class="cls-1" x="267.33" width="10.69" height="10.69"/><rect class="cls-1" x="256.63" y="641.59" width="10.7" height="10.69"/><rect class="cls-1" x="256.63" y="630.89" width="10.7" height="10.7"/><rect class="cls-2" x="256.63" y="620.2" width="10.7" height="10.69"/><rect class="cls-3" x="256.63" y="609.51" width="10.7" height="10.69"/><rect class="cls-3" x="256.63" y="598.81" width="10.7" height="10.7"/><rect class="cls-1" x="256.63" width="10.7" height="10.69"/><rect class="cls-1" x="245.94" y="641.59" width="10.69" height="10.69"/><rect class="cls-1" x="245.94" y="630.89" width="10.69" height="10.7"/><rect class="cls-2" x="245.94" y="620.2" width="10.69" height="10.69"/><rect class="cls-3" x="245.94" y="609.51" width="10.69" height="10.69"/><rect class="cls-3" x="245.94" y="598.81" width="10.69" height="10.7"/><rect class="cls-1" x="245.94" width="10.69" height="10.69"/><rect class="cls-1" x="235.25" y="641.59" width="10.69" height="10.69"/><rect class="cls-1" x="235.25" y="630.89" width="10.69" height="10.7"/><rect class="cls-2" x="235.25" y="620.2" width="10.69" height="10.69"/><rect class="cls-3" x="235.25" y="609.51" width="10.69" height="10.69"/><rect class="cls-3" x="235.25" y="598.81" width="10.69" height="10.7"/><rect class="cls-1" x="235.25" width="10.69" height="10.69"/><rect class="cls-1" x="224.55" y="641.59" width="10.7" height="10.69"/><rect class="cls-1" x="224.55" y="630.89" width="10.7" height="10.7"/><rect class="cls-2" x="224.55" y="620.2" width="10.7" height="10.69"/><rect class="cls-3" x="224.55" y="609.51" width="10.7" height="10.69"/><rect class="cls-3" x="224.55" y="598.81" width="10.7" height="10.7"/><rect class="cls-1" x="224.55" width="10.7" height="10.69"/><rect class="cls-1" x="213.86" y="641.59" width="10.69" height="10.69"/><rect class="cls-1" x="213.86" y="630.89" width="10.69" height="10.7"/><rect class="cls-2" x="213.86" y="620.2" width="10.69" height="10.69"/><rect class="cls-3" x="213.86" y="609.51" width="10.69" height="10.69"/><rect class="cls-3" x="213.86" y="598.81" width="10.69" height="10.7"/><rect class="cls-1" x="213.86" width="10.69" height="10.69"/><rect class="cls-1" x="203.17" y="641.59" width="10.69" height="10.69"/><rect class="cls-1" x="203.17" y="630.89" width="10.69" height="10.7"/><rect class="cls-2" x="203.17" y="620.2" width="10.69" height="10.69"/><rect class="cls-3" x="203.17" y="609.51" width="10.69" height="10.69"/><rect class="cls-3" x="203.17" y="598.81" width="10.69" height="10.7"/><rect class="cls-1" x="203.17" width="10.69" height="10.69"/><rect class="cls-1" x="192.47" y="641.59" width="10.7" height="10.69"/><rect class="cls-1" x="192.47" y="630.89" width="10.7" height="10.7"/><rect class="cls-2" x="192.47" y="620.2" width="10.7" height="10.69"/><rect class="cls-3" x="192.47" y="609.51" width="10.7" height="10.69"/><rect class="cls-3" x="192.47" y="598.81" width="10.7" height="10.7"/><rect class="cls-1" x="192.47" width="10.7" height="10.69"/><rect class="cls-1" x="181.78" y="641.59" width="10.69" height="10.69"/><rect class="cls-1" x="181.78" y="630.89" width="10.69" height="10.7"/><rect class="cls-2" x="181.78" y="620.2" width="10.69" height="10.69"/><rect class="cls-3" x="181.78" y="609.51" width="10.69" height="10.69"/><rect class="cls-3" x="181.78" y="598.81" width="10.69" height="10.7"/><rect class="cls-1" x="181.78" width="10.69" height="10.69"/><rect class="cls-1" x="171.09" y="641.59" width="10.69" height="10.69"/><rect class="cls-1" x="171.09" y="630.89" width="10.69" height="10.7"/><rect class="cls-2" x="171.09" y="620.2" width="10.69" height="10.69"/><rect class="cls-3" x="171.09" y="609.51" width="10.69" height="10.69"/><rect class="cls-3" x="171.09" y="598.81" width="10.69" height="10.7"/><rect class="cls-1" x="171.09" width="10.69" height="10.69"/><rect class="cls-1" x="160.4" y="641.59" width="10.69" height="10.69"/><rect class="cls-1" x="160.4" y="630.89" width="10.69" height="10.7"/><rect class="cls-2" x="160.4" y="620.2" width="10.69" height="10.69"/><rect class="cls-3" x="160.4" y="609.51" width="10.69" height="10.69"/><rect class="cls-3" x="160.4" y="598.81" width="10.69" height="10.7"/><rect class="cls-1" x="160.4" width="10.69" height="10.69"/><rect class="cls-1" x="149.7" y="641.59" width="10.7" height="10.69"/><rect class="cls-1" x="149.7" y="630.89" width="10.7" height="10.7"/><rect class="cls-2" x="149.7" y="620.2" width="10.7" height="10.69"/><rect class="cls-3" x="149.7" y="609.51" width="10.7" height="10.69"/><rect class="cls-3" x="149.7" y="598.81" width="10.7" height="10.7"/><rect class="cls-1" x="149.7" width="10.7" height="10.69"/><rect class="cls-1" x="139.01" y="641.59" width="10.69" height="10.69"/><rect class="cls-1" x="139.01" y="630.89" width="10.69" height="10.7"/><rect class="cls-2" x="139.01" y="620.2" width="10.69" height="10.69"/><rect class="cls-3" x="139.01" y="609.51" width="10.69" height="10.69"/><rect class="cls-3" x="139.01" y="598.81" width="10.69" height="10.7"/><rect class="cls-1" x="139.01" width="10.69" height="10.69"/><rect class="cls-1" x="128.32" y="641.59" width="10.69" height="10.69"/><rect class="cls-1" x="128.32" y="630.89" width="10.69" height="10.7"/><rect class="cls-2" x="128.32" y="620.2" width="10.69" height="10.69"/><rect class="cls-3" x="128.32" y="609.51" width="10.69" height="10.69"/><rect class="cls-3" x="128.32" y="598.81" width="10.69" height="10.7"/><rect class="cls-1" x="128.32" width="10.69" height="10.69"/><rect class="cls-1" x="117.62" y="641.59" width="10.7" height="10.69"/><rect class="cls-1" x="117.62" y="630.89" width="10.7" height="10.7"/><rect class="cls-2" x="117.62" y="620.2" width="10.7" height="10.69"/><rect class="cls-3" x="117.62" y="609.51" width="10.7" height="10.69"/><rect class="cls-3" x="117.62" y="598.81" width="10.7" height="10.7"/><rect class="cls-1" x="117.62" width="10.7" height="10.69"/><rect class="cls-1" x="106.93" y="641.59" width="10.69" height="10.69"/><rect class="cls-1" x="106.93" y="630.89" width="10.69" height="10.7"/><rect class="cls-2" x="106.93" y="620.2" width="10.69" height="10.69"/><rect class="cls-3" x="106.93" y="609.51" width="10.69" height="10.69"/><rect class="cls-3" x="106.93" y="598.81" width="10.69" height="10.7"/><rect class="cls-1" x="106.93" width="10.69" height="10.69"/><rect class="cls-1" x="96.24" y="641.59" width="10.69" height="10.69"/><rect class="cls-1" x="96.24" y="630.89" width="10.69" height="10.7"/><rect class="cls-2" x="96.24" y="620.2" width="10.69" height="10.69"/><rect class="cls-3" x="96.24" y="609.51" width="10.69" height="10.69"/><rect class="cls-3" x="96.24" y="598.81" width="10.69" height="10.7"/><rect class="cls-1" x="96.24" width="10.69" height="10.69"/><rect class="cls-1" x="85.54" y="641.59" width="10.7" height="10.69"/><rect class="cls-1" x="85.54" y="630.89" width="10.7" height="10.7"/><rect class="cls-2" x="85.54" y="620.2" width="10.7" height="10.69"/><rect class="cls-3" x="85.54" y="609.51" width="10.7" height="10.69"/><rect class="cls-3" x="85.54" y="598.81" width="10.7" height="10.7"/><rect class="cls-1" x="85.54" width="10.7" height="10.69"/><rect class="cls-1" x="74.85" y="641.59" width="10.69" height="10.69"/><rect class="cls-1" x="74.85" y="630.89" width="10.69" height="10.7"/><rect class="cls-2" x="74.85" y="620.2" width="10.69" height="10.69"/><rect class="cls-3" x="74.85" y="609.51" width="10.69" height="10.69"/><rect class="cls-3" x="74.85" y="598.81" width="10.69" height="10.7"/><rect class="cls-1" x="74.85" width="10.69" height="10.69"/><rect class="cls-1" x="64.16" y="641.59" width="10.69" height="10.69"/><rect class="cls-1" x="64.16" y="630.89" width="10.69" height="10.7"/><rect class="cls-2" x="64.16" y="620.2" width="10.69" height="10.69"/><rect class="cls-3" x="64.16" y="609.51" width="10.69" height="10.69"/><rect class="cls-3" x="64.16" y="598.81" width="10.69" height="10.7"/><rect class="cls-1" x="64.16" width="10.69" height="10.69"/><rect class="cls-1" x="53.46" y="641.59" width="10.7" height="10.69"/><rect class="cls-1" x="53.46" y="630.89" width="10.7" height="10.7"/><rect class="cls-2" x="53.46" y="620.2" width="10.7" height="10.69"/><rect class="cls-3" x="53.46" y="609.51" width="10.7" height="10.69"/><rect class="cls-3" x="53.46" y="598.81" width="10.7" height="10.7"/><rect class="cls-1" x="53.46" width="10.7" height="10.69"/><rect class="cls-1" x="42.77" y="641.59" width="10.69" height="10.69"/><rect class="cls-1" x="42.77" y="630.89" width="10.69" height="10.7"/><rect class="cls-2" x="42.77" y="620.2" width="10.69" height="10.69"/><rect class="cls-3" x="42.77" y="609.51" width="10.69" height="10.69"/><rect class="cls-3" x="42.77" y="598.81" width="10.69" height="10.7"/><rect class="cls-1" x="42.77" width="10.69" height="10.69"/><rect class="cls-1" x="32.08" y="641.59" width="10.69" height="10.69"/><rect class="cls-1" x="32.08" y="630.89" width="10.69" height="10.7"/><rect class="cls-2" x="32.08" y="620.2" width="10.69" height="10.69"/><rect class="cls-2" x="32.08" y="609.51" width="10.69" height="10.69"/><rect class="cls-3" x="32.08" y="598.81" width="10.69" height="10.7"/><rect class="cls-3" x="32.08" y="588.12" width="10.69" height="10.69"/><rect class="cls-3" x="32.08" y="577.43" width="10.69" height="10.69"/><rect class="cls-1" x="32.08" width="10.69" height="10.69"/><rect class="cls-1" x="21.39" y="630.89" width="10.69" height="10.7"/><rect class="cls-1" x="21.39" y="620.2" width="10.69" height="10.69"/><rect class="cls-2" x="21.39" y="609.51" width="10.69" height="10.69"/><rect class="cls-2" x="21.39" y="598.81" width="10.69" height="10.7"/><rect class="cls-2" x="21.39" y="588.12" width="10.69" height="10.69"/><rect class="cls-3" x="21.39" y="577.43" width="10.69" height="10.69"/><rect class="cls-1" x="21.39" y="21.39" width="10.69" height="10.69"/><rect class="cls-1" x="21.39" y="10.69" width="10.69" height="10.7"/><rect class="cls-1" x="10.69" y="620.2" width="10.7" height="10.69"/><rect class="cls-1" x="10.69" y="609.51" width="10.7" height="10.69"/><rect class="cls-1" x="10.69" y="598.81" width="10.7" height="10.7"/><rect class="cls-2" x="10.69" y="588.12" width="10.7" height="10.69"/><rect class="cls-3" x="10.69" y="577.43" width="10.7" height="10.69"/><rect class="cls-1" x="10.69" y="42.77" width="10.7" height="10.7"/><rect class="cls-1" x="10.69" y="32.08" width="10.7" height="10.69"/><rect class="cls-1" y="588.12" width="10.69" height="10.69"/><rect class="cls-1" y="577.43" width="10.69" height="10.69"/><rect class="cls-1" y="566.73" width="10.69" height="10.7"/><rect class="cls-1" y="556.04" width="10.69" height="10.69"/><rect class="cls-1" y="545.35" width="10.69" height="10.69"/><rect class="cls-1" y="534.65" width="10.69" height="10.7"/><rect class="cls-1" y="523.96" width="10.69" height="10.69"/><rect class="cls-1" y="513.27" width="10.69" height="10.69"/><rect class="cls-1" y="502.58" width="10.69" height="10.69"/><rect class="cls-1" y="491.88" width="10.69" height="10.7"/><rect class="cls-1" y="481.19" width="10.69" height="10.69"/><rect class="cls-1" y="470.5" width="10.69" height="10.69"/><rect class="cls-1" y="459.8" width="10.69" height="10.7"/><rect class="cls-1" y="449.11" width="10.69" height="10.69"/><rect class="cls-1" y="438.42" width="10.69" height="10.69"/><rect class="cls-1" y="427.72" width="10.69" height="10.7"/><rect class="cls-1" y="417.03" width="10.69" height="10.69"/><rect class="cls-1" y="406.34" width="10.69" height="10.69"/><rect class="cls-1" y="395.64" width="10.69" height="10.7"/><rect class="cls-1" y="384.95" width="10.69" height="10.69"/><rect class="cls-1" y="374.26" width="10.69" height="10.69"/><rect class="cls-1" y="363.57" width="10.69" height="10.69"/><rect class="cls-1" y="352.87" width="10.69" height="10.7"/><rect class="cls-1" y="342.18" width="10.69" height="10.69"/><rect class="cls-1" y="331.49" width="10.69" height="10.69"/><rect class="cls-1" y="320.79" width="10.69" height="10.7"/><rect class="cls-1" y="310.1" width="10.69" height="10.69"/><rect class="cls-1" y="299.41" width="10.69" height="10.69"/><rect class="cls-1" y="288.71" width="10.69" height="10.7"/><rect class="cls-1" y="278.02" width="10.69" height="10.69"/><rect class="cls-1" y="267.33" width="10.69" height="10.69"/><rect class="cls-1" y="256.64" width="10.69" height="10.69"/><rect class="cls-1" y="245.94" width="10.69" height="10.7"/><rect class="cls-1" y="235.25" width="10.69" height="10.69"/><rect class="cls-1" y="224.56" width="10.69" height="10.69"/><rect class="cls-1" y="213.86" width="10.69" height="10.7"/><rect class="cls-1" y="203.17" width="10.69" height="10.69"/><rect class="cls-1" y="192.48" width="10.69" height="10.69"/><rect class="cls-1" y="181.78" width="10.69" height="10.7"/><rect class="cls-1" y="171.09" width="10.69" height="10.69"/><rect class="cls-1" y="160.4" width="10.69" height="10.69"/><rect class="cls-1" y="149.7" width="10.69" height="10.7"/><rect class="cls-1" y="139.01" width="10.69" height="10.69"/><rect class="cls-1" y="128.32" width="10.69" height="10.69"/><rect class="cls-1" y="117.63" width="10.69" height="10.69"/><rect class="cls-1" y="106.93" width="10.69" height="10.7"/><rect class="cls-1" y="96.24" width="10.69" height="10.69"/><rect class="cls-1" y="85.55" width="10.69" height="10.69"/><rect class="cls-1" y="74.85" width="10.69" height="10.7"/><rect class="cls-1" y="64.16" width="10.69" height="10.69"/><rect class="cls-1" y="53.47" width="10.69" height="10.69"/></g></g></svg>