<svg xmlns="http://www.w3.org/2000/svg" viewBox="0 0 577.43 406.33"><defs><style>.cls-1{fill:#2c2c2c;}.cls-2{fill:#f2f2f2;}.cls-3{fill:#a2a2a2;}.cls-4{fill:#e2e2e2;}</style></defs><g id="Capa_2" data-name="Capa 2"><g id="text_box" data-name="text box"><rect class="cls-1" x="566.73" y="331.48" width="10.7" height="10.69"/><rect class="cls-1" x="566.73" y="320.79" width="10.7" height="10.69"/><rect class="cls-1" x="566.73" y="310.09" width="10.7" height="10.7"/><rect class="cls-1" x="566.73" y="299.4" width="10.7" height="10.69"/><rect class="cls-1" x="566.73" y="288.71" width="10.7" height="10.69"/><rect class="cls-1" x="566.73" y="278.01" width="10.7" height="10.7"/><rect class="cls-1" x="566.73" y="267.32" width="10.7" height="10.69"/><rect class="cls-1" x="566.73" y="256.63" width="10.7" height="10.69"/><rect class="cls-1" x="566.73" y="245.94" width="10.7" height="10.69"/><rect class="cls-1" x="566.73" y="235.24" width="10.7" height="10.7"/><rect class="cls-1" x="566.73" y="224.55" width="10.7" height="10.69"/><rect class="cls-1" x="566.73" y="213.86" width="10.7" height="10.69"/><rect class="cls-1" x="566.73" y="203.16" width="10.7" height="10.7"/><rect class="cls-1" x="566.73" y="192.47" width="10.7" height="10.69"/><rect class="cls-1" x="566.73" y="181.78" width="10.7" height="10.69"/><rect class="cls-1" x="566.73" y="171.08" width="10.7" height="10.7"/><rect class="cls-1" x="566.73" y="160.39" width="10.7" height="10.69"/><rect class="cls-1" x="566.73" y="149.7" width="10.7" height="10.69"/><rect class="cls-1" x="566.73" y="139.01" width="10.7" height="10.69"/><rect class="cls-1" x="566.73" y="128.31" width="10.7" height="10.7"/><rect class="cls-1" x="566.73" y="117.62" width="10.7" height="10.69"/><rect class="cls-1" x="566.73" y="106.93" width="10.7" height="10.69"/><rect class="cls-1" x="566.73" y="96.23" width="10.7" height="10.7"/><rect class="cls-1" x="566.73" y="85.54" width="10.7" height="10.69"/><rect class="cls-1" x="566.73" y="74.85" width="10.7" height="10.69"/><rect class="cls-1" x="566.73" y="64.15" width="10.7" height="10.7"/><rect class="cls-1" x="566.73" y="53.46" width="10.7" height="10.69"/><rect class="cls-1" x="556.04" y="363.56" width="10.69" height="10.69"/><rect class="cls-1" x="556.04" y="352.87" width="10.69" height="10.69"/><rect class="cls-1" x="556.04" y="342.17" width="10.69" height="10.7"/><polygon class="cls-2" points="566.73 331.48 566.73 342.17 556.04 342.17 556.04 352.87 545.35 352.87 534.65 352.87 523.96 352.87 523.96 363.56 513.27 363.56 502.57 363.56 491.88 363.56 481.19 363.56 470.5 363.56 459.8 363.56 449.11 363.56 438.42 363.56 427.72 363.56 417.03 363.56 406.34 363.56 395.64 363.56 384.95 363.56 374.26 363.56 363.56 363.56 352.87 363.56 342.18 363.56 331.49 363.56 320.79 363.56 310.1 363.56 299.41 363.56 288.71 363.56 278.02 363.56 267.33 363.56 256.63 363.56 245.94 363.56 235.25 363.56 224.56 363.56 213.86 363.56 203.17 363.56 192.48 363.56 181.78 363.56 171.09 363.56 160.4 363.56 149.7 363.56 139.01 363.56 128.32 363.56 117.62 363.56 106.93 363.56 96.24 363.56 85.55 363.56 74.85 363.56 64.16 363.56 53.47 363.56 53.47 352.87 42.77 352.87 32.08 352.87 21.39 352.87 10.69 352.87 10.69 342.17 10.69 331.48 10.69 320.79 10.69 310.09 10.69 299.4 10.69 288.71 10.69 278.01 10.69 267.32 10.69 256.63 10.69 245.94 10.69 235.24 10.69 224.55 10.69 213.86 10.69 203.16 10.69 192.47 10.69 181.78 10.69 171.08 10.69 160.39 10.69 149.7 10.69 139.01 10.69 128.31 10.69 117.62 10.69 106.93 10.69 96.23 10.69 85.54 10.69 74.85 10.69 64.15 10.69 53.46 21.39 53.46 21.39 42.77 21.39 32.07 32.08 32.07 32.08 21.38 32.08 10.69 42.77 10.69 53.47 10.69 64.16 10.69 74.85 10.69 85.55 10.69 96.24 10.69 106.93 10.69 117.62 10.69 128.32 10.69 139.01 10.69 149.7 10.69 160.4 10.69 171.09 10.69 181.78 10.69 192.48 10.69 203.17 10.69 213.86 10.69 224.56 10.69 235.25 10.69 245.94 10.69 256.63 10.69 267.33 10.69 278.02 10.69 288.71 10.69 299.41 10.69 310.1 10.69 320.79 10.69 331.49 10.69 342.18 10.69 352.87 10.69 363.56 10.69 374.26 10.69 384.95 10.69 395.64 10.69 406.34 10.69 417.03 10.69 427.72 10.69 438.42 10.69 449.11 10.69 459.8 10.69 470.5 10.69 481.19 10.69 491.88 10.69 502.57 10.69 513.27 10.69 523.96 10.69 534.65 10.69 545.35 10.69 545.35 21.38 545.35 32.07 556.04 32.07 556.04 42.77 556.04 53.46 566.73 53.46 566.73 64.15 566.73 74.85 566.73 85.54 566.73 96.23 566.73 106.93 566.73 117.62 566.73 128.31 566.73 139.01 566.73 149.7 566.73 160.39 566.73 171.08 566.73 181.78 566.73 192.47 566.73 203.16 566.73 213.86 566.73 224.55 566.73 235.24 566.73 245.94 566.73 256.63 566.73 267.32 566.73 278.01 566.73 288.71 566.73 299.4 566.73 310.09 566.73 320.79 566.73 331.48"/><rect class="cls-1" x="556.04" y="42.77" width="10.69" height="10.69"/><rect class="cls-1" x="556.04" y="32.07" width="10.69" height="10.7"/><rect class="cls-1" x="545.35" y="384.95" width="10.69" height="10.69"/><rect class="cls-1" x="545.35" y="374.25" width="10.69" height="10.7"/><rect class="cls-3" x="545.35" y="363.56" width="10.69" height="10.69"/><rect class="cls-4" x="545.35" y="352.87" width="10.69" height="10.69"/><rect class="cls-1" x="545.35" y="21.38" width="10.69" height="10.69"/><rect class="cls-1" x="545.35" y="10.69" width="10.69" height="10.69"/><rect class="cls-1" x="534.65" y="395.64" width="10.7" height="10.69"/><rect class="cls-1" x="534.65" y="384.95" width="10.7" height="10.69"/><rect class="cls-3" x="534.65" y="374.25" width="10.7" height="10.7"/><rect class="cls-3" x="534.65" y="363.56" width="10.7" height="10.69"/><rect class="cls-4" x="534.65" y="352.87" width="10.7" height="10.69"/><rect class="cls-1" x="534.65" width="10.7" height="10.69"/><rect class="cls-1" x="523.96" y="395.64" width="10.69" height="10.69"/><rect class="cls-1" x="523.96" y="384.95" width="10.69" height="10.69"/><rect class="cls-3" x="523.96" y="374.25" width="10.69" height="10.7"/><rect class="cls-4" x="523.96" y="363.56" width="10.69" height="10.69"/><rect class="cls-4" x="523.96" y="352.87" width="10.69" height="10.69"/><rect class="cls-1" x="523.96" width="10.69" height="10.69"/><rect class="cls-1" x="513.27" y="395.64" width="10.69" height="10.69"/><rect class="cls-1" x="513.27" y="384.95" width="10.69" height="10.69"/><rect class="cls-3" x="513.27" y="374.25" width="10.69" height="10.7"/><rect class="cls-4" x="513.27" y="363.56" width="10.69" height="10.69"/><rect class="cls-1" x="513.27" width="10.69" height="10.69"/><rect class="cls-1" x="502.57" y="395.64" width="10.7" height="10.69"/><rect class="cls-1" x="502.57" y="384.95" width="10.7" height="10.69"/><rect class="cls-4" x="502.57" y="374.25" width="10.7" height="10.7"/><rect class="cls-4" x="502.57" y="363.56" width="10.7" height="10.69"/><rect class="cls-1" x="502.57" width="10.7" height="10.69"/><rect class="cls-1" x="491.88" y="395.64" width="10.69" height="10.69"/><rect class="cls-1" x="491.88" y="384.95" width="10.69" height="10.69"/><rect class="cls-4" x="491.88" y="374.25" width="10.69" height="10.7"/><rect class="cls-4" x="491.88" y="363.56" width="10.69" height="10.69"/><rect class="cls-1" x="491.88" width="10.69" height="10.69"/><rect class="cls-1" x="481.19" y="395.64" width="10.69" height="10.69"/><rect class="cls-1" x="481.19" y="384.95" width="10.69" height="10.69"/><rect class="cls-4" x="481.19" y="374.25" width="10.69" height="10.7"/><rect class="cls-4" x="481.19" y="363.56" width="10.69" height="10.69"/><rect class="cls-1" x="481.19" width="10.69" height="10.69"/><rect class="cls-1" x="470.5" y="395.64" width="10.69" height="10.69"/><rect class="cls-1" x="470.5" y="384.95" width="10.69" height="10.69"/><rect class="cls-4" x="470.5" y="374.25" width="10.69" height="10.7"/><rect class="cls-4" x="470.5" y="363.56" width="10.69" height="10.69"/><rect class="cls-1" x="470.5" width="10.69" height="10.69"/><rect class="cls-1" x="459.8" y="395.64" width="10.7" height="10.69"/><rect class="cls-1" x="459.8" y="384.95" width="10.7" height="10.69"/><rect class="cls-4" x="459.8" y="374.25" width="10.7" height="10.7"/><rect class="cls-4" x="459.8" y="363.56" width="10.7" height="10.69"/><rect class="cls-1" x="459.8" width="10.7" height="10.69"/><rect class="cls-1" x="449.11" y="395.64" width="10.69" height="10.69"/><rect class="cls-1" x="449.11" y="384.95" width="10.69" height="10.69"/><rect class="cls-4" x="449.11" y="374.25" width="10.69" height="10.7"/><rect class="cls-4" x="449.11" y="363.56" width="10.69" height="10.69"/><rect class="cls-1" x="449.11" width="10.69" height="10.69"/><rect class="cls-1" x="438.42" y="395.64" width="10.69" height="10.69"/><rect class="cls-1" x="438.42" y="384.95" width="10.69" height="10.69"/><rect class="cls-4" x="438.42" y="374.25" width="10.69" height="10.7"/><rect class="cls-4" x="438.42" y="363.56" width="10.69" height="10.69"/><rect class="cls-1" x="438.42" width="10.69" height="10.69"/><rect class="cls-1" x="427.72" y="395.64" width="10.7" height="10.69"/><rect class="cls-1" x="427.72" y="384.95" width="10.7" height="10.69"/><rect class="cls-4" x="427.72" y="374.25" width="10.7" height="10.7"/><rect class="cls-4" x="427.72" y="363.56" width="10.7" height="10.69"/><rect class="cls-1" x="427.72" width="10.7" height="10.69"/><rect class="cls-1" x="417.03" y="395.64" width="10.69" height="10.69"/><rect class="cls-1" x="417.03" y="384.95" width="10.69" height="10.69"/><rect class="cls-4" x="417.03" y="374.25" width="10.69" height="10.7"/><rect class="cls-4" x="417.03" y="363.56" width="10.69" height="10.69"/><rect class="cls-1" x="417.03" width="10.69" height="10.69"/><rect class="cls-1" x="406.34" y="395.64" width="10.69" height="10.69"/><rect class="cls-1" x="406.34" y="384.95" width="10.69" height="10.69"/><rect class="cls-4" x="406.34" y="374.25" width="10.69" height="10.7"/><rect class="cls-4" x="406.34" y="363.56" width="10.69" height="10.69"/><rect class="cls-1" x="406.34" width="10.69" height="10.69"/><rect class="cls-1" x="395.64" y="395.64" width="10.7" height="10.69"/><rect class="cls-1" x="395.64" y="384.95" width="10.7" height="10.69"/><rect class="cls-4" x="395.64" y="374.25" width="10.7" height="10.7"/><rect class="cls-4" x="395.64" y="363.56" width="10.7" height="10.69"/><rect class="cls-1" x="395.64" width="10.7" height="10.69"/><rect class="cls-1" x="384.95" y="395.64" width="10.69" height="10.69"/><rect class="cls-1" x="384.95" y="384.95" width="10.69" height="10.69"/><rect class="cls-4" x="384.95" y="374.25" width="10.69" height="10.7"/><rect class="cls-4" x="384.95" y="363.56" width="10.69" height="10.69"/><rect class="cls-1" x="384.95" width="10.69" height="10.69"/><rect class="cls-1" x="374.26" y="395.64" width="10.69" height="10.69"/><rect class="cls-1" x="374.26" y="384.95" width="10.69" height="10.69"/><rect class="cls-4" x="374.26" y="374.25" width="10.69" height="10.7"/><rect class="cls-4" x="374.26" y="363.56" width="10.69" height="10.69"/><rect class="cls-1" x="374.26" width="10.69" height="10.69"/><rect class="cls-1" x="363.56" y="395.64" width="10.7" height="10.69"/><rect class="cls-1" x="363.56" y="384.95" width="10.7" height="10.69"/><rect class="cls-4" x="363.56" y="374.25" width="10.7" height="10.7"/><rect class="cls-4" x="363.56" y="363.56" width="10.7" height="10.69"/><rect class="cls-1" x="363.56" width="10.7" height="10.69"/><rect class="cls-1" x="352.87" y="395.64" width="10.69" height="10.69"/><rect class="cls-1" x="352.87" y="384.95" width="10.69" height="10.69"/><rect class="cls-4" x="352.87" y="374.25" width="10.69" height="10.7"/><rect class="cls-4" x="352.87" y="363.56" width="10.69" height="10.69"/><rect class="cls-1" x="352.87" width="10.69" height="10.69"/><rect class="cls-1" x="342.18" y="395.64" width="10.69" height="10.69"/><rect class="cls-1" x="342.18" y="384.95" width="10.69" height="10.69"/><rect class="cls-4" x="342.18" y="374.25" width="10.69" height="10.7"/><rect class="cls-4" x="342.18" y="363.56" width="10.69" height="10.69"/><rect class="cls-1" x="342.18" width="10.69" height="10.69"/><rect class="cls-1" x="331.49" y="395.64" width="10.69" height="10.69"/><rect class="cls-1" x="331.49" y="384.95" width="10.69" height="10.69"/><rect class="cls-4" x="331.49" y="374.25" width="10.69" height="10.7"/><rect class="cls-4" x="331.49" y="363.56" width="10.69" height="10.69"/><rect class="cls-1" x="331.49" width="10.69" height="10.69"/><rect class="cls-1" x="320.79" y="395.64" width="10.7" height="10.69"/><rect class="cls-1" x="320.79" y="384.95" width="10.7" height="10.69"/><rect class="cls-4" x="320.79" y="374.25" width="10.7" height="10.7"/><rect class="cls-4" x="320.79" y="363.56" width="10.7" height="10.69"/><rect class="cls-1" x="320.79" width="10.7" height="10.69"/><rect class="cls-1" x="310.1" y="395.64" width="10.69" height="10.69"/><rect class="cls-1" x="310.1" y="384.95" width="10.69" height="10.69"/><rect class="cls-4" x="310.1" y="374.25" width="10.69" height="10.7"/><rect class="cls-4" x="310.1" y="363.56" width="10.69" height="10.69"/><rect class="cls-1" x="310.1" width="10.69" height="10.69"/><rect class="cls-1" x="299.41" y="395.64" width="10.69" height="10.69"/><rect class="cls-1" x="299.41" y="384.95" width="10.69" height="10.69"/><rect class="cls-4" x="299.41" y="374.25" width="10.69" height="10.7"/><rect class="cls-4" x="299.41" y="363.56" width="10.69" height="10.69"/><rect class="cls-1" x="299.41" width="10.69" height="10.69"/><rect class="cls-1" x="288.71" y="395.64" width="10.7" height="10.69"/><rect class="cls-1" x="288.71" y="384.95" width="10.7" height="10.69"/><rect class="cls-4" x="288.71" y="374.25" width="10.7" height="10.7"/><rect class="cls-4" x="288.71" y="363.56" width="10.7" height="10.69"/><rect class="cls-1" x="288.71" width="10.7" height="10.69"/><rect class="cls-1" x="278.02" y="395.64" width="10.69" height="10.69"/><rect class="cls-1" x="278.02" y="384.95" width="10.69" height="10.69"/><rect class="cls-4" x="278.02" y="374.25" width="10.69" height="10.7"/><rect class="cls-4" x="278.02" y="363.56" width="10.69" height="10.69"/><rect class="cls-1" x="278.02" width="10.69" height="10.69"/><rect class="cls-1" x="267.33" y="395.64" width="10.69" height="10.69"/><rect class="cls-1" x="267.33" y="384.95" width="10.69" height="10.69"/><rect class="cls-4" x="267.33" y="374.25" width="10.69" height="10.7"/><rect class="cls-4" x="267.33" y="363.56" width="10.69" height="10.69"/><rect class="cls-1" x="267.33" width="10.69" height="10.69"/><rect class="cls-1" x="256.63" y="395.64" width="10.7" height="10.69"/><rect class="cls-1" x="256.63" y="384.95" width="10.7" height="10.69"/><rect class="cls-4" x="256.63" y="374.25" width="10.7" height="10.7"/><rect class="cls-4" x="256.63" y="363.56" width="10.7" height="10.69"/><rect class="cls-1" x="256.63" width="10.7" height="10.69"/><rect class="cls-1" x="245.94" y="395.64" width="10.69" height="10.69"/><rect class="cls-1" x="245.94" y="384.95" width="10.69" height="10.69"/><rect class="cls-4" x="245.94" y="374.25" width="10.69" height="10.7"/><rect class="cls-4" x="245.94" y="363.56" width="10.69" height="10.69"/><rect class="cls-1" x="245.94" width="10.69" height="10.69"/><rect class="cls-1" x="235.25" y="395.64" width="10.69" height="10.69"/><rect class="cls-1" x="235.25" y="384.95" width="10.69" height="10.69"/><rect class="cls-4" x="235.25" y="374.25" width="10.69" height="10.7"/><rect class="cls-4" x="235.25" y="363.56" width="10.69" height="10.69"/><rect class="cls-1" x="235.25" width="10.69" height="10.69"/><rect class="cls-1" x="224.56" y="395.64" width="10.69" height="10.69"/><rect class="cls-1" x="224.56" y="384.95" width="10.69" height="10.69"/><rect class="cls-4" x="224.56" y="374.25" width="10.69" height="10.7"/><rect class="cls-4" x="224.56" y="363.56" width="10.69" height="10.69"/><rect class="cls-1" x="224.56" width="10.69" height="10.69"/><rect class="cls-1" x="213.86" y="395.64" width="10.7" height="10.69"/><rect class="cls-1" x="213.86" y="384.95" width="10.7" height="10.69"/><rect class="cls-4" x="213.86" y="374.25" width="10.7" height="10.7"/><rect class="cls-4" x="213.86" y="363.56" width="10.7" height="10.69"/><rect class="cls-1" x="213.86" width="10.7" height="10.69"/><rect class="cls-1" x="203.17" y="395.64" width="10.69" height="10.69"/><rect class="cls-1" x="203.17" y="384.95" width="10.69" height="10.69"/><rect class="cls-4" x="203.17" y="374.25" width="10.69" height="10.7"/><rect class="cls-4" x="203.17" y="363.56" width="10.69" height="10.69"/><rect class="cls-1" x="203.17" width="10.69" height="10.69"/><rect class="cls-1" x="192.48" y="395.64" width="10.69" height="10.69"/><rect class="cls-1" x="192.48" y="384.95" width="10.69" height="10.69"/><rect class="cls-4" x="192.48" y="374.25" width="10.69" height="10.7"/><rect class="cls-4" x="192.48" y="363.56" width="10.69" height="10.69"/><rect class="cls-1" x="192.48" width="10.69" height="10.69"/><rect class="cls-1" x="181.78" y="395.64" width="10.7" height="10.69"/><rect class="cls-1" x="181.78" y="384.95" width="10.7" height="10.69"/><rect class="cls-4" x="181.78" y="374.25" width="10.7" height="10.7"/><rect class="cls-4" x="181.78" y="363.56" width="10.7" height="10.69"/><rect class="cls-1" x="181.78" width="10.7" height="10.69"/><rect class="cls-1" x="171.09" y="395.64" width="10.69" height="10.69"/><rect class="cls-1" x="171.09" y="384.95" width="10.69" height="10.69"/><rect class="cls-4" x="171.09" y="374.25" width="10.69" height="10.7"/><rect class="cls-4" x="171.09" y="363.56" width="10.69" height="10.69"/><rect class="cls-1" x="171.09" width="10.69" height="10.69"/><rect class="cls-1" x="160.4" y="395.64" width="10.69" height="10.69"/><rect class="cls-1" x="160.4" y="384.95" width="10.69" height="10.69"/><rect class="cls-4" x="160.4" y="374.25" width="10.69" height="10.7"/><rect class="cls-4" x="160.4" y="363.56" width="10.69" height="10.69"/><rect class="cls-1" x="160.4" width="10.69" height="10.69"/><rect class="cls-1" x="149.7" y="395.64" width="10.7" height="10.69"/><rect class="cls-1" x="149.7" y="384.95" width="10.7" height="10.69"/><rect class="cls-4" x="149.7" y="374.25" width="10.7" height="10.7"/><rect class="cls-4" x="149.7" y="363.56" width="10.7" height="10.69"/><rect class="cls-1" x="149.7" width="10.7" height="10.69"/><rect class="cls-1" x="139.01" y="395.64" width="10.69" height="10.69"/><rect class="cls-1" x="139.01" y="384.95" width="10.69" height="10.69"/><rect class="cls-4" x="139.01" y="374.25" width="10.69" height="10.7"/><rect class="cls-4" x="139.01" y="363.56" width="10.69" height="10.69"/><rect class="cls-1" x="139.01" width="10.69" height="10.69"/><rect class="cls-1" x="128.32" y="395.64" width="10.69" height="10.69"/><rect class="cls-1" x="128.32" y="384.95" width="10.69" height="10.69"/><rect class="cls-4" x="128.32" y="374.25" width="10.69" height="10.7"/><rect class="cls-4" x="128.32" y="363.56" width="10.69" height="10.69"/><rect class="cls-1" x="128.32" width="10.69" height="10.69"/><rect class="cls-1" x="117.62" y="395.64" width="10.7" height="10.69"/><rect class="cls-1" x="117.62" y="384.95" width="10.7" height="10.69"/><rect class="cls-4" x="117.62" y="374.25" width="10.7" height="10.7"/><rect class="cls-4" x="117.62" y="363.56" width="10.7" height="10.69"/><rect class="cls-1" x="117.62" width="10.7" height="10.69"/><rect class="cls-1" x="106.93" y="395.64" width="10.69" height="10.69"/><rect class="cls-1" x="106.93" y="384.95" width="10.69" height="10.69"/><rect class="cls-4" x="106.93" y="374.25" width="10.69" height="10.7"/><rect class="cls-4" x="106.93" y="363.56" width="10.69" height="10.69"/><rect class="cls-1" x="106.93" width="10.69" height="10.69"/><rect class="cls-1" x="96.24" y="395.64" width="10.69" height="10.69"/><rect class="cls-1" x="96.24" y="384.95" width="10.69" height="10.69"/><rect class="cls-4" x="96.24" y="374.25" width="10.69" height="10.7"/><rect class="cls-4" x="96.24" y="363.56" width="10.69" height="10.69"/><rect class="cls-1" x="96.24" width="10.69" height="10.69"/><rect class="cls-1" x="85.55" y="395.64" width="10.69" height="10.69"/><rect class="cls-1" x="85.55" y="384.95" width="10.69" height="10.69"/><rect class="cls-4" x="85.55" y="374.25" width="10.69" height="10.7"/><rect class="cls-4" x="85.55" y="363.56" width="10.69" height="10.69"/><rect class="cls-1" x="85.55" width="10.69" height="10.69"/><rect class="cls-1" x="74.85" y="395.64" width="10.7" height="10.69"/><rect class="cls-1" x="74.85" y="384.95" width="10.7" height="10.69"/><rect class="cls-4" x="74.85" y="374.25" width="10.7" height="10.7"/><rect class="cls-4" x="74.85" y="363.56" width="10.7" height="10.69"/><rect class="cls-1" x="74.85" width="10.7" height="10.69"/><rect class="cls-1" x="64.16" y="395.64" width="10.69" height="10.69"/><rect class="cls-1" x="64.16" y="384.95" width="10.69" height="10.69"/><rect class="cls-4" x="64.16" y="374.25" width="10.69" height="10.7"/><rect class="cls-4" x="64.16" y="363.56" width="10.69" height="10.69"/><rect class="cls-1" x="64.16" width="10.69" height="10.69"/><rect class="cls-1" x="53.47" y="395.64" width="10.69" height="10.69"/><rect class="cls-1" x="53.47" y="384.95" width="10.69" height="10.69"/><rect class="cls-3" x="53.47" y="374.25" width="10.69" height="10.7"/><rect class="cls-4" x="53.47" y="363.56" width="10.69" height="10.69"/><rect class="cls-1" x="53.47" width="10.69" height="10.69"/><rect class="cls-1" x="42.77" y="395.64" width="10.7" height="10.69"/><rect class="cls-1" x="42.77" y="384.95" width="10.7" height="10.69"/><rect class="cls-3" x="42.77" y="374.25" width="10.7" height="10.7"/><rect class="cls-4" x="42.77" y="363.56" width="10.7" height="10.69"/><rect class="cls-4" x="42.77" y="352.87" width="10.7" height="10.69"/><rect class="cls-1" x="42.77" width="10.7" height="10.69"/><rect class="cls-1" x="32.08" y="395.64" width="10.69" height="10.69"/><rect class="cls-1" x="32.08" y="384.95" width="10.69" height="10.69"/><rect class="cls-3" x="32.08" y="374.25" width="10.69" height="10.7"/><rect class="cls-3" x="32.08" y="363.56" width="10.69" height="10.69"/><rect class="cls-4" x="32.08" y="352.87" width="10.69" height="10.69"/><rect class="cls-1" x="32.08" width="10.69" height="10.69"/><rect class="cls-1" x="21.39" y="384.95" width="10.69" height="10.69"/><rect class="cls-1" x="21.39" y="374.25" width="10.69" height="10.7"/><rect class="cls-3" x="21.39" y="363.56" width="10.69" height="10.69"/><rect class="cls-4" x="21.39" y="352.87" width="10.69" height="10.69"/><rect class="cls-1" x="21.39" y="21.38" width="10.69" height="10.69"/><rect class="cls-1" x="21.39" y="10.69" width="10.69" height="10.69"/><rect class="cls-1" x="10.69" y="374.25" width="10.7" height="10.7"/><rect class="cls-1" x="10.69" y="363.56" width="10.7" height="10.69"/><rect class="cls-1" x="10.69" y="352.87" width="10.7" height="10.69"/><rect class="cls-1" x="10.69" y="42.77" width="10.7" height="10.69"/><rect class="cls-1" x="10.69" y="32.07" width="10.7" height="10.7"/><rect class="cls-1" y="342.17" width="10.69" height="10.7"/><rect class="cls-1" y="331.48" width="10.69" height="10.69"/><rect class="cls-1" y="320.79" width="10.69" height="10.69"/><rect class="cls-1" y="310.09" width="10.69" height="10.7"/><rect class="cls-1" y="299.4" width="10.69" height="10.69"/><rect class="cls-1" y="288.71" width="10.69" height="10.69"/><rect class="cls-1" y="278.01" width="10.69" height="10.7"/><rect class="cls-1" y="267.32" width="10.69" height="10.69"/><rect class="cls-1" y="256.63" width="10.69" height="10.69"/><rect class="cls-1" y="245.94" width="10.69" height="10.69"/><rect class="cls-1" y="235.24" width="10.69" height="10.7"/><rect class="cls-1" y="224.55" width="10.69" height="10.69"/><rect class="cls-1" y="213.86" width="10.69" height="10.69"/><rect class="cls-1" y="203.16" width="10.69" height="10.7"/><rect class="cls-1" y="192.47" width="10.69" height="10.69"/><rect class="cls-1" y="181.78" width="10.69" height="10.69"/><rect class="cls-1" y="171.08" width="10.69" height="10.7"/><rect class="cls-1" y="160.39" width="10.69" height="10.69"/><rect class="cls-1" y="149.7" width="10.69" height="10.69"/><rect class="cls-1" y="139.01" width="10.69" height="10.69"/><rect class="cls-1" y="128.31" width="10.69" height="10.7"/><rect class="cls-1" y="117.62" width="10.69" height="10.69"/><rect class="cls-1" y="106.93" width="10.69" height="10.69"/><rect class="cls-1" y="96.23" width="10.69" height="10.7"/><rect class="cls-1" y="85.54" width="10.69" height="10.69"/><rect class="cls-1" y="74.85" width="10.69" height="10.69"/><rect class="cls-1" y="64.15" width="10.69" height="10.7"/><rect class="cls-1" y="53.46" width="10.69" height="10.69"/></g></g></svg>