<svg xmlns="http://www.w3.org/2000/svg" viewBox="0 0 224.56 96.24"><defs><style>.cls-1{fill:#006bb4;}.cls-2{fill:#007ec7;}.cls-3{fill:#0073bb;}.cls-4{fill:#0063b0;}.cls-5{fill:#0059a2;}.cls-6{fill:#0083cc;}.cls-7{fill:#007a9d;}.cls-8{fill:#00699a;}.cls-9{fill:#0078c1;}.cls-10{fill:#0072b4;}.cls-11{fill:#007bb9;}.cls-12{fill:#0064ab;}.cls-13{fill:#006bbc;}.cls-14{fill:#00539d;}.cls-15{fill:#005466;}.cls-16{fill:#005679;}.cls-17{fill:#0089d2;}.cls-18{fill:#00a2e9;}.cls-19{fill:#0085ba;}.cls-20{fill:#009de2;}.cls-21{fill:#008dd7;}.cls-22{fill:#005e85;}.cls-23{fill:#00637c;}.cls-24{fill:#0098dc;}.cls-25{fill:#0099da;}.cls-26{fill:#002d3c;}.cls-27{fill:#01c9f3;}.cls-28{fill:#00b9ed;}.cls-29{fill:#00b1eb;}.cls-30{fill:#00b0f0;}.cls-31{fill:#00a4e4;}.cls-32{fill:#00aae9;}.cls-33{fill:#00adde;}.cls-34{fill:#009ac5;}.cls-35{fill:#028db5;}.cls-36{fill:#00708d;}.cls-37{fill:#005ea7;}.cls-38{fill:#0090ca;}.cls-39{fill:#006792;}.cls-40{fill:#004460;}.cls-41{fill:#004056;}.cls-42{fill:#003248;}</style></defs><g id="Capa_2" data-name="Capa 2"><g id="tecnologias"><rect class="cls-1" x="32.08" y="42.77" width="10.7" height="10.7"/><rect class="cls-2" x="53.47" y="10.69" width="10.69" height="10.7"/><rect class="cls-3" x="96.24" y="21.39" width="10.69" height="10.69"/><rect class="cls-2" x="96.24" y="32.08" width="10.69" height="10.69"/><rect class="cls-1" x="106.93" y="53.47" width="10.7" height="10.69"/><rect class="cls-4" x="106.93" y="64.16" width="10.7" height="10.69"/><rect class="cls-5" x="117.63" y="74.85" width="10.69" height="10.7"/><rect class="cls-6" x="160.4" y="42.77" width="10.69" height="10.7"/><rect class="cls-7" x="192.48" y="42.77" width="10.69" height="10.7"/><rect class="cls-6" x="171.09" y="42.77" width="10.69" height="10.7"/><rect class="cls-8" x="181.78" y="42.77" width="10.7" height="10.7"/><rect class="cls-8" x="181.78" y="53.47" width="10.7" height="10.69"/><rect class="cls-2" x="171.09" y="53.47" width="10.69" height="10.69"/><rect class="cls-9" x="160.4" y="53.47" width="10.69" height="10.69"/><rect class="cls-10" x="171.09" y="74.85" width="10.69" height="10.7"/><rect class="cls-11" x="171.09" y="64.16" width="10.69" height="10.69"/><rect class="cls-12" x="160.4" y="64.16" width="10.69" height="10.69"/><rect class="cls-13" x="160.4" y="85.55" width="10.69" height="10.69"/><rect class="cls-5" x="160.4" y="74.85" width="10.69" height="10.7"/><rect class="cls-13" x="139.01" y="85.55" width="10.7" height="10.69"/><rect class="cls-14" x="149.71" y="85.55" width="10.69" height="10.69"/><rect class="cls-5" x="149.71" y="74.85" width="10.69" height="10.7"/><rect class="cls-12" x="149.71" y="64.16" width="10.69" height="10.69"/><rect class="cls-15" x="149.71" y="53.47" width="10.69" height="10.69"/><rect class="cls-16" x="149.71" y="42.77" width="10.69" height="10.7"/><rect class="cls-17" x="171.09" y="32.08" width="10.69" height="10.69"/><rect class="cls-18" x="160.4" y="32.08" width="10.69" height="10.69"/><rect class="cls-7" x="149.71" y="32.08" width="10.69" height="10.69"/><rect class="cls-19" x="160.4" y="21.39" width="10.69" height="10.69"/><rect class="cls-20" x="171.09" y="21.39" width="10.69" height="10.69"/><rect class="cls-21" x="181.78" y="21.39" width="10.7" height="10.69"/><rect class="cls-17" x="181.78" y="32.08" width="10.7" height="10.69"/><rect class="cls-22" x="192.48" y="32.08" width="10.69" height="10.69"/><rect class="cls-16" x="192.48" y="21.39" width="10.69" height="10.69"/><rect class="cls-23" x="203.17" y="21.39" width="10.69" height="10.69"/><rect class="cls-15" x="203.17" y="10.69" width="10.69" height="10.7"/><rect class="cls-17" x="192.48" y="10.69" width="10.69" height="10.7"/><rect class="cls-17" x="181.78" y="10.69" width="10.7" height="10.7"/><rect class="cls-24" x="171.09" y="10.69" width="10.69" height="10.7"/><rect class="cls-25" x="160.4" y="10.69" width="10.69" height="10.7"/><rect class="cls-18" x="171.09" width="10.69" height="10.69"/><rect class="cls-21" x="181.78" width="10.7" height="10.69"/><rect class="cls-21" x="192.48" width="10.69" height="10.69"/><rect class="cls-26" x="203.17" width="10.69" height="10.69"/><rect class="cls-26" x="213.86" width="10.7" height="10.69"/><rect class="cls-12" x="96.24" y="10.69" width="10.69" height="10.7"/><rect class="cls-2" x="106.93" y="42.77" width="10.7" height="10.7"/><rect class="cls-6" x="106.93" y="32.08" width="10.7" height="10.69"/><rect class="cls-9" x="106.93" y="21.39" width="10.7" height="10.69"/><rect class="cls-27" x="74.85" y="32.08" width="10.7" height="10.69"/><rect class="cls-28" x="74.85" y="21.39" width="10.7" height="10.69"/><rect class="cls-3" x="85.55" y="21.39" width="10.69" height="10.69"/><rect class="cls-29" x="85.55" y="32.08" width="10.69" height="10.69"/><rect class="cls-2" x="96.24" y="42.77" width="10.69" height="10.7"/><rect class="cls-27" x="85.55" y="42.77" width="10.69" height="10.7"/><rect class="cls-30" x="96.24" y="53.47" width="10.69" height="10.69"/><rect class="cls-29" x="85.55" y="53.47" width="10.69" height="10.69"/><rect class="cls-31" x="85.55" y="64.16" width="10.69" height="10.69"/><rect class="cls-30" x="96.24" y="64.16" width="10.69" height="10.69"/><rect class="cls-17" x="96.24" y="85.55" width="10.69" height="10.69"/><rect class="cls-17" x="96.24" y="74.85" width="10.69" height="10.7"/><rect class="cls-17" x="106.93" y="85.55" width="10.7" height="10.69"/><rect class="cls-30" x="106.93" y="74.85" width="10.7" height="10.7"/><rect class="cls-30" x="117.63" y="85.55" width="10.69" height="10.69"/><rect class="cls-13" x="128.32" y="85.55" width="10.69" height="10.69"/><rect class="cls-4" x="139.01" y="74.85" width="10.7" height="10.7"/><rect class="cls-5" x="128.32" y="74.85" width="10.69" height="10.7"/><rect class="cls-20" x="139.01" y="64.16" width="10.7" height="10.69"/><rect class="cls-12" x="117.63" y="64.16" width="10.69" height="10.69"/><rect class="cls-31" x="128.32" y="64.16" width="10.69" height="10.69"/><rect class="cls-31" x="128.32" y="53.47" width="10.69" height="10.69"/><rect class="cls-3" x="117.63" y="53.47" width="10.69" height="10.69"/><rect class="cls-27" x="128.32" y="42.77" width="10.69" height="10.7"/><rect class="cls-32" x="117.63" y="42.77" width="10.69" height="10.7"/><rect class="cls-29" x="117.63" y="32.08" width="10.69" height="10.69"/><rect class="cls-33" x="128.32" y="32.08" width="10.69" height="10.69"/><rect class="cls-34" x="128.32" y="21.39" width="10.69" height="10.69"/><rect class="cls-35" x="117.63" y="21.39" width="10.69" height="10.69"/><rect class="cls-36" x="117.63" y="10.69" width="10.69" height="10.7"/><rect class="cls-23" x="106.93" width="10.7" height="10.69"/><rect class="cls-17" x="106.93" y="10.69" width="10.7" height="10.7"/><rect class="cls-14" x="96.24" width="10.69" height="10.69"/><rect class="cls-5" x="85.55" width="10.69" height="10.69"/><rect class="cls-5" x="85.55" y="10.69" width="10.69" height="10.7"/><rect class="cls-37" x="74.85" y="10.69" width="10.7" height="10.7"/><rect class="cls-27" x="74.85" width="10.7" height="10.69"/><rect class="cls-6" x="64.16" width="10.69" height="10.69"/><rect class="cls-6" x="53.47" width="10.69" height="10.69"/><rect class="cls-2" x="64.16" y="10.69" width="10.69" height="10.7"/><rect class="cls-19" x="64.16" y="32.08" width="10.69" height="10.69"/><rect class="cls-38" x="64.16" y="21.39" width="10.69" height="10.69"/><rect class="cls-9" x="53.47" y="21.39" width="10.69" height="10.69"/><rect class="cls-9" x="42.78" y="21.39" width="10.69" height="10.69"/><rect class="cls-2" x="42.78" y="10.69" width="10.69" height="10.7"/><rect class="cls-39" x="32.08" y="21.39" width="10.7" height="10.69"/><rect class="cls-13" x="42.78" y="32.08" width="10.69" height="10.69"/><rect class="cls-28" x="53.47" y="32.08" width="10.69" height="10.69"/><rect class="cls-1" x="42.78" y="42.77" width="10.69" height="10.7"/><rect class="cls-32" x="53.47" y="42.77" width="10.69" height="10.7"/><rect class="cls-38" x="53.47" y="53.47" width="10.69" height="10.69"/><rect class="cls-38" x="42.78" y="64.16" width="10.69" height="10.69"/><rect class="cls-18" x="42.78" y="53.47" width="10.69" height="10.69"/><rect class="cls-4" x="32.08" y="53.47" width="10.7" height="10.69"/><rect class="cls-4" x="21.39" y="53.47" width="10.69" height="10.69"/><rect class="cls-3" x="32.08" y="32.08" width="10.7" height="10.69"/><rect class="cls-16" x="21.39" y="32.08" width="10.69" height="10.69"/><rect class="cls-24" x="21.39" y="42.77" width="10.69" height="10.7"/><rect class="cls-40" x="10.7" y="53.47" width="10.69" height="10.69"/><rect class="cls-41" x="10.7" y="64.16" width="10.69" height="10.69"/><rect class="cls-42" y="74.85" width="10.7" height="10.7"/><rect class="cls-42" y="85.55" width="10.7" height="10.69"/><rect class="cls-18" x="32.08" y="85.55" width="10.7" height="10.69"/><rect class="cls-20" x="42.78" y="74.85" width="10.69" height="10.7"/><rect class="cls-13" x="32.08" y="74.85" width="10.7" height="10.7"/><rect class="cls-17" x="32.08" y="64.16" width="10.7" height="10.69"/><rect class="cls-37" x="21.39" y="64.16" width="10.69" height="10.69"/><rect class="cls-14" x="21.39" y="85.55" width="10.69" height="10.69"/><rect class="cls-14" x="21.39" y="74.85" width="10.69" height="10.7"/><rect class="cls-14" x="10.7" y="85.55" width="10.69" height="10.69"/><rect class="cls-14" x="10.7" y="74.85" width="10.69" height="10.7"/></g></g></svg>