<svg xmlns="http://www.w3.org/2000/svg" viewBox="0 0 203.16 224.56"><defs><style>.cls-1{fill:#5294cf;}.cls-2{fill:#2e73b8;}.cls-3{fill:#205b99;}.cls-4{fill:#19486f;}</style></defs><g id="Capa_2" data-name="Capa 2"><g id="tecnologias"><rect class="cls-1" x="149.7" y="181.78" width="10.69" height="10.7"/><rect class="cls-1" x="149.7" y="171.09" width="10.69" height="10.69"/><rect class="cls-1" x="149.7" y="160.4" width="10.69" height="10.69"/><rect class="cls-1" x="149.7" y="149.71" width="10.69" height="10.69"/><rect class="cls-1" x="149.7" y="96.24" width="10.69" height="10.69"/><rect class="cls-1" x="149.7" y="85.55" width="10.69" height="10.69"/><rect class="cls-1" x="149.7" y="74.85" width="10.69" height="10.7"/><rect class="cls-1" x="149.7" y="64.16" width="10.69" height="10.69"/><rect class="cls-1" x="149.7" y="42.78" width="10.69" height="10.69"/><rect class="cls-1" x="149.7" y="32.08" width="10.69" height="10.7"/><rect class="cls-1" x="149.7" y="139.01" width="10.69" height="10.7"/><rect class="cls-1" x="149.7" y="128.32" width="10.69" height="10.69"/><rect class="cls-1" x="149.7" y="106.93" width="10.69" height="10.7"/><rect class="cls-1" x="149.7" y="53.47" width="10.69" height="10.69"/><rect class="cls-1" x="149.7" y="117.63" width="10.69" height="10.69"/><rect class="cls-1" x="139.01" y="96.24" width="10.69" height="10.69"/><rect class="cls-1" x="139.01" y="160.4" width="10.69" height="10.69"/><rect class="cls-1" x="139.01" y="53.47" width="10.69" height="10.69"/><rect class="cls-1" x="139.01" y="85.55" width="10.69" height="10.69"/><rect class="cls-1" x="139.01" y="106.93" width="10.69" height="10.7"/><rect class="cls-1" x="139.01" y="149.71" width="10.69" height="10.69"/><rect class="cls-1" x="139.01" y="32.08" width="10.69" height="10.7"/><rect class="cls-1" x="139.01" y="42.78" width="10.69" height="10.69"/><rect class="cls-1" x="139.01" y="64.16" width="10.69" height="10.69"/><rect class="cls-1" x="139.01" y="74.85" width="10.69" height="10.7"/><rect class="cls-1" x="139.01" y="128.32" width="10.69" height="10.69"/><rect class="cls-1" x="139.01" y="181.78" width="10.69" height="10.7"/><rect class="cls-1" x="139.01" y="171.09" width="10.69" height="10.69"/><rect class="cls-1" x="139.01" y="139.01" width="10.69" height="10.7"/><rect class="cls-1" x="139.01" y="117.63" width="10.69" height="10.69"/><rect class="cls-1" x="139.01" y="21.39" width="10.69" height="10.69"/><rect class="cls-1" x="139.01" y="192.48" width="10.69" height="10.69"/><rect class="cls-1" x="128.31" y="181.78" width="10.7" height="10.7"/><rect class="cls-1" x="128.31" y="171.09" width="10.7" height="10.69"/><rect class="cls-1" x="128.31" y="160.4" width="10.7" height="10.69"/><rect class="cls-1" x="128.31" y="149.71" width="10.7" height="10.69"/><rect class="cls-1" x="128.31" y="139.01" width="10.7" height="10.7"/><rect class="cls-1" x="128.31" y="117.63" width="10.7" height="10.69"/><rect class="cls-1" x="128.31" y="85.55" width="10.7" height="10.69"/><rect class="cls-1" x="128.31" y="53.47" width="10.7" height="10.69"/><rect class="cls-1" x="128.31" y="74.85" width="10.7" height="10.7"/><rect class="cls-1" x="128.31" y="128.32" width="10.7" height="10.69"/><rect class="cls-1" x="128.31" y="96.24" width="10.7" height="10.69"/><rect class="cls-1" x="128.31" y="64.16" width="10.7" height="10.69"/><rect class="cls-1" x="128.31" y="42.78" width="10.7" height="10.69"/><rect class="cls-1" x="128.31" y="32.08" width="10.7" height="10.7"/><rect class="cls-1" x="128.31" y="21.39" width="10.7" height="10.69"/><rect class="cls-1" x="128.31" y="192.48" width="10.7" height="10.69"/><rect class="cls-1" x="128.31" y="106.93" width="10.7" height="10.7"/><rect class="cls-2" x="106.93" y="171.09" width="10.69" height="10.69"/><rect class="cls-2" x="106.93" y="160.4" width="10.69" height="10.69"/><rect class="cls-2" x="106.93" y="203.17" width="10.69" height="10.69"/><rect class="cls-2" x="106.93" y="192.48" width="10.69" height="10.69"/><rect class="cls-2" x="106.93" y="181.78" width="10.69" height="10.7"/><rect class="cls-2" x="106.93" y="42.78" width="10.69" height="10.69"/><rect class="cls-2" x="106.93" y="64.16" width="10.69" height="10.69"/><rect class="cls-2" x="106.93" y="21.39" width="10.69" height="10.69"/><rect class="cls-2" x="106.93" y="53.47" width="10.69" height="10.69"/><rect class="cls-2" x="106.93" y="149.71" width="10.69" height="10.69"/><rect class="cls-2" x="106.93" y="139.01" width="10.69" height="10.7"/><rect class="cls-2" x="106.93" y="128.32" width="10.69" height="10.69"/><rect class="cls-2" x="106.93" y="96.24" width="10.69" height="10.69"/><rect class="cls-2" x="106.93" y="32.08" width="10.69" height="10.7"/><rect class="cls-2" x="106.93" y="117.63" width="10.69" height="10.69"/><rect class="cls-2" x="106.93" y="106.93" width="10.69" height="10.7"/><rect class="cls-2" x="106.93" y="85.55" width="10.69" height="10.69"/><rect class="cls-2" x="106.93" y="74.85" width="10.69" height="10.7"/><rect class="cls-2" x="106.93" y="10.7" width="10.69" height="10.69"/><rect class="cls-2" x="96.23" y="64.16" width="10.7" height="10.69"/><rect class="cls-2" x="96.23" y="181.78" width="10.7" height="10.7"/><rect class="cls-2" x="96.23" y="74.85" width="10.7" height="10.7"/><rect class="cls-2" x="96.23" y="160.4" width="10.7" height="10.69"/><rect class="cls-2" x="96.23" y="42.78" width="10.7" height="10.69"/><rect class="cls-2" x="96.23" y="53.47" width="10.7" height="10.69"/><rect class="cls-2" x="96.23" y="21.39" width="10.7" height="10.69"/><rect class="cls-2" x="96.23" y="192.48" width="10.7" height="10.69"/><rect class="cls-2" x="96.23" y="149.71" width="10.7" height="10.69"/><rect class="cls-2" x="96.23" y="139.01" width="10.7" height="10.7"/><rect class="cls-2" x="96.23" y="85.55" width="10.7" height="10.69"/><rect class="cls-2" x="96.23" y="128.32" width="10.7" height="10.69"/><rect class="cls-2" x="96.23" y="32.08" width="10.7" height="10.7"/><rect class="cls-2" x="96.23" y="10.7" width="10.7" height="10.69"/><rect class="cls-2" x="96.23" y="203.17" width="10.7" height="10.69"/><rect class="cls-2" x="96.23" y="106.93" width="10.7" height="10.7"/><rect class="cls-2" x="96.23" y="117.63" width="10.7" height="10.69"/><rect class="cls-2" x="96.23" y="96.24" width="10.7" height="10.69"/><rect class="cls-2" x="96.23" y="171.09" width="10.7" height="10.69"/><rect class="cls-2" x="85.54" y="203.17" width="10.69" height="10.69"/><rect class="cls-2" x="85.54" y="192.48" width="10.69" height="10.69"/><rect class="cls-2" x="85.54" y="181.78" width="10.69" height="10.7"/><rect class="cls-2" x="85.54" y="21.39" width="10.69" height="10.69"/><rect class="cls-2" x="85.54" y="160.4" width="10.69" height="10.69"/><rect class="cls-2" x="85.54" y="139.01" width="10.69" height="10.7"/><rect class="cls-2" x="85.54" y="128.32" width="10.69" height="10.69"/><rect class="cls-2" x="85.54" y="10.7" width="10.69" height="10.69"/><rect class="cls-2" x="85.54" y="106.93" width="10.69" height="10.7"/><rect class="cls-2" x="85.54" y="96.24" width="10.69" height="10.69"/><rect class="cls-2" x="85.54" y="64.16" width="10.69" height="10.69"/><rect class="cls-2" x="85.54" y="149.71" width="10.69" height="10.69"/><rect class="cls-2" x="85.54" y="85.55" width="10.69" height="10.69"/><rect class="cls-2" x="85.54" y="42.78" width="10.69" height="10.69"/><rect class="cls-2" x="85.54" y="32.08" width="10.69" height="10.7"/><rect class="cls-2" x="85.54" y="171.09" width="10.69" height="10.69"/><rect class="cls-2" x="85.54" y="117.63" width="10.69" height="10.69"/><rect class="cls-2" x="85.54" y="74.85" width="10.69" height="10.7"/><rect class="cls-2" x="85.54" y="53.47" width="10.69" height="10.69"/><rect class="cls-3" x="53.46" y="149.71" width="10.69" height="10.69"/><rect class="cls-3" x="53.46" y="106.93" width="10.69" height="10.7"/><rect class="cls-3" x="53.46" y="171.09" width="10.69" height="10.69"/><rect class="cls-3" x="53.46" y="192.48" width="10.69" height="10.69"/><rect class="cls-3" x="53.46" y="181.78" width="10.69" height="10.7"/><rect class="cls-3" x="53.46" y="160.4" width="10.69" height="10.69"/><rect class="cls-3" x="53.46" y="128.32" width="10.69" height="10.69"/><rect class="cls-3" x="53.46" y="117.63" width="10.69" height="10.69"/><rect class="cls-3" x="53.46" y="96.24" width="10.69" height="10.69"/><rect class="cls-3" x="53.46" y="139.01" width="10.69" height="10.7"/><rect class="cls-3" x="53.46" y="85.55" width="10.69" height="10.69"/><rect class="cls-3" x="53.46" y="74.85" width="10.69" height="10.7"/><rect class="cls-3" x="53.46" y="64.16" width="10.69" height="10.69"/><rect class="cls-3" x="53.46" y="53.47" width="10.69" height="10.69"/><rect class="cls-3" x="53.46" y="42.78" width="10.69" height="10.69"/><rect class="cls-3" x="53.46" y="32.08" width="10.69" height="10.7"/><rect class="cls-3" x="53.46" y="21.39" width="10.69" height="10.69"/><rect class="cls-3" x="42.77" y="42.78" width="10.69" height="10.69"/><rect class="cls-3" x="42.77" y="171.09" width="10.69" height="10.69"/><rect class="cls-3" x="42.77" y="32.08" width="10.69" height="10.7"/><rect class="cls-3" x="42.77" y="181.78" width="10.69" height="10.7"/><rect class="cls-3" x="42.77" y="106.93" width="10.69" height="10.7"/><rect class="cls-3" x="42.77" y="139.01" width="10.69" height="10.7"/><rect class="cls-3" x="42.77" y="117.63" width="10.69" height="10.69"/><rect class="cls-3" x="42.77" y="64.16" width="10.69" height="10.69"/><rect class="cls-3" x="42.77" y="53.47" width="10.69" height="10.69"/><rect class="cls-3" x="42.77" y="128.32" width="10.69" height="10.69"/><rect class="cls-3" x="42.77" y="85.55" width="10.69" height="10.69"/><rect class="cls-3" x="42.77" y="74.85" width="10.69" height="10.7"/><rect class="cls-3" x="42.77" y="149.71" width="10.69" height="10.69"/><rect class="cls-3" x="42.77" y="96.24" width="10.69" height="10.69"/><rect class="cls-3" x="42.77" y="160.4" width="10.69" height="10.69"/><rect class="cls-3" x="32.08" y="32.08" width="10.69" height="10.7"/><rect class="cls-3" x="32.08" y="53.47" width="10.69" height="10.69"/><rect class="cls-3" x="32.08" y="117.63" width="10.69" height="10.69"/><rect class="cls-3" x="32.08" y="106.93" width="10.69" height="10.7"/><rect class="cls-3" x="32.08" y="139.01" width="10.69" height="10.7"/><rect class="cls-3" x="32.08" y="128.32" width="10.69" height="10.69"/><rect class="cls-3" x="32.08" y="64.16" width="10.69" height="10.69"/><rect class="cls-3" x="32.08" y="85.55" width="10.69" height="10.69"/><rect class="cls-3" x="32.08" y="42.78" width="10.69" height="10.69"/><rect class="cls-3" x="32.08" y="96.24" width="10.69" height="10.69"/><rect class="cls-3" x="32.08" y="74.85" width="10.69" height="10.7"/><rect class="cls-3" x="32.08" y="181.78" width="10.69" height="10.7"/><rect class="cls-3" x="32.08" y="171.09" width="10.69" height="10.69"/><rect class="cls-3" x="32.08" y="160.4" width="10.69" height="10.69"/><rect class="cls-3" x="32.08" y="149.71" width="10.69" height="10.69"/><rect class="cls-4" y="96.24" width="10.69" height="10.69"/><rect class="cls-4" y="53.47" width="10.69" height="10.69"/><rect class="cls-4" y="160.4" width="10.69" height="10.69"/><rect class="cls-4" y="106.93" width="10.69" height="10.7"/><rect class="cls-4" y="139.01" width="10.69" height="10.7"/><rect class="cls-4" y="128.32" width="10.69" height="10.69"/><rect class="cls-4" y="149.71" width="10.69" height="10.69"/><rect class="cls-4" y="117.63" width="10.69" height="10.69"/><rect class="cls-4" y="74.85" width="10.69" height="10.7"/><rect class="cls-4" y="64.16" width="10.69" height="10.69"/><rect class="cls-4" y="85.55" width="10.69" height="10.69"/><rect class="cls-4" x="10.69" y="53.47" width="10.69" height="10.69"/><rect class="cls-4" x="10.69" y="160.4" width="10.69" height="10.69"/><rect class="cls-4" x="10.69" y="149.71" width="10.69" height="10.69"/><rect class="cls-4" x="10.69" y="128.32" width="10.69" height="10.69"/><rect class="cls-4" x="10.69" y="117.63" width="10.69" height="10.69"/><rect class="cls-4" x="10.69" y="85.55" width="10.69" height="10.69"/><rect class="cls-4" x="10.69" y="42.78" width="10.69" height="10.69"/><rect class="cls-4" x="10.69" y="64.16" width="10.69" height="10.69"/><rect class="cls-4" x="10.69" y="171.09" width="10.69" height="10.69"/><rect class="cls-4" x="10.69" y="139.01" width="10.69" height="10.7"/><rect class="cls-4" x="10.69" y="74.85" width="10.69" height="10.7"/><rect class="cls-4" x="10.69" y="106.93" width="10.69" height="10.7"/><rect class="cls-4" x="10.69" y="96.24" width="10.69" height="10.69"/><rect class="cls-2" x="192.47" y="160.4" width="10.69" height="10.69"/><rect class="cls-2" x="192.47" y="149.71" width="10.69" height="10.69"/><rect class="cls-2" x="192.47" y="139.01" width="10.69" height="10.7"/><rect class="cls-2" x="192.47" y="128.32" width="10.69" height="10.69"/><rect class="cls-2" x="192.47" y="117.63" width="10.69" height="10.69"/><rect class="cls-2" x="192.47" y="106.93" width="10.69" height="10.7"/><rect class="cls-2" x="192.47" y="96.24" width="10.69" height="10.69"/><rect class="cls-2" x="192.47" y="85.55" width="10.69" height="10.69"/><rect class="cls-2" x="192.47" y="74.85" width="10.69" height="10.7"/><rect class="cls-2" x="192.47" y="64.16" width="10.69" height="10.69"/><rect class="cls-2" x="192.47" y="53.47" width="10.69" height="10.69"/><rect class="cls-2" x="181.78" y="171.09" width="10.69" height="10.69"/><rect class="cls-2" x="181.78" y="160.4" width="10.69" height="10.69"/><rect class="cls-2" x="181.78" y="149.71" width="10.69" height="10.69"/><rect class="cls-2" x="181.78" y="139.01" width="10.69" height="10.7"/><rect class="cls-2" x="181.78" y="128.32" width="10.69" height="10.69"/><rect class="cls-2" x="181.78" y="117.63" width="10.69" height="10.69"/><rect class="cls-2" x="181.78" y="106.93" width="10.69" height="10.7"/><rect class="cls-2" x="181.78" y="96.24" width="10.69" height="10.69"/><rect class="cls-2" x="181.78" y="85.55" width="10.69" height="10.69"/><rect class="cls-2" x="181.78" y="74.85" width="10.69" height="10.7"/><rect class="cls-2" x="181.78" y="64.16" width="10.69" height="10.69"/><rect class="cls-2" x="181.78" y="53.47" width="10.69" height="10.69"/><rect class="cls-2" x="181.78" y="42.78" width="10.69" height="10.69"/><rect class="cls-2" x="171.08" y="181.78" width="10.7" height="10.7"/><rect class="cls-2" x="171.08" y="171.09" width="10.7" height="10.69"/><rect class="cls-2" x="171.08" y="160.4" width="10.7" height="10.69"/><rect class="cls-2" x="171.08" y="149.71" width="10.7" height="10.69"/><rect class="cls-2" x="171.08" y="139.01" width="10.7" height="10.7"/><rect class="cls-2" x="171.08" y="128.32" width="10.7" height="10.69"/><rect class="cls-2" x="171.08" y="117.63" width="10.7" height="10.69"/><rect class="cls-2" x="171.08" y="106.93" width="10.7" height="10.7"/><rect class="cls-2" x="171.08" y="96.24" width="10.7" height="10.69"/><rect class="cls-2" x="171.08" y="85.55" width="10.7" height="10.69"/><rect class="cls-2" x="171.08" y="74.85" width="10.7" height="10.7"/><rect class="cls-2" x="171.08" y="64.16" width="10.7" height="10.69"/><rect class="cls-2" x="171.08" y="53.47" width="10.7" height="10.69"/><rect class="cls-2" x="171.08" y="42.78" width="10.7" height="10.69"/><rect class="cls-2" x="171.08" y="32.08" width="10.7" height="10.7"/><rect class="cls-1" x="160.39" y="192.48" width="10.69" height="10.69"/><rect class="cls-1" x="160.39" y="181.78" width="10.69" height="10.7"/><rect class="cls-1" x="160.39" y="171.09" width="10.69" height="10.69"/><rect class="cls-1" x="160.39" y="160.4" width="10.69" height="10.69"/><rect class="cls-1" x="160.39" y="149.71" width="10.69" height="10.69"/><rect class="cls-1" x="160.39" y="139.01" width="10.69" height="10.7"/><rect class="cls-1" x="160.39" y="128.32" width="10.69" height="10.69"/><rect class="cls-1" x="160.39" y="117.63" width="10.69" height="10.69"/><rect class="cls-1" x="160.39" y="106.93" width="10.69" height="10.7"/><rect class="cls-1" x="160.39" y="96.24" width="10.69" height="10.69"/><rect class="cls-1" x="160.39" y="85.55" width="10.69" height="10.69"/><rect class="cls-1" x="160.39" y="74.85" width="10.69" height="10.7"/><rect class="cls-1" x="160.39" y="64.16" width="10.69" height="10.69"/><rect class="cls-1" x="160.39" y="53.47" width="10.69" height="10.69"/><rect class="cls-1" x="160.39" y="42.78" width="10.69" height="10.69"/><rect class="cls-1" x="160.39" y="32.08" width="10.69" height="10.7"/><rect class="cls-1" x="160.39" y="21.39" width="10.69" height="10.69"/><rect class="cls-1" x="149.7" y="192.48" width="10.69" height="10.69"/><rect class="cls-1" x="149.7" y="21.39" width="10.69" height="10.69"/><rect class="cls-1" x="139.01" y="203.17" width="10.69" height="10.69"/><rect class="cls-1" x="139.01" y="10.7" width="10.69" height="10.69"/><rect class="cls-1" x="128.31" y="203.17" width="10.7" height="10.69"/><rect class="cls-1" x="128.31" y="10.7" width="10.7" height="10.69"/><rect class="cls-2" x="117.62" y="213.86" width="10.69" height="10.7"/><rect class="cls-2" x="117.62" y="203.17" width="10.69" height="10.69"/><rect class="cls-2" x="117.62" y="192.48" width="10.69" height="10.69"/><rect class="cls-2" x="117.62" y="181.78" width="10.69" height="10.7"/><rect class="cls-2" x="117.62" y="171.09" width="10.69" height="10.69"/><rect class="cls-2" x="117.62" y="160.4" width="10.69" height="10.69"/><rect class="cls-2" x="117.62" y="149.71" width="10.69" height="10.69"/><rect class="cls-2" x="117.62" y="139.01" width="10.69" height="10.7"/><rect class="cls-2" x="117.62" y="128.32" width="10.69" height="10.69"/><rect class="cls-2" x="117.62" y="117.63" width="10.69" height="10.69"/><rect class="cls-2" x="117.62" y="106.93" width="10.69" height="10.7"/><rect class="cls-2" x="117.62" y="96.24" width="10.69" height="10.69"/><rect class="cls-2" x="117.62" y="85.55" width="10.69" height="10.69"/><rect class="cls-2" x="117.62" y="74.85" width="10.69" height="10.7"/><rect class="cls-2" x="117.62" y="64.16" width="10.69" height="10.69"/><rect class="cls-2" x="117.62" y="53.47" width="10.69" height="10.69"/><rect class="cls-2" x="117.62" y="42.78" width="10.69" height="10.69"/><rect class="cls-2" x="117.62" y="32.08" width="10.69" height="10.7"/><rect class="cls-2" x="117.62" y="21.39" width="10.69" height="10.69"/><rect class="cls-2" x="117.62" y="10.7" width="10.69" height="10.69"/><rect class="cls-2" x="117.62" width="10.69" height="10.7"/><rect class="cls-2" x="106.93" y="213.86" width="10.69" height="10.7"/><rect class="cls-2" x="106.93" width="10.69" height="10.7"/><rect class="cls-2" x="96.23" y="213.86" width="10.7" height="10.7"/><rect class="cls-2" x="96.23" width="10.7" height="10.7"/><rect class="cls-2" x="85.54" y="213.86" width="10.69" height="10.7"/><rect class="cls-2" x="85.54" width="10.69" height="10.7"/><rect class="cls-2" x="74.85" y="213.86" width="10.69" height="10.7"/><rect class="cls-2" x="74.85" y="203.17" width="10.69" height="10.69"/><rect class="cls-2" x="74.85" y="192.48" width="10.69" height="10.69"/><rect class="cls-2" x="74.85" y="181.78" width="10.69" height="10.7"/><rect class="cls-2" x="74.85" y="171.09" width="10.69" height="10.69"/><rect class="cls-2" x="74.85" y="160.4" width="10.69" height="10.69"/><rect class="cls-2" x="74.85" y="149.71" width="10.69" height="10.69"/><rect class="cls-2" x="74.85" y="139.01" width="10.69" height="10.7"/><rect class="cls-2" x="74.85" y="128.32" width="10.69" height="10.69"/><rect class="cls-2" x="74.85" y="117.63" width="10.69" height="10.69"/><rect class="cls-2" x="74.85" y="106.93" width="10.69" height="10.7"/><rect class="cls-2" x="74.85" y="96.24" width="10.69" height="10.69"/><rect class="cls-2" x="74.85" y="85.55" width="10.69" height="10.69"/><rect class="cls-2" x="74.85" y="74.85" width="10.69" height="10.7"/><rect class="cls-2" x="74.85" y="64.16" width="10.69" height="10.69"/><rect class="cls-2" x="74.85" y="53.47" width="10.69" height="10.69"/><rect class="cls-2" x="74.85" y="42.78" width="10.69" height="10.69"/><rect class="cls-2" x="74.85" y="32.08" width="10.69" height="10.7"/><rect class="cls-2" x="74.85" y="21.39" width="10.69" height="10.69"/><rect class="cls-2" x="74.85" y="10.7" width="10.69" height="10.69"/><rect class="cls-2" x="74.85" width="10.69" height="10.7"/><rect class="cls-3" x="64.15" y="203.17" width="10.7" height="10.69"/><rect class="cls-3" x="64.15" y="192.48" width="10.7" height="10.69"/><rect class="cls-3" x="64.15" y="181.78" width="10.7" height="10.7"/><rect class="cls-3" x="64.15" y="171.09" width="10.7" height="10.69"/><rect class="cls-3" x="64.15" y="160.4" width="10.7" height="10.69"/><rect class="cls-3" x="64.15" y="149.71" width="10.7" height="10.69"/><rect class="cls-3" x="64.15" y="139.01" width="10.7" height="10.7"/><rect class="cls-3" x="64.15" y="128.32" width="10.7" height="10.69"/><rect class="cls-3" x="64.15" y="117.63" width="10.7" height="10.69"/><rect class="cls-3" x="64.15" y="106.93" width="10.7" height="10.7"/><rect class="cls-3" x="64.15" y="96.24" width="10.7" height="10.69"/><rect class="cls-3" x="64.15" y="85.55" width="10.7" height="10.69"/><rect class="cls-3" x="64.15" y="74.85" width="10.7" height="10.7"/><rect class="cls-3" x="64.15" y="64.16" width="10.7" height="10.69"/><rect class="cls-3" x="64.15" y="53.47" width="10.7" height="10.69"/><rect class="cls-3" x="64.15" y="42.78" width="10.7" height="10.69"/><rect class="cls-3" x="64.15" y="32.08" width="10.7" height="10.7"/><rect class="cls-3" x="64.15" y="21.39" width="10.7" height="10.69"/><rect class="cls-3" x="64.15" y="10.7" width="10.7" height="10.69"/><rect class="cls-3" x="53.46" y="203.17" width="10.69" height="10.69"/><rect class="cls-3" x="53.46" y="10.7" width="10.69" height="10.69"/><rect class="cls-3" x="42.77" y="192.48" width="10.69" height="10.69"/><rect class="cls-3" x="42.77" y="21.39" width="10.69" height="10.69"/><rect class="cls-3" x="32.08" y="192.48" width="10.69" height="10.69"/><rect class="cls-3" x="32.08" y="21.39" width="10.69" height="10.69"/><rect class="cls-4" x="21.38" y="181.78" width="10.7" height="10.7"/><rect class="cls-4" x="21.38" y="171.09" width="10.7" height="10.69"/><rect class="cls-4" x="21.38" y="160.4" width="10.7" height="10.69"/><rect class="cls-4" x="21.38" y="149.71" width="10.7" height="10.69"/><rect class="cls-4" x="21.38" y="139.01" width="10.7" height="10.7"/><rect class="cls-4" x="21.38" y="128.32" width="10.7" height="10.69"/><rect class="cls-4" x="21.38" y="117.63" width="10.7" height="10.69"/><rect class="cls-4" x="21.38" y="106.93" width="10.7" height="10.7"/><rect class="cls-4" x="21.38" y="96.24" width="10.7" height="10.69"/><rect class="cls-4" x="21.38" y="85.55" width="10.7" height="10.69"/><rect class="cls-4" x="21.38" y="74.85" width="10.7" height="10.7"/><rect class="cls-4" x="21.38" y="64.16" width="10.7" height="10.69"/><rect class="cls-4" x="21.38" y="53.47" width="10.7" height="10.69"/><rect class="cls-4" x="21.38" y="42.78" width="10.7" height="10.69"/><rect class="cls-4" x="21.38" y="32.08" width="10.7" height="10.7"/></g></g></svg>