<svg xmlns="http://www.w3.org/2000/svg" viewBox="0 0 181.78 224.56"><defs><style>.cls-1{fill:#e25444;}.cls-2{fill:#7b1d13;}.cls-3{fill:#58150d;}</style></defs><g id="Capa_2" data-name="Capa 2"><g id="tecnologias"><rect class="cls-1" x="85.54" width="10.7" height="10.7"/><rect class="cls-1" x="171.09" y="160.4" width="10.69" height="10.69"/><rect class="cls-1" x="171.09" y="149.71" width="10.69" height="10.69"/><rect class="cls-1" x="171.09" y="139.01" width="10.69" height="10.7"/><rect class="cls-1" x="171.09" y="128.32" width="10.69" height="10.69"/><rect class="cls-1" x="171.09" y="117.63" width="10.69" height="10.69"/><rect class="cls-1" x="171.09" y="106.93" width="10.69" height="10.7"/><rect class="cls-1" x="171.09" y="96.24" width="10.69" height="10.69"/><rect class="cls-1" x="171.09" y="85.55" width="10.69" height="10.69"/><rect class="cls-1" x="171.09" y="74.85" width="10.69" height="10.7"/><rect class="cls-1" x="171.09" y="64.16" width="10.69" height="10.69"/><rect class="cls-1" x="171.09" y="53.47" width="10.69" height="10.69"/><rect class="cls-1" x="160.39" y="171.09" width="10.7" height="10.69"/><rect class="cls-1" x="160.39" y="160.4" width="10.7" height="10.69"/><rect class="cls-1" x="160.39" y="149.71" width="10.7" height="10.69"/><rect class="cls-1" x="160.39" y="139.01" width="10.7" height="10.7"/><rect class="cls-1" x="160.39" y="128.32" width="10.7" height="10.69"/><rect class="cls-1" x="160.39" y="117.63" width="10.7" height="10.69"/><rect class="cls-1" x="160.39" y="106.93" width="10.7" height="10.7"/><rect class="cls-1" x="160.39" y="96.24" width="10.7" height="10.69"/><rect class="cls-1" x="160.39" y="85.55" width="10.7" height="10.69"/><rect class="cls-1" x="160.39" y="74.85" width="10.7" height="10.7"/><rect class="cls-1" x="160.39" y="64.16" width="10.7" height="10.69"/><rect class="cls-1" x="160.39" y="53.47" width="10.7" height="10.69"/><rect class="cls-1" x="160.39" y="42.78" width="10.7" height="10.69"/><rect class="cls-2" x="149.7" y="171.09" width="10.69" height="10.69"/><rect class="cls-2" x="149.7" y="160.4" width="10.69" height="10.69"/><rect class="cls-2" x="149.7" y="149.71" width="10.69" height="10.69"/><rect class="cls-2" x="149.7" y="139.01" width="10.69" height="10.7"/><rect class="cls-2" x="149.7" y="128.32" width="10.69" height="10.69"/><rect class="cls-2" x="149.7" y="117.63" width="10.69" height="10.69"/><rect class="cls-2" x="149.7" y="106.93" width="10.69" height="10.7"/><rect class="cls-2" x="149.7" y="96.24" width="10.69" height="10.69"/><rect class="cls-2" x="149.7" y="85.55" width="10.69" height="10.69"/><rect class="cls-2" x="149.7" y="74.85" width="10.69" height="10.7"/><rect class="cls-2" x="149.7" y="64.16" width="10.69" height="10.69"/><rect class="cls-2" x="149.7" y="53.47" width="10.69" height="10.69"/><rect class="cls-2" x="149.7" y="42.78" width="10.69" height="10.69"/><rect class="cls-2" x="139.01" y="171.09" width="10.69" height="10.69"/><rect class="cls-2" x="139.01" y="160.4" width="10.69" height="10.69"/><rect class="cls-2" x="139.01" y="149.71" width="10.69" height="10.69"/><rect class="cls-2" x="139.01" y="139.01" width="10.69" height="10.7"/><rect class="cls-2" x="139.01" y="128.32" width="10.69" height="10.69"/><rect class="cls-2" x="139.01" y="117.63" width="10.69" height="10.69"/><rect class="cls-2" x="139.01" y="106.93" width="10.69" height="10.7"/><rect class="cls-2" x="139.01" y="96.24" width="10.69" height="10.69"/><rect class="cls-2" x="139.01" y="85.55" width="10.69" height="10.69"/><rect class="cls-2" x="139.01" y="74.85" width="10.69" height="10.7"/><rect class="cls-2" x="139.01" y="64.16" width="10.69" height="10.69"/><rect class="cls-2" x="139.01" y="53.47" width="10.69" height="10.69"/><rect class="cls-2" x="139.01" y="42.78" width="10.69" height="10.69"/><rect class="cls-2" x="128.32" y="171.09" width="10.69" height="10.69"/><rect class="cls-2" x="128.32" y="160.4" width="10.69" height="10.69"/><rect class="cls-2" x="128.32" y="149.71" width="10.69" height="10.69"/><rect class="cls-2" x="128.32" y="139.01" width="10.69" height="10.7"/><rect class="cls-2" x="128.32" y="128.32" width="10.69" height="10.69"/><rect class="cls-2" x="128.32" y="117.63" width="10.69" height="10.69"/><rect class="cls-2" x="128.32" y="106.93" width="10.69" height="10.7"/><rect class="cls-2" x="128.32" y="96.24" width="10.69" height="10.69"/><rect class="cls-2" x="128.32" y="85.55" width="10.69" height="10.69"/><rect class="cls-2" x="128.32" y="74.85" width="10.69" height="10.7"/><rect class="cls-2" x="128.32" y="64.16" width="10.69" height="10.69"/><rect class="cls-2" x="128.32" y="53.47" width="10.69" height="10.69"/><rect class="cls-2" x="117.62" y="171.09" width="10.7" height="10.69"/><rect class="cls-2" x="117.62" y="160.4" width="10.7" height="10.69"/><rect class="cls-2" x="117.62" y="149.71" width="10.7" height="10.69"/><rect class="cls-2" x="117.62" y="139.01" width="10.7" height="10.7"/><rect class="cls-2" x="117.62" y="128.32" width="10.7" height="10.69"/><rect class="cls-2" x="117.62" y="117.63" width="10.7" height="10.69"/><rect class="cls-2" x="117.62" y="106.93" width="10.7" height="10.7"/><rect class="cls-2" x="117.62" y="96.24" width="10.7" height="10.69"/><rect class="cls-2" x="117.62" y="85.55" width="10.7" height="10.69"/><rect class="cls-2" x="117.62" y="74.85" width="10.7" height="10.7"/><rect class="cls-2" x="117.62" y="64.16" width="10.7" height="10.69"/><rect class="cls-2" x="117.62" y="53.47" width="10.7" height="10.69"/><rect class="cls-1" x="106.93" y="192.48" width="10.69" height="10.69"/><rect class="cls-1" x="106.93" y="181.78" width="10.69" height="10.7"/><rect class="cls-1" x="106.93" y="171.09" width="10.69" height="10.69"/><rect class="cls-1" x="106.93" y="160.4" width="10.69" height="10.69"/><rect class="cls-2" x="106.93" y="149.71" width="10.69" height="10.69"/><rect class="cls-2" x="106.93" y="139.01" width="10.69" height="10.7"/><rect class="cls-1" x="106.93" y="128.32" width="10.69" height="10.69"/><rect class="cls-1" x="106.93" y="117.63" width="10.69" height="10.69"/><rect class="cls-1" x="106.93" y="106.93" width="10.69" height="10.7"/><rect class="cls-1" x="106.93" y="96.24" width="10.69" height="10.69"/><rect class="cls-2" x="106.93" y="85.55" width="10.69" height="10.69"/><rect class="cls-2" x="106.93" y="74.85" width="10.69" height="10.7"/><rect class="cls-2" x="106.93" y="64.16" width="10.69" height="10.69"/><rect class="cls-1" x="106.93" y="53.47" width="10.69" height="10.69"/><rect class="cls-1" x="106.93" y="42.78" width="10.69" height="10.69"/><rect class="cls-1" x="106.93" y="32.08" width="10.69" height="10.7"/><rect class="cls-1" x="106.93" y="21.39" width="10.69" height="10.69"/><rect class="cls-1" x="96.24" y="203.17" width="10.69" height="10.69"/><rect class="cls-1" x="96.24" y="192.48" width="10.69" height="10.69"/><rect class="cls-1" x="96.24" y="181.78" width="10.69" height="10.7"/><rect class="cls-1" x="96.24" y="171.09" width="10.69" height="10.69"/><rect class="cls-1" x="96.24" y="160.4" width="10.69" height="10.69"/><rect class="cls-3" x="96.24" y="149.71" width="10.69" height="10.69"/><rect class="cls-2" x="96.24" y="139.01" width="10.69" height="10.7"/><rect class="cls-1" x="96.24" y="128.32" width="10.69" height="10.69"/><rect class="cls-1" x="96.24" y="117.63" width="10.69" height="10.69"/><rect class="cls-1" x="96.24" y="106.93" width="10.69" height="10.7"/><rect class="cls-1" x="96.24" y="96.24" width="10.69" height="10.69"/><rect class="cls-1" x="96.24" y="85.55" width="10.69" height="10.69"/><rect class="cls-2" x="96.24" y="74.85" width="10.69" height="10.7"/><rect class="cls-3" x="96.24" y="64.16" width="10.69" height="10.69"/><rect class="cls-1" x="96.24" y="53.47" width="10.69" height="10.69"/><rect class="cls-1" x="96.24" y="42.78" width="10.69" height="10.69"/><rect class="cls-1" x="96.24" y="32.08" width="10.69" height="10.7"/><rect class="cls-1" x="96.24" y="21.39" width="10.69" height="10.69"/><rect class="cls-1" x="96.24" y="10.7" width="10.69" height="10.69"/><rect class="cls-1" x="85.54" y="213.86" width="10.7" height="10.7"/><rect class="cls-1" x="85.54" y="203.17" width="10.7" height="10.69"/><rect class="cls-1" x="85.54" y="192.48" width="10.7" height="10.69"/><rect class="cls-1" x="85.54" y="181.78" width="10.7" height="10.7"/><rect class="cls-1" x="85.54" y="171.09" width="10.7" height="10.69"/><rect class="cls-1" x="85.54" y="160.4" width="10.7" height="10.69"/><rect class="cls-3" x="85.54" y="149.71" width="10.7" height="10.69"/><rect class="cls-2" x="85.54" y="139.01" width="10.7" height="10.7"/><rect class="cls-1" x="85.54" y="128.32" width="10.7" height="10.69"/><rect class="cls-1" x="85.54" y="117.63" width="10.7" height="10.69"/><rect class="cls-1" x="85.54" y="106.93" width="10.7" height="10.7"/><rect class="cls-1" x="85.54" y="96.24" width="10.7" height="10.69"/><rect class="cls-1" x="85.54" y="85.55" width="10.7" height="10.69"/><rect class="cls-2" x="85.54" y="74.85" width="10.7" height="10.7"/><rect class="cls-1" x="85.54" y="64.16" width="10.7" height="10.69"/><rect class="cls-1" x="85.54" y="53.47" width="10.7" height="10.69"/><rect class="cls-1" x="85.54" y="42.78" width="10.7" height="10.69"/><rect class="cls-1" x="85.54" y="32.08" width="10.7" height="10.7"/><rect class="cls-1" x="85.54" y="21.39" width="10.7" height="10.69"/><rect class="cls-1" x="85.54" y="10.7" width="10.7" height="10.69"/><rect class="cls-2" x="74.85" y="203.17" width="10.69" height="10.69"/><rect class="cls-2" x="74.85" y="192.48" width="10.69" height="10.69"/><rect class="cls-2" x="74.85" y="181.78" width="10.69" height="10.7"/><rect class="cls-2" x="74.85" y="171.09" width="10.69" height="10.69"/><rect class="cls-2" x="74.85" y="160.4" width="10.69" height="10.69"/><rect class="cls-3" x="74.85" y="149.71" width="10.69" height="10.69"/><rect class="cls-1" x="74.85" y="139.01" width="10.69" height="10.7"/><rect class="cls-2" x="74.85" y="128.32" width="10.69" height="10.69"/><rect class="cls-2" x="74.85" y="117.63" width="10.69" height="10.69"/><rect class="cls-2" x="74.85" y="106.93" width="10.69" height="10.7"/><rect class="cls-2" x="74.85" y="96.24" width="10.69" height="10.69"/><rect class="cls-2" x="74.85" y="85.55" width="10.69" height="10.69"/><rect class="cls-1" x="74.85" y="74.85" width="10.69" height="10.7"/><rect class="cls-3" x="74.85" y="64.16" width="10.69" height="10.69"/><rect class="cls-2" x="74.85" y="53.47" width="10.69" height="10.69"/><rect class="cls-2" x="74.85" y="42.78" width="10.69" height="10.69"/><rect class="cls-2" x="74.85" y="32.08" width="10.69" height="10.7"/><rect class="cls-2" x="74.85" y="21.39" width="10.69" height="10.69"/><rect class="cls-2" x="74.85" y="10.7" width="10.69" height="10.69"/><rect class="cls-2" x="64.16" y="192.48" width="10.69" height="10.69"/><rect class="cls-2" x="64.16" y="181.78" width="10.69" height="10.7"/><rect class="cls-2" x="64.16" y="171.09" width="10.69" height="10.69"/><rect class="cls-2" x="64.16" y="160.4" width="10.69" height="10.69"/><rect class="cls-3" x="64.16" y="149.71" width="10.69" height="10.69"/><rect class="cls-1" x="64.16" y="139.01" width="10.69" height="10.7"/><rect class="cls-2" x="64.16" y="128.32" width="10.69" height="10.69"/><rect class="cls-2" x="64.16" y="117.63" width="10.69" height="10.69"/><rect class="cls-2" x="64.16" y="106.93" width="10.69" height="10.7"/><rect class="cls-2" x="64.16" y="96.24" width="10.69" height="10.69"/><rect class="cls-2" x="64.16" y="85.55" width="10.69" height="10.69"/><rect class="cls-1" x="64.16" y="74.85" width="10.69" height="10.7"/><rect class="cls-3" x="64.16" y="64.16" width="10.69" height="10.69"/><rect class="cls-2" x="64.16" y="53.47" width="10.69" height="10.69"/><rect class="cls-2" x="64.16" y="42.78" width="10.69" height="10.69"/><rect class="cls-2" x="64.16" y="32.08" width="10.69" height="10.7"/><rect class="cls-2" x="64.16" y="21.39" width="10.69" height="10.69"/><rect class="cls-2" x="64.16" y="10.7" width="10.69" height="10.69"/><rect class="cls-2" x="53.46" y="192.48" width="10.7" height="10.69"/><rect class="cls-2" x="53.46" y="181.78" width="10.7" height="10.7"/><rect class="cls-2" x="53.46" y="171.09" width="10.7" height="10.69"/><rect class="cls-2" x="53.46" y="160.4" width="10.7" height="10.69"/><rect class="cls-1" x="53.46" y="149.71" width="10.7" height="10.69"/><rect class="cls-1" x="53.46" y="139.01" width="10.7" height="10.7"/><rect class="cls-1" x="53.46" y="128.32" width="10.7" height="10.69"/><rect class="cls-2" x="53.46" y="117.63" width="10.7" height="10.69"/><rect class="cls-2" x="53.46" y="106.93" width="10.7" height="10.7"/><rect class="cls-2" x="53.46" y="96.24" width="10.7" height="10.69"/><rect class="cls-1" x="53.46" y="85.55" width="10.7" height="10.69"/><rect class="cls-1" x="53.46" y="74.85" width="10.7" height="10.7"/><rect class="cls-1" x="53.46" y="64.16" width="10.7" height="10.69"/><rect class="cls-2" x="53.46" y="53.47" width="10.7" height="10.69"/><rect class="cls-2" x="53.46" y="42.78" width="10.7" height="10.69"/><rect class="cls-2" x="53.46" y="32.08" width="10.7" height="10.7"/><rect class="cls-2" x="53.46" y="21.39" width="10.7" height="10.69"/><rect class="cls-1" x="42.77" y="160.4" width="10.69" height="10.69"/><rect class="cls-1" x="42.77" y="149.71" width="10.69" height="10.69"/><rect class="cls-1" x="42.77" y="139.01" width="10.69" height="10.7"/><rect class="cls-1" x="42.77" y="128.32" width="10.69" height="10.69"/><rect class="cls-1" x="42.77" y="117.63" width="10.69" height="10.69"/><rect class="cls-1" x="42.77" y="106.93" width="10.69" height="10.7"/><rect class="cls-1" x="42.77" y="96.24" width="10.69" height="10.69"/><rect class="cls-1" x="42.77" y="85.55" width="10.69" height="10.69"/><rect class="cls-1" x="42.77" y="74.85" width="10.69" height="10.7"/><rect class="cls-1" x="42.77" y="64.16" width="10.69" height="10.69"/><rect class="cls-1" x="42.77" y="53.47" width="10.69" height="10.69"/><rect class="cls-1" x="32.08" y="160.4" width="10.69" height="10.69"/><rect class="cls-1" x="32.08" y="149.71" width="10.69" height="10.69"/><rect class="cls-1" x="32.08" y="139.01" width="10.69" height="10.7"/><rect class="cls-1" x="32.08" y="128.32" width="10.69" height="10.69"/><rect class="cls-1" x="32.08" y="117.63" width="10.69" height="10.69"/><rect class="cls-1" x="32.08" y="106.93" width="10.69" height="10.7"/><rect class="cls-1" x="32.08" y="96.24" width="10.69" height="10.69"/><rect class="cls-1" x="32.08" y="85.55" width="10.69" height="10.69"/><rect class="cls-1" x="32.08" y="74.85" width="10.69" height="10.7"/><rect class="cls-1" x="32.08" y="64.16" width="10.69" height="10.69"/><rect class="cls-1" x="32.08" y="53.47" width="10.69" height="10.69"/><rect class="cls-1" x="21.39" y="171.09" width="10.69" height="10.69"/><rect class="cls-1" x="21.39" y="160.4" width="10.69" height="10.69"/><rect class="cls-1" x="21.39" y="149.71" width="10.69" height="10.69"/><rect class="cls-1" x="21.39" y="139.01" width="10.69" height="10.7"/><rect class="cls-1" x="21.39" y="128.32" width="10.69" height="10.69"/><rect class="cls-1" x="21.39" y="117.63" width="10.69" height="10.69"/><rect class="cls-1" x="21.39" y="106.93" width="10.69" height="10.7"/><rect class="cls-1" x="21.39" y="96.24" width="10.69" height="10.69"/><rect class="cls-1" x="21.39" y="85.55" width="10.69" height="10.69"/><rect class="cls-1" x="21.39" y="74.85" width="10.69" height="10.7"/><rect class="cls-1" x="21.39" y="64.16" width="10.69" height="10.69"/><rect class="cls-1" x="21.39" y="53.47" width="10.69" height="10.69"/><rect class="cls-1" x="21.39" y="42.78" width="10.69" height="10.69"/><rect class="cls-1" x="10.69" y="171.09" width="10.7" height="10.69"/><rect class="cls-1" x="10.69" y="160.4" width="10.7" height="10.69"/><rect class="cls-1" x="10.69" y="149.71" width="10.7" height="10.69"/><rect class="cls-1" x="10.69" y="139.01" width="10.7" height="10.7"/><rect class="cls-1" x="10.69" y="128.32" width="10.7" height="10.69"/><rect class="cls-1" x="10.69" y="117.63" width="10.7" height="10.69"/><rect class="cls-1" x="10.69" y="106.93" width="10.7" height="10.7"/><rect class="cls-1" x="10.69" y="96.24" width="10.7" height="10.69"/><rect class="cls-1" x="10.69" y="85.55" width="10.7" height="10.69"/><rect class="cls-1" x="10.69" y="74.85" width="10.7" height="10.7"/><rect class="cls-1" x="10.69" y="64.16" width="10.7" height="10.69"/><rect class="cls-1" x="10.69" y="53.47" width="10.7" height="10.69"/><rect class="cls-1" x="10.69" y="42.78" width="10.7" height="10.69"/><rect class="cls-3" y="171.09" width="10.69" height="10.69"/><rect class="cls-3" y="160.4" width="10.69" height="10.69"/><rect class="cls-3" y="149.71" width="10.69" height="10.69"/><rect class="cls-3" y="139.01" width="10.69" height="10.7"/><rect class="cls-3" y="128.32" width="10.69" height="10.69"/><rect class="cls-3" y="117.63" width="10.69" height="10.69"/><rect class="cls-3" y="106.93" width="10.69" height="10.7"/><rect class="cls-3" y="96.24" width="10.69" height="10.69"/><rect class="cls-3" y="85.55" width="10.69" height="10.69"/><rect class="cls-3" y="74.85" width="10.69" height="10.7"/><rect class="cls-3" y="64.16" width="10.69" height="10.69"/><rect class="cls-3" y="53.47" width="10.69" height="10.69"/><rect class="cls-3" y="42.78" width="10.69" height="10.69"/></g></g></svg>