<svg xmlns="http://www.w3.org/2000/svg" viewBox="0 0 224.56 117.62"><defs><style>.cls-1{fill:#464b8a;}.cls-2{fill:#787cb4;}.cls-3{fill:#555a94;}.cls-4{fill:#676ba1;}.cls-5{fill:#7a7eae;}.cls-6{fill:#8a8eba;}.cls-7{fill:#474c8a;}.cls-8{fill:#9599c2;}.cls-9{fill:#505491;}.cls-10{fill:#aaafd2;}.cls-11{fill:#575c96;}.cls-12{fill:#b0b4d6;}.cls-13{fill:#5e629a;}.cls-14{fill:#63679e;}.cls-15{fill:#666aa1;}.cls-16{fill:#6b70a4;}.cls-17{fill:#7074a7;}.cls-18{fill:#7377aa;}.cls-19{fill:#aeb3d5;}.cls-20{fill:#7579aa;}.cls-21{fill:#9ea3c9;}.cls-22{fill:#777bad;}.cls-23{fill:#8185b4;}.cls-24{fill:#888cb9;}</style></defs><g id="Capa_2" data-name="Capa 2"><g id="tecnologias"><rect class="cls-1" x="213.86" y="64.16" width="10.7" height="10.69"/><rect class="cls-2" x="213.86" y="53.46" width="10.7" height="10.7"/><rect class="cls-2" x="213.86" y="42.77" width="10.7" height="10.69"/><rect class="cls-1" x="203.17" y="74.85" width="10.69" height="10.69"/><rect class="cls-2" x="203.17" y="64.16" width="10.69" height="10.69"/><rect class="cls-2" x="203.17" y="53.46" width="10.69" height="10.7"/><rect class="cls-2" x="203.17" y="42.77" width="10.69" height="10.69"/><rect class="cls-2" x="203.17" y="32.08" width="10.69" height="10.69"/><rect class="cls-1" x="192.48" y="85.54" width="10.69" height="10.7"/><rect class="cls-2" x="192.48" y="74.85" width="10.69" height="10.69"/><rect class="cls-2" x="192.48" y="64.16" width="10.69" height="10.69"/><rect class="cls-2" x="192.48" y="53.46" width="10.69" height="10.7"/><rect class="cls-2" x="192.48" y="42.77" width="10.69" height="10.69"/><rect class="cls-2" x="192.48" y="32.08" width="10.69" height="10.69"/><rect class="cls-2" x="192.48" y="21.38" width="10.69" height="10.7"/><rect class="cls-1" x="181.78" y="96.24" width="10.7" height="10.69"/><rect class="cls-2" x="181.78" y="85.54" width="10.7" height="10.7"/><rect class="cls-2" x="181.78" y="74.85" width="10.7" height="10.69"/><rect class="cls-2" x="181.78" y="64.16" width="10.7" height="10.69"/><rect x="181.78" y="53.46" width="10.7" height="10.7"/><rect x="181.78" y="42.77" width="10.7" height="10.69"/><rect x="181.78" y="32.08" width="10.7" height="10.69"/><rect class="cls-2" x="181.78" y="21.38" width="10.7" height="10.7"/><rect class="cls-2" x="181.78" y="10.69" width="10.7" height="10.69"/><rect class="cls-1" x="171.09" y="96.24" width="10.69" height="10.69"/><rect class="cls-2" x="171.09" y="85.54" width="10.69" height="10.7"/><rect class="cls-2" x="171.09" y="74.85" width="10.69" height="10.69"/><rect x="171.09" y="64.16" width="10.69" height="10.69"/><rect class="cls-2" x="171.09" y="53.46" width="10.69" height="10.7"/><rect class="cls-2" x="171.09" y="42.77" width="10.69" height="10.69"/><rect x="171.09" y="32.08" width="10.69" height="10.69"/><rect class="cls-2" x="171.09" y="21.38" width="10.69" height="10.7"/><rect class="cls-2" x="171.09" y="10.69" width="10.69" height="10.69"/><rect class="cls-1" x="160.4" y="106.93" width="10.69" height="10.69"/><rect class="cls-2" x="160.4" y="96.24" width="10.69" height="10.69"/><rect class="cls-2" x="160.4" y="85.54" width="10.69" height="10.7"/><rect class="cls-2" x="160.4" y="74.85" width="10.69" height="10.69"/><rect x="160.4" y="64.16" width="10.69" height="10.69"/><rect class="cls-2" x="160.4" y="53.46" width="10.69" height="10.7"/><rect class="cls-2" x="160.4" y="42.77" width="10.69" height="10.69"/><rect x="160.4" y="32.08" width="10.69" height="10.69"/><rect class="cls-2" x="160.4" y="21.38" width="10.69" height="10.7"/><rect class="cls-2" x="160.4" y="10.69" width="10.69" height="10.69"/><rect class="cls-3" x="160.4" width="10.69" height="10.69"/><rect class="cls-1" x="149.71" y="106.93" width="10.69" height="10.69"/><rect class="cls-2" x="149.71" y="96.24" width="10.69" height="10.69"/><rect x="149.71" y="85.54" width="10.69" height="10.7"/><rect x="149.71" y="74.85" width="10.69" height="10.69"/><rect x="149.71" y="64.16" width="10.69" height="10.69"/><rect x="149.71" y="53.46" width="10.69" height="10.7"/><rect x="149.71" y="42.77" width="10.69" height="10.69"/><rect class="cls-2" x="149.71" y="32.08" width="10.69" height="10.69"/><rect class="cls-2" x="149.71" y="21.38" width="10.69" height="10.7"/><rect class="cls-2" x="149.71" y="10.69" width="10.69" height="10.69"/><rect class="cls-4" x="149.71" width="10.69" height="10.69"/><rect class="cls-1" x="139.01" y="106.93" width="10.7" height="10.69"/><rect class="cls-2" x="139.01" y="96.24" width="10.7" height="10.69"/><rect class="cls-2" x="139.01" y="85.54" width="10.7" height="10.7"/><rect class="cls-2" x="139.01" y="74.85" width="10.7" height="10.69"/><rect class="cls-2" x="139.01" y="64.16" width="10.7" height="10.69"/><rect class="cls-2" x="139.01" y="53.46" width="10.7" height="10.7"/><rect class="cls-2" x="139.01" y="42.77" width="10.7" height="10.69"/><rect class="cls-2" x="139.01" y="32.08" width="10.7" height="10.69"/><rect class="cls-2" x="139.01" y="21.38" width="10.7" height="10.7"/><rect class="cls-2" x="139.01" y="10.69" width="10.7" height="10.69"/><rect class="cls-5" x="139.01" width="10.7" height="10.69"/><rect class="cls-1" x="128.32" y="106.93" width="10.69" height="10.69"/><rect class="cls-2" x="128.32" y="96.24" width="10.69" height="10.69"/><rect class="cls-2" x="128.32" y="85.54" width="10.69" height="10.7"/><rect class="cls-2" x="128.32" y="74.85" width="10.69" height="10.69"/><rect x="128.32" y="64.16" width="10.69" height="10.69"/><rect x="128.32" y="53.46" width="10.69" height="10.7"/><rect x="128.32" y="42.77" width="10.69" height="10.69"/><rect class="cls-2" x="128.32" y="32.08" width="10.69" height="10.69"/><rect class="cls-2" x="128.32" y="21.38" width="10.69" height="10.7"/><rect class="cls-2" x="128.32" y="10.69" width="10.69" height="10.69"/><rect class="cls-6" x="128.32" width="10.69" height="10.69"/><rect class="cls-7" x="117.63" y="106.93" width="10.69" height="10.69"/><rect class="cls-2" x="117.63" y="96.24" width="10.69" height="10.69"/><rect class="cls-2" x="117.63" y="85.54" width="10.69" height="10.7"/><rect class="cls-2" x="117.63" y="74.85" width="10.69" height="10.69"/><rect class="cls-2" x="117.63" y="64.16" width="10.69" height="10.69"/><rect class="cls-2" x="117.63" y="53.46" width="10.69" height="10.7"/><rect class="cls-2" x="117.63" y="42.77" width="10.69" height="10.69"/><rect x="117.63" y="32.08" width="10.69" height="10.69"/><rect class="cls-2" x="117.63" y="21.38" width="10.69" height="10.7"/><rect class="cls-2" x="117.63" y="10.69" width="10.69" height="10.69"/><rect class="cls-8" x="117.63" width="10.69" height="10.69"/><rect class="cls-9" x="106.93" y="106.93" width="10.7" height="10.69"/><rect class="cls-2" x="106.93" y="96.24" width="10.7" height="10.69"/><rect class="cls-2" x="106.93" y="85.54" width="10.7" height="10.7"/><rect class="cls-2" x="106.93" y="74.85" width="10.7" height="10.69"/><rect class="cls-2" x="106.93" y="64.16" width="10.7" height="10.69"/><rect class="cls-2" x="106.93" y="53.46" width="10.7" height="10.7"/><rect class="cls-2" x="106.93" y="42.77" width="10.7" height="10.69"/><rect x="106.93" y="32.08" width="10.7" height="10.69"/><rect class="cls-2" x="106.93" y="21.38" width="10.7" height="10.7"/><rect class="cls-2" x="106.93" y="10.69" width="10.7" height="10.69"/><rect class="cls-10" x="106.93" width="10.7" height="10.69"/><rect class="cls-11" x="96.24" y="106.93" width="10.69" height="10.69"/><rect class="cls-2" x="96.24" y="96.24" width="10.69" height="10.69"/><rect class="cls-2" x="96.24" y="85.54" width="10.69" height="10.7"/><rect class="cls-2" x="96.24" y="74.85" width="10.69" height="10.69"/><rect x="96.24" y="64.16" width="10.69" height="10.69"/><rect x="96.24" y="53.46" width="10.69" height="10.7"/><rect x="96.24" y="42.77" width="10.69" height="10.69"/><rect x="96.24" y="32.08" width="10.69" height="10.69"/><rect x="96.24" y="21.38" width="10.69" height="10.7"/><rect x="96.24" y="10.69" width="10.69" height="10.69"/><rect class="cls-12" x="96.24" width="10.69" height="10.69"/><rect class="cls-13" x="85.55" y="106.93" width="10.69" height="10.69"/><rect class="cls-2" x="85.55" y="96.24" width="10.69" height="10.69"/><rect class="cls-2" x="85.55" y="85.54" width="10.69" height="10.7"/><rect class="cls-2" x="85.55" y="74.85" width="10.69" height="10.69"/><rect class="cls-2" x="85.55" y="64.16" width="10.69" height="10.69"/><rect class="cls-2" x="85.55" y="53.46" width="10.69" height="10.7"/><rect class="cls-2" x="85.55" y="42.77" width="10.69" height="10.69"/><rect class="cls-2" x="85.55" y="32.08" width="10.69" height="10.69"/><rect class="cls-2" x="85.55" y="21.38" width="10.69" height="10.7"/><rect class="cls-2" x="85.55" y="10.69" width="10.69" height="10.69"/><rect class="cls-12" x="85.55" width="10.69" height="10.69"/><rect class="cls-14" x="74.85" y="106.93" width="10.7" height="10.69"/><rect class="cls-2" x="74.85" y="96.24" width="10.7" height="10.69"/><rect class="cls-2" x="74.85" y="85.54" width="10.7" height="10.7"/><rect class="cls-2" x="74.85" y="74.85" width="10.7" height="10.69"/><rect class="cls-2" x="74.85" y="64.16" width="10.7" height="10.69"/><rect x="74.85" y="53.46" width="10.7" height="10.7"/><rect x="74.85" y="42.77" width="10.7" height="10.69"/><rect x="74.85" y="32.08" width="10.7" height="10.69"/><rect class="cls-2" x="74.85" y="21.38" width="10.7" height="10.7"/><rect class="cls-2" x="74.85" y="10.69" width="10.7" height="10.69"/><rect class="cls-12" x="74.85" width="10.7" height="10.69"/><rect class="cls-15" x="64.16" y="106.93" width="10.69" height="10.69"/><rect class="cls-2" x="64.16" y="96.24" width="10.69" height="10.69"/><rect class="cls-2" x="64.16" y="85.54" width="10.69" height="10.7"/><rect class="cls-2" x="64.16" y="74.85" width="10.69" height="10.69"/><rect x="64.16" y="64.16" width="10.69" height="10.69"/><rect class="cls-2" x="64.16" y="53.46" width="10.69" height="10.7"/><rect class="cls-2" x="64.16" y="42.77" width="10.69" height="10.69"/><rect x="64.16" y="32.08" width="10.69" height="10.69"/><rect class="cls-2" x="64.16" y="21.38" width="10.69" height="10.7"/><rect class="cls-2" x="64.16" y="10.69" width="10.69" height="10.69"/><rect class="cls-12" x="64.16" width="10.69" height="10.69"/><rect class="cls-16" x="53.47" y="106.93" width="10.69" height="10.69"/><rect class="cls-2" x="53.47" y="96.24" width="10.69" height="10.69"/><rect class="cls-2" x="53.47" y="85.54" width="10.69" height="10.7"/><rect class="cls-2" x="53.47" y="74.85" width="10.69" height="10.69"/><rect x="53.47" y="64.16" width="10.69" height="10.69"/><rect class="cls-2" x="53.47" y="53.46" width="10.69" height="10.7"/><rect class="cls-2" x="53.47" y="42.77" width="10.69" height="10.69"/><rect x="53.47" y="32.08" width="10.69" height="10.69"/><rect class="cls-2" x="53.47" y="21.38" width="10.69" height="10.7"/><rect class="cls-2" x="53.47" y="10.69" width="10.69" height="10.69"/><rect class="cls-12" x="53.47" width="10.69" height="10.69"/><rect class="cls-17" x="42.78" y="96.24" width="10.69" height="10.69"/><rect x="42.78" y="85.54" width="10.69" height="10.7"/><rect x="42.78" y="74.85" width="10.69" height="10.69"/><rect x="42.78" y="64.16" width="10.69" height="10.69"/><rect x="42.78" y="53.46" width="10.69" height="10.7"/><rect x="42.78" y="42.77" width="10.69" height="10.69"/><rect class="cls-2" x="42.78" y="32.08" width="10.69" height="10.69"/><rect class="cls-2" x="42.78" y="21.38" width="10.69" height="10.7"/><rect class="cls-12" x="42.78" y="10.69" width="10.69" height="10.69"/><rect class="cls-17" x="32.08" y="96.24" width="10.7" height="10.69"/><rect class="cls-2" x="32.08" y="85.54" width="10.7" height="10.7"/><rect class="cls-2" x="32.08" y="74.85" width="10.7" height="10.69"/><rect class="cls-2" x="32.08" y="64.16" width="10.7" height="10.69"/><rect class="cls-2" x="32.08" y="53.46" width="10.7" height="10.7"/><rect class="cls-2" x="32.08" y="42.77" width="10.7" height="10.69"/><rect class="cls-2" x="32.08" y="32.08" width="10.7" height="10.69"/><rect class="cls-2" x="32.08" y="21.38" width="10.7" height="10.7"/><rect class="cls-12" x="32.08" y="10.69" width="10.7" height="10.69"/><rect class="cls-18" x="21.39" y="85.54" width="10.69" height="10.7"/><rect class="cls-2" x="21.39" y="74.85" width="10.69" height="10.69"/><rect class="cls-2" x="21.39" y="64.16" width="10.69" height="10.69"/><rect class="cls-2" x="21.39" y="53.46" width="10.69" height="10.7"/><rect class="cls-2" x="21.39" y="42.77" width="10.69" height="10.69"/><rect class="cls-2" x="21.39" y="32.08" width="10.69" height="10.69"/><rect class="cls-19" x="21.39" y="21.38" width="10.69" height="10.7"/><rect class="cls-20" x="10.7" y="74.85" width="10.69" height="10.69"/><rect class="cls-2" x="10.7" y="64.16" width="10.69" height="10.69"/><rect class="cls-2" x="10.7" y="53.46" width="10.69" height="10.7"/><rect class="cls-2" x="10.7" y="42.77" width="10.69" height="10.69"/><rect class="cls-21" x="10.7" y="32.08" width="10.69" height="10.69"/><rect class="cls-22" y="64.16" width="10.7" height="10.69"/><rect class="cls-23" y="53.46" width="10.7" height="10.7"/><rect class="cls-24" y="42.77" width="10.7" height="10.69"/></g></g></svg>