<svg xmlns="http://www.w3.org/2000/svg" xmlns:xlink="http://www.w3.org/1999/xlink" viewBox="0 0 182.26 181.5"><defs><style>.cls-1{fill:none;}.cls-2,.cls-6{isolation:isolate;}.cls-3{fill:url(#Blackstone);}.cls-4{mix-blend-mode:darken;fill:url(#radial-gradient);}.cls-5{mix-blend-mode:hard-light;opacity:0.74;fill:url(#linear-gradient);}.cls-6{mix-blend-mode:lighten;}.cls-7{clip-path:url(#clip-path);}.cls-8{fill:#007230;}.cls-9{fill:#00702f;}.cls-10{fill:#006d2e;}.cls-11{fill:#006b2d;}.cls-12{fill:#00692c;}.cls-13{fill:#00662b;}.cls-14{fill:#006429;}.cls-15{fill:#006228;}.cls-16{fill:#007431;}.cls-17{fill:#007732;}.cls-18{fill:#007933;}.cls-19{fill:#007b34;}.cls-20{fill:#007d35;}.cls-21{fill:#007f36;}.cls-22{fill:#008137;}.cls-23{fill:#008338;}.cls-24{fill:#008539;}.cls-25{fill:#00873a;}.cls-26{fill:#00893b;}.cls-27{fill:#008b3c;}.cls-28{fill:#008d3d;}.cls-29{fill:#008f3e;}.cls-30{fill:#00913f;}.cls-31{fill:#009340;}.cls-32{fill:#009540;}.cls-33{fill:#009e50;}.cls-34{fill:#00a358;}.cls-35{fill:#00a75e;}.cls-36{fill:#28aa64;}.cls-37{fill:#39ad6a;}.cls-38{fill:#46b06f;}.cls-39{fill:#51b274;}.cls-40{fill:#59b478;}.cls-41{fill:#61b77c;}.cls-42{fill:#68b980;}.cls-43{fill:#6ebb83;}.cls-44{fill:#74bd87;}.cls-45{fill:#7abf8a;}.cls-46{fill:#7fc18e;}.cls-47{fill:#82c391;}.cls-48{fill:#87c594;}.cls-49{fill:#8cc698;}.cls-50{fill:#90c89b;}.cls-51{fill:#93c99d;}.cls-52{fill:#21313d;opacity:0.48;}.cls-53{fill:url(#radial-gradient-2);}.cls-54{fill:url(#linear-gradient-2);}.cls-55{fill:url(#Fade_To_White_2);}.cls-56{fill:url(#Fade_To_White_2-2);}.cls-57{fill:url(#linear-gradient-3);}.cls-58{fill:url(#radial-gradient-3);}.cls-59{fill:url(#radial-gradient-4);}.cls-60{fill:url(#radial-gradient-5);}.cls-61{fill:url(#Fade_To_White_2-3);}.cls-62{fill:url(#radial-gradient-6);}.cls-63{fill:url(#radial-gradient-7);}.cls-64{fill:url(#linear-gradient-4);}.cls-65{fill:url(#radial-gradient-8);}.cls-66{fill:url(#radial-gradient-9);}.cls-67{font-size:104.05px;fill:#2a77b7;stroke:#fff;stroke-miterlimit:10;stroke-width:3px;font-family:Verdana-BoldItalic, Verdana;font-weight:700;font-style:italic;letter-spacing:-0.05em;}</style><linearGradient id="Blackstone" x1="139.47" y1="-487.22" x2="252.48" y2="-487.22" gradientTransform="translate(-21.42 608.63) rotate(-8.96)" gradientUnits="userSpaceOnUse"><stop offset="0" stop-color="#979797"/><stop offset="0.04" stop-color="#8c8c8c"/><stop offset="0.13" stop-color="#767675"/><stop offset="0.23" stop-color="#666665"/><stop offset="0.34" stop-color="#5c5c5b"/><stop offset="0.49" stop-color="#595958"/><stop offset="0.71" stop-color="#565655"/><stop offset="0.87" stop-color="#4c4c4b"/><stop offset="1" stop-color="#3f3f3e"/></linearGradient><radialGradient id="radial-gradient" cx="195.76" cy="-485.89" fx="237.52923825089044" fy="-506.3324382341209" r="56.51" gradientTransform="matrix(0.99, -0.15, 0.16, 0.98, -21.42, 604.15)" gradientUnits="userSpaceOnUse"><stop offset="0" stop-color="#1d1d1b" stop-opacity="0"/><stop offset="1" stop-color="#333876"/></radialGradient><linearGradient id="linear-gradient" x1="233.14" y1="-438.87" x2="205.76" y2="-474.49" gradientTransform="translate(-21.42 608.63) rotate(-8.96)" gradientUnits="userSpaceOnUse"><stop offset="0" stop-color="#fff"/><stop offset="1" stop-color="#fff" stop-opacity="0"/></linearGradient><clipPath id="clip-path"><path class="cls-1" d="M76.38,149.38c-1.06-.4-2.47-.95-3.49-1.44-1.62-.77-3.76-1.86-5.33-2.75a72.21,72.21,0,0,1-6.76-4.64,39.11,39.11,0,0,1-4-3.56c-1-1.08-2.44-2.5-3.43-3.63-.85-1-1.91-2.33-2.69-3.37s-2-2.8-2.72-4-1.49-2.68-2.13-3.83a34.77,34.77,0,0,1-2-4.44,80.69,80.69,0,0,1-2.67-8.6,49,49,0,0,1-1.21-8.16c0-1.48-.22-3.45-.15-4.92s.11-3.12.25-4.45a45.4,45.4,0,0,1,.66-4.8c.28-1.28.61-3,1-4.25s1-3.25,1.45-4.61c.43-1.21,1.07-2.79,1.6-4,.62-1.34,1.46-3.12,2.22-4.39a74.28,74.28,0,0,1,4.54-6.88c.91-1.16,2.19-2.67,3.19-3.77.77-.86,1.85-2,2.7-2.74,1.14-1,2.71-2.4,3.91-3.38.77-.62,1.82-1.41,2.64-2s1.87-1.25,2.68-1.76,1.62-.94,2.32-1.34c1.14-.65,2.71-1.41,3.9-2,.58-.27,1.36-.61,2-.84,1.12-.44,2.62-1,3.76-1.4.85-.3,2.86-.9,4.44-1.27.45-.11,1.66-.39,2.54-.55l1.22-.23,1.21-.19,1.21-.17s1.2-.15,2.49-.26c.42,0,1.41-.11,2.67-.15,2.71-.1,4.72,0,4.72,0,1.17.08,2.72.2,3.89.32.78.09,1.8.24,2.57.37s2.1.37,3,.57,2.13.51,3,.76c1.42.38,3.28,1,4.67,1.52-8.58-3.21-18.89-5.83-28.81-2.89a55.45,55.45,0,0,1,28.81,2.89h0a74.43,74.43,0,0,1,7,3.17c1.38.77,3.21,1.85,4.54,2.71,1,.68,2.39,1.64,3.36,2.42,1.21,1,2.79,2.29,3.93,3.34.94.86,2.13,2.08,3,3,1,1.09,2.27,2.61,3.19,3.77s1.77,2.47,2.51,3.53c.83,1.21,1.79,2.9,2.48,4.19s1.35,2.78,1.93,4a32.29,32.29,0,0,1,1.76,4.56c.39,1.3.95,3,1.27,4.33s.76,3.42,1,4.9a67.3,67.3,0,0,1,.68,9.08,39.22,39.22,0,0,1-.3,5.42c-.18,1.31-.39,3.06-.63,4.36a46.29,46.29,0,0,1-1.08,4.66c-.38,1.24-.87,2.9-1.31,4.12s-1.22,3.11-1.82,4.42c-.53,1.15-1.3,2.66-1.92,3.76-.71,1.27-1.71,2.92-2.53,4.12-.7,1-1.65,2.35-2.42,3.31-.92,1.16-2.21,2.67-3.22,3.75-.79.83-1.87,1.92-2.72,2.7-1.15,1-2.75,2.38-4,3.35-.76.61-1.81,1.36-2.62,1.9S126,144.6,125,145.17s-2.67,1.48-3.84,2.05-2.68,1.24-3.85,1.71c-2.18.87-4,1.44-4.88,1.7-2.23.66-3.81,1-5.37,1.31-.18,0-1.16.23-2.43.42s-2.32.3-2.43.31c-1.44.14-3.09.28-5.36.31-1.21,0-1.72,0-3.24-.06-.59,0-1.38-.08-2-.13s-1.5-.14-2.14-.21-1.69-.22-2.41-.35c-.9-.15-2.1-.37-3-.57s-2.13-.51-3-.76C79.62,150.52,77.75,149.91,76.38,149.38Z"/></clipPath><radialGradient id="radial-gradient-2" cx="63.14" cy="133.95" r="23.71" gradientTransform="translate(0 -0.75) scale(1 0.99)" gradientUnits="userSpaceOnUse"><stop offset="0" stop-color="#fdffff"/><stop offset="0.13" stop-color="#fdffff" stop-opacity="0.9"/><stop offset="0.4" stop-color="#fdffff" stop-opacity="0.64"/><stop offset="0.78" stop-color="#fdffff" stop-opacity="0.24"/><stop offset="1" stop-color="#fdffff" stop-opacity="0"/></radialGradient><linearGradient id="linear-gradient-2" x1="16.57" y1="110.88" x2="181.5" y2="110.88" gradientTransform="matrix(1, 0, 0, 1, 0, 0)" xlink:href="#linear-gradient"/><linearGradient id="Fade_To_White_2" x1="10.06" y1="124.37" x2="168.1" y2="124.37" gradientUnits="userSpaceOnUse"><stop offset="0" stop-color="#fff" stop-opacity="0"/><stop offset="1" stop-color="#fff"/></linearGradient><linearGradient id="Fade_To_White_2-2" x1="-59.78" y1="123.53" x2="89.45" y2="123.53" gradientTransform="matrix(1.01, 0, 0, 1, 81.28, -22.45)" xlink:href="#Fade_To_White_2"/><linearGradient id="linear-gradient-3" x1="-219.51" y1="47.85" x2="-74.96" y2="47.85" gradientTransform="matrix(0.95, -0.02, -0.02, 0.99, 219.21, 74.47)" xlink:href="#linear-gradient"/><radialGradient id="radial-gradient-3" cx="21.07" cy="102.19" r="7.59" xlink:href="#radial-gradient-2"/><radialGradient id="radial-gradient-4" cx="132.23" cy="149.33" r="7.59" xlink:href="#radial-gradient-2"/><radialGradient id="radial-gradient-5" cx="18.6" cy="128.87" r="7.59" xlink:href="#radial-gradient-2"/><linearGradient id="Fade_To_White_2-3" x1="700.47" y1="2911.73" x2="854.13" y2="2911.73" gradientTransform="matrix(0.65, 0.68, -0.72, 0.69, 1669.5, -2423.81)" xlink:href="#Fade_To_White_2"/><radialGradient id="radial-gradient-6" cx="967.97" cy="2904.78" r="7.59" gradientTransform="matrix(0.69, 0.65, -0.72, 0.62, 1522.64, -2252.1)" xlink:href="#radial-gradient-2"/><radialGradient id="radial-gradient-7" cx="106.63" cy="114.37" r="7.59" xlink:href="#radial-gradient-2"/><linearGradient id="linear-gradient-4" x1="1309.37" y1="3124.82" x2="1451.27" y2="3124.82" gradientTransform="matrix(0.67, 0.75, -0.75, 0.67, 1478.41, -3013.02)" xlink:href="#linear-gradient"/><radialGradient id="radial-gradient-8" cx="1261.29" cy="3051.36" r="7.59" gradientTransform="matrix(0.61, 0.78, -0.8, 0.59, 1731.79, -2768.06)" xlink:href="#radial-gradient-2"/><radialGradient id="radial-gradient-9" cx="1287.66" cy="3092.29" r="7.59" gradientTransform="matrix(0.61, 0.78, -0.8, 0.59, 1735.39, -2766.88)" xlink:href="#radial-gradient-2"/></defs><g class="cls-2"><g id="Capa_2" data-name="Capa 2"><g id="logos"><path class="cls-3" d="M105.33,152.26l-.57.09a56.19,56.19,0,0,1-64.31-46.49l-.09-.57A55.94,55.94,0,0,1,87.14,41.38l.57-.08A56.17,56.17,0,0,1,152,87.79l.09.56A55.92,55.92,0,0,1,105.33,152.26Z"/><path class="cls-4" d="M105.33,152.26l-.57.09a56.19,56.19,0,0,1-64.31-46.49l-.09-.57A55.94,55.94,0,0,1,87.14,41.38l.57-.08A56.17,56.17,0,0,1,152,87.79l.09.56A55.92,55.92,0,0,1,105.33,152.26Z"/><path class="cls-5" d="M105.33,152.26l-.57.09a56.19,56.19,0,0,1-64.31-46.49l-.09-.57A55.94,55.94,0,0,1,87.14,41.38l.57-.08A56.17,56.17,0,0,1,152,87.79l.09.56A55.92,55.92,0,0,1,105.33,152.26Z"/><g class="cls-6"><g class="cls-7"><g class="cls-2"><path class="cls-8" d="M76.38,149.38a56.72,56.72,0,0,1-8.82-4.19,72.21,72.21,0,0,1-6.76-4.64,39.11,39.11,0,0,1-4-3.56,51.88,51.88,0,0,1-6.12-7,56.92,56.92,0,0,1-6.7-11.89,89,89,0,0,1-2.84-9,48,48,0,0,1-1.21-8.16,83.67,83.67,0,0,1,.1-9.37,81.64,81.64,0,0,1,1.61-9,57.06,57.06,0,0,1,5.27-13,74.28,74.28,0,0,1,4.54-6.88,62.06,62.06,0,0,1,5.89-6.51,56.72,56.72,0,0,1,58.82-11.89,44.11,44.11,0,0,0-28.23-.73,44.11,44.11,0,0,1,28.23.73,74.43,74.43,0,0,1,7,3.17,55.78,55.78,0,0,1,7.9,5.13,55.69,55.69,0,0,1,17,21.81,81.63,81.63,0,0,1,3,8.89,31.39,31.39,0,0,1,.93,4.49c.34,2.84.71,6.63.74,9.49a56.07,56.07,0,0,1-2,14.44,77.84,77.84,0,0,1-3.13,8.54,54.55,54.55,0,0,1-4.45,7.88,56.18,56.18,0,0,1-12.32,13.11,61.85,61.85,0,0,1-5.85,4,58.81,58.81,0,0,1-7.69,3.76,56.69,56.69,0,0,1-40.92.45"/><path class="cls-8" d="M116.12,44.26a60,60,0,0,1,11.53,5.88L131,52.56c1.19,1,2.79,2.29,3.93,3.34l3,3c1,1.13,2.27,2.61,3.19,3.77l2.51,3.53c.75,1.26,1.79,2.9,2.48,4.19l1.93,4c.54,1.36,1.29,3.17,1.76,4.56l1.27,4.33c.3,1.47.76,3.42,1,4.9l.53,4.56c.06,1.65.16,3.85.14,5.5l-.29,4.44c-.21,1.44-.44,3.36-.71,4.79l-1,4.23c-.44,1.39-1,3.24-1.49,4.61l-1.64,3.93c-.67,1.31-1.54,3.09-2.27,4.37l-2.18,3.51c-.92,1.25-2.12,2.94-3.09,4.15l-2.55,2.91c-1.22,1.21-2.86,2.82-4.14,4l-2.54,2.08a54.57,54.57,0,0,1-5.85,4l-1.91,1.07a59.55,59.55,0,0,1-10.66,4.39L111,151l-1.39.36-1.29.29-1.26.26-1.22.23-1.21.19-1.21.17-1.22.14-1.27.12-1.29.09-1.38.06-1.44,0H95.23l-1.7-.05-1.91-.13-2.14-.21-2.41-.35c-.9-.16-2.09-.38-3-.57l-3-.76c-1.41-.43-3.29-1-4.67-1.52l-3.49-1.44c-1.61-.79-3.76-1.87-5.33-2.75L64.11,143c-1.27-.94-3-2.19-4.21-3.19L56.76,137c-1-1.09-2.44-2.51-3.43-3.63L50.64,130c-.82-1.21-2-2.8-2.72-4l-2.13-3.83c-.61-1.33-1.47-3.08-2-4.44l-1.5-4.22c-.63-2.37-1.39-5.57-1.85-8l-.53-4.56c0-1.48-.16-3.45-.15-4.92L40,91.55c.19-1.44.4-3.37.66-4.8l1-4.25c.43-1.39,1-3.25,1.45-4.61l1.6-4c.66-1.32,1.5-3.1,2.22-4.39L49,66c.9-1.25,2.08-2.94,3-4.16l2.54-3c1.19-1.21,2.8-2.83,4-4l2.56-2.14a55.87,55.87,0,0,1,5.71-4l1.93-1.11A57.6,57.6,0,0,1,80.08,43l1.42-.4,1.4-.36L84.18,42l1.26-.26,1.22-.23,1.21-.19,1.21-.17L90.3,41l1.27-.12,1.29-.09,1.38-.06,1.44,0h1.58l1.7,0,1.91.13,2.15.21,2.4.35c.9.16,2.1.38,3,.57l3,.76c1.4.43,3.28,1,4.67,1.52a44.11,44.11,0,0,0-28.23-.73h0C41.58,65.45,67,114.83,99.09,124.75c36.49,11.3,63.55-20.21,46.7-54.38-6.19-12.55-21.95-32.73-57.9-26.84a44.11,44.11,0,0,1,28.23.73"/><path class="cls-9" d="M116.12,44.26h0a60,60,0,0,1,11.53,5.88L131,52.56c1.19,1,2.79,2.29,3.93,3.34l3,3c1,1.13,2.27,2.61,3.19,3.77l2.51,3.53c.75,1.26,1.79,2.9,2.48,4.19l1.93,4c.54,1.36,1.29,3.17,1.76,4.56l1.27,4.33c.3,1.47.76,3.42,1,4.9l.53,4.56c.06,1.65.16,3.85.14,5.5l-.29,4.44c-.21,1.44-.44,3.36-.71,4.79l-1,4.23c-.44,1.39-1,3.24-1.49,4.61l-1.64,3.93c-.67,1.31-1.54,3.09-2.27,4.37l-2.18,3.51c-.92,1.25-2.12,2.94-3.09,4.15l-2.55,2.91c-1.22,1.21-2.86,2.82-4.14,4l-2.54,2.08a54.57,54.57,0,0,1-5.85,4l-1.91,1.07a59.55,59.55,0,0,1-10.66,4.39L111,151l-1.39.36-1.29.29-1.26.26-1.22.23-1.21.19-1.21.17-1.22.14-1.27.12-1.29.09-1.38.06-1.44,0H95.23l-1.7-.05-1.91-.13-2.14-.21-2.41-.35c-.9-.16-2.09-.38-3-.57l-3-.76c-1.41-.43-3.29-1-4.67-1.52l-3.49-1.44c-1.61-.79-3.76-1.87-5.33-2.75L64.11,143c-1.27-.94-3-2.19-4.21-3.19L56.76,137c-1-1.09-2.44-2.51-3.43-3.63L50.64,130c-.82-1.21-2-2.8-2.72-4l-2.13-3.83c-.61-1.33-1.47-3.08-2-4.44l-1.5-4.22c-.63-2.37-1.39-5.57-1.85-8l-.53-4.56c0-1.48-.16-3.45-.15-4.92L40,91.55c.19-1.44.4-3.37.66-4.8l1-4.25c.43-1.39,1-3.25,1.45-4.61l1.6-4c.66-1.32,1.5-3.1,2.22-4.39L49,66c.9-1.25,2.08-2.94,3-4.16l2.54-3c1.19-1.21,2.8-2.83,4-4l2.56-2.14a55.87,55.87,0,0,1,5.71-4l1.93-1.11A57.6,57.6,0,0,1,80.08,43l1.42-.4,1.4-.36L84.18,42l1.26-.26,1.22-.23,1.21-.19,1.21-.17L90.3,41l1.27-.12,1.29-.09,1.38-.06,1.44,0h1.58l1.7,0,1.91.13,2.15.21,2.4.35c.9.16,2.1.38,3,.57l3,.76c1.4.43,3.28,1,4.67,1.52a41.81,41.81,0,0,0-9.3-2.32l-.34-.06C63.74,37,48.41,80,72.56,109.26c27.11,32.8,76.49,23.3,78.85-15.16,1.5-24.43-18.5-47.83-44.59-52.16a41.81,41.81,0,0,1,9.3,2.32"/><path class="cls-10" d="M146.12,70.4a55.21,55.21,0,0,1,3.69,8.53l1.27,4.33c.3,1.47.76,3.42,1,4.9l.53,4.56c.06,1.65.16,3.85.14,5.5l-.29,4.44c-.21,1.44-.44,3.36-.71,4.79l-1,4.23c-.44,1.39-1,3.24-1.49,4.61l-1.64,3.93c-.67,1.31-1.54,3.09-2.27,4.37l-2.18,3.51c-.92,1.25-2.12,2.94-3.09,4.15l-2.55,2.91c-1.22,1.21-2.86,2.82-4.14,4l-2.54,2.08a54.57,54.57,0,0,1-5.85,4l-1.91,1.07a59.55,59.55,0,0,1-10.66,4.39L111,151l-1.39.36-1.29.29-1.26.26-1.22.23-1.21.19-1.21.17-1.22.14-1.27.12-1.29.09-1.38.06-1.44,0H95.23l-1.7-.05-1.91-.13-2.14-.21-2.41-.35c-.9-.16-2.09-.38-3-.57l-3-.76c-1.41-.43-3.29-1-4.67-1.52l-3.49-1.44c-1.61-.79-3.76-1.87-5.33-2.75L64.11,143c-1.27-.94-3-2.19-4.21-3.19L56.76,137c-1-1.09-2.44-2.51-3.43-3.63L50.64,130c-.82-1.21-2-2.8-2.72-4l-2.13-3.83c-.61-1.33-1.47-3.08-2-4.44l-1.5-4.22c-.63-2.37-1.39-5.57-1.85-8l-.53-4.56c0-1.48-.16-3.45-.15-4.92L40,91.55c.19-1.44.4-3.37.66-4.8l1-4.25c.43-1.39,1-3.25,1.45-4.61l1.6-4c.66-1.32,1.5-3.1,2.22-4.39L49,66c.9-1.25,2.08-2.94,3-4.16l2.54-3c1.19-1.21,2.8-2.83,4-4l2.56-2.14a55.87,55.87,0,0,1,5.71-4l1.93-1.11A57.6,57.6,0,0,1,80.08,43l1.42-.4,1.4-.36L84.18,42l1.26-.26,1.22-.23,1.21-.19,1.21-.17L90.3,41l1.27-.12,1.29-.09,1.38-.06,1.44,0h1.58l1.7,0,1.91.13,2.15.21,2.4.35c.9.16,2.1.38,3,.57l3,.76c1.4.43,3.28,1,4.67,1.52l-1.06-.38h0C72,30.5,47.07,68.67,65.2,102.45c19.9,37.08,75.73,37.92,85.34,1.28,4.05-15.48-1.66-28.66-5.43-35.14.3.55.72,1.26,1,1.81"/><path class="cls-10" d="M116.12,44.26l3.06,1.25L115.51,44l-.45-.16,1.06.38"/><path class="cls-11" d="M149.81,78.93a56.19,56.19,0,0,1,2.26,9.23l.53,4.56c.06,1.65.16,3.85.14,5.5l-.29,4.44c-.21,1.44-.44,3.36-.71,4.79l-1,4.23c-.44,1.39-1,3.24-1.49,4.61l-1.64,3.93c-.67,1.31-1.54,3.09-2.27,4.37l-2.18,3.51c-.92,1.25-2.12,2.94-3.09,4.15l-2.55,2.91c-1.22,1.21-2.86,2.82-4.14,4l-2.54,2.08a54.57,54.57,0,0,1-5.85,4l-1.91,1.07a59.55,59.55,0,0,1-10.66,4.39L111,151l-1.39.36-1.29.29-1.26.26-1.22.23-1.21.19-1.21.17-1.22.14-1.27.12-1.29.09-1.38.06-1.44,0H95.23l-1.7-.05-1.91-.13-2.14-.21-2.41-.35c-.9-.16-2.09-.38-3-.57l-3-.76c-1.41-.43-3.29-1-4.67-1.52l-3.49-1.44c-1.61-.79-3.76-1.87-5.33-2.75L64.11,143c-1.27-.94-3-2.19-4.21-3.19L56.76,137c-1-1.09-2.44-2.51-3.43-3.63L50.64,130c-.82-1.21-2-2.8-2.72-4l-2.13-3.83c-.61-1.33-1.47-3.08-2-4.44l-1.5-4.22c-.63-2.37-1.39-5.57-1.85-8l-.53-4.56c0-1.48-.16-3.45-.15-4.92L40,91.55c.19-1.44.4-3.37.66-4.8l1-4.25c.43-1.39,1-3.25,1.45-4.61l1.6-4c.66-1.32,1.5-3.1,2.22-4.39L49,66c.9-1.25,2.08-2.94,3-4.16l2.54-3c1.19-1.21,2.8-2.83,4-4l2.56-2.14a55.87,55.87,0,0,1,5.71-4l1.93-1.11A57.6,57.6,0,0,1,80.08,43l1.42-.4,1.4-.36L84.18,42l1.26-.26,1.22-.23,1.21-.19,1.21-.17L90.3,41l1.27-.12,1.29-.09,1.38-.06,1.44,0h1.58l1.7,0,1.91.13,2.15.21,2.4.35,1.43.25-3.08-.49C60.52,36,44.1,80.58,68,110.92c28.39,36,78.53,24.55,83.78-9.79a46.5,46.5,0,0,0-2-22.41l.07.21"/><path class="cls-12" d="M152.07,88.16a56.39,56.39,0,0,1,.67,10.06l-.29,4.44c-.21,1.44-.44,3.36-.71,4.79l-1,4.23c-.44,1.39-1,3.24-1.49,4.61l-1.64,3.93c-.67,1.31-1.54,3.09-2.27,4.37l-2.18,3.51c-.92,1.25-2.12,2.94-3.09,4.15l-2.55,2.91c-1.22,1.21-2.86,2.82-4.14,4l-2.54,2.08a54.57,54.57,0,0,1-5.85,4l-1.91,1.07a59.55,59.55,0,0,1-10.66,4.39L111,151l-1.39.36-1.29.29-1.26.26-1.22.23-1.21.19-1.21.17-1.22.14-1.27.12-1.29.09-1.38.06-1.44,0H95.23l-1.7-.05-1.91-.13-2.14-.21-2.41-.35c-.9-.16-2.09-.38-3-.57l-3-.76c-1.41-.43-3.29-1-4.67-1.52l-3.49-1.44c-1.61-.79-3.76-1.87-5.33-2.75L64.11,143c-1.27-.94-3-2.19-4.21-3.19L56.76,137c-1-1.09-2.44-2.51-3.43-3.63L50.64,130c-.82-1.21-2-2.8-2.72-4l-2.13-3.83c-.61-1.33-1.47-3.08-2-4.44l-1.5-4.22c-.63-2.37-1.39-5.57-1.85-8l-.53-4.56c0-1.48-.16-3.45-.15-4.92L40,91.55c.19-1.44.4-3.37.66-4.8l1-4.25c.43-1.39,1-3.25,1.45-4.61l1.6-4c.66-1.32,1.5-3.1,2.22-4.39L49,66c.9-1.25,2.08-2.94,3-4.16l2.54-3c1.19-1.21,2.8-2.83,4-4l2.56-2.14a55.87,55.87,0,0,1,5.71-4l1.93-1.11A57.6,57.6,0,0,1,80.08,43l1.42-.4,1.4-.36L84.18,42l1.26-.26,1.22-.23,1.21-.19,1.21-.17L90.3,41l1.27-.12,1.29-.09,1.38-.06,1.44,0h1.55c-45.09.08-54.79,51.08-24.94,78.87,32.08,29.88,81.64,14.5,80.34-24.92a48.12,48.12,0,0,0-.62-6.86c0,.12.05.28.06.4"/><path class="cls-13" d="M152.74,98.22a55.81,55.81,0,0,1-1,9.23l-1,4.23c-.44,1.39-1,3.24-1.49,4.61l-1.64,3.93c-.67,1.31-1.54,3.09-2.27,4.37l-2.18,3.51c-.92,1.25-2.12,2.94-3.09,4.15l-2.55,2.91c-1.22,1.21-2.86,2.82-4.14,4l-2.54,2.08a54.57,54.57,0,0,1-5.85,4l-1.91,1.07a59.55,59.55,0,0,1-10.66,4.39L111,151l-1.39.36-1.29.29-1.26.26-1.22.23-1.21.19-1.21.17-1.22.14-1.27.12-1.29.09-1.38.06-1.44,0H95.23l-1.7-.05-1.91-.13-2.14-.21-2.41-.35c-.9-.16-2.09-.38-3-.57l-3-.76c-1.41-.43-3.29-1-4.67-1.52l-3.49-1.44c-1.61-.79-3.76-1.87-5.33-2.75L64.11,143c-1.27-.94-3-2.19-4.21-3.19L56.76,137c-1-1.09-2.44-2.51-3.43-3.63L50.64,130c-.82-1.21-2-2.8-2.72-4l-2.13-3.83c-.61-1.33-1.47-3.08-2-4.44l-1.5-4.22c-.63-2.37-1.39-5.57-1.85-8l-.53-4.56c0-1.48-.16-3.45-.15-4.92L40,91.55c.19-1.44.4-3.37.66-4.8l1-4.25c.43-1.39,1-3.25,1.45-4.61l1.6-4c.66-1.32,1.5-3.1,2.22-4.39L49,66c.9-1.25,2.08-2.94,3-4.16l2.54-3c1.19-1.21,2.8-2.83,4-4l2.56-2.14a55.87,55.87,0,0,1,5.71-4l1.93-1.11A57.6,57.6,0,0,1,80.08,43l1.42-.4,1.4-.36L84.18,42l1.26-.26,1.22-.23,1.21-.19,1-.14-.93.13C46.51,48,39.94,100,77.15,126.89c30.44,22,74.2,10.64,75.6-30.7,0,.61,0,1.42,0,2"/><path class="cls-14" d="M151.74,107.45a55.49,55.49,0,0,1-2.49,8.84l-1.64,3.93c-.67,1.31-1.54,3.09-2.27,4.37l-2.18,3.51c-.92,1.25-2.12,2.94-3.09,4.15l-2.55,2.91c-1.22,1.21-2.86,2.82-4.14,4l-2.54,2.08a54.57,54.57,0,0,1-5.85,4l-1.91,1.07a59.55,59.55,0,0,1-10.66,4.39L111,151l-1.39.36-1.29.29-1.26.26-1.22.23-1.21.19-1.21.17-1.22.14-1.27.12-1.29.09-1.38.06-1.44,0H95.23l-1.7-.05-1.91-.13-2.14-.21-2.41-.35c-.9-.16-2.09-.38-3-.57l-3-.76c-1.41-.43-3.29-1-4.67-1.52l-3.49-1.44c-1.61-.79-3.76-1.87-5.33-2.75L64.11,143c-1.27-.94-3-2.19-4.21-3.19L56.76,137c-1-1.09-2.44-2.51-3.43-3.63L50.64,130c-.82-1.21-2-2.8-2.72-4l-2.13-3.83c-.61-1.33-1.47-3.08-2-4.44l-1.5-4.22c-.63-2.37-1.39-5.57-1.85-8l-.53-4.56c0-1.48-.16-3.45-.15-4.92L40,91.55c.19-1.44.4-3.37.66-4.8l1-4.25c.43-1.39,1-3.25,1.45-4.61l1.6-4c.66-1.32,1.5-3.1,2.22-4.39L49,66c.9-1.25,2.08-2.94,3-4.16l2.54-3c1.19-1.21,2.8-2.83,4-4l2.56-2.14a55.87,55.87,0,0,1,5.71-4l1.93-1.11A58.48,58.48,0,0,1,79.77,43.1l-.84.27c-41.46,14-37.88,70.3,5.8,91.22,30.56,14.63,62.69.56,67.41-29.51-.12.71-.26,1.66-.4,2.37"/><path class="cls-15" d="M149.25,116.29a57.17,57.17,0,0,1-3.91,8.3l-2.18,3.51c-.92,1.25-2.12,2.94-3.09,4.15l-2.55,2.91c-1.22,1.21-2.86,2.82-4.14,4l-2.54,2.08a54.57,54.57,0,0,1-5.85,4l-1.91,1.07a59.55,59.55,0,0,1-10.66,4.39L111,151l-1.39.36-1.29.29-1.26.26-1.22.23-1.21.19-1.21.17-1.22.14-1.27.12-1.29.09-1.38.06-1.44,0H95.23l-1.7-.05-1.91-.13-2.14-.21-2.41-.35c-.9-.16-2.09-.38-3-.57l-3-.76c-1.41-.43-3.29-1-4.67-1.52l-3.49-1.44c-1.61-.79-3.76-1.87-5.33-2.75L64.11,143c-1.27-.94-3-2.19-4.21-3.19L56.76,137c-1-1.09-2.44-2.51-3.43-3.63L50.64,130c-.82-1.21-2-2.8-2.72-4l-2.13-3.83c-.61-1.33-1.47-3.08-2-4.44l-1.5-4.22c-.63-2.37-1.39-5.57-1.85-8l-.53-4.56c0-1.48-.16-3.45-.15-4.92L40,91.55c.19-1.44.4-3.37.66-4.8l1-4.25c.43-1.39,1-3.25,1.45-4.61l1.6-4c.66-1.32,1.5-3.1,2.22-4.39L49,66c.9-1.25,2.08-2.94,3-4.16l2.54-3c1.19-1.21,2.8-2.83,4-4l2.56-2.14a55.87,55.87,0,0,1,5.71-4l1.93-1.11c.8-.42,1.88-1,2.7-1.39l-.06,0C31.75,66.06,42.7,124.72,89,140c31.55,10.44,53.54-5.49,60.61-24.7-.1.28-.23.66-.34,1"/><path class="cls-16" d="M113.17,44c37.65,10.91,50.39,58.48,20.34,76C102,138.26,57.19,104.53,66,69.09,71.61,46.43,94.39,38.51,113.17,44"/><path class="cls-17" d="M118.41,46.09c37,15.13,42.83,62.53,9.18,74.59C92.08,133.41,53.94,93.14,70.9,60.84c9.7-18.47,31.24-21.4,47.51-14.75"/><path class="cls-18" d="M123.29,48.78c34.09,18.48,32,59.88,4.3,69.93C96.77,129.9,57,95.9,72.47,61.55c6.91-15.31,29-24.09,50.82-12.77"/><path class="cls-19" d="M127.76,52c31.78,22,22.65,61.86-7.09,66.52C85.76,124,57.21,83.88,77,57.23,89.26,40.78,112.89,41.7,127.76,52"/><path class="cls-20" d="M127.72,52.64c28.72,19.36,24.28,58.8-7.2,63.94-33.95,5.54-60.64-32.74-41.4-59.37,10-13.84,31.8-15.89,48.6-4.57"/><path class="cls-21" d="M131.57,56.41C156,78.14,146.78,113.16,116.17,115,80.62,117,63.06,76.16,82.86,55.43c13.52-14.14,35.81-10.51,48.71,1"/><path class="cls-22" d="M131.24,57.1c24.32,21.79,12.7,57.07-18.56,56.34-33.7-.8-46.61-39.66-26.75-58.68,11.38-10.9,31.71-9.85,45.31,2.34"/><path class="cls-23" d="M134.37,61.44c20.19,23.79,3.69,51.15-21.92,50.36-34.08-1-42.72-38.59-26-55.13,15.56-15.36,37.8-7.1,47.88,4.77"/><path class="cls-24" d="M133.72,62.19c18.85,22.54,2.8,48.62-21.52,48-31.69-.86-41.7-34.46-23-53.61,9.92-10.16,31.52-9.9,44.52,5.65"/><path class="cls-25" d="M132.91,63c17,20.81,1.85,45.47-20.92,45.85-28.53.47-39.36-32.75-22.49-49.91,14.08-14.32,34.61-6.69,43.41,4.06"/><path class="cls-26" d="M134.87,68c12.85,22.53-9,44.29-31,38.62-26-6.73-27.24-39-7.56-50.75,12.35-7.35,30.71-1.57,38.53,12.13"/><path class="cls-27" d="M133.63,68.85c10.89,20.29-7.29,42.52-29.92,36.59C79.1,99,78.35,69,97.1,57.63c13.18-8,30.15-.66,36.53,11.22"/><path class="cls-28" d="M132.2,69.77c10.52,20.17-9.52,39.73-28.66,34.69C80.31,98.34,80,69.58,97.94,59.25c13-7.51,28.52-.48,34.26,10.52"/><path class="cls-29" d="M130.64,70.66c10,19.12-9.09,37.61-27.27,32.81-20.06-5.29-23-32-4.73-42.62,8.62-5,25-3.7,32,9.81"/><path class="cls-30" d="M130.86,76.28c3.44,14.9-6.35,21.41-9.56,23.55-11.17,7.44-21.3,1.24-24.63-.8C81,89.39,85.08,66.18,103.49,60.81c12.76-3.72,25,5.1,27.37,15.47"/><path class="cls-31" d="M129.33,77c3.12,10.62-4.76,19.1-4.84,19.17-5.23,4.58-5.39,4.61-13.6,6.38,0,0-6.91-.47-9-1.53-23.41-11.82-12.72-32.3-2.1-37.42,10.38-5,25.55-.24,29.55,13.4"/><path class="cls-32" d="M128.1,77.53c3.9,14.16-10.95,31.07-29,21-18.51-10.34-9.29-32.71,5.89-35.06,6.45-1,19.86,2.11,23.16,14.1"/><path class="cls-33" d="M126.82,78.07c1.25,4.88,1.74,14.07-9.08,20.76-3.2,2-12.5,4-20.82-2.28-11.85-9-8.63-29.5,8.72-31.8,10.64-1.4,19.5,6.81,21.18,13.32"/><path class="cls-34" d="M125.48,78.6c4.81,18.5-16.26,26.27-27.55,17.78-13.88-10.44-6.33-29.53,8.23-30.61A18.65,18.65,0,0,1,125.48,78.6"/><path class="cls-35" d="M124.49,79c2.93,9.29-2.43,13.94-7.17,18.05-.66.57-6.91,3.78-14.9,1.08-1.1-.37-10.77-4-11.18-16.13-.09-2.84,2.79-11.23,10.17-14.18,6.12-2.45,19.52-.06,23.08,11.18"/><path class="cls-36" d="M124.41,84.47a50.9,50.9,0,0,1-2,6.13c-1.22,2-3.66,4-5.32,5.63s-4.88,1.77-7,2.3c-.67.16-9.67.19-15-6.93C88.38,82.73,94,68,107.14,67.75c9.09-.15,18,8.44,17.27,16.72"/><path class="cls-37" d="M123.43,84.81c-1,10-10.09,12.2-13.49,13-2.31.56-5.65-.37-7.82-1.34-1.94-.87-6.25-5-6.28-5-6.16-7.9-2.1-22.71,11.78-22.71.57,0,7,1.76,7,1.78,1.44.72,2.59,1.28,5.81,4.56s3,9.64,3,9.7"/><path class="cls-38" d="M122.43,85.15c-.54,4.59-4,7.88-5.69,9.47s-4.79,2-6.95,2.51c-2.32.56-5.63-.5-7.82-1.45a16.43,16.43,0,0,1-5.34-4.33,13.06,13.06,0,0,1-1.3-14.86c3.23-6.15,10.27-7,12.7-6.83a21.17,21.17,0,0,1,7,2.12c.42.21,4.49,3.63,4.51,3.66,3.51,3.77,3,9.12,2.92,9.71"/><path class="cls-39" d="M121.41,85.49a16.5,16.5,0,0,1-4.88,8.33c-1.61,1.5-4.74,2.1-6.89,2.62,0,0-5.68-.77-7.85-1.69a13.31,13.31,0,0,1-4.37-3.53c-5.5-6.65-2.2-12.86-1.11-14.9,1.39-2.62,5.18-4.58,6.31-5.12a12.5,12.5,0,0,1,5.8-.68c.15,0,14.68,2.32,13,15"/><path class="cls-40" d="M120.35,83.08a7.79,7.79,0,0,1,.14,2.71,22.11,22.11,0,0,1-3.35,6.4c-.81.93-1,1.1-7.65,3.55-.06,0-7.23.08-11.22-4.6-5.53-6.48-2.35-12.45-1-15,.81-1.52,5.55-4.19,5.6-4.2a13.78,13.78,0,0,1,5.93-.55c4,.4,8.74,4.65,8.78,4.69,2.5,2.53,2.63,4.8,2.76,7"/><path class="cls-41" d="M119.56,86.08a13.16,13.16,0,0,1-3.46,6.1c-.3.26-6,2.7-6.76,2.87-.06,0-7.2-.43-10.35-4.1-5.46-6.35-2.23-12.26-1-14.49a58.58,58.58,0,0,1,5.15-3.78,14.89,14.89,0,0,1,6.06-.42c3.66.42,12.24,6.12,10.37,13.82"/><path class="cls-42" d="M118.63,86.36a10.54,10.54,0,0,1-2.79,4.87c-.33.29-6.37,3.12-6.66,3.13S101.3,92,101.26,92c-1.56-1-2.75-3.31-3.68-4.89-2-3.37-.61-8.07.65-9.54a29.93,29.93,0,0,1,5.15-4.13c1.73-.68,4.35-.53,6.19-.29.57.07,6.19,3.47,6.21,3.5.88,1.28,2.26,2.93,2.69,4.41a11.19,11.19,0,0,1,.16,5.3"/><path class="cls-43" d="M117.67,86.64a7.49,7.49,0,0,1-2.06,3.59c-1.73,1.39-4.38,3.41-6.61,3.34a16.85,16.85,0,0,1-7.92-2.49c-1.3-.87-3.34-5-3.35-5.07s-1-5.66.75-7.32c.18-.17,4.31-4.16,5.15-4.49a11.46,11.46,0,0,1,6.36-.06,13.26,13.26,0,0,1,4.87,2.79c1.14,1.07,2,3.06,2.79,4.39s.45,3.78,0,5.32"/><path class="cls-44" d="M116.71,86.92a5,5,0,0,1-1.4,2.44c-1.77,1.31-4.3,3.53-6.5,3.41a16.24,16.24,0,0,1-7.17-2.3c-1.47-1-3.18-4.55-3.19-4.59s-.72-4,.28-6.06A11.15,11.15,0,0,1,103.89,75c1.82-.7,4.61-.23,6.52.2a8.67,8.67,0,0,1,3.52,2,11,11,0,0,1,2.88,4.36,10.77,10.77,0,0,1-.1,5.35"/><path class="cls-45" d="M115.75,87.2a2.46,2.46,0,0,1-.71,1.23c-1.83,1.22-4.23,3.33-6.42,3.53-1.74.17-4-1-5.57-1.76a10.2,10.2,0,0,1-2.64-2.44c-2.57-3.09-1.21-7-1.19-7.07,1-1.82,3-4.1,5-4.84s4.69,0,6.66.37A4.94,4.94,0,0,1,113,77.48a11.77,11.77,0,0,1,3,4.34,10.79,10.79,0,0,1-.22,5.38"/><path class="cls-46" d="M114.78,87.46a9.66,9.66,0,0,1-6.35,3.7,7.24,7.24,0,0,1-4-1.24A17.76,17.76,0,0,1,100,85.84c-.48-.67.68-5.4.7-5.44a8.28,8.28,0,0,1,3.72-3.68c1.92-.71,4.77.28,6.8.55a1.6,1.6,0,0,1,.8.47c1.1,1.15,2.64,2.8,3.07,4.33a10.63,10.63,0,0,1-.33,5.39"/><path class="cls-47" d="M114.08,85.32c-1.23,3.54-5.8,5-5.84,5a4.12,4.12,0,0,1-2.39-.74c-1.55-1.09-4.11-2.44-4.69-4.24-.5-1.53.38-3.81,1-5.28a5.21,5.21,0,0,1,2.51-2.5c1.63-.57,4,.23,5.74.57a4,4,0,0,1,1.45.88c1.54,1.27,2.82,4.39,2.17,6.27"/><path class="cls-48" d="M113.36,83.14c-.67,2-2.69,4.09-4,5.7a2.26,2.26,0,0,1-1.29.72c-1.11.12-5.51-4.39-5.53-4.44-.5-1.56.61-3.8,1.19-5.33a2.48,2.48,0,0,1,1.29-1.3,4.15,4.15,0,0,1,3,.32,38,38,0,0,1,5,3.1,1.36,1.36,0,0,1,.42,1.23"/><path class="cls-49" d="M107.7,88.2c-1.53.15-3.4-1.9-3.85-3.36,0,0,1.25-5.4,1.41-5.46a.28.28,0,0,1,.18,0c1.82,1.08,5.59,1.61,6,3.67.39,1.86-1.86,4.94-3.76,5.13"/><path class="cls-50" d="M107.2,86.29c-.79.09-1.76-1-2-1.73s-.12-2.58.72-2.92c1.06-.43,3,.89,3.24,2a2.75,2.75,0,0,1-2,2.65"/><path class="cls-51" d="M106.69,84.4a.22.22,0,0,1-.16-.14c0-.07,0-.2.06-.23a.24.24,0,0,1,.25.16.2.2,0,0,1-.15.21"/></g><path class="cls-52" d="M96.75,51.49l0,0s-.08,0-.11-.05,0-.07-.07-.09a.52.52,0,0,0-.17,0h-.06s-.08,0-.13,0h-.1s0,.06,0,.09l.08.09h.14l.06,0,.06,0s.06.06.1.07.06,0,.16,0l.07,0s0,0,0,0l0-.06m-1-.31a.43.43,0,0,1-.09-.1L95.59,51l-.24.06c-.2-.29-.2-.29-.23-.3a.65.65,0,0,0-.4,0,.11.11,0,0,0,0,0s.06.13,0,.15h0s-.07,0-.1-.05a.6.6,0,0,0,0-.19s0-.06-.06-.09-.16,0-.2-.06,0,0-.05,0h0s0,.06,0,.08l-.08.06h0a.38.38,0,0,0,0,.15s0,0,.09.26a.08.08,0,0,1,0,.06h-.06l0,.07h0a.11.11,0,0,0,0,.06c.18.23.17.32.16.34s-.1.12-.11.2a.19.19,0,0,0,0,.08c.13.32.33.38.37.35s0-.09,0-.35c0-.06.1-.11.1-.11s.07,0,.1,0l.33-.08a0,0,0,0,0,0,0s0-.06,0-.09,0,0,.08,0,.13,0,.18-.05h0s0-.06,0-.08.14,0,.21,0,.09-.05,0-.24M92,50.87l0-.07,0-.09a.47.47,0,0,0-.06-.09s0,0,0,0a.23.23,0,0,1-.09,0l0,0h-.07l-.09,0h0s0,0-.07,0,0,0,0,0h-.1a2.51,2.51,0,0,1,.1.27l.24,0h0a.3.3,0,0,1,.12.12s0,0,0,0l.1,0s0-.05,0-.07,0,0,0-.05,0,0,0,0m1.62-.43a1.61,1.61,0,0,0-.32-.32s-.2,0-.23.05,0,.13,0,.2h0l-.14,0a.32.32,0,0,1,0-.09s0-.05,0-.08a.61.61,0,0,0-.07-.1l-.25,0s-.05,0-.09.12,0,.06,0,.09,0,0-.2.08-.08,0-.12.12,0,.07,0,.1-.08,0-.1,0a.67.67,0,0,0,0,.2l0,.07a.68.68,0,0,1,.22.08,1.91,1.91,0,0,1,.16.32l.51-.1c.13,0,.13,0,.32.19.37-.11.37-.11.42-.1l.1,0c.28-.06.21-.21.19-.24l-.11-.19s-.14,0-.17,0a.94.94,0,0,1-.11-.25,2.08,2.08,0,0,0,0-.23m-14.76-7,0,0,.33-.11.23-.07.15,0-.23.06-.17.06-.26.08m13.61,6.08h0l-.07,0h0l-.31.06a.9.9,0,0,0-.2-.28h0s0,0-.06,0h0a.58.58,0,0,0-.08.1v.06c0,.06-.08,0-.1.09a.2.2,0,0,0,0,.08l0,0-.08,0-.08,0,0,.06a.42.42,0,0,1,.07.27s0,0-.08,0l-.06.06s-.06,0-.06,0a.53.53,0,0,0,.08.17.12.12,0,0,0,.1,0s.05,0,.09-.06h0s.12.11.12.11,0,0,.21.13h.06l.13,0s0,0,0,0,0-.13.08-.14.14,0,.12-.11,0,0,0,0h.08l.2-.07a1.3,1.3,0,0,1-.14-.29.39.39,0,0,1,0-.09s0,0,0,0,0-.07,0-.1,0,0,0-.05m-1.56.07v0s0-.05-.06-.08,0-.08,0-.09,0-.06-.09,0a.06.06,0,0,0,0,0s0,0,0,0l0,0-.08,0v.09l.06.18c.06,0,.07,0,.1,0h0s0,.05.06.05h0l0,0s0,0,0,0l0,0a.87.87,0,0,0,0-.1M75.38,44.64l.38-.14.36-.13.54-.19.2-.07.29-.09h-.07s.44-.17,1.6-.5l.57-.16,0,0h-.07l-.14,0-.25.06.08,0,.19-.07h0l-.5.14.17-.05.07,0-.31.09h0l-.25.08-.17.05-.27.09-.36.13-.12,0-.07,0L77.1,44l-.33.12.09,0,.19-.07h0l-.4.14-.14.06-.84.32-.12,0-.35.14.1-.05-.1,0,.46-.18-.31.12.16-.06-.27.11.12,0m-22,15.63a48,48,0,0,1,22.1-14.46s0,0,0,0l.05,0h0l0,0,0,0h0l.24-.11s0,0-.07,0l-.07,0-.25.09-.08,0,0,0-.08,0-.21.08-.1,0-.08,0-.24.08-.09,0-.12.05-.15,0v0h0l0,0,.08,0,.06,0,.08,0,.05,0,.08,0,.08,0,.09,0,.19-.07.06,0,.06,0,.16-.06h0l.14-.05.1,0,.08,0,0,0,.07,0h0a.11.11,0,0,0,0,0l-.12,0-.53.17-.19.06-.07,0-.08,0-.07,0-.4.12-.06,0h0l.11,0,.13-.05.09,0,.24-.07.22-.06.07,0,.07,0,.09,0,.11,0,.08,0,.08,0,.07,0,.23-.08.08,0,.06,0,.09,0H76l-.15,0h-.15l0,0,0,0h-.08l.06-.05h-.08l-.07,0-.08,0h-.07l-.11,0-.08,0-.08,0-.08,0-.1,0h0l-.1,0h-.06l-.08,0-.14.06h0l-.2.07,0,0h0l0,0,0,0,.16-.06.06,0,.07,0,.08,0,0,0h0l0,0,.2-.08.2-.07.08,0,.07,0,.06,0h-.2a2.07,2.07,0,0,0-.36.11l-.08,0-.08,0-.57.18.06,0,.14-.06.08,0h0l.11-.07h0l-.19,0-.21,0-.14,0h0l0,0h-.09l-.08,0h0l-.06,0-.2.06h0l-.14,0h0l-.19.09-.08,0h0l-.05,0,.05,0c-.15.07-.31.12-.46.18l-.07,0-.07,0-.31.12-.33.11h0l.06,0h0s0,0,0,0l.12-.07,0,0h0l-.08,0-.11,0,.09-.05h0l0,0s.1,0,.12-.07h0l-.05,0-.06,0-.06,0,0,0h0l.1,0h0a10.53,10.53,0,0,0-1,.45l-.27.15-.19.09,0,0-.06,0-.12.06-.11.06,0,0h0l-.09,0,0,0,0,0-.25.12-.13.06h0l-.09,0h0l0,0h0l.06,0,0,0,0,0v0l0,0,0,0,.11-.06.08,0h0l-.12.06.09-.06h0a2.92,2.92,0,0,0-.36.18l-.07,0-.57.31h0l0,0-.08,0,0,0-.15.09-.08,0-.07,0,0,0-.05,0,0,0,0,0-.15.09L68.3,48l-.08,0-.08,0h0l.08,0,.09,0,.12-.07,0,0-.26.16,0,0,0,0h0l.12-.07-.07.05-.07,0-.06,0,0,0h0l0,0h0l-.22.14,0,0-.08.06,0,0-.22.14-.06,0,0,0-.1.08,0,0,0,0L67,48.9,66.9,49h0l-.08,0-.22.13-.06,0-.12.08-.12.07-.45.27-.22.13-.08.05,0,0h0l-.06,0,0,0-.07,0-.07.05-.2.13,0,0-.24.16-.11.07-.07,0-.06,0-.34.22-.29.2-.11.07-.11.08,0,0-.09.06-.31.21c-.19.13-.3.2-.4.28l-.21.14-.13.11-.25.17-.06,0-.35.25s0,0,0,0l-.23.18-.23.18-.1.08-.1.09L61,53l.21-.16c-.2.2-1.5,1.25-1.52,1.26l.06-.06.13-.12.5-.44s-.7.55-1.52,1.28l.1-.08c.1-.07.23-.19.36-.3l.47-.41L59.7,54l-.29.26-.13.12-.2.18-.15.13a1.46,1.46,0,0,0-.19.16l-.12.09-.42.38-.33.29.08-.08s0,0,0,0l.09-.08-.55.5.1-.1c-1.29,1.3-3,3-4.22,4.4M76.31,45.06l.43-.12-.07,0,.14-.06.37-.1.44-.14h-.08l.1-.06-.1,0,.3-.07.12-.05c.11-.1.27-.09.4-.15l.25-.08-.42.08c.12-.09.28,0,.4-.14l-.33.06c.21-.18.49-.14.72-.24l.1,0a2.63,2.63,0,0,0-.62.11l.06,0,.28-.08.16,0,.12,0-.23,0,.1,0a1.07,1.07,0,0,0,.19-.07c-.11,0-.25,0-.36,0l-.16.07-1,.28s0,0,.5-.17l.18-.07c.09,0,.14,0,1-.28l.09,0-.23,0-.26.05s0,0,.07,0l.26-.08.07,0h-.13s0,0,0,0l.09,0-.18,0,.19-.07-.2,0-.16,0-.12,0-.28.06-.22.07c-.23.07-.44.12-1,.32l.19,0,.13,0-.11.06h-.13l-.24.06-.33.09-.23.1-.24.1.25-.06-.19.08-.21.09.16,0,.19,0,.19-.05-.09,0h0l-.15.08.05,0-.13,0a.56.56,0,0,0-.33.1l-.13.05-.1,0-.2,0,.17-.08.12-.06h0l.06,0,.12-.08.06,0-.28.09-.17.06-.24.09-.33.12-.35.15,0,0,.18-.07,1.68-.64-.26.08-.34.12-.45.16-.68.26-.35.14-.32.14-.1,0,0,0-.07,0-.31.13.7-.29.25-.11.17-.07.09,0h0l-.26.1-.21.09-.24.1-.26.1-.15.07h0l-.33.15-.22.1h0l.1,0-.25.11-.09,0,.18-.08.55-.24c.4-.18.49-.21.66-.28-1.06.47-2.47,1.1-3.52,1.6h0l.52-.26h0l.46-.22-.1,0,.33-.15.42-.19-.13.06-.24.12,0,0c.27-.1.52-.23.78-.34l-.13.07-.08,0c.37-.14,1-.41,1-.41h-.07l-.07,0,.31-.13,0,0,.24-.08-.11.06-.29.12-.26.12,0,0a3.59,3.59,0,0,0,.74-.26l-.13.07-.34.13-.09.06h0l.5-.19.25-.1-.17.09-.1.06.23-.07h0l.25,0a1,1,0,0,0,.43-.06l-.07,0,.15,0,.39-.13h-.19l.61-.24,0,0-.12.07-.12.08a.14.14,0,0,1,.09,0h.09l-.06.06.45-.11"/><path class="cls-52" d="M119.68,48.47l-.24-.11a.93.93,0,0,0-.28-.09h0s0,0,0,0h0s0,0,0,0,0,0,0,0h-.11a.5.5,0,0,0-.13,0h0l0,0a.53.53,0,0,0,.14.11c.14.07.14.07.11.09s0,0,0,.09a.65.65,0,0,0,.09.08,2.25,2.25,0,0,0,.62.28v0a0,0,0,0,0,0,0,.07.07,0,0,0,0,0s0,0,0-.06a.08.08,0,0,0,0,0c0-.07-.12-.1-.16-.16v0l0,0,0-.05h0s0,0,0,0l0,0M86.73,63.91l0-.15c-.11,0-.22,0-.33,0s-.15-.07-.19-.17c-.15-.32,0-.62,0-.93v-.14a3,3,0,0,0,.09-.79c-.05-.3-.25-.55-.29-.85s0-.52,0-.78a.92.92,0,0,1,.28,0l0-.76c-.16,0-.25-.11-.39-.15-.06,2.11-.08,4.36-.06,6.72a2.82,2.82,0,0,0,.5-.87c.25-.32.25-.32.37-1.1M111.46,52l-.25-.18-.15-.08-.24,0s0,0-.08,0a.44.44,0,0,1-.19,0h0c-.05,0-.08-.1-.15-.06h0l0,0c-.12.06-.12.06-.12.09s.11.12.15.2-.07,0-.06.06a1.12,1.12,0,0,0,.13.24l0,.05.27-.06,0,0s0,0,0,0h.08c.08,0,.09-.06.09-.07l0,0h0c.15,0,.28.11.44,0l.08,0m-2.51.53.25-.11a.44.44,0,0,0-.15-.08s-.08,0-.13,0-.12,0-.55-.24l-.16-.07-.07,0a1.43,1.43,0,0,0,.29.15l.28.14.24.18m.77-1.06s-.11,0-.12,0h0s0,0,0,0h-.22l-.09,0a1.92,1.92,0,0,0,.17.13.53.53,0,0,0,.15.06h.21l0,0a0,0,0,0,0,0,0s0,0,0,0l0-.06-.09-.07m1.1-1.6-.28-.15-.18-.09-.17.08a.12.12,0,0,1,0,.09l0,0H110l-.05,0s0,0,0,0l-.37-.2-.17.07s0,0,.13.11v0c-.17.06-.17.06-.6-.11l0,.06.58.33s0,0,0,0l.05,0h0a1.21,1.21,0,0,0,.19,0c.08,0,.15.08.24.08s.11,0,.07-.13,0-.06.19,0c.35.08.35.08.39.07s0,0,.08-.05l0,0,0,0s-.13-.13-.17-.16,0,0,0,0l.09-.06h0m-4.17,1,0,0,0,0s0,0-.07,0,0,0-.06,0,.33.28.34.28h0l.09,0,.12,0h0s-.07-.1-.07-.1a.91.91,0,0,0-.13-.08l-.2-.15m2.14-.87-.12-.07s-.06,0-.1,0-.1-.07-.17-.07-.16.09-.25.1l0,0s0,0,.14.14a1.74,1.74,0,0,0,.49.36c-.11,0-.11,0-.13.06l-.39-.23a1.94,1.94,0,0,1-.21-.2l-.25-.13c-.08.05-.26,0-.26.12l.35.23c-.09,0-.16.1-.27.09a3.45,3.45,0,0,1-.42-.14l-.13-.08h0l0,0-.07,0a0,0,0,0,0,0,0l-.24.12a9.8,9.8,0,0,1,1,.74l-.13,0a1.73,1.73,0,0,0,.31.14c.13,0,.28,0,.41.06s.27.15.42.19,0,0,.17-.12a3.37,3.37,0,0,1-.39-.31c.26.06.26.06.42-.06h0c.07,0-.06-.1-.08-.15s.09,0,.18,0,.17,0,.17,0-.28-.22-.15-.29h0c.28,0,.28,0,.3,0l.17-.09a2.23,2.23,0,0,1-.47-.31c-.08-.06-.13-.15-.22-.2M94.07,53.42v0l0-.07v0L94,53.2a.41.41,0,0,0,0-.08.12.12,0,0,0-.13,0h0s0,0,0,.07a.15.15,0,0,1-.1.17l.06.13s0,0,0-.06h.17s0,0,.08,0h.06m31.68-2.87a2.54,2.54,0,0,0-.47-.14l-.24-.08c-.09,0-.09,0-.09.05v.16l-.25,0a1,1,0,0,0,.44.26l.17.1.21.14-.26,0-1-.56-.25-.06s0,0,0,0a1.5,1.5,0,0,1-1-.16l-.21.13c-.8-.37-1.07-.3-1.27-.25L121.4,50h0c-.1,0-.1,0-.11,0v0h-.52c0,.06,0,.08,0,.09l.18.18a.91.91,0,0,0-.14.13l-.23,0h0a2.84,2.84,0,0,0-.51,0c.41.49,1.07.58,1.54,1,.13.21.09.25.06.29l-.52-.3-.14.15-.48-.29,0,0a.71.71,0,0,0-.24-.35.69.69,0,0,0-.32.21c.45.25.45.25.62.45,0,.06,0,.06,0,.07l-.26,0-.2.17-.14.13,0,.25-.27,0c-.23,0-.25,0-.27,0l.22.14.58.36v.07h-.11l-.28-.18a19.29,19.29,0,0,0-2.17-.94l-.29-.11a1.66,1.66,0,0,0-.5.12l0,.26c0,.17-.05.19-.08.21l-.18.18c0,.17,0,.18,0,.19a1.38,1.38,0,0,1-.5-.06.52.52,0,0,0-.25.06.93.93,0,0,1-.54-.09,2.42,2.42,0,0,1-.51-.14.87.87,0,0,0-.24.09l-.15-.08a1.14,1.14,0,0,0-.3-.32h0a2.91,2.91,0,0,0-.74.33,4,4,0,0,1,.38.34c0,.18,0,.19,0,.2a2,2,0,0,1-.62-.46l0-.05a2.51,2.51,0,0,0-1.76.17l.06.27c.07.18,0,.23-.13.28.24.54.86.46,1.25.75,0,.05,0,.06,0,.06a2.09,2.09,0,0,0-.77.1c0,.07,0,.11.08.16l.12,0a1.26,1.26,0,0,1,.45.22c-.22,0-.22,0-.74-.14a1.05,1.05,0,0,1-.18-.12l-.25.07,0,.28c-.29.2-.68.07-1,.26V55a5.2,5.2,0,0,1,.58.55.9.9,0,0,1-.32.17c-.47-.43-1.13-.44-1.66-.75l-.05,0s-.94-1.33-1.93-1.3l.11.3-.24.09a1.45,1.45,0,0,0-.7-.28h-.06a3,3,0,0,0-.52-.11l-.1.23.25.42a3.87,3.87,0,0,1,.43.27c0,.19-.18.25-.33.3l-.15.22c-.43,0-.85-.2-1.27,0a3.73,3.73,0,0,0-.33-.36,1.38,1.38,0,0,0-.49-.1c-.16.21-.19.22-.21.23a2,2,0,0,0-.49.08l-.11.1-.25,0c-.18.18-.21.19-.25.2-.25-.06-.42-.26-.64-.35l0,.25-.24.1-.19-.19.23-.09,0-.25c0-.25-.07-.26-.08-.28l-.25,0-.17.19a2.84,2.84,0,0,1,0,.51,2.87,2.87,0,0,1-.5.16l0,.08.21.18.09.11-.07.24-.11,0a.83.83,0,0,0-.41.25l-.26.06-.2.12-.06,0a2.7,2.7,0,0,0,.16-.48l.23-.09c0-.16,0-.36,0-.52s.14-.22.17-.22l.11-.25c.11-.22.14-.23.16-.23l.21-.14a1.37,1.37,0,0,0-.18-.49l.35-.1-.15-.21c-.06-.16,0-.17,0-.17a1.29,1.29,0,0,0-.37-.33c-.19-.14-.21-.14-.23-.13-.25-.24-.63-.26-.87-.51a1.09,1.09,0,0,0-.53.06H98.4l-.15.2a2.26,2.26,0,0,0-.51-.08.68.68,0,0,0,.16.33l-.2,0L97.58,53v-.14l-.11-.24a.84.84,0,0,0-.4,0,.76.76,0,0,1-.46-.17c0-.28,0-.34-.05-.4l-.72.17-.34.36c0,.25.12.48.11.74l.17.18-.68.15,0,.25h0c0,.08,0,.11,0,.15l-.1.23c-.12,0-.12,0-.72-.14l-.23,0H93.8a4.26,4.26,0,0,0-.06.5,2.11,2.11,0,0,1-.44.12c-.51.49-1.57.48-1.52,1.46a1.58,1.58,0,0,0-.44.24c0,.09,0,.09.54.51l0,.13c-.57.21-1.41.46-1.41.46a1.58,1.58,0,0,1-.5.16l-.17.14a.84.84,0,0,1-.47.19l-.12.23a2.34,2.34,0,0,1,.45.91l.25.07.13,0a.76.76,0,0,1,.4.28c0,.1,0,.14,0,.18l-.17.22c-.24-.09-.47-.22-.71-.3l-.08-.24a4.34,4.34,0,0,0-.59.05l-.22-.22-.25,0a2.94,2.94,0,0,0-.4.39.87.87,0,0,1,.47.15l-.15.2-.22-.14-.19,0a2,2,0,0,0-.21.47l.18.18c.33,0,.33,0,.92.4h-.26l-.17-.09h-.13c-.83-.34-.83-.34-.85-.38a2,2,0,0,0,0-.36c0-.85,0-.85-.11-1l-.22.13a4.41,4.41,0,0,1,0,.52c0,.14,0,.19,0,.23l-.25,0a7.39,7.39,0,0,1-.41.66c0,.11,0,.13,0,.15.46.83.46.83.35,1.21-.1.2-.1.22-.1.24a4.13,4.13,0,0,0,.24,1c.22,0,.38,0,.54-.05l.13-.23c.13-.17.15-.17.16-.17a3.63,3.63,0,0,1,1.1,1.09,1.52,1.52,0,0,1-.2.47l.27.19a.77.77,0,0,0,.46.13l0,.15-.22.13L89,65l-.4-.33c0-.26,0-.33,0-.39l0-.26a1,1,0,0,1-.3-.4,1,1,0,0,0-1.14.3c.17.69-.36,1.27-.31,1.95-.22,0-.22,0-.63.38a.46.46,0,0,0-.09.25l-.2.17c0,5.11.3,10.75.73,16.67a164.93,164.93,0,0,0,28.16-5.58,91.72,91.72,0,0,0,14.46-5.49l0-.07a5,5,0,0,1-.4-1.19h.34c.15.07.15.07.62.8a1.81,1.81,0,0,0,.9-.29c-.32-.52-.89-.8-1.23-1.3l-.12-.18a12.38,12.38,0,0,0-1.38-1.6.36.36,0,0,0-.19.06l.7,1-.19.19.1.14.21.26a2.37,2.37,0,0,1,.32.39l-.15.08c-.24-.11-.24-.11-.49-.58l-.16-.25a2.55,2.55,0,0,0-.46-.25h-.08a2.5,2.5,0,0,1-.78-.27c-.29-.07-.38,0-.47,0,.16.22.32.45.47.68l-.38.18c-.44-.54-.6-.53-.8-.53l.3.4-.19.17-.09-.13c-.19-.44-.19-.44-.48-.59l-.07.25-.13.06-.11,0c-.73-.56.08-1.81.09-1.82a20.89,20.89,0,0,1-.66-3c.28-.31.28-.31.13-1a.91.91,0,0,1,.35-.12c.13-.17.15-.17.16-.18s.18,0,.2,0c.11-.2.12-.2.13-.21a.79.79,0,0,0,.5-.08,8,8,0,0,1,.85-.55c-.07-.09-.15-.17-.22-.25a1.92,1.92,0,0,1-.18-.22,2.67,2.67,0,0,0,.43-.25,3.23,3.23,0,0,0,.51.14,2.08,2.08,0,0,0,.3.43.8.8,0,0,0,.47-.16,1.82,1.82,0,0,0-.16-.5,2.42,2.42,0,0,1,.51.14l-.15-.21a.78.78,0,0,0,.38-.11,3.68,3.68,0,0,0-.39-.3.54.54,0,0,1-.48-.21,7.2,7.2,0,0,1-.41-1.15,5.37,5.37,0,0,1-.51-1l.15-.19.12,0-.09-.24,0,0c.22.12.49.14.68.32l.11.11a1.56,1.56,0,0,1,.62.45l.1,0c-.34-.77-1-1.36-1.15-2.25a1.22,1.22,0,0,1,.2-.23l.19.16.11.3C130,62.08,130,62.08,130,62.63c1.61,1.24,2.33,3.2,3.76,4.58.28.35.55.7.81,1.06a2.85,2.85,0,0,0,.25-.45c-.23-.42-.41-.88-.63-1.31l-.11-.23c0-.11,0-.12,0-.12s.14,0,.16,0l0-.26c-.24-.31-.42-.53-.6-.74l-.1-.25a.8.8,0,0,1,.3-.53c-.11-.11-.21-.23-.31-.35l-.23-.17a2.17,2.17,0,0,1-.3-.24l-.11-.13L132.6,63l.13-.12c.17,0,.2,0,.23,0l-.22-.25a3.51,3.51,0,0,1-1.33-1.25,1.49,1.49,0,0,1-.18.2,17.66,17.66,0,0,1-1.67-2.31,2.88,2.88,0,0,1,.5.15,3.76,3.76,0,0,0-.2-.46l.23.11.17.09h0a1.76,1.76,0,0,0-.39-.68l.21-.13a3.2,3.2,0,0,0,.26-.28,1.93,1.93,0,0,0,.64.46A8.72,8.72,0,0,1,129.86,57c0-.15,0-.17,0-.18,0-.72-.68-1.16-.83-1.83l.26,0c.2-.06.21-.08.22-.09a2.53,2.53,0,0,0-.42-.36,3,3,0,0,1-.51-.25,9,9,0,0,1-.85-.5,1.54,1.54,0,0,1-.47-.16c-.16,0-.19.09-.21.14l-.21-.06-.17-.21c-.07-.14-.06-.15,0-.16l.24.07.09-.2a1.59,1.59,0,0,0-.92-.87l-.5-.31c.25,0,.25,0,.78.24a.23.23,0,0,0,.17-.21,1.69,1.69,0,0,1,.54.21c.13,0,.13,0,.14-.07l.5.14h.16l-.66-.45v0a7.62,7.62,0,0,0-.91-.62l.26,0s0,0,0,0a5.79,5.79,0,0,0-.77-.68"/><path class="cls-52" d="M114.87,125.57a1.28,1.28,0,0,1,0-.19l-.29.07,0,0a.87.87,0,0,0,.14.12s0,0,.06,0l.08,0m4-1.18c-1,.27-2.1.53-3.16.78a2.58,2.58,0,0,0,.51.29,3.92,3.92,0,0,1,.42.32c.07.11.07.11.5.32s.35.17.37.24a.31.31,0,0,0,0,.07,1.34,1.34,0,0,1,.64-.27l.34-.09a1.42,1.42,0,0,0,.23-.33v-.15c0-.14,0-.29,0-.44s0-.28.06-.42v-.15c0-.06.06-.11.08-.17m5-1.37,0,0-1,.28a.27.27,0,0,0,.26.06l.52-.16a.85.85,0,0,0,.19-.16m2.18-.67h0l-1.75.53,0,0s.07,0,.1,0,0,.09.07.1.11-.06.13-.08c.23-.25.5,0,.53.06a.09.09,0,0,0,.07,0c.13,0,.13,0,.39-.08l.21-.06.08-.06v-.29s0-.1,0-.14a.35.35,0,0,1,.1-.08m2.81-.35,0-.57-1.06.35.07,0s.08,0,.12,0l.12,0h0l.27-.09a.16.16,0,0,0,0,.09c0,.07,0,.15-.13.47,0,.07,0,.07-.06.31s0,.13.05.18,0,.14.06.21l.07.12a3.87,3.87,0,0,0,.28-.3l0-.13c0-.17,0-.33,0-.5s.06-.11.07-.18m1.68-.11a.68.68,0,0,0,0-.32h-.06a.08.08,0,0,1-.08,0s-.07-.08-.12-.1-.13-.06-.15-.16a.28.28,0,0,1,0-.12l.07-.18-.9.31-.05.09,0,.14a.78.78,0,0,0,.16,0l.11,0h.07c.09,0,.24,0,.33,0s0,.2,0,.3a.1.1,0,0,1,0,.08.68.68,0,0,0-.08.24v.16c0,.17,0,.17,0,.19l.19,0a.13.13,0,0,0,.09,0l.42-.15s0-.1.05-.15a1.48,1.48,0,0,1,0-.21v0m2.65-1.75c0-.08,0-.16,0-.25h0l-.59.22v0s0,.07.07.1a.61.61,0,0,0,.13,0,.23.23,0,0,0,.14,0l.24-.1m2-.8h0a1,1,0,0,1,0-.26c-.52.21-1.05.43-1.6.64l0,0,.36-.15c.08,0,.16-.09.25-.13h.12l.12,0h.17l.18,0s.06.06.11.06l.24-.1m8.4.37c0-.15.07-.3.11-.44s-.08-.15-.18-.12,0-.24-.1-.29l-.07,0h-.06l0,0-.06-.06a.45.45,0,0,0-.3.11q.09-.45.18-.93a2.46,2.46,0,0,0-.36.22c0-.24.08-.47.13-.71l.33-.19a2,2,0,0,1,0-.24c-.1,0-.1-.13-.16-.18s-.3.15-.45.23a1.35,1.35,0,0,1-.11-.59c-.24-.1-.34-.62-.64-.42-.09.06-.15.1-.22.07a.12.12,0,0,1-.07-.11c-1.59.82-3.35,1.65-5.28,2.47,0,0,0,0,0,.47l.17-.07a.47.47,0,0,1,.24-.38c.2.09.32-.16.51-.11,0,0,.38.1.47.3.38,0,.77-.46,1.12-.07a1,1,0,0,1,.09,1.41c-.9.8-.45.95-.44.95a.83.83,0,0,0,.51-.56c.26-.5.55-.11.58,0s.62.1.62.1a1,1,0,0,0,.86-.93c.38-.18.39-.65.72-.87l0,0,.08,0c.31-.08.43-.11.66,1.14.35.06.41-.34.67-.42.09.07.05.22.17.26s.23-.08.25-.1M75,120.14c0-.21-.09-.41-.13-.62-1-.17-1.64,1-2.65.61a2.77,2.77,0,0,0-.37,0c-1.36.12-1.36.12-1.84-.41a10,10,0,0,1-.88-1.15,17.29,17.29,0,0,0-2.22-1.94.78.78,0,0,1-.75-.42,16.36,16.36,0,0,1-1.65-3.08c0-.24,0-.36,0-.47s-3.56-9-5-10.28c-.17-.14-.21-.14-.25-.15a1.73,1.73,0,0,0-.46.2.63.63,0,0,1-.29.07l-1.77-.8a33.49,33.49,0,0,1-3.07-1.56c-.4.66.26,1.47-.29,2.11h-.21l-.2,0c-.54-.09-.49-.73-.9-1L51,101c-.27-1.06-1.3-1.49-1.92-2.26s-.15-3-.15-3a2.8,2.8,0,0,0,.41-.13c0-.53-.53-.8-.53-.81a3.8,3.8,0,0,1-1.44-.1,3.11,3.11,0,0,1-.31.32c-.24-.29-.25-.7-.5-1-.2,0-.2,0-.83.29a1.58,1.58,0,0,1-.78-.21c-.25.71-.25.71-.35.8a3.24,3.24,0,0,1-.36-.2c-.19.08-.21.07-.23,0-.69-.77-.69-.77-.8-1.12A3.25,3.25,0,0,0,42.94,95l-.2,0-.16-.14a9.43,9.43,0,0,0-.17,1.34,3.51,3.51,0,0,1-.36-.29c-.12,1.06-.23,2.26-.23,2.27,0,.29,0,.48,0,.68l-.26-.24a11,11,0,0,1-.25,1.14l-.19.11c-.06.48-.39,2.66-.39,2.66.11,1.6.11,1.6,0,1.89s.05.56.07.76c.33.7.33.7.34,1.13a13.37,13.37,0,0,0,.35,2.34l.06.34c.12.59.17,1.19.32,1.77.06.25.09.36.11.47.4,1.64,2.7,7.17,3.87,8.48a.82.82,0,0,0,0-.41.84.84,0,0,1,.35.18c.09,0,.11,0,.13,0,.46.24.7.75,1.19,1l.19-.09a1,1,0,0,1,0-.42c.25,0,.25,0,.6.23l.14.06.07-.21c1.12-.21,1,1.23,1.64,1.77.66.26,1.17.43,1.71.59.11.31.23.62.34.92.11.51.86,2.71.87,2.73l-.15.15,1.51,1.68a69.34,69.34,0,0,0,16.45,2.18c0-2.62,2.66-4.72,3-5l1.35-2.65c0-.17-.2-2.34-.2-2.36M47.41,80.42v0L47,80.16a.67.67,0,0,1-.07.14s-.06,0-.08,0l-.08.07h-.06a.32.32,0,0,1,0,.08v.06s.06,0,.09,0h.1l.1-.05s0,0,0-.08,0-.06,0-.06a.39.39,0,0,1,.06.13s0,0,0,0l.16.1a2.07,2.07,0,0,1,.08-.21m42.2,30c-1.35-9.17-2.36-18.44-3-27.09C71.67,85,57.75,84.48,50,81.58c-.42-.16-.82-.32-1.2-.49-.06.15-.12.31-.17.47l-.22-.07A.91.91,0,0,0,48,82l-.23-.11-.15-.16a.31.31,0,0,1,0-.25l-.1-.2c-.07.16-.13.31-.19.47l-.09.47,0,.17-.06.2c-.29-.11-.38-.43-.63-.58a.89.89,0,0,0-.3.31c0,.16,0,.17,0,.18a1.27,1.27,0,0,0,.06.44l.16.08c0,.31.05.63.08.94s-.17.56-.25.84a4,4,0,0,1-.65,2.79l-.2.15a.41.41,0,0,1-.17,0,4.26,4.26,0,0,1-.38-.82l-.5-.34a.78.78,0,0,1-.2-.38l0,0-.11.2a.21.21,0,0,1-.29,0l-.06.14c0,.63-.31,1.22-.32,1.85-.08.35-.15.67-.21,1a2.88,2.88,0,0,0-.36,1.38v.23l0,.17,0,.16a2,2,0,0,0-.16.74.3.3,0,0,0,.13.17.92.92,0,0,1,.21.39c.2.12.2.12.34.47s0,.46.06.7l.06-.17,0-.07.22,0c.19-.15.34-.34.53-.48h.06l.23-.06c.21-.4.21-.4.41-.55a3.28,3.28,0,0,1,.45.11,3.25,3.25,0,0,0,.12-.54,2.06,2.06,0,0,1,.28-1.43l.09-.21.23,0s0,0,.55-.4l.22.06a.6.6,0,0,0,.3-.46l0-.17c.12-.88.15-.89.41-1,.32.13.47.44.72.64l.15.05c.2-.14.27-.37.42-.54s.2,0,.23,0c.28,0,.28,0,.57-.34.74.46.25,1.3.59,1.88a1.32,1.32,0,0,1,.13.47c.59,1.17.59,1.17.86,1.33.17.87.84,1.61.68,2.57-.54.2-.54.2-.62.31l-.93-.2-.17.16c.24.29.19.75.56,1a4.14,4.14,0,0,0,.71.22l.06-.64c.4-.19.4-.19.82-1.06a.72.72,0,0,0,.39-.23c0-.28,0-.34,0-.4a1.75,1.75,0,0,1-.33,0,.24.24,0,0,1-.07-.23l0-.25.4.09a1.3,1.3,0,0,1,.32.38,2.8,2.8,0,0,0,.13-.76c-.78-.85-.79-1.27-.79-1.29l-.1,0h0c-.23-.18-.33-.48-.58-.65.12-.46-.16-.85-.24-1.28l-.09,0a3.85,3.85,0,0,1,.07-.49l-.18-.15a.42.42,0,0,1-.12-.46l.13-.14c.12-.13.13-.15.13-.18a3.93,3.93,0,0,1,0-.49l.2-.11.18.15c0,.14,0,.32,0,.47a1.76,1.76,0,0,1,.53,1.2,7.15,7.15,0,0,1,.75,1.16c.19.6.78,1,.85,1.65-.33.36-.35.77-.07,2.06l.24,0a1.32,1.32,0,0,1,.11.79l-.27,0-.06-.22-.14.19a2.81,2.81,0,0,0,.38.85c0-.07.12-.17.18-.24.28.38.28.38.28,1.09a.62.62,0,0,0,.36.17h.23a3.11,3.11,0,0,0,.2-.41,1.42,1.42,0,0,0,0-.19l0-.24.17-.16.19.15a1,1,0,0,0,.28.12c.13-.15.13-.15.21-.65l.23,0,.07-.23c-.07-.11-.18-.26-.26-.37a2.3,2.3,0,0,0-.12.45h-.23a9.31,9.31,0,0,1-.63-1.66l0-.17.21,0a1.09,1.09,0,0,0,.33.31l.19,0,.11,0,.1-.2-.11-.21.13-.19c.38-.07.82-.15,1.21.82l.06.3-.22.1c-.06.46.49.79.28,1.28v.23a1.4,1.4,0,0,0,0,.25,4.19,4.19,0,0,0,.14.47l0,.09.06,0,0,.09.07.09.05.07a.62.62,0,0,1,0,.36l0,.08,0,.11a2.72,2.72,0,0,0,0,.49l.05.09.06.07.15-.26,0-.12,0-.09a1.93,1.93,0,0,0,0-.34l0-.25h.1l.06,0,.06.07,0,.09.06.07.18.27.06.11,0,.1.06,0h.06a.49.49,0,0,1,.3.12l.2,0,.06,0,.07-.06V97.8l0-.09a1.45,1.45,0,0,1,0-.36l.06-.08,0-.08.09-.08a.85.85,0,0,1,.41.12l.16.25.2.25.05.09.06.07.06,0,.08,0,.87.07v-.64l.19-.08H62a.8.8,0,0,1,.38.3l.21,0,.07,0,0-.08.07-.06.06,0,.11.23,0,.08a3.32,3.32,0,0,1-.09.55,1.31,1.31,0,0,0-.06.94l0,.08.07.26-.08.23-.07.06,0,.09,0,.29,0,.09c-.25.46-.25.46-.4.55l-.06.06-.07.08v.09a2.28,2.28,0,0,1-.35,1.07l-.07.07-.06.06h-.07a2,2,0,0,0-.34.06h-.07l-.07,0-.06,0-.26,0c-.17-.16-.2-.17-.22-.17h-.09l-.21,0-.24-.09h-.15l-.08.06a1.36,1.36,0,0,0,.63.29.24.24,0,0,1,.07.19v.11l.13.24,0,.25v.08l0,.1v.35a4.32,4.32,0,0,1,.49.85,2.65,2.65,0,0,0,.4.58.7.7,0,0,0,.24.06l.22,0,0-.24h.2a15.73,15.73,0,0,1,1.48,2.62,1.35,1.35,0,0,1,0,.2c-.08,1.24,1.14,1.69,1.59,2.6A44.43,44.43,0,0,0,69,116.37c.1.54.19,1,.28,1.48.55.94.55.94,2,0,.46,0,.76,0,1.06,0l.19.12.23-.33c.45-.8,1.56-.47,2.06-1.2l.14-.17.47,0c.36-.89.36-.89,2.11-1a1.17,1.17,0,0,1,.06-.9,5.7,5.7,0,0,1,.8-.08c.08-.67.08-.67.33-.85h.25l.19-.36c.15-.66.15-.66.36-.83h.11l.16.17c.22-.47,0-1,.24-1.48h.13l.24-.07.11-.23c-.1-.25-.1-.25-.72-.5-.25-.7-.29-.83-1-.87l-.14-.19a1.6,1.6,0,0,0,0-.49l-.18-.14a1.26,1.26,0,0,0-.5-.07c.07.4,0,.44-.12.66a5.51,5.51,0,0,0-.34-.6,4.11,4.11,0,0,1-.24-1l-.16-.18c-.59.22-.59.22-.59,1.42l-.46,0h-.36l-.46-.15h-.13c-.37.32-.37.32-.47.51-.69.08-.78-.64-.79-.68l.15-.1.21-.15.23,0a1,1,0,0,0,.89,0l-.08-.23a.63.63,0,0,0-.26-.06l-.25.05h-.21a6.59,6.59,0,0,0-1.18-.18,1.82,1.82,0,0,0-.36,0c0-.29-.06-.57-.08-.86-2.09-2.55-2.09-2.55-1.47-3.12.57,0,.63,0,.88.34,1,1.28,1.83,2.3,3.55,2.51h.42c.14-.09.15-.09.16-.09h.13l.23,0a.94.94,0,0,1,.23-.06c.66,0,.64.8,1.11,1,.45,0,.72,0,1,0s.15,0,.82.31a4.91,4.91,0,0,0,1,0l.21.08c.59,0,1,0,1.49-.07l1-.25.91-.08a5.5,5.5,0,0,1,1.7,1.53h.23c.09.11.22.24.32.35l.31,0a2.16,2.16,0,0,1,1,.22c-.65.13-.65.13-.85.36l.08.21c1.92.69,1.92.69,2.2.52,0,0,0,0,0,0M134.75,69l.1-.07c-.06-.07-.06-.07-.07-.1l-.09,0v0l.05.11m.17-6-.19-.16a.12.12,0,0,0-.07,0h0l0,0h0s0,0,.31.38l.12-.13a.52.52,0,0,1-.1-.11m-.2.57.12-.13-.23-.18c-.13-.09-.21-.24-.33-.34l-.3-.19-.16-.07,0,0a1.75,1.75,0,0,0,.34.34,3,3,0,0,1,.35.36l.17.17m-3.87-3.36-.16-.15-.1,0,0,0h0s0,.06,0,.08,0,0,0,.06,0,0,0,.05a.42.42,0,0,0,.13.25l.24.23s0,0,.06,0a.59.59,0,0,0,.08-.11,1,1,0,0,0-.07-.18.16.16,0,0,1,0-.12.44.44,0,0,0-.07-.09m-1.8-7.7-.27-.18s-.07,0-.11,0l-.06,0s0,0,0,.05h-.07v0l0,0v0a.93.93,0,0,0,.1.17s0,0,0,0a2.14,2.14,0,0,0,.19.13s0,0,0,0v-.06l.07,0,.09,0s0,0,0-.05v0s0,0,0,0-.05,0,0-.06a.2.2,0,0,1,.13,0l.05,0s0-.08,0-.08"/><path class="cls-52" d="M132.21,139.58c.13-.12.24-.25.37-.37l-.33.19c-.11.07-.18.18-.31.21h0a2.36,2.36,0,0,0,.13-.23l0,0a1.22,1.22,0,0,0-.32.24l-.36.39-.09.09a.61.61,0,0,0-.1.14h0s0,.06-.09.16-.34.4-.34.4l0,0,.13-.07c.21-.2.27-.25.33-.32l.23-.13.25-.24a2.44,2.44,0,0,1,.34-.32l.15-.13m.73-.7.18-.19a.41.41,0,0,0,.08-.1h0a.61.61,0,0,1,.12-.18h0l0,0-.13.12c-.19.19-.19.2-.19.23l.05,0a1.22,1.22,0,0,1-.15.17l.1-.05m-1.12.55.35-.39h0a1.77,1.77,0,0,0-.24.2l-.16.24.08-.06m13.42-15.29a2.36,2.36,0,0,0,.1-.26h-.05s0-.08,0-.12h0a.37.37,0,0,1,.06-.17.66.66,0,0,0,.09-.45h0a1.5,1.5,0,0,0-.11.13,1,1,0,0,0-.08.23h0s0,.08-.08.23a1,1,0,0,0-.13.34s0,.07.05.1,0,.07,0,.1h0l.08-.09a.56.56,0,0,1,.05-.08m-10.31.49a2.56,2.56,0,0,1,0-.27l-.21,0,0,0a1.52,1.52,0,0,1-.48.26l.12-.09a.52.52,0,0,0-.15.11c-.2.22-.15.38-.06.38a.16.16,0,0,0,.13-.07c.05,0,.06-.07.3-.19l.11,0,.23-.13m4.49,6.8c.13-.2.25-.41.38-.62a1.3,1.3,0,0,0,.09-.32,1,1,0,0,1,.09-.16c.12-.22.37-.38.4-.67l.21-.37s.33-1,.17-1.15l0-.1.3-.62a1.59,1.59,0,0,1-.4.18l-.06-.12a2.15,2.15,0,0,1,.09-.23,3,3,0,0,1,.13-.33l-.08-.08.1-.22-.2-.08c0-.31,0-.31-.32-.3l0-.1c.13-.32.12-.68.24-1l0-.13a7.79,7.79,0,0,0,.2-1.26l-.08-.07a.82.82,0,0,1-.45.1,67.53,67.53,0,0,0,.08-.55,2.69,2.69,0,0,0,0-1.41h-.11l-.08.17a1.66,1.66,0,0,1-.06.21c0,.13,0,.18-.06.22a5,5,0,0,0-.65,1.6c0,.16-.07.25-.1.34a1.66,1.66,0,0,1-.24.5c-.16.47-.27.84-.39,1.22-.27.61-.87.83-.91.52,0,0,0-.08,0-.11-.19-.21-.25-.22-.56-.22a.59.59,0,0,1-.1-.36,1,1,0,0,1-.41.09c0-.11,0-.18.14-.64l0-.1c-.11-.68.55-1,.75-1.48,0,0-.05,0-.08,0l-.38,0-.13.06c-.32.15-.32.15-.57.13l-.09,0h-.05a1.33,1.33,0,0,0-.21-.09h-.07c-.16,0-.31-.12-.47,0l-.18.07a.69.69,0,0,1-.19.1.81.81,0,0,0-.08.27v.12c.34,0,.34,0,.39.1-.43.63-1.29.81-1.65,1.52l0,.07c0,.19,0,1.16-.89,1l0-.11-.32.13a.43.43,0,0,1-.08-.24l-.22.08c-.74.41-.74.41-.84.62,0,0-.64,1.11-1.29,1.32a.45.45,0,0,0-.11.25.27.27,0,0,0,.13.15l0,.12-.06.24-.52.19,0,0a1.14,1.14,0,0,1,.07-.36,2.19,2.19,0,0,0-.34.1c-.59.29-1.08,1.72-1.08,1.73a2.41,2.41,0,0,1-1.62,1.19c-.28.09-.28.09-1.75,1-.52.33-.77,1-1.46,1.11v-.11l-.06-.08a1.64,1.64,0,0,1-.31.37c0,.12,0,.16,0,.2a1.18,1.18,0,0,1,0,.26l0,.21c-.36.43,0,.87,0,1.3a.9.9,0,0,0-.54,0,.68.68,0,0,0-.14.27c.13.18.44.17.49.44.15.78-.07,1.57,0,2.35-.08.23-.14.36-.19.49a1.52,1.52,0,0,0-.8.57c.21-.06.21-.06.33,0l0,.12a1.81,1.81,0,0,0,1.79-.64c.22-.16.22-.16,2-.76.8-.27,1.16-1.11,1.88-1.5.17-.09.19-.08.31,0,.85-.29,1.2-1.49,2.32-1.29l.09.08.22-.09a1.53,1.53,0,0,0,.25-.1,1.65,1.65,0,0,1,.32-.12c.07.18.07.18-.16.55l.21,0c.05.32-.27.49-.32.77.67-.31.87-1.12,1.56-1.41,0,.44-.47.59-.66.91l.17-.15a.64.64,0,0,1,.2-.11.77.77,0,0,1-.15.28l-.09.1a1.24,1.24,0,0,0-.12.16c-.09.1-.17.21-.26.32.18-.1.3-.28.48-.37a.9.9,0,0,0-.13.32l0,0-.06.1-.07.09a2.43,2.43,0,0,0-.36.47l0,.1c.11,0,.11,0,.32-.09l0,.1c.08,0,.31,0,.85-.63a.62.62,0,0,1,.17-.13c0,.16-.13.26-.2.39.18-.06.9-.4,2.77-2.4l.06-.08c1-1.71,2.64-2.9,3.71-4.56m-9-5.37,0-.23,0-.12h0c-.1,0-.1,0-.39.3a.65.65,0,0,1,0,.18l.38-.14m16.61-9.31v0a.61.61,0,0,0,0-.14.3.3,0,0,0,0-.1s0,0,0,0l0,0h0s0,0-.05,0l0,0-.08.09a0,0,0,0,0,0,0l0,.14c0,.11,0,.22,0,.22a.15.15,0,0,0,.08,0l0,0a.64.64,0,0,0,.08-.14M129,126l.06,0v-.14c-.23,0-.27,0-.29,0v-.13h-.26c-.06,0,0-.08-.09-.1s-.15,0-.22,0h0l-.28.22a1,1,0,0,0,0,.1.12.12,0,0,0,.08,0c.06,0,.06,0,.08.08a.47.47,0,0,0,.09.16h0c.06,0,.13,0,.78-.25m1.73-.75s0,0,0,0l0,0m2.36-1.75v0c-.12,0-.13,0-.15-.06s0-.06-.07-.06a1,1,0,0,0-.33.09c-.2.09-.3.29-.47.4s-.24.18-.36.27a1,1,0,0,0-.13.09s0,0,0,.09,0,.1-.16.15h0a2,2,0,0,0-.25.09l-.37.46a.16.16,0,0,0,0,.09v.06h0l0,0c0,.22,0,.22,0,.23a1,1,0,0,0,.44,0l0,0a.85.85,0,0,0,.1-.17,4.49,4.49,0,0,1,.49-.63c.16-.16.41-.19.54-.39a.84.84,0,0,1,.51-.38c.26-.07.27-.1.3-.19a.08.08,0,0,1,0,0m-5,1.74h0l-.07,0c0-.06,0-.12,0-.18-.26.09-.26.09-.37.07h0s-.08,0-.13,0h-.25a.61.61,0,0,0-.14.07l-.13.09-.09.07s0,.08-.07.11a.35.35,0,0,1-.14,0,.46.46,0,0,0-.3.12c-.16.14,0,.21,0,.25a.28.28,0,0,0,.13,0l.48-.16a.54.54,0,0,0,.24-.22.17.17,0,0,1,.12-.11,2.56,2.56,0,0,1,.27-.05,2,2,0,0,0,.4-.16m3.38-1.33,0,0,0-.12h0a2.47,2.47,0,0,1-.44.27,2.18,2.18,0,0,0-.5.23l-.13,0c-.17.07-.29.2-.47.26s-.23,0-.26,0a1.07,1.07,0,0,0-.87.24.74.74,0,0,1-.23.2l-.15,0,.09,0c.19.15.19.15,1-.12l.11,0,.21-.07a3.22,3.22,0,0,0,.67-.28c.18-.11.28-.34.5-.4H131a.59.59,0,0,0,.41-.24m1.32-.82v0l-.07-.11-.59.23s0,.09,0,.13,0,.08,0,.12h.06l.06,0c.06,0,.07-.12.14-.16s.12,0,.18,0l.06,0,0,0,.08-.1m3-1.07a.94.94,0,0,0,0-.32c0-.07,0-.08,0-.1l0,0,0,0a2.82,2.82,0,0,0-.41.42s-.07.28-.09.4,0,.09,0,.13l.35-.14a.87.87,0,0,0,.23-.37m-10,4.09c0-.37-.46-.26-.61-.48l-.91.28L124,126c0-.51.55-.47.82-.71-.3.05-.3.05-.41,0h-.1a4.08,4.08,0,0,1-.87.19h-.15a.67.67,0,0,1-.44,0c-.25-.07-.25-.07-4.3,1.13v.17l.45-.12V127c.44-.12.44-.12.6-.09s.16.23.32.21.42-.24.66-.3.6-.36,1-.25c0,.1.07.15.18.15.32,0,.57-.32.92-.19a1.08,1.08,0,0,0,.85.05.62.62,0,0,1,.09-.3c.13,0,.28,0,.41,0l.16,0c.17-.09.55-.3.67-.09,0,0,.14.21.62.07l.16,0a1.27,1.27,0,0,0,.12-.1m20.35-10.17s0,0,0-.13,0-.1,0-.15a.51.51,0,0,0,0-.17c0-.14,0-.14-.08-.16s0,0,0,0,0,0-.05,0a.23.23,0,0,1,0-.11,1.3,1.3,0,0,0,0-.21l-.07,0-.08.09a1,1,0,0,1,0,.25.2.2,0,0,1,0,.07c0,.06-.06.12,0,.19s0,.13.06.14a.07.07,0,0,1,.06.06c0,.07,0,.14,0,.21s.05.06.08,0a.53.53,0,0,0,.06-.1m-8.67,3.78v-.07c0-.06-.06,0-.09-.06l0,0-.17.21L137,120a.14.14,0,0,0,0,.09.47.47,0,0,1-.05.21,1.17,1.17,0,0,1-.06.2s-.05.08-.06.13,0,.06,0,0l.24-.11a.36.36,0,0,0,.11-.14l.19-.46a.19.19,0,0,0,0-.07,1.55,1.55,0,0,0,.06-.22m-21.16,6.92v-.14s0-.06,0-.09v-.14h0a1.21,1.21,0,0,0-.1.14.38.38,0,0,0,0,.15l.16.07m29-11.84a.76.76,0,0,0,0-.15h0a2,2,0,0,1-.16.14l-.16.22c-.06.11,0,.24-.07.35l-.12.34-.42.26-.09,0-.08,0-.27.16h-.07a1.78,1.78,0,0,0-.09.33,2,2,0,0,1,0,.32,3.21,3.21,0,0,1,.31-.19c.07,0,.14,0,.21-.05a2,2,0,0,0,.32-.22.91.91,0,0,0,.13-.2s0-.09.06-.1a.54.54,0,0,0,.16-.15l.06-.1s.12-.29.13-.34.06-.24.09-.37.07-.14.09-.22l0-.15"/><path class="cls-52" d="M85.86,58.67a.25.25,0,0,0-.08-.19.51.51,0,0,0-.24-.06s-.05,0-.15.15h0l-.06.1-.15.2,0,0s0,.05.06.07a.05.05,0,0,0,0,0s.09,0,.14,0h.07s0,0,0,0l0,0h.24s0-.08.09-.11v-.07m-.61-3.58a1.27,1.27,0,0,0,0-.34c-.07,0-.15,0-.22,0h-.14a.84.84,0,0,0-.44.41c0,.06-.05.08-.52.31-.16.08-.37,0-.49.19s-.32.06-.48,0h-.08c-.48.22-.48.22-.66.53a3.09,3.09,0,0,1-.5.06c-.66.6-.66.6-.74.91a.52.52,0,0,0-.38,0c0,.24-.25.37-.3.59l0,.14c0,.08,0,.16-.08.24-.83.26-.84.27-.84.62.12,0,.2-.13.33-.08a.91.91,0,0,0-.1.18l0,.06a.43.43,0,0,0,0,.11c-.14.08-.31,0-.46.09s-.1.27-.15.41c-.3,0-.3,0-.69.83-.33,0-.35.06-.69,1l.2,0c.06-.13.06-.13.16-.19h0v.14a.36.36,0,0,0,0,.1.23.23,0,0,0,.15-.2h0c.31.31.21.45,0,.75l0,.06v.1a1.86,1.86,0,0,0,.47,0,3,3,0,0,0,.72.13h.14c.09,0,.09,0,.14,0a1.38,1.38,0,0,0,.08-.27c0-.12,0-.12,0-.15l-.05,0c0-.08,0-.08,0-.25a1.72,1.72,0,0,1-.27-.76.13.13,0,0,1-.07,0,1,1,0,0,0,.07-.4c0-.05,0-.07,0-.09a1.31,1.31,0,0,0,.11-.12,2,2,0,0,0,.13-.44c.07-.2.29-.3.38-.49l.08,0,.09,0,0-.13.09,0c.16-.16.24-.39.4-.54.12,0,.53-.63.57-.81.24,0,.24,0,.34-.13s.14,0,.21-.11l0-.11,0,0H82a.79.79,0,0,0,.48-.57c0-.06,0-.06.34-.12.16,0,.18-.21.3-.29l.2-.09.44,0c.46-.25.46-.25.6-.41l.36,0c.2-.12.17-.47.48-.47,0-.13,0-.13,0-.15m-11-3.18h0l.06-.06-.06,0h0m-.8,2.17.12-.11c.1-.18.09-.19.07-.23a.2.2,0,0,1-.17,0l.35-.36-.28,0c.31-.3.31-.3.37-.4s0-.06.18-.3v0s0,0-.07,0v0c0-.12.3-.2.18-.34a2.4,2.4,0,0,0-.23.11.07.07,0,0,1,0-.06h0v0l0-.05.28-.26s-.06,0-.1,0v0c.11-.23.36-.28.54-.43l-.13-.2h0a2,2,0,0,0-.42.28l-.12.1c-.57.5-.57.5-.64.48s0-.06.25-.29l.12-.09.11-.11.12-.09.21-.18,0,0c-.19.09-.37.21-.55.3l-.13,0,.21-.17.14-.09c.05,0,.17-.07.27-.16a.94.94,0,0,0-.37.18.67.67,0,0,1-.22,0,.92.92,0,0,0-.69.47l.09,0a10,10,0,0,1-1,.86c.08-.21.31-.3.39-.5a1.83,1.83,0,0,0-.68.7v0s0,0,.43-.32h0s0,0-.1.14-.19.16-.19.26h.11l0,0a3.36,3.36,0,0,0,.43-.31l0,0c.08,0,.08,0,.22-.15l.17-.15h.11c-.06.09-.06.09-.4.39l.15,0,.25-.14,0,.08c-.26.23-.26.23-.27.27s-.12.09-.15.09,0,0,0,0h-.05a.07.07,0,0,0-.07,0h0a1,1,0,0,0-.18.08c-.07,0-.13,0-.2,0a.68.68,0,0,0-.3.17l-.25.23.16,0h.05c0,.1.09.08.14.07a2.3,2.3,0,0,0,.42-.2h0v0c-.1.23-.63.39-.64.39-.26-.28-.68.22-.73.39l.12,0c0,.08,0,.08-.38.72l.07,0s.07-.08.11-.11.37-.17.53-.31c.47-.44.47-.44.5-.45s.18-.11.26-.09l.55-.52c.12.05.12.05.84-.64l.28.05c-.16.15-.33.29-.49.45.08,0,.08,0,.1,0s0,.16-.38.44a5.21,5.21,0,0,0-.52.41l.1,0c.2,0,.31-.22.51-.26,0,.05,0,.05-.34.41l.12,0c.08,0,.08,0,.32-.24l.28,0,.14,0m10.07-2.55a.13.13,0,0,0,0-.09s0,0,0,0h0l-.09.05,0,0h0l-.05,0h0a.32.32,0,0,0,0,.09l0,.11h.11s.06,0,.09-.06a.34.34,0,0,1,.1,0s0,0,0-.07m-.13-.25,0-.09,0-.1-.35,0a.7.7,0,0,0-.25.17.45.45,0,0,1-.2.11,2.29,2.29,0,0,1-.1.23h.22c.09-.09.09-.09.1-.12s0-.1.09-.13a1,1,0,0,0-.08.22s0,.08,0,.07,0,0,.05,0h.07c.06-.15.08-.19.12-.31h.21m-7,.27.09,0c.13-.21.15-.23,0-.22s-.11.06-.17.06h-.07a4.58,4.58,0,0,0,.35-.42c-.22.07-.37.29-.61.33,0,0,0,0,.36-.29l0,0,.1-.1h0a1.74,1.74,0,0,0-.19.1h0v-.05h-.1a6,6,0,0,1-.65.52v0c.29-.25.39-.34.38-.45-.39-.27-.81.3-.81.3s0,0,0,.07h0s0,.06,0,.09.18-.13.22,0,0,.1-.14.22l-.27-.05-.25.23a1.27,1.27,0,0,0-.06.18v0l.21,0c.09,0,.15,0,.11,0s-.16.22.06.19a1,1,0,0,0,.34-.18c.07-.05.08-.05.1,0s0,.07,0,.11.1,0,.2-.06.26-.24.41-.34l.18-.06a.44.44,0,0,0,.15-.08M81.89,51l.11-.19a.18.18,0,0,0-.11,0c.06-.1.11-.2.17-.29v0h0l-.12,0a.2.2,0,0,0-.06.07.74.74,0,0,1-.22.22c-.07,0-.13,0-.2,0s-.11.08-.17.11h0s-.06,0-.09-.1a1,1,0,0,0-.16.18s-.1.09-.11.08,0-.13-.07-.14h-.09c-.06.1-.27.41-.13.37l.23-.12c.16-.1.16-.1.22-.1a.13.13,0,0,1,.09,0s0,0,.08,0l-.09.15c-.1.1-.1.1-.21.1a2.39,2.39,0,0,1-.13.21.26.26,0,0,0,0,.24c0,.11.06.16.23,0s.14-.14.29-.41l0-.1c.13,0,.13,0,.19,0h0c.12,0,.29-.18.34-.26m2.32,0h0c0-.19,0-.19,0-.2s0-.06,0-.1,0,0,0-.09,0-.07.08-.29l0,0h0l-.06,0s-.07.11-.11.15,0,0-.14.12l0-.07a.5.5,0,0,0,0,.13l0,.07h0l-.08,0a.6.6,0,0,0-.16.19l0,.05s0,.06,0,.08h.08s0-.07.08-.08h.13l.06,0h.08a.22.22,0,0,0,.14-.05m1-.63h0v-.09s0,0,0-.05h0s0,0,0,0H85c-.08,0-.08.05-.09.09a.07.07,0,0,1,0,0h-.11a.18.18,0,0,0-.13.06l-.1.12h0s0,0,0,0v.09c0,.06,0,.26.11.29s.25-.12.25-.12.05-.15.11-.2h0l.06,0,.05,0,0,0a.31.31,0,0,1,.1,0m-1.5.23s0-.07,0-.11l0-.12a.27.27,0,0,0-.13,0s-.09,0-.13,0,.26-.27.32-.46h0a.61.61,0,0,0-.12.05h-.05c-.14,0-.14,0-.33.43-.1,0-.1,0-.13,0h-.1c-.07,0-.07,0-.1,0h0s0,0,0,.11-.06,0-.08.08,0,.06,0,.09a1.3,1.3,0,0,1-.08.17,1,1,0,0,0-.7.39v.07c.09-.07.09-.07.1-.11l.1-.14s.08,0,.12,0,.07-.07.12-.09.06,0,.1,0,0-.08.09-.07a.38.38,0,0,0,.17-.05s0-.09.07-.1,0,0,0,0a.19.19,0,0,0,.09.08h.1c.19-.48.19-.48.32-.35,0,.21,0,.21.19.16a.54.54,0,0,1,0-.11M74,48.34a2.27,2.27,0,0,0,.44-.25h-.15l.09-.15s0,0-.91.26l.09-.14a7.13,7.13,0,0,0-1.43.38A6.14,6.14,0,0,1,73.16,48l.39-.18a5.41,5.41,0,0,0,.89-.36l.06,0c-.11,0-.11,0-1.14.24a3.42,3.42,0,0,1,.62-.24h0a.94.94,0,0,0,.33-.08l.08,0h0c-.14-.08-.14-.11-.14-.14s-.11,0-.46,0a3.4,3.4,0,0,1,.8-.28.62.62,0,0,1,0,.19l.17,0a.17.17,0,0,1,.1.14,1.7,1.7,0,0,0,.31-.06h.22L75.8,47l0,0h-.09c.18-.11.34-.22.52-.32l.06,0c-.13,0-.13,0-.13,0l.15-.07c.09-.09.09-.11.09-.13v-.08l-.16,0s0,0,0-.08l.19-.06v0l.16,0c.13.06.13.15.14.24a4,4,0,0,0,.46-.18s0,0,0-.05l.13-.09,0-.1a.85.85,0,0,0,.13-.25,1.59,1.59,0,0,0-.3.06s0,0,0,0l0,0c-.15,0-.15,0-.78.19l.06-.12.34-.13-.15,0,0,0,.15-.06,0,0h-.06a2.79,2.79,0,0,0-.39.1l0,0h0l-.19.07-.08,0-.08,0-.32.1h0l.08,0,.08,0h0l0,0,.07,0h0l.07,0h0l0,0h0l0,0-.08,0-.08,0-.24.08-.09,0-.2.08,0,0,0,0,0,0,0,0-.06,0-.07,0-.21.08-.26.1-.08,0-.07,0-.12,0-.11,0,.09-.05h0l.18-.08,0,0,0,0,.06,0h0L75,46l.09,0h0l.08,0,.07,0,.08,0a47.8,47.8,0,0,0-22,14.42l-1.31,1.57L50.19,64.3h0l-.09.13.1-.13.16-.23c.35-.47,1.53-2,1.54-2s.05,0,.05,0l.32-.35c.26-.27.44-.47.61-.67L54,59.9l-.09.2.33-.35c.06,0,.05,0,0,0l-.46.49a1,1,0,0,0,.28-.16c.1-.06.09-.05.09,0a.93.93,0,0,0,.26-.18,4.59,4.59,0,0,1,.44-.33l.35-.29a1,1,0,0,0,.17-.14,5.77,5.77,0,0,0,.62-.53h0l0,.06v0h0l0,.06v0l-.07.08,0,0c-.07.15-.17.28-.23.44.12,0,.12,0,.54-.32.22.08.22.08,1-.47.1,0,.12,0,.13.1a1.23,1.23,0,0,0,.57-.43,2.35,2.35,0,0,0-.32.23l0,0c.07-.14.07-.14.32-.4l0-.06a.93.93,0,0,1,.36-.53l.29-.26.11.1a2,2,0,0,0,.31-.19c-.24.32-.61.53-.81.88l.23-.16.14-.08.14.06c.65-.61,1.16-1.36,1.86-1.92a.92.92,0,0,1-.19.25c-.05.1,0,.11,0,.11a1.8,1.8,0,0,0,.53-.37l.13-.1a2.17,2.17,0,0,0,.48-.41h-.16s0,0-.06-.07a5.15,5.15,0,0,0,.7-.52s0,.06,0,.09l-.36.28,0,.09.15-.08c.08,0,.08,0,.09,0l-.1.13c.27-.07.36-.14.76-.54l0-.14a2.52,2.52,0,0,1,.25-.21l0,.14.17,0,.14-.08c0,.08,0,.09,0,.1a.89.89,0,0,0,.29-.15l.09-.11h0c.18-.23.18-.23,1-.81a1.09,1.09,0,0,0,.45-.21c.39-.31.69-.72,1.11-1l.15-.1a.87.87,0,0,1,.31-.07.07.07,0,0,1,0,0,1.15,1.15,0,0,1-.21.23l-.11.07a5.32,5.32,0,0,0-.87.59l.08,0c.37-.26.75-.51,1.13-.76l.3-.15.07-.05a2.35,2.35,0,0,0,.25-.19l-.07-.1a3.22,3.22,0,0,1,.45-.33c0,.07,0,.07,0,.08a.76.76,0,0,0,.49-.35.58.58,0,0,0-.29.05,1.73,1.73,0,0,1,.64-.39c.31-.15.6-.33.9-.49.11,0,.12,0,.13,0l.43-.22.14,0h0s0,0,0,0c.8-.34,1.62-.6,2.39-1L72,48.89l.07-.08a2,2,0,0,0,.35-.1l-.12.11v0c.17,0,.17,0,.76-.27.09,0,.1,0,.1,0,.19,0,.2,0,.76-.25"/><path class="cls-52" d="M131.67,72.63c-.26-.44-.72-.71-1-1.15l-.77.41.83,1.29a.28.28,0,0,1,.05.14.86.86,0,0,0,.17.57c.19.33.54.54.72.88a.51.51,0,0,1,.08.21c0,.08-.06.14-.07.22s.14.25.2.38.18.28.25.43l.17-.08c0-.08,0-.08,0-.45,0-.12,0-.24-.06-.36s.1,0,.13,0,.09.21.17.29a.4.4,0,0,0,.47,0,1.63,1.63,0,0,0-.46-.52c-.18-.13-.43-.18-.57-.38s0-.07-.33-.32-.21-.19-.2-.65c0-.18-.17-.27-.21-.42s.05-.07,0-.11-.08-.22-.08-.33.37.06.37.06c.22.14.26,0,.14-.18m3.19-3.7v0l-.1.07a.39.39,0,0,1,.07.17.13.13,0,0,0,0,.08l.09.12a.54.54,0,0,1,.06.18.8.8,0,0,0,.08.26s.07,0,.06-.07-.07-.19-.1-.29a.13.13,0,0,1,0-.12.11.11,0,0,0,0-.06,1.1,1.1,0,0,0-.09-.14s0-.1-.05-.14l0,0M48.45,76.3l.26-.78s0-.12,0-.16h0a.76.76,0,0,1,0-.15l0,0c-.18,0-.23.14-.34.21,0-.12.06-.23,0-.36L48.26,75c-.12.24-.27.48-.38.74h0l0,0c-.08,0-.08,0-.11,0s-.08.06-.14,0l0-.13h-.06l-.51,1.07c0,.06,0,.06.14.11-.08.16-.15.31-.22.47-.09,0-.09,0-.11,0a1.84,1.84,0,0,0-.24.43c-.07.18-.08.18-.13.17-.12.14-.22.49-.13.61s.07-.06.11-.07.06.13.06.18.21-.17.22-.18a.51.51,0,0,1,.15-.22l.38.28.09-.22c0-.11,0-.24.1-.34s.1-.07.13-.12a1.59,1.59,0,0,0,.18-.37c.09-.21.19-.4.27-.61s.1-.2.14-.3l0,0a.46.46,0,0,0,.21-.2M50.56,72l0,0h0a.3.3,0,0,0-.22.12c-.09.08-.1.07-.12.07h0a.54.54,0,0,1-.09.12s-.1.08-.14.13-.18.26-.17.36l.06,0a1.31,1.31,0,0,0,.17-.18s.06-.08.07-.07,0,0,0,0,.07,0,.09,0,0-.09.07-.13,0,0,.06-.07a2.13,2.13,0,0,0,.22-.3m-1,7.51.12-.31a6.28,6.28,0,0,1,0-.75h-.09c0,.13,0,.13-.26.38-.06-.05-.06-.05.25-.93l-.18-.09c.32-.65.32-.65.28-.89h0c0-.08,0-.17,0-.25a5,5,0,0,0,.23-1.24h-.06c-.08,0-.3-.2.22-.7a.11.11,0,0,0,.08,0,.46.46,0,0,0,.11-.16c.08-.17.26-.26.36-.42l.33-.62-.48-.28c.72-.92.72-.92.69-1h-.05l-.07,0c-.1,0-.15,0-.22-.12a4,4,0,0,0-.45.63c-.09.14-.15.3-.24.44-.16,0-.16,0-.12-.25l0,0c-.08,0-.43.46-.28.74l-.08.13-.09.17a1.7,1.7,0,0,1-.26.45c-.17,0-.19,0-.32.32a.18.18,0,0,0,.08.09l.08,0c.07.12-.06.21,0,.32a.18.18,0,0,0,.09.1,1.06,1.06,0,0,1,.17-.28V75c-.49.88-.54,1-.54,1a1.31,1.31,0,0,0,.24.17l.1-.13a4.89,4.89,0,0,1-.4,1.4c-.09.36-.09.36-.22.48l-.14-.12c0-.14,0-.14,0-.17l-.06,0,0,0a.63.63,0,0,0-.2.28l-.08,0-.1.13a.65.65,0,0,0,0,.14H48a.35.35,0,0,1,.05.08c0,.1,0,.1-.12.27a.06.06,0,0,1-.07,0c-.09.07-.09.25-.26.23h0l-.07.15a2.78,2.78,0,0,0-.09.3v0h.07L47.6,79l.06,0c.08.25.08.25.25.33,0,0,0,.33-.24.32s-.18,0-.32.12,0,0-.18,0l-.12.3a1.59,1.59,0,0,0,.37.27l.08-.17c.07.07.07.07.11.09l0,0c.25.2.25.2.41,0,0,0,0,0,.14.37l0,0c.06,0,.11,0,.24.08s.09,0,.2-.22c.21,0,.21,0,.31-.15a1.67,1.67,0,0,1,0-.43l0-.08a.31.31,0,0,1,.09-.16c.08,0,.08,0,.12,0a1.4,1.4,0,0,0,.14-.27.19.19,0,0,1,.15,0m3.91-14.73.41-.52a1.63,1.63,0,0,0,.25-.47s0,0,0,0a1.77,1.77,0,0,1,.31-.37,3.54,3.54,0,0,0,.39-.46,1.47,1.47,0,0,1-.1-.13c-.05,0-.14,0-.2.07a1,1,0,0,1-.27.14l-.1.09c0-.11.11-.25,0-.32s-.23.07-.36.1h0l-.05-.11.21-.25.23-.25c.07-.09.13-.2.2-.29h-.08l-.22.24c.09-.21.09-.21,0-.24v0c-.11,0-.23.11-.63.57v.05h0s.07-.06.12-.06-.29.53-.49.79c0-.15.05-.19,0-.31H53l-.32.39h.06a.43.43,0,0,1,.05.13l-.05.08-.42.5-.19.29,0,.06h.06s0,0,.05.12a.13.13,0,0,1,0,.07s.06,0-.05.21a1,1,0,0,0-.18.36c0,.06.11.17.11.17l.11-.08c.56-.48.56-.48.57-.47v0s.05,0,.15-.1a.63.63,0,0,1,.31-.18c.05,0,.05,0,.23.21M76.24,64a.61.61,0,0,0,0-.13l-.15-.06a.42.42,0,0,1,0-.15.61.61,0,0,1,0-.12h-.55a1.11,1.11,0,0,0-.07.16c0,.05,0,.09,0,.14l-.21.64h.27c.15,0,.14-.17.23-.24h0l.07,0,.09,0s.06,0,.08,0,.12-.14.12-.15M67.6,62.29l-.24,0,.23-.37a1.47,1.47,0,0,1,.1-.13l0-.07.15,0,.09,0h0l-.37.59m18.26,3.59c0-2.36,0-4.61,0-6.72l-.32,0h-.15c-.84.39-.8,1.35-1.3,2l-.27,0-.14.16a1.11,1.11,0,0,0,0,.18c0,.15.06.15.09.15a.57.57,0,0,1,0,.78.66.66,0,0,0-.14.38A.86.86,0,0,0,84,63c.31.58.31.58.38.63.32.44.32.44.13.74a.54.54,0,0,1-.22.11c-.39,0-.49-.1-.48-.56h-.41c-.13-.17-.13-.17-.72-.33l0-.2a2.84,2.84,0,0,1-.34-.22,2.87,2.87,0,0,0-.51,0L81.66,63a1.7,1.7,0,0,0-.57,0l-.5-.5-.06-.19-.2-.05h-.07c-.35.25-.1.61-.15.92a1.8,1.8,0,0,1,.4,0,.49.49,0,0,0,.34.47c.06.25.06.28-.14.6l-.28.08c-.16.12-.23.32-.36.47h-.13a3.41,3.41,0,0,0,.14-.81H80c-.16.1-.16.1-.39.45l-.24,0c-.27,0-.27,0-.48.27h-.21a.46.46,0,0,0-.18,0h-.21a.7.7,0,0,0-.17.38h-.28c-.05-.11-.05-.11.1-.95a7.52,7.52,0,0,1-.85.53.48.48,0,0,1-.2,0c-.29,0-.36.06-.45.25L76.2,65h-.11c-.46.14-.83.47-1.28.64-.37.88-.37.88-.85.92-.14.08-.16.08-.17.08-.21-.47-.25-.55-.07-1a2.37,2.37,0,0,1,.52,0c.05-.15.09-.29.14-.43L74.25,65a2.71,2.71,0,0,0,0-.4l-.22.06h0l-.12-.18h-.37a.47.47,0,0,0-.26.31l.19.07a8.54,8.54,0,0,1-.26.85,1.33,1.33,0,0,0-.31.53l.08,0,.09.19c0,.22,0,.24,0,.27a3,3,0,0,0-.31.7l-.2,0c-.12-.16-.11-.21-.09-.26L72.27,67a1.48,1.48,0,0,1-.61.13c-.13.27-.13.27-1.13.86-.1,0-.09,0-.07,0-.12.33.07.68,0,1,0,.08,0,.06,0,0l-.42,0c-.15-.07-.18-.07-.21-.07a.88.88,0,0,1-.36-.21l-.06,0h0a.77.77,0,0,1-.1-.44c-.48.34-.48.34-.52.57l.13.18-.06.2c0,.09.06.09.09.09l.2,0a.8.8,0,0,1,.16.38,1,1,0,0,1-.59.12l-.14.16c-.29-.41-.29-.41-.39-.48h0c-.17-.24-.16-.27,0-.79,0-.18-.13-.18-.22-.19l.18-.46a2.5,2.5,0,0,0,.35-.86l-.11-.1h0c-.12-.24-.12-.24,0-.6L68,66.43A1.13,1.13,0,0,1,68,66c.4.62.4.62.71.62l.07.21a2.09,2.09,0,0,0,.7.13c.31.27.31.27.51.32h.23l.12-.07h0c1.75-.5,1.51-1.66,1.39-2-.45-.19-.45-.19-.84-.77l-.12-.25c-.19-.21-.19-.21-.55-.15h-.11a1.1,1.1,0,0,1-.12-.39.52.52,0,0,0-.24,0,1.73,1.73,0,0,1-.21.34l-.15,0a.93.93,0,0,1,.17-.38l.06-.12a.7.7,0,0,1,0-.38c0-.07-.11-.08-.19-.09l-.17.12c-.14,0-.14,0-.52-.32l.08-.15.21,0,.21-.27,0-.21A1.94,1.94,0,0,1,69,62l0-.2h-.13l-.24.39h-.21l.16-.26.15-.16a1,1,0,0,0,.18-.2l-.47,0-.24.4a1.9,1.9,0,0,0-.2.26l-.13.09c.25-.34.25-.34.31-.55a.31.31,0,0,0-.17-.06l.2-.32,0-.05c-.32.23-.32.23-.57.22a2.35,2.35,0,0,1-.3.33l-.19.08v-.21l.16-.14s-.09-.06-.17-.08c-.44.11-.53.15-.69.47l.07.19a.36.36,0,0,1-.08.35l-.13,0-.15-.14a1.26,1.26,0,0,0-.28-.12c-.33.5-.33.5-.52.65l.2-.36a5.44,5.44,0,0,0-.19-.57,2.14,2.14,0,0,0-.21.25,2,2,0,0,1-.66.84l0-.21.1-.18a5.58,5.58,0,0,0-.6.39l0,.21-.18.29-.19-.08,0-.2a3,3,0,0,0,.26-.36,1,1,0,0,0-.39.38.69.69,0,0,0-.4.06.75.75,0,0,1-.2.33c-.34,0-.37,0-.52.19h-.09l-.26.25h-.06l-.17.15.11,0c.35-.23.35-.23.56-.19a1.35,1.35,0,0,1,.75-.24l0,.3-.21,0a8.69,8.69,0,0,0-1,1c-.46.06-1.85,1.63-1.87,1.64h0a4.85,4.85,0,0,0-1,.65l.26.08c-.37.52-1,.67-1.46,1.15l-.16-.14-.14,0-.17.24c0,.14-.17.42-1,.61-.43.67-1.12,1.13-1.54,1.81a.07.07,0,0,1-.08,0,2.78,2.78,0,0,0-.28.43l.14.05h0l.08.2a4.94,4.94,0,0,0-.66.79l.15.18c-.16,1.2-.16,1.2-.1,1.26l.12.17c.12,0,.12,0,1.32-1a.51.51,0,0,0,.34-.29l.1.19a6.79,6.79,0,0,0-.3,1.23l0,.08c-.14.14-.14.14-.2,1l-.06.16-.07.15c-.1.39,0,.83-.22,1.2l-.08.16,0,.2a.91.91,0,0,0,.52.27c.28-.56.28-.56.52-.64l.09,0,.13.15a1.86,1.86,0,0,1,.35-.22,1.14,1.14,0,0,0,.27-.44l.34.07c.05-.11.11-.27.15-.39l-.17,0-.19-.2A15.12,15.12,0,0,0,59,73.47l.07-.16.06-.19L58.68,73c.27-.55.27-.55.1-.78l.65-1.32c.56-.42,1-.92,1.55-1.38l.15-.08h0c.68-.06.68-.06,2.34-2.43a1,1,0,0,1,.39.09l0,.23a.75.75,0,0,1,.34.18l0,.21a4,4,0,0,1-.26.61l-.24,0c-.37.76-.38.78-.77,1l-.2-.1a3.79,3.79,0,0,0-2,2.54l-.09.22c0,.12-.11.28-.16.4A4.32,4.32,0,0,1,61,73.51l.08,0c.13-.08.31-.18.43-.27a.82.82,0,0,0,.61.08l.11-.17a3.83,3.83,0,0,1,.85,0l.18-.11h.16v.21a.69.69,0,0,0,.51.23v.16l-.15.14-1.38.72-.19-.07,0-.2a1.53,1.53,0,0,0-1,0L61,74.2c-.26.11-.39.38-.64.5-.09-.19-.07-.24-.05-.29h-.21l-.15.16.1.17c-.19.11-.41.19-.59.31l0,.23c.16.2.18.22.52.24l.28-.34h.21c.12.19.12.19.06.6l.13.17c-.09.36-.51.45-.65.77a.24.24,0,0,1-.23.07l-.18-.09a2.7,2.7,0,0,1,.06-.41c0-.09-.07-.09-.1-.1l.06-.19c0-.12-.07-.13-.13-.14a8.48,8.48,0,0,0-1.51,2.46l.06.17-.1.15c-1-.66-.9.17-.9.17a.66.66,0,0,1,0,.37l-.11,0a3.78,3.78,0,0,1-.3-.8c-.64.2-1.12.86-1.9.65-.1-.24-.1-.24.06-.61,0-.09-.08-.1-.14-.12l-.16.13-.21,0-.16,0-.2,0-.09.22c-.13.17-.18.16-.24.14l-.14-.15a2.86,2.86,0,0,1,.1-.42l-.11.05-.16,0c0-.09.07-.18.11-.28l.07-.2a.5.5,0,0,1,.38,0,1.13,1.13,0,0,1,.21.35l.22,0c.23-.41.68-1.44.68-1.44l-.15,0c-.37,0-.37,0-.54.27l-.12.06a.55.55,0,0,1,.26-.54l.15-.33-.2,0a11.79,11.79,0,0,0,.48-1.16l-.19-.08c-.23.34-.72.43-.83.88l0,.11c-.38.46-.43,1.08-.77,1.57a1.21,1.21,0,0,1-.09.29l-.18.34c-.05.2-.06.41-.1.62s-.09.25-.13.35l-.11,0h-.22l-.19,0a1.59,1.59,0,0,0-.37-.18,3.9,3.9,0,0,0-.79.68l-.23-.12-.06,0a.38.38,0,0,0-.26.27l.07.2-.19.51c-.22,0-.34,0-.71.39-.17.11-.19.1-.21.09L49,80.63a2.34,2.34,0,0,0-.19.46c.38.17.78.33,1.2.49,7.76,2.9,21.68,3.37,36.64,1.71-.43-5.92-.69-11.56-.76-16.67a1.74,1.74,0,0,1-.39-.11,2.23,2.23,0,0,0-.72,0l-.11,0c.26-.5,1,0,1.21-.56"/><path class="cls-52" d="M128.25,115.6l0,0,0-.08c0-.22-.08-.33-.77,0a.52.52,0,0,1-.36-.06c-.11-.1,0-.24-.06-.35-.21-.09-.39-.52-.62-.29,0,.53-.57.69-.8,1.07a7.86,7.86,0,0,1-.55,1.13c-.29.35-.82.41-1,.87a1.79,1.79,0,0,1-.68,1,1.29,1.29,0,0,1-.57.25,7.09,7.09,0,0,0,0,.8c-.33,0-.6.27-.94.29-.18,0-.27-.18-.43-.21l-.15,0-.16.07c0,.58-.34,1.12-.17,1.72,0,0,0,0,.11.07.54.16.54.16.66.29s0,.23,0,.27v.15c-.06.38-.1.57.11.68s.63-.12.95-.12l.05.14.07.06c.35-.08.68-.18,1-.27a.42.42,0,0,1,.38-.14c.63-.16,1.21-.34,1.79-.52.41-.33.35-.42.12-.8-.08-.13.08-.29.16-.35a1.23,1.23,0,0,0,.25-.46,2.84,2.84,0,0,0,.11-.48l.44-.14v-.78c.43-.14,1-.33.78-.73h-.13a3.51,3.51,0,0,1-.52.13c-.06-.14-.06-.14,0-.38v-.22c0-.23-.17-.4-.2-.62l0-.8a2.07,2.07,0,0,0,.55-.18c0-.42,0-.5.61-1m-29,5.2c0-.12-.1-.21-.14-.32l0-.16,0-.15a2.91,2.91,0,0,0-.5-.48,1.46,1.46,0,0,1-.36-.27s0-.09-.13-.4h-.25l0,0-.13.12v.18c0,.07.07.11.07.17s0,.1,0,.15,0,0,0,.06,0,0,.06.07,0,.11,0,.17.07.11.07.18,0,.07,0,.09-.06.06-.07.19a1.9,1.9,0,0,0,.22.86.27.27,0,0,0,.15.12,1.91,1.91,0,0,0,.49.17,3.52,3.52,0,0,0,.7-.13c-.06-.52-.06-.52-.07-.64m33.53-8.23.09-.19-.15-.28c0-.39,0-.79-.07-1.19,0-.14-.18-.51-.4-.4,0,0,0,0-.14.39,0,.16-.09.43-.39.44,0,0-.24.07-.3.55a.63.63,0,0,1-.42.22c0-.07,0-.15,0-.22a1.24,1.24,0,0,0-.4.23v.16c-.09.12-.12.13-.3.18-.33.1-.4.54-.4.54,0,.27,0,.54.05.81l.15.07c0-.07.08-.12.09-.2v-.31c0-.16,0-.16,0-.16s.09,0,.13-.09.06-.11.11-.15l0,0c.13-.09.13-.09.72-.26,0,.11,0,.22,0,.32,0,.38,0,.38.08.45a.24.24,0,0,0,.09,0c.08,0,.14,0,.21,0a.56.56,0,0,1,.19.09c.1,0,.1,0,.21,0s0,0,.17.12v.15c.06,0,.08,0,.13,0s.08.07.14.06.09-.06.13-.08,0-.21,0-.31-.05-.17-.11-.17,0,0-.15-.47c.05,0,.06-.13.12-.17s.1,0,.15,0c.22,0,.29-.06.29-.06m-4.49-3v0c-.06.24-.29.43-.24.72l-.15.45c0,.07-.1.1-.13.17s0,.27-.12.4-.09.06-.12.11,0,0,0,.13a2.35,2.35,0,0,1,0,.28l-.16.31c0,.07,0,.15-.08.21a.24.24,0,0,1-.14.09c-.14.06-.14.06-.17.26a.5.5,0,0,1-.36.28c-.14,0-.2.3-.25.58a.14.14,0,0,1,.09,0s.63-.13.57-.63c0,0,0-.45.81-.71a1.25,1.25,0,0,1,.42-1.26.19.19,0,0,0,.08-.15c0-.07,0-1,0-1.21m2.73,1.57c0-.16,0-.32,0-.48s-.21-.23-.34-.22-.12,0-.19-.21,0-.1,0-.14a.1.1,0,0,0-.1-.09l-.19,0c-.06,0-.12,0-.18,0a.58.58,0,0,1-.17-.43c0-.16,0-.2-.05-.22l-.29-.24a1.89,1.89,0,0,0-.34-.09c-.08,0-.1-.11-.17-.14l-.13-.07s0,0-.28,0v0c0,.67.27.56.68.42,0,.12,0,.25,0,.37s.18.37.21.58-.05.33,0,.5l0,.07c0,.09.38.19.38.19s.07,0,.32-.14c0,.07-.09.12-.09.2a.81.81,0,0,0,0,.16c0,.07-.06.12-.06.19a.29.29,0,0,0,0,.15s.18.16.55,0c.06,0,0-.1,0-.16s0,0,.1-.08a1,1,0,0,1,.28-.11m1.09-1.82a.5.5,0,0,0,0-.12A.69.69,0,0,0,132,109s-.15-.18-.25-.18a.08.08,0,0,1-.09-.07.53.53,0,0,0-.17-.29l0,0s-.24-.17-.37-.12-.06,0-.16-.15,0-.13,0-.19,0-.32-.05-.48c-.05,0-.08.07-.14.08s-.09,0-.13,0l-.14,0-.14,0c-.16.07-.16.15-.16.2s0,.11-.15.22l-.48.26.47.21.19,0s.07,0,.11,0a.9.9,0,0,1,0,.16c.08.06.19,0,.27.11s0,.43.22.52H131c.11.06.2.14.3.19s.09,0,.13,0l.11.1s0,0,.08.37l.56-.2a3.58,3.58,0,0,1,0-.47m-2.7-3.87v-.08a.38.38,0,0,0-.1-.25l0-.08,0-.08-.05-.09-.06-.1,0-.07-.07-.07-.08-.06-.1-.06h-.1l-.07,0h-.05s0,0-.17,0l-.05-.1h-.08a.24.24,0,0,0-.16,0l-.34.12,0,.08v.09l0,.09v.08l0,.1v.08l0,.08a.55.55,0,0,1,.05.17v.08l-.06.13,0,.1c0,.22.19.43.06.67l-.06.08c-.28.31-.28.31-.32.42l0,.11v.1c0,.14.16.19.44.33l.29.13.07,0c-.16.63.16.63.23.62h.11l.32-.11c0-.09,0-.18,0-.26a1.06,1.06,0,0,0-.06-.19c0-.13,0-.26-.05-.39a.91.91,0,0,1,.27-.51l0-.1.05-.13.06-.13,0-.14a1.87,1.87,0,0,0,.05-.41l0-.11v-.12M128,99.14l0-.17s-.09-.06-.1-.11a1.1,1.1,0,0,1,0-.26l-.39.12-.31.53a.69.69,0,0,0,0,.08c-.11.38-.11.38-.23.46a3,3,0,0,0,0,.53c.11.49.2,1,.3,1.45l.43-.14a2.17,2.17,0,0,1-.08-.72c0-.06,0-.07.07-.12s.05-.05.09-.28c0-.07,0-.15,0-.22.11-.22.11-.22.11-.25a1.87,1.87,0,0,1,.15-.42l.11-.31,0-.17M135.3,75a.45.45,0,0,0-.11-.13l0,0c-.18.36.23.88-.26,1.13l-.14.08,0,.08a.58.58,0,0,1-.1.09l-.16.06c-.12.61-.12.61-.24.62l-.3,0-.28-.08a2.77,2.77,0,0,1-.55-.33c-.21-.1-.44.05-.65,0a.71.71,0,0,0,0,.17,8.51,8.51,0,0,0,.57,1c.21.37,0,.8.18,1.17l0,.08-.08,0-.19-.17c0,.08,0,.08,0,.34l-.08,0c-.16.48.1.94.69,1.2l.09,0a.6.6,0,0,0,.08-.16,2.89,2.89,0,0,1,.19.35l-.36.18c0,.11.07.22.12.33s.05.12.08.19.12.45.24.65.16.36.23.53c.23.47.29.6,0,.7a4.21,4.21,0,0,0-.09,1.12c-.19-.14-.16-.39-.26-.58l-.07.08c.1.36.1.36.16.53l-.39.18c.09.22.17.43.25.64l-.09.09c-.25,0-.3-.27-.34-.45l-.13,0c0,.14,0,.14.15.72-.08.1-.09.1-.29.18l.36,1-.23.1a.41.41,0,0,1-.23-.18c-.18-.07-.18-.07-.25-.06-.13.47-.13.47-.37.52s-.26.06-.61.36c-.53.46-.53.46-.27,1.18a1.84,1.84,0,0,1-.52.27,1.39,1.39,0,0,0,.17.51c-.79.34-.37,1.19-.36,1.2s0,0,.61-.19c.07-.06.06-.08.05-.1.07.19.07.19,0,.75,0,.21-.09.7.38.76l.3-.11c-.22-.71-.26-.82-.14-1,.3-.31.45-.46.11-.75-.11-.1-.11-.1-.25-.56l-.36.1a.36.36,0,0,1-.1-.14l1.42-1.45c.15-.14.36-.18.52-.31a.25.25,0,0,1,0,.17c-.18.23-.44.38-.6.62l-.64.29.37,1.09.22-.1a2.38,2.38,0,0,0,.31-.4c.1-.22,0-.5.23-.66s.26-.2.17-.45l.05-.08c.23,0,.27.39.54.28s.18-.5.4-.67a3.35,3.35,0,0,0-.22-.56l.05-.16,1.2-.54c.06-.36.52-.55.44-1l-.32-.83a3,3,0,0,1-.06-.73l-.07-.16a2.59,2.59,0,0,0-.16-.31c0-.08-.07-.16-.1-.25l-.27-1.6c.08-.71-1.33-1.91-1.34-1.92s-.24,0-.35,0l-.11-.23.47-.24.07-.18.05,0c.38,0,.38,0,.41,0l.13.13a2.92,2.92,0,0,0,.42-.13c0-.14,0-.14-.27-.62l.48-.26c0-.19,0-.2.16-.3,0-.31-.27-.53-.3-.83.19-.22.3-.49.49-.71l.08-.05a1.54,1.54,0,0,1,.12-.13c0-.19-.17-1-.17-1m.22-1.24v0s0,0-.06,0l0,0a.48.48,0,0,1,0,.12,1.24,1.24,0,0,1,0,.16.42.42,0,0,0,0,.07.37.37,0,0,1,0,.22.48.48,0,0,0,.17,0l.13-.06s0,0,0-.22a1.4,1.4,0,0,0-.1-.36m-5.8-.83c0-.08-.11-.18-.15-.25l-.16-.25c-.13-.15-.14-.18-.16-.2a91.72,91.72,0,0,1-14.46,5.49,164.93,164.93,0,0,1-28.16,5.58c.62,8.65,1.63,17.92,3,27.09a1.36,1.36,0,0,0,.26-.41c.56-.08,1,.5,1.19,1.74l.08.51c0,2.11,2.13,3.17,2.58,5.06l0,.16c0,1.26,1.17,1.79,1.72,2.72.64.34.64.34,1.18-1,.85-.2.86-1.29.77-3.07,0-.35-.09-.66-.14-1-.18-.85-.18-.85.91-1.31.48-1.29,1.87-2,2.23-3.32a2.18,2.18,0,0,0,.45-.16c0-.4.14-.45.37-.56l.09,0h.13c.35-.19.35-.23.29-1.15a1.45,1.45,0,0,1,.77-.31l.26.06.27,0c.24-.23.53-.39.76-.62a2,2,0,0,1,.89-.34c0-.17,0-.34-.08-.51h.5a13,13,0,0,0,1.26,1.87,3.45,3.45,0,0,1,.84.52.91.91,0,0,1,0,.22,3.43,3.43,0,0,0,0,.56v0a.68.68,0,0,1,.71,0c.16,2,.16,2,.85,1.93l.28-.06a3.33,3.33,0,0,1,.8-.54.2.2,0,0,0,.07-.21l0-.17.17-.2c1,.08.71,1.28,1.44,1.58.06.25.06.25-.14.72.3.65,1,1.07,1.11,1.82.1.55-.62.78-.53,1.32l0,.16c-.07.47-.07.47,2,2.73l.44.65c0,.32.06.6.09.87.38.69,1.35.51,1.77,1.16l.76.06.15,0,.1-.21a1.87,1.87,0,0,0-.42-.32,5.59,5.59,0,0,1-.69-2v-.15a1.11,1.11,0,0,1-.07-.3,3.06,3.06,0,0,1-.09-.49s-2,.13-2.27-1.28l-.43-.25c0-.27,0-.32,0-.37a1.09,1.09,0,0,0-.49-.22c0-.27-.07-.54-.1-.81a9.61,9.61,0,0,1,.65-2.36c.43.1.58.56,1,.73a.84.84,0,0,0,.28,0,1.3,1.3,0,0,1,.43-.2c1.13,1.4,1.13,1.4,2.11,1.57,0,1.08,0,1.08.12,1.25a5.42,5.42,0,0,0,1.37-2,1.91,1.91,0,0,0,1.55-2.47c0-.31-.06-.51-.09-.71,0-.54-.46-1-.53-1.48-.44,0-.44,0-1.23-.65-.57-.28-.85-.88-1.38-1.22-.21-2.31.41-2.54,2.45-3.28a.27.27,0,0,1,.11.18c0,.5.1.81.15,1.12-.66,1.32-.66,1.32-.61,1.45a6,6,0,0,0,1.47-.26c-.08-1.4-.08-1.4-.12-1.44a2.25,2.25,0,0,1-.36-1l.24-.07.26-.07c.7-.7.7-.7.94-.81l.26-.08c1.24-.09,2.22-1.53,2.93-2.59l.18-.06H125c.05,0,2.72-5.22,1.69-6.31a4.21,4.21,0,0,1-.5,0,2.57,2.57,0,0,1-.11-.48.25.25,0,0,1,.21-.23c-1.06-2.22-1.28-2.68-2.29-2.71-.11-.25-.12-.3-.14-.35,0-.25.15-.48.17-.73s-.13-.38-.17-.49l.38-.13c.3-.58.3-.58.53-.76l.15,0a.81.81,0,0,0,.37-.31l-.07-.25a1.4,1.4,0,0,0-.75.11,4,4,0,0,0-.38-.34,2.18,2.18,0,0,0-.56.14c.11.5.11.5,0,.7l-.25,0a2.79,2.79,0,0,1-.41-.85l-.88.28c-.77-.25-.2-1-.19-1a4.65,4.65,0,0,1,.7-.28c-.12-.85.73-1.18,1-1.82.1-.13.12-.14.14-.14l.26.18a6.37,6.37,0,0,0-.19,1.76l.13-.19a1.92,1.92,0,0,1,.68-.35c.88-1.3.94-1.38,1.65-.79.1.22.12.28.14.33-.06.86-.06.86.1,1.18l.26-.09.1-.13.15-.19c.58.1.64.71,1,1a5.9,5.9,0,0,1,.4,1c-.13.58-.13.58-.11.73s.11.37.17.53l.69-.26c.16-.17.25-.38.39-.56.47-.76.47-.76.72-1-.06-.25-.15-.49-.2-.74a6.33,6.33,0,0,0-.21-.65l-.26.06c-.06,0-.16-.07-.2-.13l-1.49-2.37.21-.16.27-.16.22-.13c-.19-.46-.38-.92-.58-1.38a2.63,2.63,0,0,1-.06-.49c.18-.15.18-.15.36-1.14.1-.06.1-.06.94.07,1.53-1.29,1.18-6.27.8-7.09l-.2-.32a2.11,2.11,0,0,0-.1-.5"/><path class="cls-52" d="M80.41,137.63l-.06-.11s-.7-1.29-.74-1.33a2.51,2.51,0,0,0-1-.37v0a2.34,2.34,0,0,1,.19.48c0,.16-.2.17-.24.3s-.2.15-.21.29.13.29.15.45-.16,0-.23,0,.18.31,0,.47a2.84,2.84,0,0,1-.5,0c-.76,0-.93.21-.93.21s0,0,.18.34l0,.06c.06.1,0,.17,0,.27s0,.11.38.77c.17.29.56.39.64.75,0,0,0,0-.23,0a1.23,1.23,0,0,0,.06.53c.12.18.12.18.15.51l.07.1c.14.2.36.32.51.51l.14.19a4.54,4.54,0,0,1,.45.57l.24,0h.23c.24,0,.43.16.66.16.94,0,.94,0,1-.06.13-.27.06-.37-.24-.8a2.15,2.15,0,0,1-.23-.36c-.08-.24.16-.47,0-.72a3.59,3.59,0,0,1-.43-.73s0,0,0-.06l.57-.37c0-.35-.45-.39-.51-.7,0-.15.06-.3,0-.46l-.11-.22c-.06-.08-.13-.15-.18-.23l-.06-.11v0c.2-.21.2-.21.15-.37m-9.53-7.42,0-.1a69.75,69.75,0,0,1-16.44-2.17,38.87,38.87,0,0,1,3.07,3.91l.19.33c1.29,2.07,1.29,2.07,1.35,2.3a6.92,6.92,0,0,0,1.44,2.45,47.72,47.72,0,0,0,3.7,3.21c.36.39.69.73,1,1.07a47.34,47.34,0,0,0,5.24,3.69l.1.08c0,.1,0,.3.46.46l.21,0a2.44,2.44,0,0,0,.87.51l.88.16a2.25,2.25,0,0,0,.35-.09l1.14.16c0-.13,0-.15-.21-.25l.66-.05,0-.1a.61.61,0,0,0-.16-.16c.15-.58-.3-1.14,0-1.71-.24-.54-1-.59-1.13-1.25.14-.06.14-.06.44,0,.2-.17.17-.44.3-.63h.11l0-.11c-.64-.72-1.53-1.18-2.07-2,0,0,.21-.62.35-.64.37-.91.37-.91.83-.88,0,0,.94-.38.48-1.1a1,1,0,0,1-.21-.47l-.18-.35c-.19-.38-.19-.38-.39-.55-.3-.55-.53-1-.77-1.53-1-.57-1.22-1.79-1.93-2.61l0-.13a5.28,5.28,0,0,1-.17-.75c.22-.11.46-.7.46-.71m61.79-10.11.59-.22a.38.38,0,0,0,0-.1s0,0,0,0h-.06l-.4,0-.05.29m2.65-1.18v0l-.43.12-.24,0-.12,0a4.84,4.84,0,0,0-.63.1c-.07,0-.07,0-.2.41v-.15a1.24,1.24,0,0,0,0,.16s0,0,0,.09c.55-.21,1.08-.43,1.6-.64a1,1,0,0,1,0-.15m-.07-.52,0-.47-.35.14a1.69,1.69,0,0,1,0,.23l0-.12v.15c0,.07,0,.15,0,.22a2.79,2.79,0,0,1,.38-.15m1.12.23q2.9-1.23,5.28-2.49v0l0,0a.46.46,0,0,1-.35.06c-.34-.09-.34-.09-.36-.07l0,0h-.14c-.52.29-.59.24-.84.09a1.12,1.12,0,0,0-.53-.11.28.28,0,0,0-.12.08c-.12.11-.14.28-.26.4s-.26.11-.36.21l-.09.11a.37.37,0,0,0-.11.29c0,.48-.31.58-.75.72-.2.06-.13-.36-.33-.31s-.26.24-.42.32l-.71.31,0,.3c.07,0,.12,0,.19,0m-3.9.59,0,0-.06,0s0,0,0-.31l-.19,0-.39.14a.07.07,0,0,0,0,.05s0,0-.06.07a.29.29,0,0,0-.1,0h0s0,.11-.06.16.07.07.13.07l.13,0,.13,0a2.44,2.44,0,0,0,.26-.06l.22-.11m6.13-2.57c0-.07,0-.13,0-.19l-.23.1c0-.32,0-.33,0-.39a.27.27,0,0,1,0-.09s0-.1,0-.14l-.23.09-.14.07a.31.31,0,0,0,0,.09s0,.07,0,.1a.83.83,0,0,1,0,.15,3.25,3.25,0,0,1-.06.45l.54-.24m-23.74,8.73,0-.38c-.18,0-.18,0-.22-.08s0-.06-.22-.06-.22.09-.34,0a.53.53,0,0,1-.26-.39s0,0,0-.3a.36.36,0,0,0,0-.18c0-.06,0-.06-.35-.1l-.07.16c.06.15,0,.33.09.47s.21.21.45.41l0,0,.22.16a.81.81,0,0,0,.09.1s0,0,.19,0,.12.08.16.21l.29-.07m16.23-6.11c0-.27-.55-.43-.55-.43l-.14,0-.1,0a.59.59,0,0,0-.24.25,1.34,1.34,0,0,1-.45.51,1.09,1.09,0,0,1-.45.07c-.11,0-.22-.06-.34-.06l-.14,0a1.09,1.09,0,0,0-.32.68c0,.08,0,.1,0,.13v0c-.05.08-.05.08-.05.28s0,.14-.14.28l-.14.05s-.34.4-.11.6l1.06-.35c0-.13,0-.26,0-.4l.41-.13c0,.1,0,.21,0,.32l0,.08.9-.31v0a.92.92,0,0,0,0-.16c0-.16,0-.16-.23-.33-.09-.06-.19,0-.28,0l0-.14.05-.27a2.07,2.07,0,0,0,.4-.13c.12-.07.19-.2.31-.26s.36-.08.52-.18a.27.27,0,0,0,.12-.2m4.48-1.85,0,0,0,0h0m1.69-.12,0,0s0-.1,0-.14-.09,0-.11,0a.63.63,0,0,1,0-.27c.07-.35,0-.38,0-.44s-.45,0-.45,0c-.2.1-.3.32-.5.42a2.48,2.48,0,0,0-.37.17,2.85,2.85,0,0,0-.23.26l0-.08s-.09,0-.13.06,0,0-.26.25l0,.14a.52.52,0,0,1,.29,0s.08,0,.24-.06.2.06.21.15,0,.19.19.12l.12,0a.77.77,0,0,0,.24-.21,1.45,1.45,0,0,0,.59-.18c.05,0,.06-.1.1-.14m-1.55-.73c0-.08,0-.12,0-.13s-.13-.09-.19-.07l-.12,0a.38.38,0,0,0-.1,0s0,0,0,0h0s0,.07,0,.11l-.1.24c0,.05,0,.09,0,.14l.23.09.21-.09a1,1,0,0,0,.19-.42M112,122.92a.43.43,0,0,0,0,0h0l0,0,0,.14v0m.81.45v-.14c0-.19-.07-.26-.1-.28l0,0c-.05,0-.11,0-.16-.06a2.62,2.62,0,0,0-.25-.22.75.75,0,0,0-.21,0v0l0,0c0,.09-.13.22.28.42l.13.06a.73.73,0,0,1,.19.07,1,1,0,0,1,.15.21.26.26,0,0,0,0-.08M132.14,117v0l-.16,0c-.14.06-.14.06-.2.27-.74.27-1.49.53-2.26.79-.18.1-.2.34-.39.43a3,3,0,0,0-.49.24l-.12.1a.69.69,0,0,0-.13.63A6.12,6.12,0,0,0,129,119c.06-.06.07-.15.13-.2.24-.24.29-.25.32-.25a.16.16,0,0,0,.1,0,1.77,1.77,0,0,0,.12-.17l.27,0,.84-.3a.37.37,0,0,1,.23,0l.27.08a.63.63,0,0,0,.21-.13.31.31,0,0,0,.15-.21c.06-.14.22-.15.31-.24a1.57,1.57,0,0,0,.23-.53m2.37-.23a.22.22,0,0,0-.06-.21s-.14,0-.14-.06,0-.23,0-.35a1,1,0,0,0-.37.14,1.7,1.7,0,0,1,0-.22.29.29,0,0,1,.09-.25.31.31,0,0,0,.07-.09,1.3,1.3,0,0,0,0-.34l0,.05a3.83,3.83,0,0,1-.4.65s0,0-.15.09,0,0-.06.18v.08c0,.12.06.23.06.36l0,.43a.29.29,0,0,1-.05.13c-.12.17-.12.17-.16.87.05,0,.09,0,.14,0s.08,0,.12,0,0,0,.26-.17a4,4,0,0,0,0-.79l.06-.07a1.92,1.92,0,0,1,.56-.18,1.6,1.6,0,0,0,0-.23m-23,5.56,0-.16a1.66,1.66,0,0,0-.21-.06s0,0-.07,0a.08.08,0,0,1,0-.06.28.28,0,0,0-.06-.13s-.12-.06-.17-.08v0c0,.06,0,.11,0,.17h0a.46.46,0,0,0,.07.07s0,0,0,.09l0,.09s0,.08,0,.11,0,0,.34,0m8.11,1.69c0-.13-.19-.28-.28-.3h-.08c-.08,0-.08,0-.22,0s.25-.37,0-.45a1,1,0,0,0-.86.14s0,0-.06.3l-.43.12a1.25,1.25,0,0,1,0-.58l-.09-.07a.74.74,0,0,0-.18,0c-.84.21-.93-.24-.93-.24,0-.25,0-.5,0-.75l-.4.11h-.12c-.5.15-.46-.59-.71-.86a.53.53,0,0,1-.15.11l-.16,0c-.52.12-.68-.1-.76-.28H114a3.29,3.29,0,0,0-1.43-.69c0-.09,0-.22-.1-.3s-.45-.27-.56-.45c-.2.06-.35.23-.56.28s-.06,0-.37,0-.43-.29-.71-.2c-.51.37.83,1,.85,1a1.09,1.09,0,0,1,.75.36c.2.16.06.57.4.61s.46-.13.66.07.19.21.25.67v.15c0,.07.12.1.17.16.38.35.92.46,1.3.8s.29.64.5.92a3.26,3.26,0,0,0,.58.46c1.06-.25,2.11-.51,3.16-.78.15-.29.51-.14.72-.32V124"/></g></g><ellipse class="cls-53" cx="63.14" cy="132.38" rx="23.71" ry="23.56"/><path class="cls-54" d="M161.29,86.32c-3.38,0-5.48,0-9.47.31l.18,1.06c3.82-.26,6-.39,9.29-.39,12.21,0,19.22,1.94,19.22,5.31,0,3.91-8.64,9.74-23.71,16l-1.16.48c-15.32,6.23-35.39,12.25-56.71,17-18.93,4.22-37.05,7-51.51,8-3.82.26-7.39.39-10.64.39-12.21,0-19.22-1.93-19.22-5.3,0-3.92,8.64-9.74,23.71-16l.76-.31c-.08-.36-.19-.64-.27-1-16,6.48-25.19,12.56-25.19,17.26,0,5.2,11,6.29,20.21,6.29,3.38,0,7.1-.15,11.09-.43,14.45-1,32.47-3.8,51.27-8,22.09-4.92,41.88-11,56.52-16.88,16-6.48,25.84-12.84,25.84-17.54C181.5,87.41,170.51,86.32,161.29,86.32Z"/><path class="cls-55" d="M29.42,99.81c3.25,0,6.55.17,10.38.45,0,.31.07.66.07,1-3.66-.26-7.33-.46-10.45-.46-11.7,0-18.41,1.94-18.41,5.31,0,3.91,8.28,9.74,22.71,16l1.12.47c14.68,6.23,33.91,12.26,54.35,17,18.13,4.22,35.5,7,49.35,8,3.66.26,7.08.39,10.2.39,11.7,0,18.41-1.93,18.41-5.3,0-3.92-8.28-9.74-22.71-16-.37-.16.22.1-.15-.06.19-.37.3-.46.46-.76,15.31,6.47,23.35,12.1,23.35,16.8,0,5.2-10.53,6.29-19.36,6.29-3.24,0-6.81-.14-10.63-.42-13.84-1-31.12-3.81-49.13-8-21.16-4.92-40.13-11-54.16-16.88C19.5,117.16,10.06,110.8,10.06,106.1,10.06,100.9,20.59,99.81,29.42,99.81Z"/><path class="cls-56" d="M149.75,60.85c-3.28.9-4.19,1.19-8,2.52.22.28.38.53.59.81,3.64-1.27,4.5-1.52,7.65-2.38,11.84-3.26,19.15-3.26,20.05,0,1.05,3.77-5.76,11.69-18.69,21.71l-1,.77c-13.18,10.09-31,21.24-50.43,31.51-17.21,9.1-34,16.63-47.79,21.43-3.63,1.27-7,2.35-10.21,3.21-11.84,3.26-19.15,3.26-20,0-1.05-3.77,5.76-11.69,18.69-21.71.33-.26,2.39-1.77,2.73-2-.11-.35-.22-.59-.32-.93-13.76,10.49-23.32,20.4-22.06,24.93,1.39,5,12.34,3.13,21.27.67,3.29-.9,6.85-2,10.65-3.36,13.73-4.82,30.46-12.32,47.56-21.37C120.5,106,138.07,94.93,150.68,85.31c13.76-10.5,21.61-19.26,20.35-23.79C169.63,56.51,158.69,58.39,149.75,60.85Z"/><path class="cls-57" d="M30.66,82.43c3,1,6.48,2.43,10,3.9-.08.33-.07.57-.17.92-3.33-1.4-7.2-2.9-10.11-3.89-10.92-3.68-17.81-4-18.9-.78-1.26,3.71,4.58,11.83,16,22.29l.88.8C40,116.2,56,128,73.56,138.9,89.12,148.61,104.42,156.73,117,162c3.33,1.4,6.47,2.6,9.38,3.59,10.92,3.69,17.81,4,18.9.78,1.27-3.71-4.57-11.83-16-22.29-.29-.26-.61-.69-.91-1l.71-.49c12.2,11,18.63,19.59,17.11,24-1.68,4.92-11.86,2.63-20.1-.15-3-1-6.31-2.28-9.79-3.75-12.59-5.32-27.8-13.41-43.26-23.05-18.15-11.33-33.89-23-45.07-33.06-12.19-11-19-20-17.42-24.41C12.24,77.36,22.42,79.65,30.66,82.43Z"/><ellipse class="cls-58" cx="21.07" cy="100.82" rx="7.59" ry="7.55"/><ellipse class="cls-59" cx="132.23" cy="147.67" rx="7.59" ry="7.55"/><ellipse class="cls-60" cx="18.6" cy="127.33" rx="7.59" ry="7.55"/><path class="cls-61" d="M45.43,61.89a36.3,36.3,0,0,1,3.66,3.73c-.2.28-.2.34-.44.68a45.09,45.09,0,0,0-3.93-3.8c-7.93-7.36-13.88-10.38-16.33-8.28-2.84,2.44-1.45,11.29,3.8,24.26.14.33.28.67.41,1,5.43,13.12,14.09,29,24.49,44.81a283,283,0,0,0,27.64,36.05C87,162.8,89.24,165,91.35,167c7.93,7.37,13.88,10.39,16.32,8.28,2.84-2.44,2.7-8.09-2.55-21.07-.14-.33-.58-1.47-.72-1.81l1.16-.18c5.68,13.68,6.17,20.73,2.76,23.66-3.77,3.24-11.7-2.7-17.68-8.26-2.2-2-4.51-4.38-6.9-7a285.32,285.32,0,0,1-27.49-35.9C45.48,108.37,37,92.68,31.8,80.14c-5.68-13.67-7.46-23.58-4.05-26.52C31.52,50.38,39.45,56.33,45.43,61.89Z"/><ellipse class="cls-62" cx="91.45" cy="167.22" rx="7.59" ry="6.79"/><ellipse class="cls-63" cx="106.63" cy="112.92" rx="7.59" ry="7.55"/><path class="cls-64" d="M68.94,34.34c1.32,3,2.91,7.43,4.21,11.13l-.84.38c-1.25-3.54-3-8.2-4.28-11.13-4.77-11-9.3-16.55-12.43-15.24C52,21,49.93,31,50,47c0,.41,0,.82,0,1.23.2,16.21,2.44,36.61,6.34,57.65,3.47,18.67,7.95,36.07,12.68,49.47,1.25,3.54,2.52,6.8,3.79,9.73,4.76,11,9.29,16.55,12.42,15.24,3.64-1.52,5.67-10.13,5.59-26.11,0-.41,0-1,0-1.41.33,0,.53.07.9.07.23,16.9-1.73,26.52-6.09,28.35-4.83,2-10.13-7.46-13.73-15.76C70.6,162.42,69.28,159,68,155.32c-4.7-13.4-9.15-30.7-12.59-49.25-4-21.79-6.18-41.94-6.38-57.43-.23-16.89,1.83-28.23,6.2-30C60,16.57,65.35,26,68.94,34.34Z"/><ellipse class="cls-65" cx="64.01" cy="25.75" rx="7.61" ry="7.44" transform="translate(-1.84 5.16) rotate(-4.55)"/><ellipse class="cls-66" cx="50.99" cy="71.78" rx="7.61" ry="7.44" transform="translate(-5.53 4.27) rotate(-4.55)"/><text class="cls-67" transform="translate(1.5 91.34) scale(0.69 1)">WCS</text></g></g></g></svg>