<svg xmlns="http://www.w3.org/2000/svg" viewBox="0 0 160.4 224.56"><defs><style>.cls-1{fill:#5382a1;}.cls-2{fill:#e76f00;}</style></defs><g id="Capa_2" data-name="Capa 2"><g id="tecnologias"><rect class="cls-1" x="53.47" y="213.86" width="10.69" height="10.7"/><rect class="cls-1" x="42.77" y="213.86" width="10.7" height="10.7"/><rect class="cls-1" x="32.08" y="213.86" width="10.69" height="10.7"/><rect class="cls-1" x="117.63" y="213.86" width="10.69" height="10.7"/><rect class="cls-1" x="106.93" y="213.86" width="10.7" height="10.7"/><rect class="cls-1" x="96.24" y="213.86" width="10.69" height="10.7"/><rect class="cls-1" x="85.55" y="213.86" width="10.69" height="10.7"/><rect class="cls-1" x="74.85" y="213.86" width="10.7" height="10.7"/><rect class="cls-1" x="64.16" y="213.86" width="10.69" height="10.7"/><rect class="cls-1" x="128.32" y="213.86" width="10.69" height="10.7"/><rect class="cls-1" x="139.01" y="203.17" width="10.69" height="10.69"/><rect class="cls-1" x="149.7" y="203.17" width="10.7" height="10.69"/><rect class="cls-1" x="139.01" y="181.78" width="10.69" height="10.7"/><rect class="cls-1" x="139.01" y="192.48" width="10.69" height="10.69"/><rect class="cls-1" x="128.32" y="192.48" width="10.69" height="10.69"/><rect class="cls-1" x="117.63" y="203.17" width="10.69" height="10.69"/><rect class="cls-1" x="106.93" y="203.17" width="10.7" height="10.69"/><rect class="cls-1" x="96.24" y="203.17" width="10.69" height="10.69"/><rect class="cls-1" x="85.55" y="203.17" width="10.69" height="10.69"/><rect class="cls-1" x="74.85" y="203.17" width="10.7" height="10.69"/><rect class="cls-1" x="64.16" y="203.17" width="10.69" height="10.69"/><rect class="cls-1" x="53.47" y="203.17" width="10.69" height="10.69"/><rect class="cls-1" x="42.77" y="203.17" width="10.7" height="10.69"/><rect class="cls-1" x="32.08" y="203.17" width="10.69" height="10.69"/><rect class="cls-1" x="21.39" y="203.17" width="10.69" height="10.69"/><rect class="cls-1" x="10.7" y="192.48" width="10.69" height="10.69"/><rect class="cls-1" y="192.48" width="10.7" height="10.69"/><rect class="cls-1" x="10.7" y="181.78" width="10.69" height="10.7"/><rect class="cls-1" x="21.39" y="181.78" width="10.69" height="10.7"/><rect class="cls-1" x="96.24" y="171.09" width="10.69" height="10.69"/><rect class="cls-1" x="96.24" y="181.78" width="10.69" height="10.7"/><rect class="cls-1" x="85.55" y="181.78" width="10.69" height="10.7"/><rect class="cls-1" x="74.85" y="181.78" width="10.7" height="10.7"/><rect class="cls-1" x="64.16" y="181.78" width="10.69" height="10.7"/><rect class="cls-1" x="53.47" y="181.78" width="10.69" height="10.7"/><rect class="cls-1" x="42.77" y="171.09" width="10.7" height="10.69"/><rect class="cls-1" x="85.55" y="160.4" width="10.69" height="10.69"/><rect class="cls-1" x="74.85" y="160.4" width="10.7" height="10.69"/><rect class="cls-1" x="64.16" y="160.4" width="10.69" height="10.69"/><rect class="cls-1" x="53.47" y="160.4" width="10.69" height="10.69"/><rect class="cls-1" x="42.77" y="149.71" width="10.7" height="10.69"/><rect class="cls-1" x="32.08" y="149.71" width="10.69" height="10.69"/><rect class="cls-1" x="42.77" y="117.63" width="10.7" height="10.69"/><rect class="cls-1" x="32.08" y="117.63" width="10.69" height="10.69"/><rect class="cls-1" x="21.39" y="128.32" width="10.69" height="10.69"/><rect class="cls-1" x="32.08" y="128.32" width="10.69" height="10.69"/><rect class="cls-1" x="42.77" y="128.32" width="10.7" height="10.69"/><rect class="cls-1" x="53.47" y="128.32" width="10.69" height="10.69"/><rect class="cls-1" x="64.16" y="128.32" width="10.69" height="10.69"/><rect class="cls-1" x="74.85" y="128.32" width="10.7" height="10.69"/><rect class="cls-1" x="85.55" y="128.32" width="10.69" height="10.69"/><rect class="cls-1" x="96.24" y="128.32" width="10.69" height="10.69"/><rect class="cls-1" x="106.93" y="128.32" width="10.7" height="10.69"/><rect class="cls-1" x="117.63" y="128.32" width="10.69" height="10.69"/><rect class="cls-1" x="96.24" y="149.71" width="10.69" height="10.69"/><rect class="cls-1" x="106.93" y="149.71" width="10.7" height="10.69"/><rect class="cls-1" x="128.32" y="149.71" width="10.69" height="10.69"/><rect class="cls-1" x="139.01" y="149.71" width="10.69" height="10.69"/><rect class="cls-1" x="149.7" y="139.01" width="10.7" height="10.7"/><rect class="cls-1" x="139.01" y="117.63" width="10.69" height="10.69"/><rect class="cls-1" x="149.7" y="117.63" width="10.7" height="10.69"/><rect class="cls-1" x="149.7" y="128.32" width="10.7" height="10.69"/><rect class="cls-2" x="117.63" y="42.78" width="10.69" height="10.69"/><rect class="cls-2" x="106.93" y="53.47" width="10.7" height="10.69"/><rect class="cls-2" x="96.24" y="53.47" width="10.69" height="10.69"/><rect class="cls-2" x="96.24" y="64.16" width="10.69" height="10.69"/><rect class="cls-2" x="85.55" y="64.16" width="10.69" height="10.69"/><rect class="cls-2" x="85.55" y="74.85" width="10.69" height="10.7"/><rect class="cls-2" x="74.85" y="74.85" width="10.7" height="10.7"/><rect class="cls-2" x="74.85" y="85.55" width="10.7" height="10.69"/><rect class="cls-2" x="85.55" y="85.55" width="10.69" height="10.69"/><rect class="cls-2" x="85.55" y="96.24" width="10.69" height="10.69"/><rect class="cls-2" x="96.24" y="96.24" width="10.69" height="10.69"/><rect class="cls-2" x="96.24" y="106.93" width="10.69" height="10.7"/><rect class="cls-2" x="85.55" y="117.63" width="10.69" height="10.69"/><rect class="cls-2" x="64.16" y="106.93" width="10.69" height="10.7"/><rect class="cls-2" x="64.16" y="96.24" width="10.69" height="10.69"/><rect class="cls-2" x="53.47" y="96.24" width="10.69" height="10.69"/><rect class="cls-2" x="53.47" y="85.55" width="10.69" height="10.69"/><rect class="cls-2" x="53.47" y="74.85" width="10.69" height="10.7"/><rect class="cls-2" x="53.47" y="64.16" width="10.69" height="10.69"/><rect class="cls-2" x="64.16" y="64.16" width="10.69" height="10.69"/><rect class="cls-2" x="64.16" y="53.47" width="10.69" height="10.69"/><rect class="cls-2" x="85.55" y="32.08" width="10.69" height="10.7"/><rect class="cls-2" x="74.85" y="42.78" width="10.7" height="10.69"/><rect class="cls-2" x="74.85" y="53.47" width="10.7" height="10.69"/><rect class="cls-2" x="85.55" y="42.78" width="10.69" height="10.69"/><rect class="cls-2" x="96.24" y="32.08" width="10.69" height="10.7"/><rect class="cls-2" x="96.24" y="21.39" width="10.69" height="10.69"/><rect class="cls-2" x="96.24" y="10.7" width="10.69" height="10.69"/><rect class="cls-2" x="96.24" width="10.69" height="10.7"/></g></g></svg>