<svg xmlns="http://www.w3.org/2000/svg" viewBox="0 0 224.56 203.16"><defs><style>.cls-1{fill:#80d8f7;}</style></defs><g id="Capa_2" data-name="Capa 2"><g id="tecnologias"><rect class="cls-1" x="42.78" y="117.62" width="10.69" height="10.69"/><rect class="cls-1" x="32.08" y="117.62" width="10.7" height="10.69"/><rect class="cls-1" x="21.39" y="117.62" width="10.69" height="10.69"/><rect class="cls-1" x="10.7" y="106.93" width="10.69" height="10.69"/><rect class="cls-1" y="96.23" width="10.7" height="10.7"/><rect class="cls-1" x="10.7" y="85.54" width="10.69" height="10.69"/><rect class="cls-1" x="21.39" y="74.85" width="10.69" height="10.69"/><rect class="cls-1" x="32.08" y="74.85" width="10.7" height="10.69"/><rect class="cls-1" x="42.78" y="74.85" width="10.69" height="10.69"/><rect class="cls-1" x="160.4" y="139.01" width="10.69" height="10.69"/><rect class="cls-1" x="160.4" y="149.7" width="10.69" height="10.69"/><rect class="cls-1" x="171.09" y="160.39" width="10.69" height="10.69"/><rect class="cls-1" x="171.09" y="171.08" width="10.69" height="10.7"/><rect class="cls-1" x="160.4" y="181.78" width="10.69" height="10.69"/><rect class="cls-1" x="160.4" y="192.47" width="10.69" height="10.69"/><rect class="cls-1" x="149.71" y="192.47" width="10.69" height="10.69"/><rect class="cls-1" x="139.01" y="181.78" width="10.7" height="10.69"/><rect class="cls-1" x="128.32" y="171.08" width="10.69" height="10.7"/><rect class="cls-1" x="117.63" y="160.39" width="10.69" height="10.69"/><rect class="cls-1" x="96.24" y="139.01" width="10.69" height="10.69"/><rect class="cls-1" x="117.63" y="139.01" width="10.69" height="10.69"/><rect class="cls-1" x="106.93" y="149.7" width="10.7" height="10.69"/><rect class="cls-1" x="96.24" y="160.39" width="10.69" height="10.69"/><rect class="cls-1" x="85.55" y="171.08" width="10.69" height="10.7"/><rect class="cls-1" x="74.85" y="181.78" width="10.7" height="10.69"/><rect class="cls-1" x="64.16" y="192.47" width="10.69" height="10.69"/><rect class="cls-1" x="53.47" y="192.47" width="10.69" height="10.69"/><rect class="cls-1" x="53.47" y="181.78" width="10.69" height="10.69"/><rect class="cls-1" x="42.78" y="171.08" width="10.69" height="10.7"/><rect class="cls-1" x="42.78" y="160.39" width="10.69" height="10.69"/><rect class="cls-1" x="53.47" y="149.7" width="10.69" height="10.69"/><rect class="cls-1" x="53.47" y="139.01" width="10.69" height="10.69"/><rect class="cls-1" x="53.47" y="128.31" width="10.69" height="10.7"/><rect class="cls-1" x="85.55" y="117.62" width="10.69" height="10.69"/><rect class="cls-1" x="64.16" y="117.62" width="10.69" height="10.69"/><rect class="cls-1" x="64.16" y="106.93" width="10.69" height="10.69"/><rect class="cls-1" x="64.16" y="64.15" width="10.69" height="10.7"/><rect class="cls-1" x="74.85" y="64.15" width="10.7" height="10.7"/><rect class="cls-1" x="85.55" y="74.85" width="10.69" height="10.69"/><rect class="cls-1" x="74.85" y="85.54" width="10.7" height="10.69"/><rect class="cls-1" x="74.85" y="106.93" width="10.7" height="10.69"/><rect class="cls-1" x="74.85" y="96.23" width="10.7" height="10.7"/><rect class="cls-1" x="64.16" y="85.54" width="10.69" height="10.69"/><rect class="cls-1" x="64.16" y="74.85" width="10.69" height="10.69"/><rect class="cls-1" x="53.47" y="64.15" width="10.69" height="10.7"/><rect class="cls-1" x="53.47" y="53.46" width="10.69" height="10.69"/><rect class="cls-1" x="53.47" y="42.77" width="10.69" height="10.69"/><rect class="cls-1" x="42.78" y="32.08" width="10.69" height="10.69"/><rect class="cls-1" x="42.78" y="21.38" width="10.69" height="10.7"/><rect class="cls-1" x="53.47" y="10.69" width="10.69" height="10.69"/><rect class="cls-1" x="53.47" width="10.69" height="10.69"/><rect class="cls-1" x="64.16" width="10.69" height="10.69"/><rect class="cls-1" x="74.85" y="10.69" width="10.7" height="10.69"/><rect class="cls-1" x="85.55" y="21.38" width="10.69" height="10.7"/><rect class="cls-1" x="96.24" y="32.08" width="10.69" height="10.69"/><rect class="cls-1" x="96.24" y="106.93" width="10.69" height="10.69"/><rect class="cls-1" x="117.63" y="85.54" width="10.69" height="10.69"/><rect class="cls-1" x="96.24" y="85.54" width="10.69" height="10.69"/><rect class="cls-1" x="117.63" y="96.23" width="10.69" height="10.7"/><rect class="cls-1" x="96.24" y="96.23" width="10.69" height="10.7"/><rect class="cls-1" x="106.93" y="106.93" width="10.7" height="10.69"/><rect class="cls-1" x="106.93" y="96.23" width="10.7" height="10.7"/><rect class="cls-1" x="106.93" y="85.54" width="10.7" height="10.69"/><rect class="cls-1" x="64.16" y="128.31" width="10.69" height="10.7"/><rect class="cls-1" x="74.85" y="128.31" width="10.7" height="10.7"/><rect class="cls-1" x="85.55" y="128.31" width="10.69" height="10.7"/><rect class="cls-1" x="96.24" y="128.31" width="10.69" height="10.7"/><rect class="cls-1" x="106.93" y="128.31" width="10.7" height="10.7"/><rect class="cls-1" x="117.63" y="128.31" width="10.69" height="10.7"/><rect class="cls-1" x="128.32" y="117.62" width="10.69" height="10.69"/><rect class="cls-1" x="128.32" y="128.31" width="10.69" height="10.7"/><rect class="cls-1" x="139.01" y="128.31" width="10.7" height="10.7"/><rect class="cls-1" x="149.71" y="128.31" width="10.69" height="10.7"/><rect class="cls-1" x="160.4" y="128.31" width="10.69" height="10.7"/><rect class="cls-1" x="149.71" y="117.62" width="10.69" height="10.69"/><rect class="cls-1" x="149.71" y="106.93" width="10.69" height="10.69"/><rect class="cls-1" x="139.01" y="106.93" width="10.7" height="10.69"/><rect class="cls-1" x="139.01" y="96.23" width="10.7" height="10.7"/><rect class="cls-1" x="149.71" y="85.54" width="10.69" height="10.69"/><rect class="cls-1" x="213.86" y="96.23" width="10.7" height="10.7"/><rect class="cls-1" x="203.17" y="106.93" width="10.69" height="10.69"/><rect class="cls-1" x="203.17" y="85.54" width="10.69" height="10.69"/><rect class="cls-1" x="192.48" y="117.62" width="10.69" height="10.69"/><rect class="cls-1" x="192.48" y="74.85" width="10.69" height="10.69"/><rect class="cls-1" x="181.78" y="117.62" width="10.7" height="10.69"/><rect class="cls-1" x="181.78" y="74.85" width="10.7" height="10.69"/><rect class="cls-1" x="171.09" y="117.62" width="10.69" height="10.69"/><rect class="cls-1" x="171.09" y="74.85" width="10.69" height="10.69"/><rect class="cls-1" x="171.09" y="32.08" width="10.69" height="10.69"/><rect class="cls-1" x="171.09" y="21.38" width="10.69" height="10.7"/><rect class="cls-1" x="160.4" y="64.15" width="10.69" height="10.7"/><rect class="cls-1" x="160.4" y="53.46" width="10.69" height="10.69"/><rect class="cls-1" x="160.4" y="42.77" width="10.69" height="10.69"/><rect class="cls-1" x="160.4" y="10.69" width="10.69" height="10.69"/><rect class="cls-1" x="160.4" width="10.69" height="10.69"/><rect class="cls-1" x="149.71" y="74.85" width="10.69" height="10.69"/><rect class="cls-1" x="149.71" y="64.15" width="10.69" height="10.7"/><rect class="cls-1" x="149.71" width="10.69" height="10.69"/><rect class="cls-1" x="139.01" y="85.54" width="10.7" height="10.69"/><rect class="cls-1" x="139.01" y="64.15" width="10.7" height="10.7"/><rect class="cls-1" x="139.01" y="10.69" width="10.7" height="10.69"/><rect class="cls-1" x="128.32" y="74.85" width="10.69" height="10.69"/><rect class="cls-1" x="128.32" y="64.15" width="10.69" height="10.7"/><rect class="cls-1" x="128.32" y="21.38" width="10.69" height="10.7"/><rect class="cls-1" x="117.63" y="64.15" width="10.69" height="10.7"/><rect class="cls-1" x="117.63" y="53.46" width="10.69" height="10.69"/><rect class="cls-1" x="117.63" y="32.08" width="10.69" height="10.69"/><rect class="cls-1" x="106.93" y="64.15" width="10.7" height="10.7"/><rect class="cls-1" x="106.93" y="42.77" width="10.7" height="10.69"/><rect class="cls-1" x="96.24" y="64.15" width="10.69" height="10.7"/><rect class="cls-1" x="96.24" y="53.46" width="10.69" height="10.69"/><rect class="cls-1" x="85.55" y="64.15" width="10.69" height="10.7"/></g></g></svg>