<svg xmlns="http://www.w3.org/2000/svg" viewBox="0 0 224.56 224.56"><defs><style>.cls-1{fill:#4bb2f3;}.cls-2{fill:#1376b3;}.cls-3{fill:#2490d5;}.cls-4{fill:#3687ba;}</style></defs><g id="Capa_2" data-name="Capa 2"><g id="tecnologias"><rect class="cls-1" x="213.86" y="181.78" width="10.7" height="10.7"/><rect class="cls-1" x="213.86" y="171.09" width="10.7" height="10.69"/><rect class="cls-1" x="213.86" y="160.4" width="10.7" height="10.69"/><rect class="cls-1" x="213.86" y="149.71" width="10.7" height="10.69"/><rect class="cls-1" x="213.86" y="139.01" width="10.7" height="10.7"/><rect class="cls-1" x="213.86" y="128.32" width="10.7" height="10.69"/><rect class="cls-1" x="213.86" y="117.63" width="10.7" height="10.69"/><rect class="cls-1" x="213.86" y="106.93" width="10.7" height="10.7"/><rect class="cls-1" x="213.86" y="96.24" width="10.7" height="10.69"/><rect class="cls-1" x="213.86" y="85.55" width="10.7" height="10.69"/><rect class="cls-1" x="213.86" y="74.85" width="10.7" height="10.7"/><rect class="cls-1" x="213.86" y="64.16" width="10.7" height="10.69"/><rect class="cls-1" x="213.86" y="53.47" width="10.7" height="10.69"/><rect class="cls-1" x="213.86" y="42.78" width="10.7" height="10.69"/><rect class="cls-1" x="213.86" y="32.08" width="10.7" height="10.7"/><rect class="cls-1" x="203.17" y="192.48" width="10.69" height="10.69"/><rect class="cls-1" x="203.17" y="181.78" width="10.69" height="10.7"/><rect class="cls-1" x="203.17" y="171.09" width="10.69" height="10.69"/><rect class="cls-1" x="203.17" y="160.4" width="10.69" height="10.69"/><rect class="cls-1" x="203.17" y="149.71" width="10.69" height="10.69"/><rect class="cls-1" x="203.17" y="139.01" width="10.69" height="10.7"/><rect class="cls-1" x="203.17" y="128.32" width="10.69" height="10.69"/><rect class="cls-1" x="203.17" y="117.63" width="10.69" height="10.69"/><rect class="cls-1" x="203.17" y="106.93" width="10.69" height="10.7"/><rect class="cls-1" x="203.17" y="96.24" width="10.69" height="10.69"/><rect class="cls-1" x="203.17" y="85.55" width="10.69" height="10.69"/><rect class="cls-1" x="203.17" y="74.85" width="10.69" height="10.7"/><rect class="cls-1" x="203.17" y="64.16" width="10.69" height="10.69"/><rect class="cls-1" x="203.17" y="53.47" width="10.69" height="10.69"/><rect class="cls-1" x="203.17" y="42.78" width="10.69" height="10.69"/><rect class="cls-1" x="203.17" y="32.08" width="10.69" height="10.7"/><rect class="cls-1" x="203.17" y="21.39" width="10.69" height="10.69"/><rect class="cls-1" x="192.48" y="192.48" width="10.69" height="10.69"/><rect class="cls-1" x="192.48" y="181.78" width="10.69" height="10.7"/><rect class="cls-1" x="192.48" y="171.09" width="10.69" height="10.69"/><rect class="cls-1" x="192.48" y="160.4" width="10.69" height="10.69"/><rect class="cls-1" x="192.48" y="149.71" width="10.69" height="10.69"/><rect class="cls-1" x="192.48" y="139.01" width="10.69" height="10.7"/><rect class="cls-1" x="192.48" y="128.32" width="10.69" height="10.69"/><rect class="cls-1" x="192.48" y="117.63" width="10.69" height="10.69"/><rect class="cls-1" x="192.48" y="106.93" width="10.69" height="10.7"/><rect class="cls-1" x="192.48" y="96.24" width="10.69" height="10.69"/><rect class="cls-1" x="192.48" y="85.55" width="10.69" height="10.69"/><rect class="cls-1" x="192.48" y="74.85" width="10.69" height="10.7"/><rect class="cls-1" x="192.48" y="64.16" width="10.69" height="10.69"/><rect class="cls-1" x="192.48" y="53.47" width="10.69" height="10.69"/><rect class="cls-1" x="192.48" y="42.78" width="10.69" height="10.69"/><rect class="cls-1" x="192.48" y="32.08" width="10.69" height="10.7"/><rect class="cls-1" x="192.48" y="21.39" width="10.69" height="10.69"/><rect class="cls-1" x="181.78" y="203.17" width="10.7" height="10.69"/><rect class="cls-1" x="181.78" y="192.48" width="10.7" height="10.69"/><rect class="cls-1" x="181.78" y="181.78" width="10.7" height="10.7"/><rect class="cls-1" x="181.78" y="171.09" width="10.7" height="10.69"/><rect class="cls-1" x="181.78" y="160.4" width="10.7" height="10.69"/><rect class="cls-1" x="181.78" y="149.71" width="10.7" height="10.69"/><rect class="cls-1" x="181.78" y="139.01" width="10.7" height="10.7"/><rect class="cls-1" x="181.78" y="128.32" width="10.7" height="10.69"/><rect class="cls-1" x="181.78" y="117.63" width="10.7" height="10.69"/><rect class="cls-1" x="181.78" y="106.93" width="10.7" height="10.7"/><rect class="cls-1" x="181.78" y="96.24" width="10.7" height="10.69"/><rect class="cls-1" x="181.78" y="85.55" width="10.7" height="10.69"/><rect class="cls-1" x="181.78" y="74.85" width="10.7" height="10.7"/><rect class="cls-1" x="181.78" y="64.16" width="10.7" height="10.69"/><rect class="cls-1" x="181.78" y="53.47" width="10.7" height="10.69"/><rect class="cls-1" x="181.78" y="42.78" width="10.7" height="10.69"/><rect class="cls-1" x="181.78" y="32.08" width="10.7" height="10.7"/><rect class="cls-1" x="181.78" y="21.39" width="10.7" height="10.69"/><rect class="cls-1" x="181.78" y="10.7" width="10.7" height="10.69"/><rect class="cls-1" x="171.09" y="203.17" width="10.69" height="10.69"/><rect class="cls-1" x="171.09" y="192.48" width="10.69" height="10.69"/><rect class="cls-1" x="171.09" y="181.78" width="10.69" height="10.7"/><rect class="cls-1" x="171.09" y="171.09" width="10.69" height="10.69"/><rect class="cls-1" x="171.09" y="160.4" width="10.69" height="10.69"/><rect class="cls-1" x="171.09" y="149.71" width="10.69" height="10.69"/><rect class="cls-1" x="171.09" y="139.01" width="10.69" height="10.7"/><rect class="cls-1" x="171.09" y="128.32" width="10.69" height="10.69"/><rect class="cls-1" x="171.09" y="117.63" width="10.69" height="10.69"/><rect class="cls-1" x="171.09" y="106.93" width="10.69" height="10.7"/><rect class="cls-1" x="171.09" y="96.24" width="10.69" height="10.69"/><rect class="cls-1" x="171.09" y="85.55" width="10.69" height="10.69"/><rect class="cls-1" x="171.09" y="74.85" width="10.69" height="10.7"/><rect class="cls-1" x="171.09" y="64.16" width="10.69" height="10.69"/><rect class="cls-1" x="171.09" y="53.47" width="10.69" height="10.69"/><rect class="cls-1" x="171.09" y="42.78" width="10.69" height="10.69"/><rect class="cls-1" x="171.09" y="32.08" width="10.69" height="10.7"/><rect class="cls-1" x="171.09" y="21.39" width="10.69" height="10.69"/><rect class="cls-1" x="171.09" y="10.7" width="10.69" height="10.69"/><rect class="cls-1" x="160.4" y="213.86" width="10.69" height="10.7"/><rect class="cls-1" x="160.4" y="203.17" width="10.69" height="10.69"/><rect class="cls-1" x="160.4" y="192.48" width="10.69" height="10.69"/><rect class="cls-1" x="160.4" y="181.78" width="10.69" height="10.7"/><rect class="cls-1" x="160.4" y="171.09" width="10.69" height="10.69"/><rect class="cls-1" x="160.4" y="160.4" width="10.69" height="10.69"/><rect class="cls-1" x="160.4" y="149.71" width="10.69" height="10.69"/><rect class="cls-1" x="160.4" y="139.01" width="10.69" height="10.7"/><rect class="cls-1" x="160.4" y="128.32" width="10.69" height="10.69"/><rect class="cls-1" x="160.4" y="117.63" width="10.69" height="10.69"/><rect class="cls-1" x="160.4" y="106.93" width="10.69" height="10.7"/><rect class="cls-1" x="160.4" y="96.24" width="10.69" height="10.69"/><rect class="cls-1" x="160.4" y="85.55" width="10.69" height="10.69"/><rect class="cls-1" x="160.4" y="74.85" width="10.69" height="10.7"/><rect class="cls-1" x="160.4" y="64.16" width="10.69" height="10.69"/><rect class="cls-1" x="160.4" y="53.47" width="10.69" height="10.69"/><rect class="cls-1" x="160.4" y="42.78" width="10.69" height="10.69"/><rect class="cls-1" x="160.4" y="32.08" width="10.69" height="10.7"/><rect class="cls-1" x="160.4" y="21.39" width="10.69" height="10.69"/><rect class="cls-1" x="160.4" y="10.7" width="10.69" height="10.69"/><rect class="cls-1" x="160.4" width="10.69" height="10.7"/><rect class="cls-2" x="149.71" y="213.86" width="10.69" height="10.7"/><rect class="cls-3" x="149.71" y="203.17" width="10.69" height="10.69"/><rect class="cls-3" x="149.71" y="192.48" width="10.69" height="10.69"/><rect class="cls-3" x="149.71" y="181.78" width="10.69" height="10.7"/><rect class="cls-3" x="149.71" y="171.09" width="10.69" height="10.69"/><rect class="cls-3" x="149.71" y="160.4" width="10.69" height="10.69"/><rect class="cls-4" x="149.71" y="53.47" width="10.69" height="10.69"/><rect class="cls-4" x="149.71" y="42.78" width="10.69" height="10.69"/><rect class="cls-4" x="149.71" y="32.08" width="10.69" height="10.7"/><rect class="cls-4" x="149.71" y="21.39" width="10.69" height="10.69"/><rect class="cls-4" x="149.71" y="10.7" width="10.69" height="10.69"/><rect class="cls-4" x="149.71" width="10.69" height="10.7"/><rect class="cls-3" x="139.01" y="192.48" width="10.7" height="10.69"/><rect class="cls-3" x="139.01" y="181.78" width="10.7" height="10.7"/><rect class="cls-3" x="139.01" y="171.09" width="10.7" height="10.69"/><rect class="cls-3" x="139.01" y="160.4" width="10.7" height="10.69"/><rect class="cls-3" x="139.01" y="149.71" width="10.7" height="10.69"/><rect class="cls-4" x="139.01" y="64.16" width="10.7" height="10.69"/><rect class="cls-4" x="139.01" y="53.47" width="10.7" height="10.69"/><rect class="cls-4" x="139.01" y="42.78" width="10.7" height="10.69"/><rect class="cls-4" x="139.01" y="32.08" width="10.7" height="10.7"/><rect class="cls-4" x="139.01" y="21.39" width="10.7" height="10.69"/><rect class="cls-3" x="128.32" y="181.78" width="10.69" height="10.7"/><rect class="cls-3" x="128.32" y="171.09" width="10.69" height="10.69"/><rect class="cls-3" x="128.32" y="160.4" width="10.69" height="10.69"/><rect class="cls-3" x="128.32" y="149.71" width="10.69" height="10.69"/><rect class="cls-3" x="128.32" y="139.01" width="10.69" height="10.7"/><rect class="cls-4" x="128.32" y="64.16" width="10.69" height="10.69"/><rect class="cls-4" x="128.32" y="53.47" width="10.69" height="10.69"/><rect class="cls-4" x="128.32" y="42.78" width="10.69" height="10.69"/><rect class="cls-4" x="128.32" y="32.08" width="10.69" height="10.7"/><rect class="cls-3" x="117.63" y="171.09" width="10.69" height="10.69"/><rect class="cls-3" x="117.63" y="160.4" width="10.69" height="10.69"/><rect class="cls-3" x="117.63" y="149.71" width="10.69" height="10.69"/><rect class="cls-3" x="117.63" y="139.01" width="10.69" height="10.7"/><rect class="cls-3" x="117.63" y="128.32" width="10.69" height="10.69"/><rect class="cls-4" x="117.63" y="85.55" width="10.69" height="10.69"/><rect class="cls-4" x="117.63" y="74.85" width="10.69" height="10.7"/><rect class="cls-4" x="117.63" y="64.16" width="10.69" height="10.69"/><rect class="cls-4" x="117.63" y="53.47" width="10.69" height="10.69"/><rect class="cls-4" x="117.63" y="42.78" width="10.69" height="10.69"/><rect class="cls-3" x="106.93" y="160.4" width="10.7" height="10.69"/><rect class="cls-3" x="106.93" y="149.71" width="10.7" height="10.69"/><rect class="cls-3" x="106.93" y="139.01" width="10.7" height="10.7"/><rect class="cls-3" x="106.93" y="128.32" width="10.7" height="10.69"/><rect class="cls-4" x="106.93" y="85.55" width="10.7" height="10.69"/><rect class="cls-4" x="106.93" y="74.85" width="10.7" height="10.7"/><rect class="cls-4" x="106.93" y="64.16" width="10.7" height="10.69"/><rect class="cls-4" x="106.93" y="53.47" width="10.7" height="10.69"/><rect class="cls-3" x="96.24" y="149.71" width="10.69" height="10.69"/><rect class="cls-3" x="96.24" y="139.01" width="10.69" height="10.7"/><rect class="cls-3" x="96.24" y="128.32" width="10.69" height="10.69"/><rect class="cls-3" x="96.24" y="117.63" width="10.69" height="10.69"/><rect class="cls-4" x="96.24" y="96.24" width="10.69" height="10.69"/><rect class="cls-4" x="96.24" y="85.55" width="10.69" height="10.69"/><rect class="cls-4" x="96.24" y="74.85" width="10.69" height="10.7"/><rect class="cls-4" x="96.24" y="64.16" width="10.69" height="10.69"/><rect class="cls-3" x="85.55" y="139.01" width="10.69" height="10.7"/><rect class="cls-3" x="85.55" y="128.32" width="10.69" height="10.69"/><rect class="cls-3" x="85.55" y="117.63" width="10.69" height="10.69"/><rect class="cls-3" x="85.55" y="106.93" width="10.69" height="10.7"/><rect class="cls-4" x="85.55" y="96.24" width="10.69" height="10.69"/><rect class="cls-4" x="85.55" y="85.55" width="10.69" height="10.69"/><rect class="cls-4" x="85.55" y="74.85" width="10.69" height="10.7"/><rect class="cls-3" x="74.85" y="128.32" width="10.7" height="10.69"/><rect class="cls-3" x="74.85" y="117.63" width="10.7" height="10.69"/><rect class="cls-3" x="74.85" y="106.93" width="10.7" height="10.7"/><rect class="cls-3" x="74.85" y="96.24" width="10.7" height="10.69"/><rect class="cls-4" x="74.85" y="85.55" width="10.7" height="10.69"/><rect class="cls-3" x="64.16" y="128.32" width="10.69" height="10.69"/><rect class="cls-3" x="64.16" y="117.63" width="10.69" height="10.69"/><rect class="cls-3" x="64.16" y="106.93" width="10.69" height="10.7"/><rect class="cls-3" x="64.16" y="96.24" width="10.69" height="10.69"/><rect class="cls-3" x="64.16" y="85.55" width="10.69" height="10.69"/><rect class="cls-2" x="53.47" y="128.32" width="10.69" height="10.69"/><rect class="cls-3" x="53.47" y="117.63" width="10.69" height="10.69"/><rect class="cls-3" x="53.47" y="106.93" width="10.69" height="10.7"/><rect class="cls-3" x="53.47" y="96.24" width="10.69" height="10.69"/><rect class="cls-3" x="53.47" y="85.55" width="10.69" height="10.69"/><rect class="cls-2" x="42.78" y="139.01" width="10.69" height="10.7"/><rect class="cls-2" x="42.78" y="128.32" width="10.69" height="10.69"/><rect class="cls-2" x="42.78" y="117.63" width="10.69" height="10.69"/><rect class="cls-3" x="42.78" y="96.24" width="10.69" height="10.69"/><rect class="cls-3" x="42.78" y="85.55" width="10.69" height="10.69"/><rect class="cls-3" x="42.78" y="74.85" width="10.69" height="10.7"/><rect class="cls-2" x="32.08" y="149.71" width="10.7" height="10.69"/><rect class="cls-2" x="32.08" y="139.01" width="10.7" height="10.7"/><rect class="cls-2" x="32.08" y="128.32" width="10.7" height="10.69"/><rect class="cls-3" x="32.08" y="85.55" width="10.7" height="10.69"/><rect class="cls-3" x="32.08" y="74.85" width="10.7" height="10.7"/><rect class="cls-3" x="32.08" y="64.16" width="10.7" height="10.69"/><rect class="cls-2" x="21.39" y="160.4" width="10.69" height="10.69"/><rect class="cls-2" x="21.39" y="149.71" width="10.69" height="10.69"/><rect class="cls-2" x="21.39" y="139.01" width="10.69" height="10.7"/><rect class="cls-2" x="21.39" y="128.32" width="10.69" height="10.69"/><rect class="cls-3" x="21.39" y="85.55" width="10.69" height="10.69"/><rect class="cls-3" x="21.39" y="74.85" width="10.69" height="10.7"/><rect class="cls-3" x="21.39" y="64.16" width="10.69" height="10.69"/><rect class="cls-3" x="21.39" y="53.47" width="10.69" height="10.69"/><rect class="cls-2" x="10.7" y="160.4" width="10.69" height="10.69"/><rect class="cls-2" x="10.7" y="149.71" width="10.69" height="10.69"/><rect class="cls-2" x="10.7" y="139.01" width="10.69" height="10.7"/><rect class="cls-3" x="10.7" y="74.85" width="10.69" height="10.7"/><rect class="cls-3" x="10.7" y="64.16" width="10.69" height="10.69"/><rect class="cls-3" x="10.7" y="53.47" width="10.69" height="10.69"/><rect class="cls-2" y="160.4" width="10.7" height="10.69"/><rect class="cls-2" y="149.71" width="10.7" height="10.69"/><rect class="cls-2" y="139.01" width="10.7" height="10.7"/><rect class="cls-3" y="74.85" width="10.7" height="10.7"/><rect class="cls-3" y="64.16" width="10.7" height="10.69"/><rect class="cls-3" y="53.47" width="10.7" height="10.69"/></g></g></svg>