<svg id="balloon-sm" xmlns="http://www.w3.org/2000/svg" viewBox="0 0 1010 857.64"><defs><style>.cls-1{fill:#e2e2e2;}.cls-2{fill:#2c2c2c;}.cls-3{fill:#a2a2a2;}.cls-4{fill:#f2f2f2;}</style></defs><path d="M355.25,27.2H342.46v32h12.79V52.8H368v6.4h-6.4v6.39H336.06V59.2h-6.39v-32h6.39V20.8h25.58v6.4H368v6.4H355.25Z"/><path d="M394.45,59.2v6.39H381.66V59.2h-6.39V20.8h12.79V59.2Z"/><path d="M414.47,27.2H401.68V20.8h12.79Zm0,6.4v32H401.68v-32Z"/><path d="M447.28,40H434.49V59.2h12.79V52.8h12.79v6.4h-6.4v6.39H428.09V59.2H421.7V40h6.39V33.6h25.58V40h6.4v6.4H447.28Z"/><path d="M328.42,91.2v38.39H315.63V104H302.84v25.59H290.05V91.2h6.39V84.8H322v6.4Zm-12.79,0H302.84v6.4h12.79Z"/><path d="M374,136H361.23V123.2H342v-6.4h-6.39V104H342V97.6h32ZM361.23,110.4h-6.4V104h-6.39v12.8h12.79Z"/><path d="M419.62,129.59h-32V123.2h-6.39V97.6H394v25.6h12.79V97.6h12.79Z"/><path d="M439.64,91.2H426.85V84.8h12.79Zm0,6.4v32H426.85v-32Z"/><path d="M459.66,116.8H446.87v-32h12.79Zm0,6.4v6.39H446.87V123.2Z"/><path d="M479.67,116.8H466.88v-32h12.79Zm0,6.4v6.39H466.88V123.2Z"/><path d="M499.69,116.8H486.9v-32h12.79Zm0,6.4v6.39H486.9V123.2Z"/><rect class="cls-1" x="553.12" y="118.12" width="10.69" height="10.69"/><rect class="cls-1" x="553.12" y="107.43" width="10.69" height="10.69"/><rect class="cls-1" x="542.42" y="118.12" width="10.7" height="10.69"/><rect class="cls-1" x="531.73" y="118.12" width="10.69" height="10.69"/><rect class="cls-2" x="585.2" y="107.43" width="10.69" height="10.69"/><rect class="cls-2" x="585.2" y="96.73" width="10.69" height="10.7"/><rect class="cls-2" x="585.2" y="86.04" width="10.69" height="10.69"/><rect class="cls-2" x="585.2" y="75.35" width="10.69" height="10.69"/><rect class="cls-2" x="585.2" y="64.65" width="10.69" height="10.7"/><rect class="cls-2" x="585.2" y="53.96" width="10.69" height="10.69"/><rect class="cls-2" x="574.5" y="128.81" width="10.7" height="10.7"/><rect class="cls-2" x="574.5" y="118.12" width="10.7" height="10.69"/><rect class="cls-3" x="574.5" y="107.43" width="10.7" height="10.69"/><rect class="cls-4" x="574.5" y="96.73" width="10.7" height="10.7"/><rect class="cls-4" x="574.5" y="86.04" width="10.7" height="10.69"/><rect class="cls-4" x="574.5" y="75.35" width="10.7" height="10.69"/><rect class="cls-4" x="574.5" y="64.65" width="10.7" height="10.7"/><rect class="cls-4" x="574.5" y="53.96" width="10.7" height="10.69"/><rect class="cls-2" x="574.5" y="43.27" width="10.7" height="10.69"/><rect class="cls-2" x="574.5" y="32.57" width="10.7" height="10.7"/><rect class="cls-2" x="563.81" y="139.51" width="10.69" height="10.69"/><rect class="cls-3" x="563.81" y="128.81" width="10.69" height="10.7"/><rect class="cls-3" x="563.81" y="118.12" width="10.69" height="10.69"/><rect class="cls-3" x="563.81" y="107.43" width="10.69" height="10.69"/><rect class="cls-4" x="563.81" y="96.73" width="10.69" height="10.7"/><rect class="cls-4" x="563.81" y="86.04" width="10.69" height="10.69"/><rect class="cls-4" x="563.81" y="75.35" width="10.69" height="10.69"/><rect class="cls-4" x="563.81" y="64.65" width="10.69" height="10.7"/><rect class="cls-4" x="563.81" y="53.96" width="10.69" height="10.69"/><rect class="cls-4" x="563.81" y="43.27" width="10.69" height="10.69"/><rect class="cls-4" x="563.81" y="32.57" width="10.69" height="10.7"/><rect class="cls-2" x="563.81" y="21.88" width="10.69" height="10.69"/><rect class="cls-2" x="563.81" y="11.19" width="10.69" height="10.69"/><rect class="cls-3" x="553.12" y="128.81" width="10.69" height="10.7"/><rect class="cls-3" x="542.42" y="128.81" width="10.7" height="10.7"/><rect class="cls-1" x="253.71" y="118.12" width="10.69" height="10.69"/><rect class="cls-3" x="243.02" y="128.81" width="10.69" height="10.7"/><rect class="cls-1" x="243.02" y="118.12" width="10.69" height="10.69"/><rect class="cls-3" x="232.32" y="128.81" width="10.7" height="10.7"/><rect class="cls-1" x="232.32" y="118.12" width="10.7" height="10.69"/><rect class="cls-1" x="232.32" y="107.43" width="10.7" height="10.69"/><rect class="cls-2" x="221.63" y="139.51" width="10.69" height="10.69"/><rect class="cls-3" x="221.63" y="128.81" width="10.69" height="10.7"/><rect class="cls-3" x="221.63" y="118.12" width="10.69" height="10.69"/><rect class="cls-3" x="221.63" y="107.43" width="10.69" height="10.69"/><rect class="cls-4" x="221.63" y="96.73" width="10.69" height="10.7"/><rect class="cls-4" x="221.63" y="86.04" width="10.69" height="10.69"/><rect class="cls-4" x="221.63" y="75.35" width="10.69" height="10.69"/><rect class="cls-4" x="221.63" y="64.65" width="10.69" height="10.7"/><rect class="cls-4" x="221.63" y="53.96" width="10.69" height="10.69"/><rect class="cls-4" x="221.63" y="43.27" width="10.69" height="10.69"/><rect class="cls-4" x="221.63" y="32.57" width="10.69" height="10.7"/><rect class="cls-2" x="221.63" y="21.88" width="10.69" height="10.69"/><rect class="cls-2" x="221.63" y="11.19" width="10.69" height="10.69"/><rect class="cls-2" x="210.94" y="128.81" width="10.69" height="10.7"/><rect class="cls-2" x="210.94" y="118.12" width="10.69" height="10.69"/><rect class="cls-3" x="210.94" y="107.43" width="10.69" height="10.69"/><rect class="cls-4" x="210.94" y="96.73" width="10.69" height="10.7"/><rect class="cls-4" x="210.94" y="86.04" width="10.69" height="10.69"/><rect class="cls-4" x="210.94" y="75.35" width="10.69" height="10.69"/><rect class="cls-4" x="210.94" y="64.65" width="10.69" height="10.7"/><rect class="cls-4" x="210.94" y="53.96" width="10.69" height="10.69"/><rect class="cls-2" x="210.94" y="43.27" width="10.69" height="10.69"/><rect class="cls-2" x="210.94" y="32.57" width="10.69" height="10.7"/><rect class="cls-2" x="200.25" y="107.43" width="10.69" height="10.69"/><rect class="cls-2" x="200.25" y="96.73" width="10.69" height="10.7"/><rect class="cls-2" x="200.25" y="86.04" width="10.69" height="10.69"/><rect class="cls-2" x="200.25" y="75.35" width="10.69" height="10.69"/><rect class="cls-2" x="200.25" y="64.65" width="10.69" height="10.7"/><rect class="cls-2" x="200.25" y="53.96" width="10.69" height="10.69"/></svg>