<svg xmlns="http://www.w3.org/2000/svg" viewBox="0 0 223.97 53.47"><defs><style>.cls-1{fill:#e85f63;}</style></defs><g id="Capa_2" data-name="Capa 2"><g id="tecnologias"><rect class="cls-1" x="194.76" width="9.74" height="10.7"/><rect class="cls-1" x="204.49" y="10.7" width="9.74" height="10.69"/><rect class="cls-1" x="214.23" y="21.39" width="9.74" height="10.69"/><rect class="cls-1" x="204.49" y="32.08" width="9.74" height="10.7"/><rect class="cls-1" x="194.76" y="42.78" width="9.74" height="10.69"/><rect class="cls-1" x="175.28" y="21.39" width="9.74" height="10.69"/><rect class="cls-1" x="175.28" y="10.7" width="9.74" height="10.69"/><rect class="cls-1" x="165.54" y="32.08" width="9.74" height="10.7"/><rect class="cls-1" x="165.54" width="9.74" height="10.7"/><rect class="cls-1" x="155.81" y="42.78" width="9.74" height="10.69"/><rect class="cls-1" x="155.81" y="32.08" width="9.74" height="10.7"/><rect class="cls-1" x="155.81" y="21.39" width="9.74" height="10.69"/><rect class="cls-1" x="155.81" y="10.7" width="9.74" height="10.69"/><rect class="cls-1" x="155.81" width="9.74" height="10.7"/><rect class="cls-1" x="136.33" y="42.78" width="9.74" height="10.69"/><rect class="cls-1" x="136.33" y="32.08" width="9.74" height="10.7"/><rect class="cls-1" x="136.33" y="21.39" width="9.74" height="10.69"/><rect class="cls-1" x="136.33" y="10.7" width="9.74" height="10.69"/><rect class="cls-1" x="136.33" width="9.74" height="10.7"/><rect class="cls-1" x="126.59" y="32.08" width="9.74" height="10.7"/><rect class="cls-1" x="126.59" width="9.74" height="10.7"/><rect class="cls-1" x="116.86" y="42.78" width="9.74" height="10.69"/><rect class="cls-1" x="116.86" y="32.08" width="9.74" height="10.7"/><rect class="cls-1" x="116.86" y="21.39" width="9.74" height="10.69"/><rect class="cls-1" x="116.86" y="10.7" width="9.74" height="10.69"/><rect class="cls-1" x="116.86" width="9.74" height="10.7"/><rect class="cls-1" x="97.38" y="32.08" width="9.74" height="10.7"/><rect class="cls-1" x="97.38" y="21.39" width="9.74" height="10.69"/><rect class="cls-1" x="97.38" y="10.7" width="9.74" height="10.69"/><rect class="cls-1" x="87.64" y="42.78" width="9.74" height="10.69"/><rect class="cls-1" x="87.64" width="9.74" height="10.7"/><rect class="cls-1" x="77.9" y="32.08" width="9.74" height="10.7"/><rect class="cls-1" x="77.9" y="21.39" width="9.74" height="10.69"/><rect class="cls-1" x="77.9" y="10.7" width="9.74" height="10.69"/><rect class="cls-1" x="58.43" y="32.08" width="9.74" height="10.7"/><rect class="cls-1" x="58.43" y="21.39" width="9.74" height="10.69"/><rect class="cls-1" x="58.43" width="9.74" height="10.7"/><rect class="cls-1" x="48.69" y="42.78" width="9.74" height="10.69"/><rect class="cls-1" x="48.69" y="21.39" width="9.74" height="10.69"/><rect class="cls-1" x="48.69" width="9.74" height="10.7"/><rect class="cls-1" x="38.95" y="42.78" width="9.74" height="10.69"/><rect class="cls-1" x="38.95" y="21.39" width="9.74" height="10.69"/><rect class="cls-1" x="38.95" y="10.7" width="9.74" height="10.69"/><rect class="cls-1" x="19.48" y="42.78" width="9.74" height="10.69"/><rect class="cls-1" x="19.48" width="9.74" height="10.7"/><rect class="cls-1" x="9.74" y="32.08" width="9.74" height="10.7"/><rect class="cls-1" x="9.74" y="10.7" width="9.74" height="10.69"/><rect class="cls-1" y="21.39" width="9.74" height="10.69"/></g></g></svg>