<svg xmlns="http://www.w3.org/2000/svg" viewBox="0 0 224.56 224.56"><defs><style>.cls-1{fill:#00758f;}</style></defs><g id="Capa_2" data-name="Capa 2"><g id="tecnologias"><rect class="cls-1" y="21.39" width="10.7" height="10.69"/><rect class="cls-1" x="213.86" y="213.86" width="10.7" height="10.7"/><rect class="cls-1" x="203.17" y="203.17" width="10.69" height="10.69"/><rect class="cls-1" x="203.17" y="171.09" width="10.69" height="10.69"/><rect class="cls-1" x="192.48" y="192.48" width="10.69" height="10.69"/><rect class="cls-1" x="192.48" y="171.09" width="10.69" height="10.69"/><rect class="cls-1" x="192.48" y="160.4" width="10.69" height="10.69"/><rect class="cls-1" x="181.78" y="192.48" width="10.7" height="10.69"/><rect class="cls-1" x="181.78" y="171.09" width="10.7" height="10.69"/><rect class="cls-1" x="181.78" y="149.71" width="10.7" height="10.69"/><rect class="cls-1" x="171.09" y="181.78" width="10.69" height="10.7"/><rect class="cls-1" x="171.09" y="171.09" width="10.69" height="10.69"/><rect class="cls-1" x="171.09" y="139.01" width="10.69" height="10.7"/><rect class="cls-1" x="160.4" y="139.01" width="10.69" height="10.7"/><rect class="cls-1" x="149.71" y="128.32" width="10.69" height="10.69"/><rect class="cls-1" x="139.01" y="117.63" width="10.7" height="10.69"/><rect class="cls-1" x="139.01" y="106.93" width="10.7" height="10.7"/><rect class="cls-1" x="128.32" y="96.24" width="10.69" height="10.69"/><rect class="cls-1" x="128.32" y="85.55" width="10.69" height="10.69"/><rect class="cls-1" x="117.63" y="74.85" width="10.69" height="10.7"/><rect class="cls-1" x="117.63" y="64.16" width="10.69" height="10.69"/><rect class="cls-1" x="106.93" y="53.47" width="10.7" height="10.69"/><rect class="cls-1" x="96.24" y="42.78" width="10.69" height="10.69"/><rect class="cls-1" x="85.55" y="160.4" width="10.69" height="10.69"/><rect class="cls-1" x="85.55" y="32.08" width="10.69" height="10.7"/><rect class="cls-1" x="74.85" y="149.71" width="10.7" height="10.69"/><rect class="cls-1" x="74.85" y="139.01" width="10.7" height="10.7"/><rect class="cls-1" x="74.85" y="32.08" width="10.7" height="10.7"/><rect class="cls-1" x="64.16" y="128.32" width="10.69" height="10.69"/><rect class="cls-1" x="64.16" y="21.39" width="10.69" height="10.69"/><rect class="cls-1" x="53.47" y="149.71" width="10.69" height="10.69"/><rect class="cls-1" x="53.47" y="139.01" width="10.69" height="10.7"/><rect class="cls-1" x="53.47" y="128.32" width="10.69" height="10.69"/><rect class="cls-1" x="53.47" y="117.63" width="10.69" height="10.69"/><rect class="cls-1" x="53.47" y="42.78" width="10.69" height="10.69"/><rect class="cls-1" x="53.47" y="21.39" width="10.69" height="10.69"/><rect class="cls-1" x="42.78" y="149.71" width="10.69" height="10.69"/><rect class="cls-1" x="42.78" y="85.55" width="10.69" height="10.69"/><rect class="cls-1" x="42.78" y="21.39" width="10.69" height="10.69"/><rect class="cls-1" x="32.08" y="139.01" width="10.7" height="10.7"/><rect class="cls-1" x="32.08" y="128.32" width="10.7" height="10.69"/><rect class="cls-1" x="32.08" y="117.63" width="10.7" height="10.69"/><rect class="cls-1" x="32.08" y="106.93" width="10.7" height="10.7"/><rect class="cls-1" x="32.08" y="96.24" width="10.7" height="10.69"/><rect class="cls-1" x="32.08" y="74.85" width="10.7" height="10.7"/><rect class="cls-1" x="32.08" y="64.16" width="10.7" height="10.69"/><rect class="cls-1" x="32.08" y="10.7" width="10.7" height="10.69"/><rect class="cls-1" x="21.39" y="53.47" width="10.69" height="10.69"/><rect class="cls-1" x="21.39" y="42.78" width="10.69" height="10.69"/><rect class="cls-1" x="21.39" y="10.7" width="10.69" height="10.69"/><rect class="cls-1" x="10.7" y="32.08" width="10.69" height="10.7"/><rect class="cls-1" x="10.7" width="10.69" height="10.7"/><rect class="cls-1" y="10.7" width="10.7" height="10.69"/></g></g></svg>