<svg xmlns="http://www.w3.org/2000/svg" viewBox="0 0 224.56 224.56"><defs><style>.cls-1{fill:#007acd;}.cls-2{fill:#fff;}</style></defs><g id="Capa_2" data-name="Capa 2"><g id="tecnologias"><rect class="cls-1" x="85.54" y="192.48" width="10.7" height="10.69"/><rect class="cls-1" x="213.87" y="203.17" width="10.69" height="10.7"/><rect class="cls-1" x="213.87" y="192.48" width="10.69" height="10.69"/><rect class="cls-1" x="213.87" y="181.79" width="10.69" height="10.69"/><rect class="cls-1" x="213.87" y="171.09" width="10.69" height="10.7"/><rect class="cls-1" x="213.87" y="160.4" width="10.69" height="10.69"/><rect class="cls-1" x="213.87" y="149.71" width="10.69" height="10.69"/><rect class="cls-1" x="213.87" y="139.02" width="10.69" height="10.69"/><rect class="cls-1" x="213.87" y="128.32" width="10.69" height="10.7"/><rect class="cls-1" x="213.87" y="117.63" width="10.69" height="10.69"/><rect class="cls-1" x="213.87" y="106.93" width="10.69" height="10.69"/><rect class="cls-1" x="213.87" y="96.23" width="10.69" height="10.7"/><rect class="cls-1" x="213.87" y="85.54" width="10.69" height="10.69"/><rect class="cls-1" x="213.87" y="74.85" width="10.69" height="10.69"/><rect class="cls-1" x="213.87" y="64.15" width="10.69" height="10.7"/><rect class="cls-1" x="213.87" y="53.46" width="10.69" height="10.69"/><rect class="cls-1" x="213.87" y="42.77" width="10.69" height="10.69"/><rect class="cls-1" x="213.87" y="32.08" width="10.69" height="10.69"/><rect class="cls-1" x="213.87" y="21.38" width="10.69" height="10.7"/><rect class="cls-1" x="213.87" y="10.69" width="10.69" height="10.69"/><rect class="cls-1" x="203.18" y="213.87" width="10.69" height="10.69"/><rect class="cls-1" x="203.18" y="203.17" width="10.69" height="10.7"/><rect class="cls-1" x="203.18" y="192.48" width="10.69" height="10.69"/><rect class="cls-1" x="203.18" y="181.79" width="10.69" height="10.69"/><rect class="cls-1" x="203.18" y="171.09" width="10.69" height="10.7"/><rect class="cls-1" x="203.18" y="160.4" width="10.69" height="10.69"/><rect class="cls-1" x="203.18" y="149.71" width="10.69" height="10.69"/><rect class="cls-1" x="203.18" y="139.02" width="10.69" height="10.69"/><rect class="cls-1" x="203.18" y="128.32" width="10.69" height="10.7"/><rect class="cls-1" x="203.18" y="117.63" width="10.69" height="10.69"/><rect class="cls-1" x="203.18" y="106.93" width="10.69" height="10.69"/><rect class="cls-1" x="203.18" y="96.23" width="10.69" height="10.7"/><rect class="cls-1" x="203.18" y="85.54" width="10.69" height="10.69"/><rect class="cls-1" x="203.18" y="74.85" width="10.69" height="10.69"/><rect class="cls-1" x="203.18" y="64.15" width="10.69" height="10.7"/><rect class="cls-1" x="203.18" y="53.46" width="10.69" height="10.69"/><rect class="cls-1" x="203.18" y="42.77" width="10.69" height="10.69"/><rect class="cls-1" x="203.18" y="32.08" width="10.69" height="10.69"/><rect class="cls-1" x="203.18" y="21.38" width="10.69" height="10.7"/><rect class="cls-1" x="203.18" y="10.69" width="10.69" height="10.69"/><rect class="cls-1" x="203.18" width="10.69" height="10.69"/><rect class="cls-1" x="192.48" y="213.87" width="10.7" height="10.69"/><rect class="cls-1" x="192.48" y="203.17" width="10.7" height="10.7"/><rect class="cls-1" x="192.48" y="192.48" width="10.7" height="10.69"/><rect class="cls-2" x="192.48" y="181.79" width="10.7" height="10.69"/><rect class="cls-2" x="192.48" y="171.09" width="10.7" height="10.7"/><rect class="cls-2" x="192.48" y="160.4" width="10.7" height="10.69"/><rect class="cls-1" x="192.48" y="149.71" width="10.7" height="10.69"/><rect class="cls-1" x="192.48" y="139.02" width="10.7" height="10.69"/><rect class="cls-1" x="192.48" y="128.32" width="10.7" height="10.7"/><rect class="cls-2" x="192.48" y="117.63" width="10.7" height="10.69"/><rect class="cls-2" x="192.48" y="106.93" width="10.7" height="10.69"/><rect class="cls-1" x="192.48" y="96.23" width="10.7" height="10.7"/><rect class="cls-1" x="192.48" y="85.54" width="10.7" height="10.69"/><rect class="cls-1" x="192.48" y="74.85" width="10.7" height="10.69"/><rect class="cls-1" x="192.48" y="64.15" width="10.7" height="10.7"/><rect class="cls-1" x="192.48" y="53.46" width="10.7" height="10.69"/><rect class="cls-1" x="192.48" y="42.77" width="10.7" height="10.69"/><rect class="cls-1" x="192.48" y="32.08" width="10.7" height="10.69"/><rect class="cls-1" x="192.48" y="21.38" width="10.7" height="10.7"/><rect class="cls-1" x="192.48" y="10.69" width="10.7" height="10.69"/><rect class="cls-1" x="192.48" width="10.7" height="10.69"/><rect class="cls-1" x="181.79" y="213.87" width="10.69" height="10.69"/><rect class="cls-1" x="181.79" y="203.17" width="10.69" height="10.7"/><rect class="cls-2" x="181.79" y="192.48" width="10.69" height="10.69"/><rect class="cls-2" x="181.79" y="181.79" width="10.69" height="10.69"/><rect class="cls-2" x="181.79" y="171.09" width="10.69" height="10.7"/><rect class="cls-2" x="181.79" y="160.4" width="10.69" height="10.69"/><rect class="cls-2" x="181.79" y="149.71" width="10.69" height="10.69"/><rect class="cls-1" x="181.79" y="139.02" width="10.69" height="10.69"/><rect class="cls-1" x="181.79" y="128.32" width="10.69" height="10.7"/><rect class="cls-2" x="181.79" y="117.63" width="10.69" height="10.69"/><rect class="cls-2" x="181.79" y="106.93" width="10.69" height="10.69"/><rect class="cls-2" x="181.79" y="96.23" width="10.69" height="10.7"/><rect class="cls-1" x="181.79" y="85.54" width="10.69" height="10.69"/><rect class="cls-1" x="181.79" y="74.85" width="10.69" height="10.69"/><rect class="cls-1" x="181.79" y="64.15" width="10.69" height="10.7"/><rect class="cls-1" x="181.79" y="53.46" width="10.69" height="10.69"/><rect class="cls-1" x="181.79" y="42.77" width="10.69" height="10.69"/><rect class="cls-1" x="181.79" y="32.08" width="10.69" height="10.69"/><rect class="cls-1" x="181.79" y="21.38" width="10.69" height="10.7"/><rect class="cls-1" x="181.79" y="10.69" width="10.69" height="10.69"/><rect class="cls-1" x="181.79" width="10.69" height="10.69"/><rect class="cls-1" x="171.1" y="213.87" width="10.69" height="10.69"/><rect class="cls-1" x="171.1" y="203.17" width="10.69" height="10.7"/><rect class="cls-2" x="171.1" y="192.48" width="10.69" height="10.69"/><rect class="cls-2" x="171.1" y="181.79" width="10.69" height="10.69"/><rect class="cls-1" x="171.1" y="171.09" width="10.69" height="10.7"/><rect class="cls-2" x="171.1" y="160.4" width="10.69" height="10.69"/><rect class="cls-2" x="171.1" y="149.71" width="10.69" height="10.69"/><rect class="cls-2" x="171.1" y="139.02" width="10.69" height="10.69"/><rect class="cls-1" x="171.1" y="128.32" width="10.69" height="10.7"/><rect class="cls-1" x="171.1" y="117.63" width="10.69" height="10.69"/><rect class="cls-2" x="171.1" y="106.93" width="10.69" height="10.69"/><rect class="cls-2" x="171.1" y="96.23" width="10.69" height="10.7"/><rect class="cls-1" x="171.1" y="85.54" width="10.69" height="10.69"/><rect class="cls-1" x="171.1" y="74.85" width="10.69" height="10.69"/><rect class="cls-1" x="171.1" y="64.15" width="10.69" height="10.7"/><rect class="cls-1" x="171.1" y="53.46" width="10.69" height="10.69"/><rect class="cls-1" x="171.1" y="42.77" width="10.69" height="10.69"/><rect class="cls-1" x="171.1" y="32.08" width="10.69" height="10.69"/><rect class="cls-1" x="171.1" y="21.38" width="10.69" height="10.7"/><rect class="cls-1" x="171.1" y="10.69" width="10.69" height="10.69"/><rect class="cls-1" x="171.1" width="10.69" height="10.69"/><rect class="cls-1" x="160.41" y="213.87" width="10.69" height="10.69"/><rect class="cls-1" x="160.41" y="203.17" width="10.69" height="10.7"/><rect class="cls-2" x="160.41" y="192.48" width="10.69" height="10.69"/><rect class="cls-2" x="160.41" y="181.79" width="10.69" height="10.69"/><rect class="cls-1" x="160.41" y="171.09" width="10.69" height="10.7"/><rect class="cls-1" x="160.41" y="160.4" width="10.69" height="10.69"/><rect class="cls-2" x="160.41" y="149.71" width="10.69" height="10.69"/><rect class="cls-2" x="160.41" y="139.02" width="10.69" height="10.69"/><rect class="cls-1" x="160.41" y="128.32" width="10.69" height="10.7"/><rect class="cls-1" x="160.41" y="117.63" width="10.69" height="10.69"/><rect class="cls-2" x="160.41" y="106.93" width="10.69" height="10.69"/><rect class="cls-2" x="160.41" y="96.23" width="10.69" height="10.7"/><rect class="cls-1" x="160.41" y="85.54" width="10.69" height="10.69"/><rect class="cls-1" x="160.41" y="74.85" width="10.69" height="10.69"/><rect class="cls-1" x="160.41" y="64.15" width="10.69" height="10.7"/><rect class="cls-1" x="160.41" y="53.46" width="10.69" height="10.69"/><rect class="cls-1" x="160.41" y="42.77" width="10.69" height="10.69"/><rect class="cls-1" x="160.41" y="32.08" width="10.69" height="10.69"/><rect class="cls-1" x="160.41" y="21.38" width="10.69" height="10.7"/><rect class="cls-1" x="160.41" y="10.69" width="10.69" height="10.69"/><rect class="cls-1" x="160.41" width="10.69" height="10.69"/><rect class="cls-1" x="149.71" y="213.87" width="10.7" height="10.69"/><rect class="cls-1" x="149.71" y="203.17" width="10.7" height="10.7"/><rect class="cls-2" x="149.71" y="192.48" width="10.7" height="10.69"/><rect class="cls-2" x="149.71" y="181.79" width="10.7" height="10.69"/><rect class="cls-2" x="149.71" y="171.09" width="10.7" height="10.7"/><rect class="cls-1" x="149.71" y="160.4" width="10.7" height="10.69"/><rect class="cls-1" x="149.71" y="149.71" width="10.7" height="10.69"/><rect class="cls-2" x="149.71" y="139.02" width="10.7" height="10.69"/><rect class="cls-2" x="149.71" y="128.32" width="10.7" height="10.7"/><rect class="cls-2" x="149.71" y="117.63" width="10.7" height="10.69"/><rect class="cls-2" x="149.71" y="106.93" width="10.7" height="10.69"/><rect class="cls-2" x="149.71" y="96.23" width="10.7" height="10.7"/><rect class="cls-1" x="149.71" y="85.54" width="10.7" height="10.69"/><rect class="cls-1" x="149.71" y="74.85" width="10.7" height="10.69"/><rect class="cls-1" x="149.71" y="64.15" width="10.7" height="10.7"/><rect class="cls-1" x="149.71" y="53.46" width="10.7" height="10.69"/><rect class="cls-1" x="149.71" y="42.77" width="10.7" height="10.69"/><rect class="cls-1" x="149.71" y="32.08" width="10.7" height="10.69"/><rect class="cls-1" x="149.71" y="21.38" width="10.7" height="10.7"/><rect class="cls-1" x="149.71" y="10.69" width="10.7" height="10.69"/><rect class="cls-1" x="149.71" width="10.7" height="10.69"/><rect class="cls-1" x="139.02" y="213.87" width="10.69" height="10.69"/><rect class="cls-1" x="139.02" y="203.17" width="10.69" height="10.7"/><rect class="cls-1" x="139.02" y="192.48" width="10.69" height="10.69"/><rect class="cls-2" x="139.02" y="181.79" width="10.69" height="10.69"/><rect class="cls-2" x="139.02" y="171.09" width="10.69" height="10.7"/><rect class="cls-1" x="139.02" y="160.4" width="10.69" height="10.69"/><rect class="cls-1" x="139.02" y="149.71" width="10.69" height="10.69"/><rect class="cls-2" x="139.02" y="139.02" width="10.69" height="10.69"/><rect class="cls-2" x="139.02" y="128.32" width="10.69" height="10.7"/><rect class="cls-2" x="139.02" y="117.63" width="10.69" height="10.69"/><rect class="cls-2" x="139.02" y="106.93" width="10.69" height="10.69"/><rect class="cls-1" x="139.02" y="96.23" width="10.69" height="10.7"/><rect class="cls-1" x="139.02" y="85.54" width="10.69" height="10.69"/><rect class="cls-1" x="139.02" y="74.85" width="10.69" height="10.69"/><rect class="cls-1" x="139.02" y="64.15" width="10.69" height="10.7"/><rect class="cls-1" x="139.02" y="53.46" width="10.69" height="10.69"/><rect class="cls-1" x="139.02" y="42.77" width="10.69" height="10.69"/><rect class="cls-1" x="139.02" y="32.08" width="10.69" height="10.69"/><rect class="cls-1" x="139.02" y="21.38" width="10.69" height="10.7"/><rect class="cls-1" x="139.02" y="10.69" width="10.69" height="10.69"/><rect class="cls-1" x="139.02" width="10.69" height="10.69"/><rect class="cls-1" x="128.33" y="213.87" width="10.69" height="10.69"/><rect class="cls-1" x="128.33" y="203.17" width="10.69" height="10.7"/><rect class="cls-1" x="128.33" y="192.48" width="10.69" height="10.69"/><rect class="cls-1" x="128.33" y="181.79" width="10.69" height="10.69"/><rect class="cls-1" x="128.33" y="171.09" width="10.69" height="10.7"/><rect class="cls-1" x="128.33" y="160.4" width="10.69" height="10.69"/><rect class="cls-1" x="128.33" y="149.71" width="10.69" height="10.69"/><rect class="cls-1" x="128.33" y="139.02" width="10.69" height="10.69"/><rect class="cls-1" x="128.33" y="128.32" width="10.69" height="10.7"/><rect class="cls-1" x="128.33" y="117.63" width="10.69" height="10.69"/><rect class="cls-1" x="128.33" y="106.93" width="10.69" height="10.69"/><rect class="cls-1" x="128.33" y="96.23" width="10.69" height="10.7"/><rect class="cls-1" x="128.33" y="85.54" width="10.69" height="10.69"/><rect class="cls-1" x="128.33" y="74.85" width="10.69" height="10.69"/><rect class="cls-1" x="128.33" y="64.15" width="10.69" height="10.7"/><rect class="cls-1" x="128.33" y="53.46" width="10.69" height="10.69"/><rect class="cls-1" x="128.33" y="42.77" width="10.69" height="10.69"/><rect class="cls-1" x="128.33" y="32.08" width="10.69" height="10.69"/><rect class="cls-1" x="128.33" y="21.38" width="10.69" height="10.7"/><rect class="cls-1" x="128.33" y="10.69" width="10.69" height="10.69"/><rect class="cls-1" x="128.33" width="10.69" height="10.69"/><rect class="cls-1" x="117.63" y="213.87" width="10.7" height="10.69"/><rect class="cls-1" x="117.63" y="203.17" width="10.7" height="10.7"/><rect class="cls-1" x="117.63" y="192.48" width="10.7" height="10.69"/><rect class="cls-1" x="117.63" y="181.79" width="10.7" height="10.69"/><rect class="cls-1" x="117.63" y="171.09" width="10.7" height="10.7"/><rect class="cls-1" x="117.63" y="160.4" width="10.7" height="10.69"/><rect class="cls-1" x="117.63" y="149.71" width="10.7" height="10.69"/><rect class="cls-1" x="117.63" y="139.02" width="10.7" height="10.69"/><rect class="cls-1" x="117.63" y="128.32" width="10.7" height="10.7"/><rect class="cls-1" x="117.63" y="117.63" width="10.7" height="10.69"/><rect class="cls-1" x="117.63" y="106.93" width="10.7" height="10.69"/><rect class="cls-2" x="117.63" y="96.23" width="10.7" height="10.7"/><rect class="cls-1" x="117.63" y="85.54" width="10.7" height="10.69"/><rect class="cls-1" x="117.63" y="74.85" width="10.7" height="10.69"/><rect class="cls-1" x="117.63" y="64.15" width="10.7" height="10.7"/><rect class="cls-1" x="117.63" y="53.46" width="10.7" height="10.69"/><rect class="cls-1" x="117.63" y="42.77" width="10.7" height="10.69"/><rect class="cls-1" x="117.63" y="32.08" width="10.7" height="10.69"/><rect class="cls-1" x="117.63" y="21.38" width="10.7" height="10.7"/><rect class="cls-1" x="117.63" y="10.69" width="10.7" height="10.69"/><rect class="cls-1" x="117.63" width="10.7" height="10.69"/><rect class="cls-1" x="106.93" y="213.87" width="10.69" height="10.69"/><rect class="cls-1" x="106.93" y="203.17" width="10.69" height="10.7"/><rect class="cls-1" x="106.93" y="192.48" width="10.69" height="10.69"/><rect class="cls-1" x="106.93" y="181.79" width="10.69" height="10.69"/><rect class="cls-1" x="106.93" y="171.09" width="10.69" height="10.7"/><rect class="cls-1" x="106.93" y="160.4" width="10.69" height="10.69"/><rect class="cls-1" x="106.93" y="149.71" width="10.69" height="10.69"/><rect class="cls-1" x="106.93" y="139.02" width="10.69" height="10.69"/><rect class="cls-1" x="106.93" y="128.32" width="10.69" height="10.7"/><rect class="cls-1" x="106.93" y="117.63" width="10.69" height="10.69"/><rect class="cls-2" x="106.93" y="106.93" width="10.69" height="10.69"/><rect class="cls-2" x="106.93" y="96.23" width="10.69" height="10.7"/><rect class="cls-1" x="106.93" y="85.54" width="10.69" height="10.69"/><rect class="cls-1" x="106.93" y="74.85" width="10.69" height="10.69"/><rect class="cls-1" x="106.93" y="64.15" width="10.69" height="10.7"/><rect class="cls-1" x="106.93" y="53.46" width="10.69" height="10.69"/><rect class="cls-1" x="106.93" y="42.77" width="10.69" height="10.69"/><rect class="cls-1" x="106.93" y="32.08" width="10.69" height="10.69"/><rect class="cls-1" x="106.93" y="21.38" width="10.69" height="10.7"/><rect class="cls-1" x="106.93" y="10.69" width="10.69" height="10.69"/><rect class="cls-1" x="106.93" width="10.69" height="10.69"/><rect class="cls-1" x="96.24" y="213.87" width="10.69" height="10.69"/><rect class="cls-1" x="96.24" y="203.17" width="10.69" height="10.7"/><rect class="cls-1" x="96.24" y="192.48" width="10.69" height="10.69"/><rect class="cls-1" x="96.24" y="181.79" width="10.69" height="10.69"/><rect class="cls-1" x="96.24" y="171.09" width="10.69" height="10.7"/><rect class="cls-1" x="96.24" y="160.4" width="10.69" height="10.69"/><rect class="cls-1" x="96.24" y="149.71" width="10.69" height="10.69"/><rect class="cls-1" x="96.24" y="139.02" width="10.69" height="10.69"/><rect class="cls-1" x="96.24" y="128.32" width="10.69" height="10.7"/><rect class="cls-1" x="96.24" y="117.63" width="10.69" height="10.69"/><rect class="cls-2" x="96.24" y="106.93" width="10.69" height="10.69"/><rect class="cls-2" x="96.24" y="96.23" width="10.69" height="10.7"/><rect class="cls-1" x="96.24" y="85.54" width="10.69" height="10.69"/><rect class="cls-1" x="96.24" y="74.85" width="10.69" height="10.69"/><rect class="cls-1" x="96.24" y="64.15" width="10.69" height="10.7"/><rect class="cls-1" x="96.24" y="53.46" width="10.69" height="10.69"/><rect class="cls-1" x="96.24" y="42.77" width="10.69" height="10.69"/><rect class="cls-1" x="96.24" y="32.08" width="10.69" height="10.69"/><rect class="cls-1" x="96.24" y="21.38" width="10.69" height="10.7"/><rect class="cls-1" x="96.24" y="10.69" width="10.69" height="10.69"/><rect class="cls-1" x="96.24" width="10.69" height="10.69"/><rect class="cls-1" x="85.54" y="213.87" width="10.7" height="10.69"/><rect class="cls-1" x="85.54" y="203.17" width="10.7" height="10.7"/><rect class="cls-2" x="85.54" y="181.79" width="10.7" height="10.69"/><rect class="cls-2" x="85.54" y="171.09" width="10.7" height="10.7"/><rect class="cls-2" x="85.54" y="160.4" width="10.7" height="10.69"/><rect class="cls-2" x="85.54" y="149.71" width="10.7" height="10.69"/><rect class="cls-2" x="85.54" y="139.02" width="10.7" height="10.69"/><rect class="cls-2" x="85.54" y="128.32" width="10.7" height="10.7"/><rect class="cls-2" x="85.54" y="117.63" width="10.7" height="10.69"/><rect class="cls-2" x="85.54" y="106.93" width="10.7" height="10.69"/><rect class="cls-2" x="85.54" y="96.23" width="10.7" height="10.7"/><rect class="cls-1" x="85.54" y="85.54" width="10.7" height="10.69"/><rect class="cls-1" x="85.54" y="74.85" width="10.7" height="10.69"/><rect class="cls-1" x="85.54" y="64.15" width="10.7" height="10.7"/><rect class="cls-1" x="85.54" y="53.46" width="10.7" height="10.69"/><rect class="cls-1" x="85.54" y="42.77" width="10.7" height="10.69"/><rect class="cls-1" x="85.54" y="32.08" width="10.7" height="10.69"/><rect class="cls-1" x="85.54" y="21.38" width="10.7" height="10.7"/><rect class="cls-1" x="85.54" y="10.69" width="10.7" height="10.69"/><rect class="cls-1" x="85.54" width="10.7" height="10.69"/><rect class="cls-1" x="74.85" y="213.87" width="10.69" height="10.69"/><rect class="cls-1" x="74.85" y="203.17" width="10.69" height="10.7"/><rect class="cls-2" x="74.85" y="192.48" width="10.69" height="10.69"/><rect class="cls-2" x="74.85" y="181.79" width="10.69" height="10.69"/><rect class="cls-2" x="74.85" y="171.09" width="10.69" height="10.7"/><rect class="cls-2" x="74.85" y="160.4" width="10.69" height="10.69"/><rect class="cls-2" x="74.85" y="149.71" width="10.69" height="10.69"/><rect class="cls-2" x="74.85" y="139.02" width="10.69" height="10.69"/><rect class="cls-2" x="74.85" y="128.32" width="10.69" height="10.7"/><rect class="cls-2" x="74.85" y="117.63" width="10.69" height="10.69"/><rect class="cls-2" x="74.85" y="106.93" width="10.69" height="10.69"/><rect class="cls-2" x="74.85" y="96.23" width="10.69" height="10.7"/><rect class="cls-1" x="74.85" y="85.54" width="10.69" height="10.69"/><rect class="cls-1" x="74.85" y="74.85" width="10.69" height="10.69"/><rect class="cls-1" x="74.85" y="64.15" width="10.69" height="10.7"/><rect class="cls-1" x="74.85" y="53.46" width="10.69" height="10.69"/><rect class="cls-1" x="74.85" y="42.77" width="10.69" height="10.69"/><rect class="cls-1" x="74.85" y="32.08" width="10.69" height="10.69"/><rect class="cls-1" x="74.85" y="21.38" width="10.69" height="10.7"/><rect class="cls-1" x="74.85" y="10.69" width="10.69" height="10.69"/><rect class="cls-1" x="74.85" width="10.69" height="10.69"/><rect class="cls-1" x="64.16" y="213.87" width="10.69" height="10.69"/><rect class="cls-1" x="64.16" y="203.17" width="10.69" height="10.7"/><rect class="cls-1" x="64.16" y="192.48" width="10.69" height="10.69"/><rect class="cls-1" x="64.16" y="181.79" width="10.69" height="10.69"/><rect class="cls-1" x="64.16" y="171.09" width="10.69" height="10.7"/><rect class="cls-1" x="64.16" y="160.4" width="10.69" height="10.69"/><rect class="cls-1" x="64.16" y="149.71" width="10.69" height="10.69"/><rect class="cls-1" x="64.16" y="139.02" width="10.69" height="10.69"/><rect class="cls-1" x="64.16" y="128.32" width="10.69" height="10.7"/><rect class="cls-1" x="64.16" y="117.63" width="10.69" height="10.69"/><rect class="cls-2" x="64.16" y="106.93" width="10.69" height="10.69"/><rect class="cls-2" x="64.16" y="96.23" width="10.69" height="10.7"/><rect class="cls-1" x="64.16" y="85.54" width="10.69" height="10.69"/><rect class="cls-1" x="64.16" y="74.85" width="10.69" height="10.69"/><rect class="cls-1" x="64.16" y="64.15" width="10.69" height="10.7"/><rect class="cls-1" x="64.16" y="53.46" width="10.69" height="10.69"/><rect class="cls-1" x="64.16" y="42.77" width="10.69" height="10.69"/><rect class="cls-1" x="64.16" y="32.08" width="10.69" height="10.69"/><rect class="cls-1" x="64.16" y="21.38" width="10.69" height="10.7"/><rect class="cls-1" x="64.16" y="10.69" width="10.69" height="10.69"/><rect class="cls-1" x="64.16" width="10.69" height="10.69"/><rect class="cls-1" x="53.46" y="213.87" width="10.7" height="10.69"/><rect class="cls-1" x="53.46" y="203.17" width="10.7" height="10.7"/><rect class="cls-1" x="53.46" y="192.48" width="10.7" height="10.69"/><rect class="cls-1" x="53.46" y="181.79" width="10.7" height="10.69"/><rect class="cls-1" x="53.46" y="171.09" width="10.7" height="10.7"/><rect class="cls-1" x="53.46" y="160.4" width="10.7" height="10.69"/><rect class="cls-1" x="53.46" y="149.71" width="10.7" height="10.69"/><rect class="cls-1" x="53.46" y="139.02" width="10.7" height="10.69"/><rect class="cls-1" x="53.46" y="128.32" width="10.7" height="10.7"/><rect class="cls-1" x="53.46" y="117.63" width="10.7" height="10.69"/><rect class="cls-2" x="53.46" y="106.93" width="10.7" height="10.69"/><rect class="cls-2" x="53.46" y="96.23" width="10.7" height="10.7"/><rect class="cls-1" x="53.46" y="85.54" width="10.7" height="10.69"/><rect class="cls-1" x="53.46" y="74.85" width="10.7" height="10.69"/><rect class="cls-1" x="53.46" y="64.15" width="10.7" height="10.7"/><rect class="cls-1" x="53.46" y="53.46" width="10.7" height="10.69"/><rect class="cls-1" x="53.46" y="42.77" width="10.7" height="10.69"/><rect class="cls-1" x="53.46" y="32.08" width="10.7" height="10.69"/><rect class="cls-1" x="53.46" y="21.38" width="10.7" height="10.7"/><rect class="cls-1" x="53.46" y="10.69" width="10.7" height="10.69"/><rect class="cls-1" x="53.46" width="10.7" height="10.69"/><rect class="cls-1" x="42.77" y="213.87" width="10.69" height="10.69"/><rect class="cls-1" x="42.77" y="203.17" width="10.69" height="10.7"/><rect class="cls-1" x="42.77" y="192.48" width="10.69" height="10.69"/><rect class="cls-1" x="42.77" y="181.79" width="10.69" height="10.69"/><rect class="cls-1" x="42.77" y="171.09" width="10.69" height="10.7"/><rect class="cls-1" x="42.77" y="160.4" width="10.69" height="10.69"/><rect class="cls-1" x="42.77" y="149.71" width="10.69" height="10.69"/><rect class="cls-1" x="42.77" y="139.02" width="10.69" height="10.69"/><rect class="cls-1" x="42.77" y="128.32" width="10.69" height="10.7"/><rect class="cls-1" x="42.77" y="117.63" width="10.69" height="10.69"/><rect class="cls-2" x="42.77" y="106.93" width="10.69" height="10.69"/><rect class="cls-1" x="42.77" y="96.23" width="10.69" height="10.7"/><rect class="cls-1" x="42.77" y="85.54" width="10.69" height="10.69"/><rect class="cls-1" x="42.77" y="74.85" width="10.69" height="10.69"/><rect class="cls-1" x="42.77" y="64.15" width="10.69" height="10.7"/><rect class="cls-1" x="42.77" y="53.46" width="10.69" height="10.69"/><rect class="cls-1" x="42.77" y="42.77" width="10.69" height="10.69"/><rect class="cls-1" x="42.77" y="32.08" width="10.69" height="10.69"/><rect class="cls-1" x="42.77" y="21.38" width="10.69" height="10.7"/><rect class="cls-1" x="42.77" y="10.69" width="10.69" height="10.69"/><rect class="cls-1" x="42.77" width="10.69" height="10.69"/><rect class="cls-1" x="32.08" y="213.87" width="10.69" height="10.69"/><rect class="cls-1" x="32.08" y="203.17" width="10.69" height="10.7"/><rect class="cls-1" x="32.08" y="192.48" width="10.69" height="10.69"/><rect class="cls-1" x="32.08" y="181.79" width="10.69" height="10.69"/><rect class="cls-1" x="32.08" y="171.09" width="10.69" height="10.7"/><rect class="cls-1" x="32.08" y="160.4" width="10.69" height="10.69"/><rect class="cls-1" x="32.08" y="149.71" width="10.69" height="10.69"/><rect class="cls-1" x="32.08" y="139.02" width="10.69" height="10.69"/><rect class="cls-1" x="32.08" y="128.32" width="10.69" height="10.7"/><rect class="cls-1" x="32.08" y="117.63" width="10.69" height="10.69"/><rect class="cls-1" x="32.08" y="106.93" width="10.69" height="10.69"/><rect class="cls-1" x="32.08" y="96.23" width="10.69" height="10.7"/><rect class="cls-1" x="32.08" y="85.54" width="10.69" height="10.69"/><rect class="cls-1" x="32.08" y="74.85" width="10.69" height="10.69"/><rect class="cls-1" x="32.08" y="64.15" width="10.69" height="10.7"/><rect class="cls-1" x="32.08" y="53.46" width="10.69" height="10.69"/><rect class="cls-1" x="32.08" y="42.77" width="10.69" height="10.69"/><rect class="cls-1" x="32.08" y="32.08" width="10.69" height="10.69"/><rect class="cls-1" x="32.08" y="21.38" width="10.69" height="10.7"/><rect class="cls-1" x="32.08" y="10.69" width="10.69" height="10.69"/><rect class="cls-1" x="32.08" width="10.69" height="10.69"/><rect class="cls-1" x="21.39" y="213.87" width="10.69" height="10.69"/><rect class="cls-1" x="21.39" y="203.17" width="10.69" height="10.7"/><rect class="cls-1" x="21.39" y="192.48" width="10.69" height="10.69"/><rect class="cls-1" x="21.39" y="181.79" width="10.69" height="10.69"/><rect class="cls-1" x="21.39" y="171.09" width="10.69" height="10.7"/><rect class="cls-1" x="21.39" y="160.4" width="10.69" height="10.69"/><rect class="cls-1" x="21.39" y="149.71" width="10.69" height="10.69"/><rect class="cls-1" x="21.39" y="139.02" width="10.69" height="10.69"/><rect class="cls-1" x="21.39" y="128.32" width="10.69" height="10.7"/><rect class="cls-1" x="21.39" y="117.63" width="10.69" height="10.69"/><rect class="cls-1" x="21.39" y="106.93" width="10.69" height="10.69"/><rect class="cls-1" x="21.39" y="96.23" width="10.69" height="10.7"/><rect class="cls-1" x="21.39" y="85.54" width="10.69" height="10.69"/><rect class="cls-1" x="21.39" y="74.85" width="10.69" height="10.69"/><rect class="cls-1" x="21.39" y="64.15" width="10.69" height="10.7"/><rect class="cls-1" x="21.39" y="53.46" width="10.69" height="10.69"/><rect class="cls-1" x="21.39" y="42.77" width="10.69" height="10.69"/><rect class="cls-1" x="21.39" y="32.08" width="10.69" height="10.69"/><rect class="cls-1" x="21.39" y="21.38" width="10.69" height="10.7"/><rect class="cls-1" x="21.39" y="10.69" width="10.69" height="10.69"/><rect class="cls-1" x="21.39" width="10.69" height="10.69"/><rect class="cls-1" x="10.69" y="213.87" width="10.7" height="10.69"/><rect class="cls-1" x="10.69" y="203.17" width="10.7" height="10.7"/><rect class="cls-1" x="10.69" y="192.48" width="10.7" height="10.69"/><rect class="cls-1" x="10.69" y="181.79" width="10.7" height="10.69"/><rect class="cls-1" x="10.69" y="171.09" width="10.7" height="10.7"/><rect class="cls-1" x="10.69" y="160.4" width="10.7" height="10.69"/><rect class="cls-1" x="10.69" y="149.71" width="10.7" height="10.69"/><rect class="cls-1" x="10.69" y="139.02" width="10.7" height="10.69"/><rect class="cls-1" x="10.69" y="128.32" width="10.7" height="10.7"/><rect class="cls-1" x="10.69" y="117.63" width="10.7" height="10.69"/><rect class="cls-1" x="10.69" y="106.93" width="10.7" height="10.69"/><rect class="cls-1" x="10.69" y="96.23" width="10.7" height="10.7"/><rect class="cls-1" x="10.69" y="85.54" width="10.7" height="10.69"/><rect class="cls-1" x="10.69" y="74.85" width="10.7" height="10.69"/><rect class="cls-1" x="10.69" y="64.15" width="10.7" height="10.7"/><rect class="cls-1" x="10.69" y="53.46" width="10.7" height="10.69"/><rect class="cls-1" x="10.69" y="42.77" width="10.7" height="10.69"/><rect class="cls-1" x="10.69" y="32.08" width="10.7" height="10.69"/><rect class="cls-1" x="10.69" y="21.38" width="10.7" height="10.7"/><rect class="cls-1" x="10.69" y="10.69" width="10.7" height="10.69"/><rect class="cls-1" x="10.69" width="10.7" height="10.69"/><rect class="cls-1" y="203.17" width="10.69" height="10.7"/><rect class="cls-1" y="192.48" width="10.69" height="10.69"/><rect class="cls-1" y="181.79" width="10.69" height="10.69"/><rect class="cls-1" y="171.09" width="10.69" height="10.7"/><rect class="cls-1" y="160.4" width="10.69" height="10.69"/><rect class="cls-1" y="149.71" width="10.69" height="10.69"/><rect class="cls-1" y="139.02" width="10.69" height="10.69"/><rect class="cls-1" y="128.32" width="10.69" height="10.7"/><rect class="cls-1" y="117.63" width="10.69" height="10.69"/><rect class="cls-1" y="106.93" width="10.69" height="10.69"/><rect class="cls-1" y="96.23" width="10.69" height="10.7"/><rect class="cls-1" y="85.54" width="10.69" height="10.69"/><rect class="cls-1" y="74.85" width="10.69" height="10.69"/><rect class="cls-1" y="64.15" width="10.69" height="10.7"/><rect class="cls-1" y="53.46" width="10.69" height="10.69"/><rect class="cls-1" y="42.77" width="10.69" height="10.69"/><rect class="cls-1" y="32.08" width="10.69" height="10.69"/><rect class="cls-1" y="21.38" width="10.69" height="10.7"/><rect class="cls-1" y="10.69" width="10.69" height="10.69"/></g></g></svg>